<?xml version="1.0" encoding="UTF-8"?>
<svg width="1413" height="98" viewBox="0 0 1413 98" fill="none" xmlns="http://www.w3.org/2000/svg">
<g clip-path="url(#clip0_17_454)">
<path d="M175.378 83.7881V83.6758C175.26 82.2028 174.563 80.8365 173.442 79.8743C172.32 78.9121 170.864 78.4319 169.39 78.5384C167.838 78.5055 166.327 79.0359 165.136 80.0314C164.415 77.8896 163.016 76.0412 161.15 74.7664C159.284 73.4916 157.054 72.86 154.797 72.9675C149.402 72.9675 144.955 76.4192 144.281 80.8823H144.024C137.378 80.8823 131.999 85.4899 131.999 91.1732C131.999 91.5425 131.999 91.8956 131.999 92.2488C131.185 92.3686 130.413 92.6897 129.755 93.1831C129.096 93.6766 128.571 94.3266 128.227 95.0744H183.486C183.783 94.2339 183.935 93.349 183.935 92.4575C184 88.0586 180.259 84.4785 175.378 83.7881Z" fill="#D4AF3D"/>
<path d="M153.994 80.224C154.001 80.1708 154.001 80.1168 153.994 80.0635C153.994 76.3228 150.462 73.3046 146.112 73.3046C144.072 73.2851 142.092 73.9906 140.525 75.2953C139.096 69.9974 133.557 66.0319 126.911 66.0319C119.814 66.0319 113.955 70.5753 113.072 76.4512H112.734C104.001 76.4512 96.9208 82.5198 96.9208 90.0012C96.9204 90.4791 96.9525 90.9565 97.0171 91.4301C95.9418 91.5773 94.9212 91.9946 94.0509 92.6432C93.1806 93.2917 92.4888 94.1503 92.0403 95.1386H164.735C165.132 94.0363 165.338 92.8745 165.345 91.703C165.361 85.8913 160.432 81.1231 153.994 80.224Z" fill="#BEA02F"/>
<path d="M106.328 85.4578C106.328 85.4578 106.328 85.4578 106.328 85.3454C106.214 84.0959 105.616 82.9405 104.663 82.1249C103.709 81.3094 102.475 80.8981 101.223 80.9786C99.8996 80.9621 98.6133 81.4174 97.5949 82.263C96.9713 80.4412 95.7735 78.871 94.1812 77.7882C92.589 76.7055 90.6883 76.1687 88.7649 76.2586C84.1573 76.2586 80.3684 79.1966 79.7905 83.0015H79.5818C73.9146 83.0015 69.323 86.9348 69.323 91.7833C69.3071 92.0881 69.3071 92.3936 69.323 92.6984C68.6285 92.7976 67.9703 93.0703 67.4091 93.4912C66.8479 93.9121 66.4018 94.4677 66.1121 95.1065H113.232C113.539 94.3997 113.718 93.6442 113.762 92.875C113.62 90.952 112.791 89.1443 111.426 87.7823C110.061 86.4204 108.252 85.5953 106.328 85.4578Z" fill="#D4AF3D"/>
<path d="M91.8955 87.3843V87.3041C91.8134 86.3 91.3398 85.3685 90.5768 84.7107C89.8139 84.0529 88.8228 83.7215 87.8177 83.7881C86.7367 83.7691 85.6861 84.146 84.8636 84.8477C84.3698 83.3862 83.4131 82.1254 82.1385 81.2563C80.8638 80.3872 79.3406 79.9572 77.7997 80.0314C76.1573 79.9411 74.536 80.4347 73.2226 81.4249C71.9092 82.4151 70.9885 83.8379 70.6233 85.4417H70.4467C65.9194 85.4417 62.2429 88.6526 62.2429 92.4736C62.227 92.7195 62.227 92.9662 62.2429 93.2121C61.685 93.2904 61.1558 93.5079 60.704 93.8446C60.2523 94.1813 59.8926 94.6263 59.6582 95.1386H97.3861C97.5847 94.5653 97.6878 93.9633 97.6911 93.3566C97.5914 91.8351 96.9535 90.3988 95.8916 89.3046C94.8298 88.2104 93.4133 87.5297 91.8955 87.3843Z" fill="#BEA02F"/>
<path d="M137.298 68.9699C137.298 68.9699 125.321 52.0325 115.994 51.0371C107.178 50.1993 98.3264 49.8081 89.4716 49.8651C84.5268 49.8651 86.1644 52.1288 82.3113 55.5323C77.0455 60.2042 67.2041 69.7084 67.2041 69.7084L137.298 68.9699Z" fill="#EE375F"/>
<path d="M118.658 96.134C122.728 96.134 126.027 92.5329 126.027 88.0907C126.027 83.6486 122.728 80.0475 118.658 80.0475C114.588 80.0475 111.289 83.6486 111.289 88.0907C111.289 92.5329 114.588 96.134 118.658 96.134Z" fill="#1D1A29"/>
<path d="M117.294 96.134C121.364 96.134 124.663 92.5329 124.663 88.0907C124.663 83.6486 121.364 80.0475 117.294 80.0475C113.224 80.0475 109.925 83.6486 109.925 88.0907C109.925 92.5329 113.224 96.134 117.294 96.134Z" fill="#302A3D"/>
<path d="M117.294 90.9966C118.899 90.9966 120.2 89.5734 120.2 87.8178C120.2 86.0622 118.899 84.639 117.294 84.639C115.689 84.639 114.388 86.0622 114.388 87.8178C114.388 89.5734 115.689 90.9966 117.294 90.9966Z" fill="#3C364B"/>
<path d="M63.656 96.134C67.7258 96.134 71.025 92.5329 71.025 88.0907C71.025 83.6486 67.7258 80.0475 63.656 80.0475C59.5862 80.0475 56.287 83.6486 56.287 88.0907C56.287 92.5329 59.5862 96.134 63.656 96.134Z" fill="#1D1A29"/>
<path d="M62.2909 96.134C66.3606 96.134 69.6599 92.5329 69.6599 88.0907C69.6599 83.6486 66.3606 80.0475 62.2909 80.0475C58.2211 80.0475 54.9219 83.6486 54.9219 88.0907C54.9219 92.5329 58.2211 96.134 62.2909 96.134Z" fill="#302A3D"/>
<path d="M62.2912 91.7351C63.9315 91.7351 65.2612 90.2832 65.2612 88.4921C65.2612 86.7011 63.9315 85.2491 62.2912 85.2491C60.6508 85.2491 59.3211 86.7011 59.3211 88.4921C59.3211 90.2832 60.6508 91.7351 62.2912 91.7351Z" fill="#3C364B"/>
<path d="M47.5693 89.4393C47.5693 89.4393 43.6199 71.7794 61.36 70.4309C72.9032 69.5318 131.486 68.1672 141.632 67.9424C142.812 67.8984 143.982 68.1734 145.019 68.7385C146.056 69.3035 146.922 70.1378 147.524 71.1533C149.266 76.3179 149.707 81.8321 148.809 87.2078L56.6721 89.3751L47.5693 89.4393Z" fill="#D82050"/>
<path d="M115.576 68.9699C115.576 68.9699 105.237 52.1127 96.0218 50.427C90.499 49.4156 79.9673 49.5922 73.2084 49.9293C68.4636 50.2121 63.9813 52.2023 60.5896 55.5323C55.3077 60.2042 45.4824 69.7084 45.4824 69.7084L115.576 68.9699Z" fill="#FF5F6C"/>
<path d="M23.8572 89.4393C23.8572 89.4393 18.5914 71.3781 36.9255 69.9974C47.8586 69.1786 100.469 68.392 117.423 68.0067C119.028 68.0067 126.028 69.275 128.035 73.722C129.142 76.2105 129.479 81.38 128.42 88.7169L23.8572 89.4393Z" fill="#EE375F"/>
<path d="M80.8497 53.5008L80.4805 53.5048L80.8639 88.9349L81.2331 88.9309L80.8497 53.5008Z" fill="#D82050"/>
<path d="M78.8588 72.0363H71.2651C71.0345 72.0363 70.8477 72.2232 70.8477 72.4537V72.7587C70.8477 72.9893 71.0345 73.1762 71.2651 73.1762H78.8588C79.0894 73.1762 79.2762 72.9893 79.2762 72.7587V72.4537C79.2762 72.2232 79.0894 72.0363 78.8588 72.0363Z" fill="#FF9F3F"/>
<path d="M77.9758 72.0363H71.2651C71.0345 72.0363 70.8477 72.2232 70.8477 72.4537V72.7587C70.8477 72.9893 71.0345 73.1762 71.2651 73.1762H77.9758C78.2064 73.1762 78.3932 72.9893 78.3932 72.7587V72.4537C78.3932 72.2232 78.2064 72.0363 77.9758 72.0363Z" fill="#FFB655"/>
<path d="M111.851 72.0363H104.257C104.027 72.0363 103.84 72.2232 103.84 72.4537V72.7587C103.84 72.9893 104.027 73.1762 104.257 73.1762H111.851C112.082 73.1762 112.269 72.9893 112.269 72.7587V72.4537C112.269 72.2232 112.082 72.0363 111.851 72.0363Z" fill="#FF9F3F"/>
<path d="M129.816 89.4393H23.1347L22.4443 86.1642H129.816V89.4393Z" fill="#88889B"/>
<path d="M148.504 89.4393H129.816L128.371 86.1642H149.788L148.504 89.4393Z" fill="#78788A"/>
<path d="M57.9249 88.0586C57.8197 85.3934 56.687 82.8723 54.764 81.0237C52.8411 79.1751 50.2773 78.1426 47.6099 78.1426C44.9425 78.1426 42.3787 79.1751 40.4558 81.0237C38.5328 82.8723 37.4001 85.3934 37.2949 88.0586C37.2949 88.4279 37.2949 89.0701 37.3913 89.4072H57.9249C57.9409 89.2467 57.9249 88.2995 57.9249 88.0586Z" fill="#4E4E5E"/>
<path d="M57.7634 88.1871C57.7634 85.6664 56.762 83.249 54.9796 81.4666C53.1972 79.6842 50.7798 78.6829 48.2591 78.6829C45.7384 78.6829 43.321 79.6842 41.5386 81.4666C39.7562 83.249 38.7549 85.6664 38.7549 88.1871C38.7549 88.5082 38.7549 89.1182 38.7549 89.4393H57.7634C57.7794 89.2467 57.7634 88.3797 57.7634 88.1871Z" fill="#5C5C6E"/>
<path d="M49.8329 96.134C53.9027 96.134 57.2019 92.5329 57.2019 88.0907C57.2019 83.6486 53.9027 80.0475 49.8329 80.0475C45.7631 80.0475 42.4639 83.6486 42.4639 88.0907C42.4639 92.5329 45.7631 96.134 49.8329 96.134Z" fill="#1D1A29"/>
<path d="M48.2918 96.134C52.3615 96.134 55.6607 92.5329 55.6607 88.0907C55.6607 83.6486 52.3615 80.0475 48.2918 80.0475C44.222 80.0475 40.9228 83.6486 40.9228 88.0907C40.9228 92.5329 44.222 96.134 48.2918 96.134Z" fill="#302A3D"/>
<path d="M48.2917 90.9806C49.7547 90.9806 50.9406 89.6867 50.9406 88.0908C50.9406 86.4948 49.7547 85.201 48.2917 85.201C46.8287 85.201 45.6427 86.4948 45.6427 88.0908C45.6427 89.6867 46.8287 90.9806 48.2917 90.9806Z" fill="#3C364B"/>
<path d="M112.911 88.0586C112.764 85.4245 111.614 82.9467 109.698 81.134C107.781 79.3212 105.243 78.3111 102.604 78.3111C99.9663 78.3111 97.4282 79.3212 95.5114 81.134C93.5946 82.9467 92.4446 85.4245 92.2975 88.0586C92.2732 88.5078 92.2732 88.958 92.2975 89.4072H112.879C112.911 89.2467 112.911 88.2995 112.911 88.0586Z" fill="#4E4E5E"/>
<path d="M112.879 88.171C112.607 85.8243 111.482 83.6595 109.717 82.0882C107.953 80.517 105.673 79.6488 103.311 79.6488C100.948 79.6488 98.6681 80.517 96.9039 82.0882C95.1398 83.6595 94.0145 85.8243 93.7422 88.171C93.7422 88.5082 93.7422 89.1182 93.7422 89.4393H112.847C112.879 89.2466 112.879 88.3637 112.879 88.171Z" fill="#5C5C6E"/>
<path d="M104.819 96.134C108.889 96.134 112.188 92.5329 112.188 88.0907C112.188 83.6486 108.889 80.0475 104.819 80.0475C100.75 80.0475 97.4504 83.6486 97.4504 88.0907C97.4504 92.5329 100.75 96.134 104.819 96.134Z" fill="#1D1A29"/>
<path d="M103.278 96.134C107.348 96.134 110.647 92.5329 110.647 88.0907C110.647 83.6486 107.348 80.0475 103.278 80.0475C99.2085 80.0475 95.9092 83.6486 95.9092 88.0907C95.9092 92.5329 99.2085 96.134 103.278 96.134Z" fill="#302A3D"/>
<path d="M103.278 90.9806C104.741 90.9806 105.927 89.6867 105.927 88.0908C105.927 86.4948 104.741 85.201 103.278 85.201C101.815 85.201 100.629 86.4948 100.629 88.0908C100.629 89.6867 101.815 90.9806 103.278 90.9806Z" fill="#3C364B"/>
<path d="M35.6248 86.1802H35.2716C35.2716 86.0679 36.3954 75.7128 48.1151 75.7128C53.1241 75.7128 59.1606 78.4581 59.6422 86.1802H59.289C58.8074 78.731 52.9636 76.066 48.0509 76.066C36.7004 76.0499 35.6408 86.0679 35.6248 86.1802Z" fill="#D82050"/>
<path d="M90.6112 86.1802H90.258C90.258 86.0679 91.3819 75.7128 103.102 75.7128C108.095 75.7128 114.083 78.4741 114.581 86.1802H114.211C113.746 78.731 107.934 76.066 103.102 76.066C91.719 76.0499 90.6594 85.7628 90.6112 86.1802Z" fill="#D82050"/>
<path d="M28.497 73.8183H24.4833C23.7385 73.8183 23.1348 74.4221 23.1348 75.1669V76.2104C23.1348 76.9552 23.7385 77.559 24.4833 77.559H28.497C29.2417 77.559 29.8455 76.9552 29.8455 76.2104V75.1669C29.8455 74.4221 29.2417 73.8183 28.497 73.8183Z" fill="#FFDFAC"/>
<path d="M131.694 86.1802C131.694 86.1802 131.694 78.3297 139.079 78.3297C144.987 78.3297 146.047 82.9051 146.288 86.1802H131.694Z" fill="#EE375F"/>
<path d="M53.4774 66.931C53.4774 66.931 63.5436 53.3168 70.5112 52.8031C72.6946 52.6265 79.2769 52.6746 79.2769 52.6746V66.3049L53.4774 66.931Z" fill="#BEDFFF"/>
<path d="M54.9219 66.931C54.9219 66.931 65.871 53.3168 72.4533 52.8031C74.5083 52.6265 79.2765 52.6746 79.2765 52.6746V66.3049L54.9219 66.931Z" fill="#E4EEFF"/>
<path d="M109.026 66.1764C109.026 66.1764 98.1733 53.1723 90.5474 52.8191C82.9216 52.4659 82.3115 52.8994 82.3115 52.8994V66.3049L109.026 66.1764Z" fill="#BEDFFF"/>
<path d="M109.026 66.1764C109.026 66.1764 98.6706 53.1723 91.3659 52.8191C84.0611 52.4659 83.4992 52.8994 83.4992 52.8994V66.3049L109.026 66.1764Z" fill="#E4EEFF"/>
<path d="M48.404 69.4997H47.9866V75.6967H48.404V69.4997Z" fill="#D82050"/>
<path d="M102.636 68.2795H102.219V76.066H102.636V68.2795Z" fill="#D82050"/>
<path d="M147.303 70.5083L124.511 70.9539L124.519 71.3712L147.312 70.9256L147.303 70.5083Z" fill="#EE375F"/>
<path d="M128.468 72.1326H124.454C123.709 72.1326 123.105 72.7364 123.105 73.4812V74.5247C123.105 75.2695 123.709 75.8733 124.454 75.8733H128.468C129.212 75.8733 129.816 75.2695 129.816 74.5247V73.4812C129.816 72.7364 129.212 72.1326 128.468 72.1326Z" fill="#FFDFAC"/>
<path d="M149.114 72.1326H145.101C144.356 72.1326 143.752 72.7364 143.752 73.4812V74.5247C143.752 75.2695 144.356 75.8733 145.101 75.8733H149.114C149.859 75.8733 150.463 75.2695 150.463 74.5247V73.4812C150.463 72.7364 149.859 72.1326 149.114 72.1326Z" fill="#FFDFAC"/>
<path d="M116.668 67.1879L132.722 66.642C132.722 66.642 125.787 56.5277 118.273 52.8673L103.343 52.6586C108.556 56.7329 113.059 61.6424 116.668 67.1879Z" fill="#BEDFFF"/>
<path d="M116.668 67.1879L131.695 66.6741C131.695 66.6741 124.84 56.5277 117.246 52.8512L103.295 52.6586C108.525 56.7289 113.045 61.6386 116.668 67.1879Z" fill="#E4EEFF"/>
<path d="M62.4518 7.03186H4.81633V96.9849H62.4518V7.03186Z" fill="#BEDFFF"/>
<path d="M66.6259 89.4393H1.54116V96.9688H66.6259V89.4393Z" fill="#BEDFFF"/>
<path d="M62.4518 55.4681H4.81633V89.4233H62.4518V55.4681Z" fill="#6A85BE"/>
<path d="M66.6259 0H0V8.71756H66.6259V0Z" fill="#6A85BE"/>
<path d="M66.5295 7.03186H23.4072V96.9849H66.5295V7.03186Z" fill="#E4EEFF"/>
<path d="M71.8756 89.4393H19.9074V96.9688H71.8756V89.4393Z" fill="#E4EEFF"/>
<path d="M61.906 11.5271H28.9462V52.0003H61.906V11.5271Z" fill="#1D1A29"/>
<path d="M60.6695 11.5271H27.79V52.0003H60.6695V11.5271Z" fill="#302A3D"/>
<path d="M66.5295 55.4681H23.4072V89.4233H66.5295V55.4681Z" fill="#87A1D5"/>
<path d="M71.8916 0H5.26562V8.71756H71.8916V0Z" fill="#87A1D5"/>
<path d="M62.4513 57.8442H27.1797V87.3522H62.4513V57.8442Z" fill="#6A85BE"/>
<path d="M38.7557 52.0004H29.9258L36.4439 11.511H45.2578L38.7557 52.0004Z" fill="#3C364B"/>
<path d="M46.1571 52.0004H41.0518L47.5699 11.511H52.6752L46.1571 52.0004Z" fill="#3C364B"/>
<path d="M52.3857 52.0004H50.9729L57.491 11.5111H58.9038L52.3857 52.0004Z" fill="#3C364B"/>
<path d="M64.2981 50.0899H25.7032V53.9108H64.2981V50.0899Z" fill="#6A85BE"/>
<path d="M64.2985 50.0899H27.6943V53.9108H64.2985V50.0899Z" fill="#87A1D5"/>
<path d="M167.785 11.3826H147.011C144.351 11.3826 142.194 13.5389 142.194 16.1989V36.9734C142.194 39.6334 144.351 41.7897 147.011 41.7897H167.785C170.445 41.7897 172.601 39.6334 172.601 36.9734V16.1989C172.601 13.5389 170.445 11.3826 167.785 11.3826Z" fill="#6A85BE"/>
<path d="M157.43 35.1111H156.13V95.5881H157.43V35.1111Z" fill="#BEDFFF"/>
<path d="M158.169 35.1111H156.868V95.5881H158.169V35.1111Z" fill="#E4EEFF"/>
<path d="M164.413 94.2075H150.35V96.0216H164.413V94.2075Z" fill="#BEDFFF"/>
<path d="M164.414 94.2075H153.432V96.0216H164.414V94.2075Z" fill="#E4EEFF"/>
<path d="M169.166 11.3826H148.392C145.732 11.3826 143.575 13.5389 143.575 16.1989V36.9734C143.575 39.6334 145.732 41.7897 148.392 41.7897H169.166C171.826 41.7897 173.982 39.6334 173.982 36.9734V16.1989C173.982 13.5389 171.826 11.3826 169.166 11.3826Z" fill="#87A1D5"/>
<path d="M154.267 17.981C155.683 17.7429 157.117 17.6301 158.553 17.6438C160.281 17.5214 161.995 18.0353 163.37 19.0887C163.876 19.5433 164.276 20.1045 164.539 20.7318C164.803 21.3592 164.924 22.0371 164.895 22.717C164.956 24.0804 164.477 25.4129 163.562 26.4256C162.849 27.0809 162.01 27.5863 161.098 27.9117C160.185 28.2371 159.216 28.3759 158.248 28.32C157.645 28.3451 157.04 28.2911 156.45 28.1595V35.0789H154.219L154.267 17.981ZM156.498 26.3453C157.11 26.4812 157.735 26.5405 158.361 26.5219C161.058 26.5219 162.695 25.2055 162.695 22.8133C162.695 20.4212 161.09 19.4098 158.602 19.4098C157.895 19.3884 157.189 19.4531 156.498 19.6025V26.3453Z" fill="#EFEEFF"/>
</g>
<g clip-path="url(#clip1_17_454)">
<path d="M1393.87 25.45H1301.74C1300.94 25.45 1300.18 25.7661 1299.62 26.3287C1299.06 26.8913 1298.74 27.6543 1298.74 28.45V88.54H1304.49V33.16C1304.49 32.3643 1304.81 31.6013 1305.37 31.0387C1305.93 30.4761 1306.69 30.16 1307.49 30.16H1388.13C1388.92 30.1731 1389.67 30.495 1390.22 31.0562C1390.77 31.6173 1391.08 32.3729 1391.08 33.16V88.54H1396.83V28.43C1396.83 27.6447 1396.51 26.8927 1395.96 26.3356C1395.41 25.7784 1394.66 25.4604 1393.87 25.45Z" fill="#6A85BE"/>
<path d="M1392.13 25.45H1299.96C1299.16 25.45 1298.4 25.7661 1297.84 26.3287C1297.28 26.8913 1296.96 27.6543 1296.96 28.45V88.54H1302.71V33.16C1302.71 32.3643 1303.03 31.6013 1303.59 31.0387C1304.15 30.4761 1304.91 30.16 1305.71 30.16H1386.34C1387.14 30.16 1387.9 30.4761 1388.46 31.0387C1389.02 31.6013 1389.34 32.3643 1389.34 33.16V88.54H1395.09V28.43C1395.08 27.6447 1394.77 26.8927 1394.22 26.3356C1393.67 25.7784 1392.92 25.4604 1392.13 25.45Z" fill="#87A1D5"/>
<path d="M1386.34 30.16H1305.71C1304.91 30.16 1304.15 30.4761 1303.59 31.0387C1303.03 31.6013 1302.71 32.3644 1302.71 33.16V88.54H1389.25V33.16C1389.25 32.3797 1388.95 31.63 1388.4 31.0699C1387.86 30.5098 1387.12 30.1834 1386.34 30.16Z" fill="#302A3D"/>
<path d="M1374.9 46.72H1317.13C1316.57 46.7253 1316.03 46.952 1315.64 47.3509C1315.24 47.7498 1315.02 48.2885 1315.02 48.85V88.52H1377.02V48.85C1377.02 48.2868 1376.8 47.7466 1376.4 47.3474C1376 46.9482 1375.46 46.7226 1374.9 46.72Z" fill="#1D1A29"/>
<path d="M1305.71 30.16L1317.14 46.72H1374.9L1386.33 30.16H1305.71Z" fill="#3C364B"/>
<path d="M1405.62 88.52H1410.24V51.98H1405.62V88.52Z" fill="#6A85BE"/>
<path d="M1404.07 88.52H1409.32V51.98H1404.07V88.52Z" fill="#87A1D5"/>
<path d="M1404.98 88.52H1408.48V53.78H1404.98V88.52Z" fill="#6A85BE"/>
<path d="M1363.87 57.45L1407.45 57.45V54.65L1363.87 54.65V57.45Z" fill="#EEF3FB"/>
<path d="M1406.62 58.11C1407.67 58.11 1408.53 57.2549 1408.53 56.2C1408.53 55.1451 1407.67 54.29 1406.62 54.29C1405.57 54.29 1404.71 55.1451 1404.71 56.2C1404.71 57.2549 1405.57 58.11 1406.62 58.11Z" fill="#302A3D"/>
<path d="M1395.14 56.48H1400.8V55.55H1395.14V56.48Z" fill="#FF6A58"/>
<path d="M1387.94 56.48H1393.6V55.55H1387.94V56.48Z" fill="#FF6A58"/>
<path d="M1380.75 56.48H1386.41V55.55H1380.75V56.48Z" fill="#FF6A58"/>
<path d="M1373.56 56.48H1379.22V55.55H1373.56V56.48Z" fill="#FF6A58"/>
<path d="M1366.37 56.48H1372.03V55.55H1366.37V56.48Z" fill="#FF6A58"/>
<path d="M1400.83 88.52H1412.97V84.33H1400.83V88.52Z" fill="#1D1A29"/>
<path d="M1399.92 88.52H1412.06V84.33H1399.92V88.52Z" fill="#302A3D"/>
<path d="M1410.02 84.33L1412.06 85.83V87L1408.43 84.33H1410.02Z" fill="#15809B"/>
<path d="M1406.12 84.33L1411.83 88.52H1410.24L1404.53 84.33H1406.12Z" fill="#15809B"/>
<path d="M1402.65 84.33L1408.37 88.52H1406.78L1401.06 84.33H1402.65Z" fill="#15809B"/>
<path d="M1399.92 85.19L1404.47 88.52H1402.88L1399.92 86.36V85.19Z" fill="#15809B"/>
<path d="M1383.87 7H1317.82C1316.72 7 1315.82 7.89543 1315.82 9V18.29C1315.82 19.3946 1316.72 20.29 1317.82 20.29H1383.87C1384.97 20.29 1385.87 19.3946 1385.87 18.29V9C1385.87 7.89543 1384.97 7 1383.87 7Z" fill="#78788A"/>
<path d="M1383.14 7H1317.09C1315.99 7 1315.09 7.89543 1315.09 9V18.29C1315.09 19.3946 1315.99 20.29 1317.09 20.29H1383.14C1384.24 20.29 1385.14 19.3946 1385.14 18.29V9C1385.14 7.89543 1384.24 7 1383.14 7Z" fill="#88889B"/>
<path d="M1327.49 10.67C1327.92 10.598 1328.36 10.5645 1328.8 10.57C1329.33 10.5315 1329.86 10.6878 1330.29 11.01C1330.44 11.1514 1330.56 11.3236 1330.64 11.5151C1330.72 11.7066 1330.76 11.9129 1330.75 12.12C1330.76 12.3261 1330.73 12.5319 1330.66 12.7258C1330.59 12.9197 1330.48 13.0978 1330.34 13.25C1330.12 13.4501 1329.87 13.6045 1329.59 13.7041C1329.31 13.8038 1329.02 13.8466 1328.72 13.83C1328.54 13.8516 1328.35 13.8516 1328.17 13.83V15.95H1327.49V10.67ZM1328.17 13.22C1328.36 13.2641 1328.55 13.2843 1328.74 13.28C1329.56 13.28 1330.07 12.88 1330.07 12.15C1330.07 11.42 1329.57 11.15 1328.82 11.15C1328.6 11.1439 1328.38 11.1606 1328.17 11.2V13.22Z" fill="#EFEEFF"/>
<path d="M1333.54 15.9L1333.49 15.42C1333.35 15.6008 1333.18 15.7467 1332.97 15.8458C1332.77 15.9449 1332.55 15.9943 1332.32 15.99C1332.17 16.0011 1332.02 15.981 1331.88 15.9311C1331.74 15.8812 1331.61 15.8025 1331.5 15.7C1331.39 15.5975 1331.3 15.4735 1331.25 15.3358C1331.19 15.198 1331.16 15.0496 1331.16 14.9C1331.16 13.98 1331.98 13.47 1333.45 13.48V13.4C1333.46 13.2819 1333.45 13.1621 1333.41 13.0495C1333.37 12.9369 1333.31 12.8345 1333.23 12.7499C1333.14 12.6653 1333.04 12.6007 1332.93 12.5609C1332.82 12.5211 1332.7 12.5071 1332.58 12.52C1332.23 12.5189 1331.88 12.6196 1331.58 12.81L1331.43 12.35C1331.8 12.125 1332.23 12.0074 1332.67 12.01C1333.84 12.01 1334.12 12.81 1334.12 13.57V14.99C1334.12 15.2944 1334.14 15.5985 1334.18 15.9H1333.54ZM1333.44 13.96C1332.69 13.96 1331.83 14.08 1331.83 14.82C1331.82 14.9073 1331.84 14.9948 1331.87 15.0768C1331.9 15.1589 1331.95 15.2335 1332.01 15.2958C1332.07 15.3582 1332.14 15.4068 1332.22 15.4385C1332.31 15.4703 1332.39 15.4844 1332.48 15.48C1332.68 15.4774 1332.87 15.415 1333.04 15.301C1333.2 15.1869 1333.33 15.0263 1333.4 14.84C1333.41 14.7673 1333.41 14.6926 1333.4 14.62L1333.44 13.96Z" fill="#EFEEFF"/>
<path d="M1335.22 13.29C1335.22 12.84 1335.22 12.45 1335.22 12.1H1335.83V12.85C1335.9 12.6167 1336.03 12.4102 1336.22 12.2595C1336.41 12.1088 1336.65 12.0216 1336.89 12.01C1336.95 11.9996 1337.02 11.9996 1337.08 12.01V12.66C1337 12.6492 1336.93 12.6492 1336.85 12.66C1336.62 12.6747 1336.4 12.7709 1336.23 12.9316C1336.06 13.0924 1335.95 13.3077 1335.92 13.54C1335.91 13.6464 1335.91 13.7536 1335.92 13.86V15.86H1335.23L1335.22 13.29Z" fill="#EFEEFF"/>
<path d="M1338.51 13.84L1338.85 13.41L1339.96 12.1H1340.8L1339.33 13.66L1341 15.9H1340.13L1338.82 14.08L1338.47 14.47V15.9H1337.78V10.33H1338.47L1338.51 13.84Z" fill="#EFEEFF"/>
<path d="M1342.41 11.03C1342.41 11.0881 1342.4 11.1462 1342.38 11.2004C1342.36 11.2546 1342.33 11.3037 1342.29 11.3444C1342.25 11.385 1342.2 11.4164 1342.14 11.4363C1342.09 11.4563 1342.03 11.4643 1341.97 11.46C1341.91 11.46 1341.86 11.4488 1341.81 11.4271C1341.76 11.4054 1341.71 11.3735 1341.67 11.3335C1341.63 11.2934 1341.6 11.2459 1341.58 11.1938C1341.56 11.1417 1341.55 11.086 1341.55 11.03C1341.55 10.9723 1341.56 10.9149 1341.58 10.8614C1341.6 10.8079 1341.64 10.7595 1341.68 10.7191C1341.72 10.6788 1341.77 10.6474 1341.82 10.6269C1341.87 10.6064 1341.93 10.5972 1341.99 10.6C1342.05 10.5986 1342.1 10.6088 1342.15 10.63C1342.21 10.6512 1342.25 10.683 1342.29 10.7234C1342.33 10.7637 1342.36 10.8118 1342.38 10.8646C1342.4 10.9173 1342.41 10.9736 1342.41 11.03ZM1341.64 15.9V12.1H1342.33V15.9H1341.64Z" fill="#EFEEFF"/>
<path d="M1343.47 13.16C1343.47 12.77 1343.47 12.44 1343.47 12.16H1344.09V12.79C1344.21 12.567 1344.4 12.3823 1344.62 12.2555C1344.84 12.1286 1345.09 12.0645 1345.35 12.07C1345.88 12.07 1346.69 12.39 1346.69 13.69V15.96H1346V13.77C1346 13.16 1345.77 12.65 1345.12 12.65C1344.91 12.655 1344.71 12.7252 1344.54 12.8507C1344.38 12.9763 1344.25 13.1508 1344.19 13.35C1344.17 13.4594 1344.17 13.5706 1344.19 13.68V15.96H1343.49L1343.47 13.16Z" fill="#EFEEFF"/>
<path d="M1351.13 12.1C1351.13 12.37 1351.13 12.68 1351.13 13.1V15.31C1351.17 15.6225 1351.14 15.9395 1351.04 16.2397C1350.95 16.5399 1350.79 16.8162 1350.58 17.05C1350.19 17.3675 1349.7 17.5281 1349.2 17.5C1348.76 17.5094 1348.32 17.4024 1347.94 17.19L1348.11 16.66C1348.45 16.8626 1348.84 16.9666 1349.23 16.96C1349.93 16.96 1350.45 16.59 1350.45 15.63V15.21C1350.32 15.4109 1350.14 15.5745 1349.93 15.685C1349.72 15.7954 1349.48 15.8488 1349.24 15.84C1349.01 15.8315 1348.78 15.7761 1348.58 15.6771C1348.37 15.5782 1348.18 15.4377 1348.03 15.2645C1347.88 15.0913 1347.76 14.8889 1347.69 14.6697C1347.62 14.4505 1347.6 14.2192 1347.62 13.99C1347.59 13.7453 1347.62 13.4982 1347.69 13.2635C1347.77 13.0288 1347.89 12.8114 1348.05 12.6245C1348.21 12.4376 1348.4 12.285 1348.62 12.1759C1348.84 12.0669 1349.08 12.0036 1349.33 11.99C1349.57 11.977 1349.81 12.032 1350.02 12.1488C1350.23 12.2655 1350.4 12.4392 1350.52 12.65V12.08L1351.13 12.1ZM1350.41 13.6C1350.43 13.4978 1350.43 13.3922 1350.41 13.29C1350.35 13.0737 1350.22 12.8841 1350.04 12.7516C1349.85 12.6192 1349.63 12.5517 1349.41 12.56C1348.75 12.56 1348.28 13.11 1348.28 13.99C1348.28 14.87 1348.65 15.36 1349.4 15.36C1349.62 15.3695 1349.84 15.3048 1350.02 15.1763C1350.2 15.0477 1350.34 14.8626 1350.4 14.65C1350.44 14.5301 1350.45 14.4052 1350.45 14.28L1350.41 13.6Z" fill="#EFEEFF"/>
<path d="M1323.02 7H1308.97V20.29H1323.02V7Z" fill="#BEA02F"/>
<path d="M1389.56 7H1377.26V20.29H1389.56V7Z" fill="#BEA02F"/>
<path d="M1387.09 7H1376.32V20.29H1387.09V7Z" fill="#D4AF3D"/>
<path d="M1326.59 84.38H1323.88C1322.76 84.38 1321.86 85.2844 1321.86 86.4V95.11C1321.86 96.2256 1322.76 97.13 1323.88 97.13H1326.59C1327.71 97.13 1328.61 96.2256 1328.61 95.11V86.4C1328.61 85.2844 1327.71 84.38 1326.59 84.38Z" fill="#302A3D"/>
<path d="M1367.37 84.38H1364.66C1363.54 84.38 1362.64 85.2844 1362.64 86.4V95.11C1362.64 96.2256 1363.54 97.13 1364.66 97.13H1367.37C1368.49 97.13 1369.39 96.2256 1369.39 95.11V86.4C1369.39 85.2844 1368.49 84.38 1367.37 84.38Z" fill="#302A3D"/>
<path d="M1368.61 74.79H1323.61L1326.9 64.79C1327.5 63.2032 1328.58 61.8439 1329.99 60.9024C1331.4 59.961 1333.07 59.4846 1334.77 59.54H1357.41C1359.11 59.4855 1360.78 59.9621 1362.19 60.9033C1363.6 61.8445 1364.69 63.2033 1365.29 64.79L1368.61 74.79Z" fill="#397AF9"/>
<path d="M1365.98 76.56H1326.26L1329.82 64.92C1330.09 64.0794 1330.63 63.3488 1331.35 62.8358C1332.07 62.3228 1332.94 62.0544 1333.82 62.07H1358.46C1359.34 62.0544 1360.21 62.3228 1360.93 62.8358C1361.65 63.3488 1362.19 64.0794 1362.46 64.92L1365.98 76.56Z" fill="#BEDFFF"/>
<path d="M1373.19 90.34H1318.98L1319.61 79.87C1319.61 79.0917 1319.77 78.3216 1320.07 77.6037C1320.37 76.8858 1320.81 76.2342 1321.36 75.6862C1321.91 75.1382 1322.57 74.7046 1323.29 74.4101C1324.01 74.1156 1324.78 73.966 1325.56 73.97H1366.61C1367.39 73.966 1368.16 74.1156 1368.88 74.4101C1369.6 74.7046 1370.26 75.1382 1370.81 75.6862C1371.36 76.2342 1371.8 76.8858 1372.1 77.6037C1372.4 78.3216 1372.56 79.0917 1372.56 79.87L1373.19 90.34Z" fill="#EE375F"/>
<path d="M1373.19 90.34H1318.98L1319.61 79.87C1319.61 79.0917 1319.77 78.3216 1320.07 77.6037C1320.37 76.8858 1320.81 76.2342 1321.36 75.6862C1321.91 75.1382 1322.57 74.7046 1323.29 74.4101C1324.01 74.1156 1324.78 73.966 1325.56 73.97H1366.61C1367.39 73.966 1368.16 74.1156 1368.88 74.4101C1369.6 74.7046 1370.26 75.1382 1370.81 75.6862C1371.36 76.2342 1371.8 76.8858 1372.1 77.6037C1372.4 78.3216 1372.56 79.0917 1372.56 79.87L1373.19 90.34Z" fill="#397AF9"/>
<path d="M1333.31 89.98H1359.98L1357.42 87.55C1356.12 86.321 1354.41 85.6341 1352.62 85.63H1340.28C1339.29 85.6313 1338.3 85.8442 1337.4 86.2545C1336.49 86.6649 1335.69 87.2633 1335.03 88.01L1333.31 89.98Z" fill="#302A3D"/>
<path d="M1366.61 73.97H1325.56C1324.47 73.9729 1323.41 74.2702 1322.48 74.8302C1321.55 75.3902 1320.79 76.1919 1320.28 77.15C1321.98 76.81 1329.65 75.6 1332.82 79.1C1336.71 83.4 1355.1 83.66 1359.53 79.1C1362.71 75.83 1369.9 76.75 1371.88 77.1C1371.36 76.1527 1370.6 75.3621 1369.68 74.8113C1368.75 74.2605 1367.69 73.9698 1366.61 73.97Z" fill="#216BE0"/>
<path d="M1323.52 79.08C1323.74 78.7022 1324.08 78.4108 1324.49 78.2543C1324.9 78.0979 1325.35 78.0857 1325.76 78.22C1327.28 78.68 1332.11 80.04 1332.06 81.85C1332.01 83.66 1329.72 84.06 1327.79 83.71C1325.86 83.36 1321.8 82.35 1323.52 79.08Z" fill="#FFDFAC"/>
<path d="M1368.19 79.08C1367.97 78.703 1367.63 78.412 1367.23 78.2554C1366.82 78.0989 1366.37 78.0864 1365.96 78.22C1364.43 78.68 1359.61 80.04 1359.66 81.85C1359.71 83.66 1361.99 84.06 1363.92 83.71C1365.85 83.36 1369.92 82.35 1368.19 79.08Z" fill="#FFDFAC"/>
<path d="M1372.24 91.58H1319.89C1319.39 91.58 1318.92 91.3833 1318.56 91.0329C1318.21 90.6825 1318.01 90.2069 1318.01 89.71V88.49C1318.01 87.9931 1318.21 87.5175 1318.56 87.1671C1318.92 86.8167 1319.39 86.62 1319.89 86.62H1330.49L1335.65 89.11H1356.89L1362.89 86.62H1372.2C1372.7 86.62 1373.17 86.8167 1373.53 87.1671C1373.88 87.5175 1374.08 87.9931 1374.08 88.49V89.71C1374.08 90.2 1373.88 90.6697 1373.54 91.019C1373.2 91.3683 1372.73 91.5696 1372.24 91.58Z" fill="#216BE0"/>
<path d="M1329.71 88.01H1320.75C1320.39 88.01 1320.1 88.301 1320.1 88.66V89.54C1320.1 89.899 1320.39 90.19 1320.75 90.19H1329.71C1330.07 90.19 1330.36 89.899 1330.36 89.54V88.66C1330.36 88.301 1330.07 88.01 1329.71 88.01Z" fill="#FFCC4E"/>
<path d="M1371.75 88.01H1362.79C1362.43 88.01 1362.14 88.301 1362.14 88.66V89.54C1362.14 89.899 1362.43 90.19 1362.79 90.19H1371.75C1372.11 90.19 1372.4 89.899 1372.4 89.54V88.66C1372.4 88.301 1372.11 88.01 1371.75 88.01Z" fill="#FFCC4E"/>
<path d="M1372.8 85.32H1360C1358.72 85.3205 1357.44 85.1899 1356.18 84.93C1355.45 84.779 1354.71 84.7019 1353.97 84.7H1338.65C1337.98 84.7012 1337.31 84.7648 1336.65 84.89L1336.17 84.99C1335.01 85.2098 1333.82 85.3203 1332.64 85.32H1319.37V84.82H1332.6C1333.75 84.8186 1334.9 84.7115 1336.03 84.5L1336.52 84.4C1337.22 84.2686 1337.94 84.2017 1338.65 84.2H1353.97C1354.75 84.2001 1355.53 84.2806 1356.29 84.44C1357.51 84.6921 1358.75 84.8194 1360 84.82H1372.8V85.32Z" fill="#216BE0"/>
<path d="M1366.93 70.29C1367.21 70.5319 1367.56 70.6653 1367.93 70.6653C1368.3 70.6653 1368.65 70.5319 1368.93 70.29C1370.18 69.52 1369.26 68.94 1372.24 69C1375.22 69.06 1375.05 70.94 1374.96 71.78C1374.84 72.78 1374.28 74 1371.21 73.57C1370.86 73.5639 1370.52 73.4778 1370.2 73.3184C1369.89 73.1589 1369.62 72.9303 1369.41 72.65C1369.16 72.28 1368.15 71.65 1367.74 71.94L1366.93 70.29Z" fill="#397AF9"/>
<path d="M1325.44 70.29C1325.16 70.5319 1324.81 70.6653 1324.44 70.6653C1324.07 70.6653 1323.72 70.5319 1323.44 70.29C1322.19 69.52 1323.11 68.94 1320.13 69C1317.15 69.06 1317.32 70.94 1317.41 71.78C1317.52 72.78 1318.09 74 1321.16 73.57C1321.51 73.5639 1321.85 73.4778 1322.17 73.3184C1322.48 73.1589 1322.75 72.9303 1322.96 72.65C1323.21 72.28 1324.22 71.65 1324.63 71.94L1325.44 70.29Z" fill="#397AF9"/>
</g>
<defs>
<clipPath id="clip0_17_454">
<rect width="184" height="96.9688" fill="white"/>
</clipPath>
<clipPath id="clip1_17_454">
<rect width="115.98" height="90.13" fill="white" transform="translate(1297 7)"/>
</clipPath>
</defs>
</svg>
