<?xml version="1.0" encoding="UTF-8"?>
<svg width="170" height="97" viewBox="0 0 170 97" fill="none" xmlns="http://www.w3.org/2000/svg">
<path d="M133.348 87.3918C133.299 88.6968 132.734 89.9291 131.779 90.8197C130.824 91.7103 129.556 92.187 128.25 92.1457H11.469C10.1638 92.187 8.89515 91.7103 7.94005 90.8197C6.98495 89.9291 6.42093 88.6968 6.37109 87.3918V18.7734C6.42093 17.4685 6.98495 16.2362 7.94005 15.3456C8.89515 14.4549 10.1638 13.9782 11.469 14.0196H128.225C129.53 13.9782 130.799 14.4549 131.754 15.3456C132.709 16.2362 133.273 17.4685 133.323 18.7734L133.348 87.3918Z" fill="#001F82"/>
<path d="M128.227 92.5404H11.4717C10.0658 92.5888 8.69761 92.0805 7.66432 91.1259C6.63103 90.1714 6.01608 88.8477 5.95312 87.4424V18.773C6.01608 17.3677 6.63103 16.044 7.66432 15.0894C8.69761 14.1349 10.0658 13.6266 11.4717 13.675H128.227C129.633 13.6266 131.002 14.1349 132.035 15.0894C133.068 16.044 133.683 17.3677 133.746 18.773V87.3914C133.696 88.8057 133.087 90.1424 132.052 91.1078C131.018 92.0733 129.642 92.5885 128.227 92.5404Z" fill="#1C1C1C"/>
<path d="M136.013 87.3918C135.963 88.6968 135.399 89.9291 134.444 90.8197C133.489 91.7103 132.221 92.187 130.915 92.1457H14.1468C12.8415 92.187 11.5728 91.7103 10.6177 90.8197C9.66265 89.9291 9.09866 88.6968 9.04883 87.3918V18.7734C9.09866 17.4685 9.66265 16.2362 10.6177 15.3456C11.5728 14.4549 12.8415 13.9782 14.1468 14.0196H130.903C132.208 13.9782 133.476 14.4549 134.432 15.3456C135.387 16.2362 135.951 17.4685 136.001 18.7734L136.013 87.3918Z" fill="#035DDF"/>
<path d="M130.903 92.5404H14.1475C12.7416 92.5888 11.3734 92.0805 10.3401 91.1259C9.30677 90.1714 8.69186 88.8477 8.62891 87.4424V18.773C8.69186 17.3677 9.30677 16.044 10.3401 15.0894C11.3734 14.1349 12.7416 13.6266 14.1475 13.675H130.903C132.309 13.6266 133.677 14.1349 134.711 15.0894C135.744 16.044 136.359 17.3677 136.422 18.773V87.3914C136.372 88.8057 135.763 90.1424 134.728 91.1078C133.693 92.0733 132.318 92.5885 130.903 92.5404Z" fill="#393939"/>
<path d="M131.591 19.0024H12.4141V88.1562H131.591V19.0024Z" fill="#1C1C1C"/>
<path d="M127.539 19.0024H12.4141V88.1562H127.539V19.0024Z" fill="#E4EEFF"/>
<path d="M146.642 87.8125H0.394531V95.4594H146.642V87.8125Z" fill="#007695"/>
<path d="M147.038 95.8673H0V87.4302H147.038V95.8673Z" fill="#393939"/>
<mask id="mask0_5_367" style="mask-type:luminance" maskUnits="userSpaceOnUse" x="12" y="19" width="116" height="70">
<path d="M127.537 19.0024H12.5527V88.1562H127.537V19.0024Z" fill="white"/>
</mask>
<g mask="url(#mask0_5_367)">
<path d="M163.006 -23.8584H-3.69727V190.001H163.006V-23.8584Z" fill="#EBEBEC"/>
<path d="M90.6786 189.912C79.6416 170.246 78.571 111.926 78.2014 89.1251C78.2014 87.9653 78.2014 86.9457 78.2014 86.0663C78.1249 82.4595 78.1122 78.1899 78.0994 73.6528C78.0994 56.2433 77.9847 32.3976 74.5946 17.3969C70.4398 -1.05769 53.4763 -23.6161 53.2852 -23.8838H58.2174C59.0203 -22.8132 73.7152 -3.492 78.1249 16.0841C81.6425 31.7094 81.719 55.9501 81.77 73.64C81.77 78.1517 81.7699 82.3957 81.8592 85.9516C81.8592 86.831 81.8592 87.8633 81.8592 89.0231C82.0376 99.9327 82.4072 122.631 84.7777 144.82C87.6708 171.839 90.6786 182.124 95.3178 189.988L90.6786 189.912Z" fill="#FFB655"/>
<path d="M40.1461 190.013C39.751 173.929 40.949 153.754 44.3264 113.684C45.3077 102.099 46.3146 90.1317 47.1557 78.5848C48.9783 53.248 46.1489 38.6169 43.447 30.7915C40.5794 22.4819 37.2785 19.9966 37.2402 19.9711L38.9863 15.8418C39.6235 16.2751 54.535 27.1592 50.8008 79.0181C49.9723 90.6032 48.9528 102.583 47.9714 114.181C44.645 153.69 43.1921 173.929 43.7274 190.013H40.1461Z" fill="white"/>
<path d="M80.2796 72.0976L79.6934 70.0966C83.1887 68.4653 86.2778 66.0778 88.7376 63.1066C91.1974 60.1355 92.9664 56.6549 93.9166 52.9166C99.8048 32.1679 87.0471 3.03311 86.9197 2.73998L88.3599 1.68213C88.9079 2.95662 101.627 31.9894 95.4842 53.643C94.4778 57.6544 92.5912 61.3916 89.9614 64.5836C87.3315 67.7755 84.0244 70.3422 80.2796 72.0976Z" fill="#FFB655"/>
<path d="M105.309 -23.8583C105.309 -23.8583 94.6547 5.2383 100.645 23.4125C106.635 41.5867 107.017 46.2896 105.309 53.1336C103.602 59.9776 100.313 73.6656 100.313 83.0713C100.313 92.477 88.6519 110.027 90.9842 120.286C93.3165 130.546 103.984 154.073 117.659 164.779C131.335 175.484 149.33 179.881 153.664 166.971C157.997 154.06 159.666 150.237 162.993 150.237V133.554C162.993 133.554 146.654 124.989 142.321 139.531C137.987 154.073 135.324 150.237 131.322 143.355C127.32 136.472 114.32 136.982 117.659 120.681C120.998 104.381 137.656 84.7409 128.658 63.7883C119.66 42.8357 113.657 52.2414 116.984 41.1152C120.31 29.9889 121.317 22.8645 112.982 17.8812C104.647 12.898 100.645 17.6008 108.649 -23.8965L105.309 -23.8583Z" fill="#91DE36"/>
<path d="M108.649 79.6555C108.649 79.6555 114.652 74.9527 117.315 83.0712C119.979 91.1897 117.991 102.749 112.982 102.749C107.973 102.749 103.984 88.6407 108.649 79.6555Z" fill="#FFF0D5"/>
<path d="M30.562 126.888C30.562 126.378 29.2875 77.2852 30.6385 59.4679C30.9966 54.1734 32.578 49.0342 35.2583 44.4543C37.9386 39.8743 41.6447 35.9786 46.0853 33.0732L46.6206 34.6409C42.4136 37.3922 38.901 41.0805 36.3582 45.4166C33.8153 49.7527 32.3113 54.6188 31.9639 59.6336C30.6895 77.3362 31.8747 126.34 31.9002 126.825L30.562 126.888Z" fill="white"/>
<path d="M-3.69727 54.6374V52.5472C3.69476 51.8208 11.9279 44.2248 18.5935 37.9926C23.6915 33.175 27.7953 29.3771 30.6502 29.1859C36.602 28.7908 40.1451 20.5321 40.1706 20.4429L41.3431 21.2586C41.1902 21.6409 37.4177 30.4476 30.7266 30.8937C28.2541 31.0594 24.1375 34.9083 19.3837 39.369C12.6162 45.7287 4.07711 53.8599 -3.69727 54.6374Z" fill="white"/>
<path d="M163.005 125.843L140.753 85.646V85.5568C140.396 84.499 132.035 59.621 130.697 45.5379C129.423 31.697 116.308 -9.35431 116.168 -9.76215L117.442 -10.4121C117.99 -8.71704 130.735 31.2636 132.061 45.334C133.335 58.7671 141.441 83.1608 141.976 84.8431L163.005 122.249V125.843Z" fill="white"/>
<path d="M66.7567 190.014C66.6803 188.854 64.9852 161.516 66.7567 148.312C67.7253 141.073 65.6224 128.672 62.9333 112.971C60.8049 100.443 58.3833 86.2065 56.9559 71.142C55.4393 55.1472 54.2667 45.2827 53.5785 39.3818C52.7119 32.0663 52.5079 30.333 53.056 29.1859C53.2599 28.7781 53.3109 28.6761 65.3548 24.8017C71.1792 22.9282 77.0673 21.0802 77.1183 21.0547L77.4497 22.7243C68.8596 25.4262 56 29.5428 54.1138 30.3712C54.157 33.3092 54.4169 36.2399 54.8912 39.1397C55.5922 45.0533 56.752 54.9178 58.2813 70.9381C59.7088 85.9516 62.1048 100.124 64.2332 112.627C66.9351 128.507 69.0635 141.06 68.0567 148.605C66.3106 161.605 68.0567 189.593 68.0567 189.886L66.7567 190.014Z" fill="#FFB655"/>
<path d="M19.2181 23.2086C5.36444 23.2086 -2.94522 19.2449 -3.72266 18.9263V14.0323C-3.53148 14.1215 9.31535 19.9204 23.0416 18.2763C37.2776 16.5685 71.3064 7.51963 84.217 1.30013C85.1091 0.866804 86.167 0.356979 87.3523 -0.242029C101.971 -7.50661 138.128 -25.3112 162.955 -11.5977V-6.49973C139.568 -21.0416 103.169 -3.07136 88.6777 4.12949L85.4915 5.69709C72.0584 12.2097 38.106 21.2204 23.4494 22.9537C22.0453 23.123 20.6324 23.2081 19.2181 23.2086Z" fill="#FFB655"/>
<path d="M68.1088 36.132L57.4286 38.0692L56.957 33.7614L67.6372 31.8242L68.1088 36.132Z" fill="#D8D8D8"/>
<path d="M61.4432 43.7531L58.1168 44.3394L56.957 33.7611L60.2834 33.1621L61.4432 43.7531Z" fill="#D8D8D8"/>
<path d="M70.0062 50.4445L59.3387 52.369L58.8672 48.0739L69.5474 46.1367L70.0062 50.4445Z" fill="#D8D8D8"/>
<path d="M63.3534 58.0656L60.027 58.6519L58.8672 48.0736L62.1809 47.4746L63.3534 58.0656Z" fill="#D8D8D8"/>
<path d="M95.4184 81.1213L84.7382 83.0457L84.2539 78.7507L94.9341 76.8135L95.4184 81.1213Z" fill="#D8D8D8"/>
<path d="M88.7528 88.7301L85.4264 89.3291L84.2539 78.7509L87.5803 78.1519L88.7528 88.7301Z" fill="#D8D8D8"/>
<path d="M71.2553 64.0685L60.5878 66.0057L60.1035 61.698L70.7837 59.7607L71.2553 64.0685Z" fill="#D8D8D8"/>
<path d="M58.3074 73.0537L57.1094 72.289C59.1868 66.8469 77.5012 66.4264 79.5658 66.4009V68.1087C72.0464 68.2234 59.6074 69.6636 58.3074 73.0537Z" fill="#FFB000"/>
<path d="M47.3086 20.8636C47.3086 20.8636 48.7233 25.0566 49.5644 27.0448C50.4056 29.033 61.175 21.9469 68.4651 22.2018C75.7552 22.4567 71.3199 13.8794 71.3199 13.8794L47.3086 20.8636Z" fill="#D8D8D8"/>
<path d="M101.742 37.2149L99.6004 37.9923L96.6309 24.419L98.7847 23.6416L101.742 37.2149Z" fill="#D8D8D8"/>
<path d="M97.9701 19.5382L95.8289 20.3029L92.8594 6.72959L95.0005 5.95215L97.9701 19.5382Z" fill="#D8D8D8"/>
<path d="M94.5531 74.2394L92.4629 73.258L96.2736 60.0161L98.3638 61.0102L94.5531 74.2394Z" fill="#D8D8D8"/>
<path d="M99.2434 56.9444L97.166 55.9631L100.964 42.7339L103.054 43.7152L99.2434 56.9444Z" fill="#D8D8D8"/>
<path d="M75.7554 62.3226L73.5505 62.6285L72.3652 48.6091L74.5828 48.3032L75.7554 62.3226Z" fill="#D8D8D8"/>
<path d="M21.9709 72.6587H-3.69727V112.716H21.9709V72.6587Z" fill="#91DE36"/>
<path d="M27.7568 72.6587H24.0098V112.716H27.7568V72.6587Z" fill="#D8D8D8"/>
<path d="M-3.69727 23.4126C-3.69727 23.4126 -0.192436 27.4655 9.99072 27.4018C20.1739 27.338 27.6296 24.0499 30.6884 25.4136C33.7472 26.7773 20.9131 30.8939 17.0004 34.9595C13.0877 39.0251 1.52813 49.2847 -3.69727 49.5779V23.4126Z" fill="#D8D8D8"/>
<path d="M84.8167 6.09229C84.8167 6.09229 95.2037 37.6741 90.6793 49.5778C86.1549 61.4816 83.8226 63.2021 83.4785 59.7737C83.1343 56.3454 83.6441 21.0548 77.9727 8.8707L84.8167 6.09229Z" fill="#D8D8D8"/>
<path d="M21.9969 45.7417L15.3059 52.4073L13.4961 49.3995L20.1744 42.7339L21.9969 45.7417Z" fill="#D8D8D8"/>
<path d="M30.7261 36.7182L23.8821 43.6132L22.0469 40.6181L28.8909 33.7231L30.7261 36.7182Z" fill="#D8D8D8"/>
<path d="M25.5516 50.9667L18.8733 57.645L17.0508 54.6373L23.7418 47.9717L25.5516 50.9667Z" fill="#D8D8D8"/>
<path d="M34.2818 41.9564L27.4378 48.8514L25.6152 45.8691L32.4465 38.9741L34.2818 41.9564Z" fill="#D8D8D8"/>
<path d="M27.7568 61.3286H12.4375V69.9059H27.7568V61.3286Z" fill="#D8D8D8"/>
<path d="M31.1602 31.8749L36.2581 40.21C36.2581 40.21 41.1394 34.0542 42.1463 33.2003C43.1531 32.3464 40.1453 26.5093 40.1453 26.5093C40.1453 26.5093 36.4748 31.0974 31.1602 31.8749Z" fill="#91DE36"/>
<path d="M127.18 25.0569L126.492 23.5785C126.645 23.4765 141.493 12.261 153.511 8.67969L153.817 10.3493C141.99 13.8669 127.321 24.9549 127.18 25.0569Z" fill="white"/>
<path d="M135.783 15.8293L127.843 19.64L126.811 16.0842L134.738 12.2734L135.783 15.8293Z" fill="#D8D8D8"/>
<path d="M67.5083 76.3292L61.5819 77.0812L61.3652 74.4175L67.2916 73.6655L67.5083 76.3292Z" fill="#D8D8D8"/>
<path d="M75.3341 75.1695L69.2421 75.9725L69.0254 73.3215L75.1174 72.5059L75.3341 75.1695Z" fill="#D8D8D8"/>
<path d="M68.0951 81.1598L62.1688 81.9117L61.9648 79.248L67.8785 78.4961L68.0951 81.1598Z" fill="#D8D8D8"/>
<path d="M75.92 79.9996L69.828 80.8025L69.6113 78.1516L75.7034 77.3359L75.92 79.9996Z" fill="#D8D8D8"/>
<path d="M68.4779 86.8946L62.5516 87.6466L62.3477 84.9829L68.274 84.231L68.4779 86.8946Z" fill="#D8D8D8"/>
<path d="M76.2901 85.735L70.2108 86.5379L69.9941 83.887L76.0862 83.0713L76.2901 85.735Z" fill="#D8D8D8"/>
<path d="M76.8888 90.565L70.7967 91.368L70.5801 88.717L76.6721 87.9014L76.8888 90.565Z" fill="#D8D8D8"/>
<path d="M51.5 103.03H57.7195L54.6097 70.1479L51.5 103.03Z" fill="#D8D8D8"/>
<path d="M42.3997 42.7339C37.1781 50.8411 34.363 60.2631 34.2812 69.906C34.2812 85.6459 34.2812 103.043 34.2812 103.043H42.3997C42.3997 103.043 49.5751 55.0072 42.3997 42.7339Z" fill="#D8D8D8"/>
<path d="M112.548 -2.03906C112.548 -2.03906 103.932 7.18821 108.724 9.85189C113.516 12.5156 122.743 20.3792 121.469 31.8368C120.194 43.2945 123.954 47.5385 125.917 49.2718C127.88 51.0051 128.109 19.7802 112.548 -2.03906Z" fill="#D8D8D8"/>
<path d="M133.768 71.104C133.768 71.104 142.613 89.7498 137.77 92.4899C129.397 97.231 125.025 115.584 121.571 115.8C118.678 115.991 134.877 87.9527 133.768 71.104Z" fill="#D8D8D8"/>
</g>
<path d="M74.812 32.8818C83.892 32.8818 91.2529 25.5209 91.2529 16.4409C91.2529 7.36084 83.892 0 74.812 0C65.7319 0 58.3711 7.36084 58.3711 16.4409C58.3711 25.5209 65.7319 32.8818 74.812 32.8818Z" fill="#EE375F"/>
<path d="M74.8111 22.4566C78.7669 22.4566 81.9737 19.2498 81.9737 15.294C81.9737 11.3382 78.7669 8.13135 74.8111 8.13135C70.8553 8.13135 67.6484 11.3382 67.6484 15.294C67.6484 19.2498 70.8553 22.4566 74.8111 22.4566Z" fill="#EDEDED"/>
<path d="M74.811 55.6697L89.7352 23.3359H59.8867L74.811 55.6697Z" fill="#EE375F"/>
<path d="M139.976 92.0816C139.976 92.0816 141.097 90.1698 140.498 91.0747C139.899 91.9796 136.573 94.7707 138.115 95.7266C138.956 96.2364 140.74 95.1403 141.046 94.4521C141.543 93.4453 141.773 93.8786 142.244 93.4453C143.022 92.7315 142.372 91.559 142.372 91.559L139.976 92.0816Z" fill="#FC9E1C"/>
<path d="M156.546 90.8711C156.546 90.8711 156.546 88.6662 156.482 89.7368C156.418 90.8073 154.965 94.9112 156.762 94.9622C157.757 94.9622 158.738 93.1397 158.687 92.4132C158.61 91.2917 159.031 91.5466 159.209 90.9476C159.515 89.928 158.368 89.2397 158.368 89.2397L156.546 90.8711Z" fill="#FC9E1C"/>
<path d="M148.337 61.9019C148.592 60.0539 147.674 56.3579 143.71 56.5874C139.747 56.8168 134.011 75.1184 137.44 78.5723C140.55 81.7075 148.018 64.2852 148.337 61.9019Z" fill="#302A3D"/>
<path d="M139.379 92.0051C138.181 88.2963 135.39 75.3348 136.728 73.6397C138.805 71.0907 141.826 72.824 142.374 77.0553C142.769 79.8082 142.552 89.01 142.68 91.559C142.705 92.1835 139.723 93.0501 139.379 92.0051Z" fill="#302A3D"/>
<path d="M153.562 74.1623C153.562 74.1623 154.837 63.2654 154.48 60.8694C154.009 57.6959 151.014 54.191 149.076 55.491C145.712 57.7214 145.814 77.4632 150.058 79.5406C153.907 81.4396 153.562 74.1623 153.562 74.1623Z" fill="#302A3D"/>
<path d="M155.83 90.8708C153.587 87.761 147.011 76.3416 147.763 74.2387C148.922 71.0142 152.262 71.6897 154.135 75.5132C155.41 77.9984 157.959 86.8816 158.838 89.2777C159.029 89.8639 156.48 91.7757 155.83 90.8708Z" fill="#302A3D"/>
<path d="M150.632 60.3982C150.722 61.0061 150.959 61.5832 151.32 62.0805C151.609 62.4606 152.018 62.7318 152.481 62.8498C152.944 62.9678 153.433 62.9257 153.869 62.7305C154.098 62.654 153.996 62.2589 153.767 62.3354C153.346 62.5442 152.859 62.5784 152.413 62.4304C151.966 62.2825 151.597 61.9643 151.384 61.5452C151.171 61.1478 151.029 60.7166 150.963 60.2707C150.963 60.0158 150.568 60.1177 150.606 60.3726L150.632 60.3982Z" fill="#6C6C80"/>
<path d="M161.351 39.3053C163.02 37.7759 165.812 31.8623 165.812 31.8623L163.849 32.2956L159.516 37.7504C159.516 37.7504 159.681 40.7965 161.351 39.3053Z" fill="#8B472B"/>
<path d="M132.943 38.8976C131.222 37.4192 128.266 31.5947 128.266 31.5947L129.757 31.7349L134.727 37.2789C134.727 37.2789 134.664 40.3632 132.943 38.8976Z" fill="#8B472B"/>
<path d="M129.717 31.1998C129.775 31.0344 129.852 30.8762 129.946 30.7282C130.068 30.4328 130.133 30.1172 130.138 29.7979C130.138 29.6194 130.393 29.2626 130.227 29.1096C130.061 28.9567 129.704 29.5557 129.602 29.6832C129.563 29.7491 129.503 29.7999 129.431 29.8277C129.36 29.8554 129.281 29.8583 129.207 29.8361C129.161 29.8154 129.118 29.7856 129.083 29.7484C129.048 29.7112 129.021 29.6674 129.003 29.6195C128.847 29.3319 128.711 29.0338 128.596 28.7273C128.532 28.5744 128.455 28.4342 128.379 28.2812C128.339 28.1476 128.284 28.0192 128.213 27.8989C128.177 27.8639 128.129 27.8442 128.079 27.8442C128.029 27.8442 127.981 27.8639 127.946 27.8989C127.946 27.9754 127.946 28.0518 127.946 28.1283C127.946 28.2048 128.047 28.4852 128.098 28.6636C128.149 28.842 128.188 28.8802 128.162 28.9185C128.137 28.9567 127.818 28.6381 127.793 28.5616C127.718 28.3717 127.59 28.2078 127.423 28.0901C127.411 28.0844 127.398 28.0815 127.385 28.0815C127.372 28.0815 127.358 28.0844 127.347 28.0901C127.347 28.0901 127.347 28.1665 127.347 28.2047C127.347 28.4596 127.525 28.6891 127.563 28.9312C127.601 29.1734 127.563 29.0332 127.563 29.0587C127.563 29.0842 127.245 28.8802 127.168 28.791C127.092 28.7018 127.066 28.6763 127.002 28.7018C126.979 28.7101 126.959 28.7257 126.945 28.7464C126.931 28.7671 126.925 28.7917 126.926 28.8165C126.915 28.8582 126.915 28.9023 126.926 28.944C126.961 29.0753 127.008 29.2032 127.066 29.3263C127.066 29.3263 127.206 29.543 127.143 29.5939C127.081 29.5726 127.024 29.5378 126.977 29.492C126.952 29.4775 126.923 29.4698 126.894 29.4698C126.865 29.4698 126.836 29.4775 126.811 29.492C126.735 29.492 126.735 29.6322 126.811 29.7086C126.898 29.9797 127.022 30.2371 127.181 30.4733C127.334 30.7282 127.487 30.9704 127.665 31.2126C127.892 31.5374 128.143 31.8443 128.417 32.1302C128.63 32.4191 128.936 32.626 129.284 32.7164H129.59C129.725 32.708 129.859 32.6778 129.985 32.6272C130.049 32.6045 130.108 32.5691 130.158 32.5231C130.209 32.4771 130.249 32.4215 130.278 32.3596V32.2958C130.165 32.1597 130.062 32.0148 129.972 31.8625C129.806 31.6818 129.715 31.445 129.717 31.1998Z" fill="#8B472B"/>
<path d="M164 31.8751C163.961 31.7131 163.896 31.5583 163.809 31.4163C163.686 31.1158 163.613 30.7972 163.592 30.4732C163.592 30.3075 163.338 29.9506 163.503 29.7977C163.669 29.6448 164.026 30.231 164.128 30.3585C164.171 30.4231 164.234 30.4718 164.308 30.4971C164.382 30.5224 164.462 30.523 164.536 30.4987C164.625 30.4497 164.696 30.3738 164.739 30.282C164.892 29.9889 164.994 29.683 165.122 29.3899C165.182 29.2336 165.25 29.0805 165.326 28.9311C165.365 28.7974 165.421 28.669 165.491 28.5487C165.508 28.5297 165.529 28.5145 165.552 28.5041C165.575 28.4937 165.6 28.4883 165.625 28.4883C165.651 28.4883 165.676 28.4937 165.699 28.5041C165.722 28.5145 165.742 28.5297 165.759 28.5487C165.759 28.6379 165.759 28.7016 165.759 28.7908C165.759 28.8801 165.657 29.1477 165.619 29.3261C165.581 29.5046 165.53 29.5428 165.619 29.5811C165.708 29.6193 165.937 29.2879 165.976 29.2114C166.045 29.0225 166.17 28.8584 166.333 28.7399C166.345 28.7342 166.358 28.7313 166.371 28.7313C166.384 28.7313 166.397 28.7342 166.409 28.7399C166.409 28.7399 166.409 28.8036 166.409 28.8546C166.409 28.9056 166.243 29.3389 166.205 29.5811C166.167 29.8232 166.205 29.683 166.205 29.6958C166.205 29.7085 166.524 29.5173 166.6 29.4408C166.677 29.3644 166.702 29.3262 166.766 29.3389C166.789 29.3471 166.81 29.3628 166.823 29.3835C166.837 29.4042 166.844 29.4288 166.842 29.4536C166.848 29.4959 166.848 29.5388 166.842 29.5811C166.842 29.7085 166.753 29.8359 166.689 29.9634C166.626 30.0908 166.562 30.18 166.626 30.231C166.688 30.2096 166.744 30.1748 166.791 30.1291C166.817 30.1145 166.845 30.1069 166.874 30.1069C166.903 30.1069 166.932 30.1145 166.957 30.1291C167.034 30.1291 167.034 30.2692 167.021 30.3457C166.933 30.6141 166.813 30.8709 166.664 31.1104C166.511 31.3653 166.358 31.6202 166.18 31.8624C165.973 32.1692 165.747 32.4629 165.504 32.7418C165.335 32.9928 165.147 33.2314 164.943 33.4555C164.858 33.5169 164.759 33.557 164.655 33.5725C164.55 33.588 164.444 33.5785 164.344 33.5447C164.153 33.5447 163.975 33.379 163.784 33.3153C163.592 33.2516 163.389 33.1241 163.478 32.8692C163.5 32.818 163.53 32.7707 163.567 32.729C163.649 32.6007 163.738 32.4773 163.835 32.3594C163.905 32.2827 163.957 32.1913 163.988 32.0918C164.018 32.0236 164.023 31.9465 164 31.8751Z" fill="#8B472B"/>
<path d="M132.088 38.6299C132.394 37.0368 134.369 36.3103 134.369 36.3103C136.851 38.8239 139.834 40.7867 143.125 42.071C146.44 42.8647 149.878 42.999 153.244 42.4661C155.816 39.8417 158.553 37.3853 161.439 35.1123C161.891 35.4312 162.261 35.8528 162.518 36.3425C162.775 36.8322 162.912 37.3759 162.918 37.9289C160.936 42.01 157.798 45.4183 153.894 47.7297C153.224 48.8892 152.698 50.1261 152.327 51.413C150.785 56.7658 153.945 56.1923 153.423 57.4158C152.467 59.6207 146.502 60.5638 143.112 59.2511C141.914 58.7795 141.443 58.1295 141.723 57.5178C143.737 53.1463 140.219 51.2473 141.124 48.5964C141.278 48.1551 141.381 47.6975 141.43 47.2327C138.001 44.727 134.867 41.841 132.088 38.6299Z" fill="#00D2FF"/>
<path d="M146.437 46.2767C145.96 46.3092 145.484 46.207 145.062 45.9816C144.641 45.7562 144.291 45.4168 144.053 45.0021C143.815 44.5874 143.698 44.1141 143.717 43.6364C143.735 43.1586 143.887 42.6956 144.156 42.3003H144.322C144.025 42.8079 143.921 43.4054 144.028 43.9835C144.136 44.5616 144.448 45.0816 144.908 45.4483C145.565 45.7665 146.299 45.8901 147.024 45.8042C147.749 45.7184 148.435 45.4268 148.999 44.964C149.882 44.3462 150.617 43.5412 151.153 42.6062H151.472C150.477 44.4287 148.387 46.2894 146.437 46.2767Z" fill="#FBFCFB"/>
<path d="M143.736 46.1747C143.736 46.1747 142.461 41.8415 141.289 46.0728C141.289 46.0728 138.396 51.9354 143.583 52.5726C147.814 53.0824 144.513 47.1816 144.513 47.1816L143.736 46.1747Z" fill="#00D2FF"/>
<path d="M140.882 50.6226C141.07 51.0113 141.35 51.3482 141.697 51.604C142.216 51.8474 142.795 51.9301 143.36 51.8415C143.926 51.7529 144.452 51.4971 144.871 51.1069C145.062 50.9795 145.241 51.2981 145.049 51.4256C144.588 51.8311 144.022 52.0988 143.416 52.1979C142.809 52.2971 142.188 52.2238 141.621 51.9863C141.131 51.6903 140.751 51.243 140.538 50.7119C140.448 50.4952 140.805 50.406 140.882 50.6226Z" fill="#BEA02F"/>
<path d="M146.146 51.0814C146.424 51.3984 146.77 51.6492 147.157 51.8154C147.545 51.9816 147.965 52.059 148.387 52.0419C148.808 52.0248 149.221 51.9136 149.594 51.7165C149.967 51.5195 150.291 51.2415 150.543 50.9029C150.696 50.7245 150.95 50.9794 150.797 51.1578C150.513 51.5318 150.149 51.838 149.733 52.0543C149.316 52.2707 148.856 52.3918 148.386 52.4088C147.917 52.4259 147.45 52.3385 147.018 52.1531C146.586 51.9676 146.201 51.6886 145.891 51.3362C145.874 51.3195 145.861 51.2997 145.852 51.2778C145.843 51.2559 145.838 51.2325 145.838 51.2088C145.838 51.1852 145.843 51.1617 145.852 51.1398C145.861 51.118 145.874 51.0981 145.891 51.0814C145.907 51.0646 145.927 51.0513 145.949 51.0423C145.971 51.0332 145.994 51.0285 146.018 51.0285C146.042 51.0285 146.065 51.0332 146.087 51.0423C146.109 51.0513 146.129 51.0646 146.146 51.0814Z" fill="#BEA02F"/>
<path d="M153.065 46.7227C153.088 46.9449 153.186 47.1526 153.344 47.3105C153.502 47.4685 153.71 47.5669 153.932 47.5893C154.085 47.5893 154.021 47.857 153.868 47.8315C153.596 47.7864 153.345 47.6538 153.154 47.4538C152.963 47.2538 152.843 46.9972 152.811 46.7227C152.811 46.6889 152.824 46.6565 152.848 46.6326C152.872 46.6087 152.904 46.5952 152.938 46.5952C152.972 46.5952 153.004 46.6087 153.028 46.6326C153.052 46.6565 153.065 46.6889 153.065 46.7227Z" fill="#BEA02F"/>
<path d="M141.965 45.7925C141.93 46.0647 141.808 46.3184 141.618 46.5159C141.427 46.7134 141.178 46.8441 140.907 46.8885C140.754 46.8885 140.678 46.6719 140.843 46.6464C141.063 46.6223 141.268 46.5249 141.425 46.37C141.582 46.215 141.683 46.0116 141.71 45.7925C141.71 45.7587 141.723 45.7263 141.747 45.7024C141.771 45.6785 141.804 45.665 141.837 45.665C141.871 45.665 141.904 45.6785 141.927 45.7024C141.951 45.7263 141.965 45.7587 141.965 45.7925Z" fill="#BEA02F"/>
<path d="M131.247 33.4044C131.604 32.576 130.049 33.1495 129.82 33.2769C129.59 33.4044 129.272 33.5828 129.182 33.8249C129.15 33.8914 129.14 33.9664 129.154 34.0389C129.168 34.1113 129.205 34.1774 129.259 34.2274C129.313 34.2774 129.382 34.3086 129.456 34.3165C129.529 34.3243 129.603 34.3084 129.667 34.271C129.781 34.1945 129.896 34.3857 129.781 34.4494C129.71 34.4968 129.628 34.5266 129.542 34.5364C129.457 34.5462 129.37 34.5359 129.29 34.5061C129.209 34.4763 129.137 34.428 129.078 34.365C129.02 34.302 128.977 34.2262 128.953 34.1436C128.825 33.723 129.208 33.4044 129.526 33.2004C129.95 32.8773 130.472 32.7106 131.005 32.7289C131.094 32.7327 131.181 32.7594 131.257 32.8062C131.333 32.8531 131.395 32.9186 131.439 32.9965C131.482 33.0745 131.505 33.1622 131.505 33.2515C131.505 33.3407 131.482 33.4285 131.438 33.5063C131.438 33.6338 131.196 33.5063 131.247 33.4044Z" fill="#FCC250"/>
<path d="M130.992 32.7797C131.349 31.9513 129.794 32.5248 129.565 32.6523C129.296 32.7576 129.072 32.9508 128.927 33.2003C128.901 33.2679 128.896 33.3419 128.913 33.4125C128.93 33.483 128.968 33.5468 129.022 33.5953C129.076 33.6437 129.143 33.6746 129.215 33.6837C129.287 33.6928 129.36 33.6798 129.424 33.6464C129.448 33.6312 129.477 33.626 129.504 33.632C129.532 33.6379 129.556 33.6546 129.571 33.6783C129.586 33.7019 129.591 33.7307 129.585 33.7581C129.579 33.7856 129.563 33.8096 129.539 33.8248C129.467 33.8721 129.386 33.9019 129.3 33.9118C129.215 33.9216 129.128 33.9112 129.048 33.8814C128.967 33.8517 128.894 33.8033 128.836 33.7404C128.777 33.6774 128.735 33.6015 128.711 33.5189C128.571 33.0984 128.966 32.7797 129.272 32.5631C129.701 32.2525 130.22 32.0913 130.75 32.1042C130.839 32.1081 130.926 32.1347 131.002 32.1816C131.078 32.2284 131.14 32.294 131.184 32.3719C131.227 32.4499 131.25 32.5376 131.25 32.6269C131.25 32.7161 131.227 32.8038 131.183 32.8817C131.183 33.0091 130.941 32.8817 130.992 32.7797Z" fill="#FCC250"/>
<path d="M146.667 40.0703C146.667 40.0703 146.871 42.9251 145.801 43.0143C144.73 43.1035 142.678 42.9124 142.411 41.0261C142.143 39.1399 143.609 35.138 145.367 33.9782C145.569 33.8146 145.806 33.6993 146.06 33.641C146.313 33.5828 146.576 33.5832 146.83 33.6422C147.083 33.7012 147.319 33.8173 147.521 33.9815C147.723 34.1458 147.884 34.3539 147.993 34.59C147.993 34.59 143.647 36.0684 146.667 40.0703Z" fill="#242236"/>
<path d="M149.129 38.3496C149.129 38.3496 145.815 39.2418 146.044 39.5604C146.274 39.879 146.044 40.5927 146.044 41.2554C146.028 42.08 145.761 42.8801 145.28 43.5495C144.948 44.0848 145.445 44.6074 146.083 44.6711C146.815 44.7761 147.562 44.6728 148.238 44.3731C148.914 44.0733 149.492 43.5891 149.906 42.976C148.823 41.7143 149.129 38.3496 149.129 38.3496Z" fill="#8B472B"/>
<path d="M146.056 41.2554C145.993 40.5927 146.273 39.879 146.056 39.5604C145.84 39.2418 149.14 38.3496 149.14 38.3496C148.858 38.9015 148.713 39.5139 148.72 40.1339C147.875 40.9763 146.934 41.7164 145.916 42.3388C146.009 41.9852 146.056 41.6211 146.056 41.2554Z" fill="#602C13"/>
<path d="M146.209 34.0417C145.062 35.0103 142.691 38.9995 144.629 41.0641C145.457 41.9435 148.006 40.8984 149.421 38.9485C149.745 38.2767 149.913 37.5404 149.913 36.7946C149.913 36.0487 149.745 35.3125 149.421 34.6407C149.265 34.3724 149.053 34.1408 148.8 33.9618C148.546 33.7828 148.257 33.6608 147.952 33.6039C147.647 33.547 147.334 33.5567 147.033 33.6323C146.732 33.7078 146.451 33.8475 146.209 34.0417Z" fill="#8B472B"/>
<path d="M144.54 36.0933C144.731 36.5139 144.68 35.5198 145.662 35.1757C145.783 35.1428 145.907 35.1173 146.031 35.0992C146.136 35.0733 146.245 35.0733 146.35 35.0992C146.453 35.1317 146.543 35.1961 146.607 35.2831C146.671 35.3702 146.706 35.4754 146.707 35.5835C146.765 36.0566 146.965 36.5009 147.28 36.858C147.626 37.2391 147.876 37.6982 148.007 38.1962C148.021 38.3487 148.055 38.4987 148.109 38.6423C148.194 38.8129 148.242 38.9997 148.249 39.1903C148.249 39.3815 148.249 39.5599 148.249 39.7511C148.233 39.8703 148.248 39.9915 148.293 40.103C148.338 40.2146 148.41 40.3129 148.504 40.3883C148.58 40.4625 148.666 40.5267 148.759 40.5795C148.957 40.6816 149.173 40.7423 149.396 40.758C149.649 40.7674 149.9 40.7098 150.124 40.5913C150.347 40.4727 150.536 40.2972 150.67 40.0825C151.062 39.294 151.196 38.4022 151.053 37.5335C150.987 36.9313 150.876 36.3349 150.721 35.7492C150.576 35.2173 150.279 34.739 149.867 34.3728C149.312 33.893 148.622 33.595 147.892 33.5189C147.529 33.4618 147.159 33.4618 146.796 33.5189C144.132 33.9649 144.387 35.762 144.54 36.0933Z" fill="#242236"/>
<path d="M148.197 39.7383C148.197 39.7383 147.815 42.2872 148.745 42.4912C149.676 42.6951 151.485 42.6951 151.855 41C152.225 39.305 151.243 35.5325 149.79 34.3217C149.633 34.1524 149.437 34.0232 149.219 33.9448C149.002 33.8665 148.768 33.8412 148.539 33.8711C148.31 33.901 148.091 33.9852 147.901 34.1168C147.71 34.2484 147.554 34.4235 147.445 34.6276C147.445 34.6276 151.141 36.3864 148.197 39.7383Z" fill="#242236"/>
<path d="M151.129 36.3994C151.129 36.3994 151.601 38.4004 152.811 37.4445C154.022 36.4886 153.997 37.6612 153.869 38.3494C153.665 39.5092 154.557 39.1651 154.863 39.6876C156.278 42.1091 150.339 46.06 148.338 42.1474C147.471 40.465 151.129 36.3994 151.129 36.3994Z" fill="#242236"/>
<path d="M147.917 38.7446C147.917 38.7446 148.873 37.8652 149.395 38.1201C149.918 38.375 149.179 39.8661 148.121 39.6622C147.063 39.4583 147.624 38.9868 147.917 38.7446Z" fill="#8B472B"/>
<path d="M148.77 39.6493C148.778 39.7015 148.774 39.7547 148.759 39.8054C148.745 39.8561 148.72 39.9033 148.687 39.9439C148.653 39.9846 148.612 40.018 148.565 40.0418C148.518 40.0657 148.466 40.0796 148.414 40.0826C148.308 40.0861 148.204 40.0482 148.126 39.9768C148.047 39.9054 148 39.8062 147.993 39.7003C147.99 39.6484 147.996 39.5963 148.013 39.547C148.03 39.4977 148.056 39.4523 148.09 39.4132C148.125 39.3741 148.167 39.3422 148.213 39.3193C148.26 39.2964 148.311 39.2829 148.363 39.2797C148.414 39.2762 148.465 39.2831 148.514 39.3C148.562 39.3169 148.607 39.3433 148.645 39.3778C148.683 39.4123 148.714 39.4541 148.735 39.5008C148.757 39.5474 148.769 39.5979 148.77 39.6493Z" fill="#FCC250"/>
<path d="M146.898 38.2476C146.857 38.2596 146.812 38.2596 146.771 38.2476C146.58 38.2476 146.478 38.1838 146.414 38.0309C146.35 37.8779 146.223 38.0309 146.261 38.1201C146.293 38.1935 146.342 38.2582 146.404 38.3091C146.466 38.36 146.539 38.3955 146.617 38.4129C146.695 38.4303 146.777 38.429 146.854 38.4091C146.932 38.3892 147.004 38.3514 147.064 38.2986C147.153 38.2348 147.064 38.1074 146.949 38.1711L146.898 38.2476Z" fill="#1D100C"/>
<path d="M145.062 37.865C145.02 37.9171 144.968 37.9604 144.909 37.9924C144.744 38.0944 144.629 37.9924 144.527 37.8395C144.425 37.6865 144.323 37.8395 144.387 37.9287C144.424 38.0247 144.495 38.1036 144.587 38.1506C144.679 38.1976 144.784 38.2093 144.884 38.1836C145.009 38.1373 145.119 38.058 145.203 37.9542C145.266 37.865 145.126 37.7758 145.062 37.865Z" fill="#1D100C"/>
<path d="M144.654 36.9729C144.774 36.9215 144.909 36.9194 145.031 36.9671C145.153 37.0148 145.251 37.1085 145.304 37.2279C145.367 37.3426 145.533 37.2278 145.469 37.1131C145.394 36.9545 145.261 36.8313 145.097 36.7695C144.933 36.7076 144.751 36.712 144.59 36.7818C144.475 36.7818 144.59 37.0112 144.654 36.9729Z" fill="#602C13"/>
<path d="M146.364 37.3808C146.465 37.303 146.593 37.2664 146.72 37.2782C146.848 37.29 146.966 37.3494 147.052 37.4445C147.141 37.5464 147.281 37.4445 147.192 37.2916C147.073 37.1633 146.91 37.0843 146.735 37.0702C146.561 37.056 146.387 37.1077 146.249 37.2151C146.147 37.2916 146.249 37.4572 146.364 37.3808Z" fill="#602C13"/>
<path d="M145.662 37.623C145.713 37.8065 145.713 38.0002 145.662 38.1838C145.598 38.4514 145.305 38.5788 145.152 38.7955C144.999 39.0121 145.152 39.267 145.535 39.3563C145.624 39.3563 145.662 39.2671 145.535 39.2543C144.719 39.0504 145.637 38.6043 145.751 38.2602C145.815 38.0439 145.815 37.8138 145.751 37.5975C145.751 37.521 145.586 37.5975 145.611 37.5975L145.662 37.623Z" fill="#602C13"/>
<path d="M146.273 39.6748C146.273 39.6748 146.35 40.363 145.776 40.4013C145.203 40.4395 145.113 39.8023 145.113 39.8023L146.273 39.6748Z" fill="#F7FFFF"/>
<path d="M146.987 39.7257C147.205 39.7257 147.382 39.5488 147.382 39.3306C147.382 39.1124 147.205 38.9355 146.987 38.9355C146.769 38.9355 146.592 39.1124 146.592 39.3306C146.592 39.5488 146.769 39.7257 146.987 39.7257Z" fill="#602C13"/>
<path d="M144.413 39.3947C144.631 39.3947 144.808 39.2178 144.808 38.9996C144.808 38.7814 144.631 38.6045 144.413 38.6045C144.194 38.6045 144.018 38.7814 144.018 38.9996C144.018 39.2178 144.194 39.3947 144.413 39.3947Z" fill="#602C13"/>
<path d="M143.048 60.3982C142.962 61.0075 142.726 61.5857 142.36 62.0805C142.071 62.4606 141.662 62.7318 141.199 62.8498C140.736 62.9678 140.247 62.9257 139.811 62.7305C139.582 62.654 139.684 62.2589 139.913 62.3354C140.334 62.5442 140.821 62.5784 141.267 62.4304C141.713 62.2825 142.083 61.9643 142.296 61.5452C142.509 61.1478 142.651 60.7166 142.717 60.2707C142.717 60.0158 143.112 60.1177 143.074 60.3726L143.048 60.3982Z" fill="#6C6C80"/>
<path d="M127.22 30.7661L167.137 30.7661C168.544 30.7661 169.686 29.6249 169.686 28.2171V19.4741C169.686 18.0664 168.544 16.9252 167.137 16.9252L127.22 16.9252C125.812 16.9252 124.671 18.0664 124.671 19.4741V28.2171C124.671 29.6249 125.812 30.7661 127.22 30.7661Z" fill="#1A73E8"/>
<path d="M131.922 20.5958C132.415 20.5159 132.914 20.4776 133.413 20.4811C134.016 20.4356 134.614 20.6125 135.095 20.9782C135.272 21.139 135.411 21.3364 135.503 21.5565C135.596 21.7765 135.639 22.0141 135.631 22.2527C135.64 22.4857 135.603 22.7182 135.522 22.9369C135.441 23.1556 135.318 23.3562 135.159 23.5272C134.912 23.7528 134.622 23.9274 134.307 24.0411C133.992 24.1548 133.658 24.2054 133.324 24.1899C133.116 24.2109 132.907 24.2109 132.699 24.1899V26.5987H131.922V20.5958ZM132.699 23.5017C132.909 23.5464 133.122 23.5678 133.337 23.5654C134.28 23.5654 134.853 23.1066 134.853 22.2909C134.853 21.4753 134.292 21.1056 133.426 21.1056C133.185 21.0766 132.941 21.0766 132.699 21.1056V23.5017Z" fill="#EFEEFF"/>
<path d="M136.892 24.6489L136.268 26.5479H135.465L137.517 20.5195H138.447L140.499 26.5479H139.671L139.033 24.6489H136.892ZM138.868 24.0498L138.281 22.3166C138.141 21.9215 138.052 21.5646 137.963 21.2078C137.874 21.5774 137.772 21.9342 137.657 22.3038L137.071 24.0498H138.868Z" fill="#EFEEFF"/>
<path d="M141.34 20.6086C141.831 20.5158 142.331 20.4731 142.831 20.4812C143.455 20.4168 144.08 20.5948 144.577 20.9782C144.732 21.1224 144.855 21.2984 144.936 21.4941C145.018 21.6898 145.056 21.9007 145.049 22.1125C145.054 22.4582 144.946 22.7963 144.742 23.0749C144.537 23.3534 144.246 23.5571 143.914 23.6546C144.154 23.7621 144.361 23.9304 144.515 24.1429C144.67 24.3553 144.766 24.6044 144.794 24.8654C144.902 25.4304 145.06 25.9848 145.265 26.5222H144.462C144.283 26.0554 144.147 25.5734 144.055 25.0821C143.876 24.2537 143.557 23.935 142.856 23.9095H142.117V26.5222H141.34V20.6086ZM142.117 23.3488H142.92C143.749 23.3488 144.271 22.8899 144.271 22.2017C144.271 21.5135 143.71 21.0929 142.895 21.0802C142.634 21.0769 142.374 21.0982 142.117 21.1439V23.3488Z" fill="#EFEEFF"/>
<path d="M146.184 20.519H146.961V23.4249C147.127 23.1955 147.28 22.9788 147.433 22.7876L149.268 20.519H150.262L148.083 23.068L150.428 26.5346H149.51L147.535 23.5778L146.961 24.2406V26.5346H146.184V20.519Z" fill="#EFEEFF"/>
<path d="M151.791 20.5195V26.5479H151.014V20.5195H151.791Z" fill="#EFEEFF"/>
<path d="M153.154 26.5479V20.5196H153.995L155.933 23.5656C156.334 24.1944 156.692 24.8502 157.003 25.5283C156.927 24.7254 156.914 23.9989 156.914 23.0558V20.5068H157.641V26.5352H156.863L154.951 23.4764C154.53 22.8304 154.151 22.1577 153.817 21.4627C153.817 22.2274 153.817 22.9411 153.817 23.948V26.4969L153.154 26.5479Z" fill="#EFEEFF"/>
<path d="M163.606 26.2801C163.013 26.4957 162.388 26.6078 161.758 26.6114C161.346 26.65 160.931 26.598 160.542 26.4592C160.153 26.3203 159.799 26.0978 159.505 25.8075C159.211 25.5172 158.985 25.166 158.841 24.7787C158.697 24.3913 158.64 23.9772 158.673 23.5654C158.659 23.1418 158.735 22.7199 158.896 22.3276C159.056 21.9353 159.298 21.5813 159.605 21.2889C159.911 20.9964 160.277 20.7722 160.676 20.6308C161.076 20.4894 161.501 20.434 161.923 20.4684C162.437 20.4586 162.948 20.5495 163.427 20.7361L163.236 21.3733C162.833 21.201 162.399 21.1142 161.962 21.1184C161.637 21.0913 161.31 21.1354 161.004 21.2475C160.698 21.3596 160.42 21.5372 160.189 21.7677C159.959 21.9981 159.781 22.2761 159.669 22.5822C159.557 22.8883 159.513 23.2151 159.54 23.5399C159.508 23.857 159.545 24.1773 159.649 24.4786C159.753 24.78 159.921 25.0552 160.142 25.2854C160.362 25.5155 160.63 25.6952 160.926 25.8119C161.223 25.9286 161.541 25.9796 161.86 25.9614C162.211 25.9822 162.562 25.9301 162.892 25.8085V24.0115H161.617V23.387H163.606V26.2801Z" fill="#EFEEFF"/>
<path d="M55.3124 84.6133H52.5977C51.6193 84.6133 50.8262 85.4064 50.8262 86.3848V94.6817C50.8262 95.6601 51.6193 96.4533 52.5977 96.4533H55.3124C56.2908 96.4533 57.0839 95.6601 57.0839 94.6817V86.3848C57.0839 85.4064 56.2908 84.6133 55.3124 84.6133Z" fill="#302A3D"/>
<path d="M93.1776 84.6133H90.4629C89.4846 84.6133 88.6914 85.4064 88.6914 86.3848V94.6817C88.6914 95.6601 89.4846 96.4533 90.4629 96.4533H93.1776C94.156 96.4533 94.9491 95.6601 94.9491 94.6817V86.3848C94.9491 85.4064 94.156 84.6133 93.1776 84.6133Z" fill="#302A3D"/>
<path d="M94.1847 75.7047H52.4707L55.5295 66.4009C56.0872 64.9257 57.0923 63.6619 58.4041 62.7866C59.716 61.9113 61.2688 61.4683 62.8451 61.5196H83.8613C85.4358 61.4691 86.9867 61.9126 88.2963 62.788C89.606 63.6634 90.6088 64.9267 91.1642 66.4009L94.1847 75.7047Z" fill="#1A73E8"/>
<path d="M91.7889 77.3487H54.918L58.2189 66.541C58.4721 65.764 58.9676 65.0886 59.6328 64.6138C60.298 64.139 61.0978 63.8898 61.9149 63.9028H84.792C85.6091 63.8898 86.4089 64.139 87.0741 64.6138C87.7392 65.0886 88.2347 65.764 88.488 66.541L91.7889 77.3487Z" fill="#BEDFFF"/>
<path d="M98.4799 90.1446H48.1504L48.7366 80.4202C48.7434 78.9622 49.3282 77.5664 50.3627 76.539C51.3973 75.5116 52.7972 74.9366 54.2552 74.94H92.3751C93.8343 74.9366 95.2355 75.5112 96.2721 76.5382C97.3087 77.5653 97.8963 78.9611 97.9064 80.4202L98.4799 90.1446Z" fill="#EE375F"/>
<path d="M98.4799 90.1446H48.1504L48.7366 80.4202C48.7434 78.9622 49.3282 77.5664 50.3627 76.539C51.3973 75.5116 52.7972 74.9366 54.2552 74.94H92.3751C93.8343 74.9366 95.2355 75.5112 96.2721 76.5382C97.3087 77.5653 97.8963 78.9611 97.9064 80.4202L98.4799 90.1446Z" fill="#1A73E8"/>
<path d="M61.457 89.8136H86.2203L83.837 87.5577C82.6362 86.4095 81.0378 85.7702 79.3763 85.7735H67.9059C66.9821 85.7714 66.0685 85.9671 65.2266 86.3474C64.3847 86.7277 63.6338 87.2838 63.0246 87.9783L61.457 89.8136Z" fill="#302A3D"/>
<path d="M92.3753 74.94H54.2554C53.2477 74.9403 52.2592 75.2158 51.3967 75.737C50.5341 76.2581 49.8304 77.0049 49.3613 77.8968C50.9417 77.5782 58.0661 76.4566 60.9974 79.7066C64.617 83.7085 81.6824 83.9379 85.799 79.7066C88.743 76.6733 95.4341 77.5272 97.2694 77.8713C96.7991 76.9823 96.0943 76.2391 95.2316 75.7224C94.3688 75.2056 93.381 74.935 92.3753 74.94Z" fill="#003366"/>
<path d="M52.3684 79.6935C52.5725 79.3445 52.8899 79.0759 53.2678 78.9321C53.6456 78.7884 54.0614 78.7782 54.4458 78.9034C55.8605 79.3239 60.3339 80.5857 60.2957 82.268C60.2575 83.9504 58.1163 84.32 56.332 83.9886C54.5478 83.6572 50.7625 82.7268 52.3684 79.6935Z" fill="#FFDFAC"/>
<path d="M93.8397 79.6935C93.6355 79.3445 93.3182 79.0759 92.9403 78.9321C92.5624 78.7884 92.1467 78.7782 91.7622 78.9034C90.3476 79.3239 85.8741 80.5857 85.9124 82.268C85.9506 83.9504 88.0917 84.32 89.876 83.9886C91.6603 83.6572 95.4583 82.7268 93.8397 79.6935Z" fill="#FFDFAC"/>
<path d="M97.6011 91.2914H48.9921C48.5334 91.2914 48.0931 91.111 47.7664 90.789C47.4397 90.467 47.2528 90.0294 47.2461 89.5708V88.4238C47.2495 87.9629 47.4349 87.522 47.7619 87.1973C48.089 86.8727 48.5313 86.6905 48.9921 86.6905H58.8312L63.636 88.9973H83.3523L88.9473 86.6905H97.6011C97.8298 86.6888 98.0565 86.7324 98.2683 86.8187C98.4801 86.9051 98.6727 87.0325 98.835 87.1936C98.9973 87.3547 99.1261 87.5464 99.214 87.7575C99.3019 87.9686 99.3471 88.1951 99.3471 88.4238V89.5708C99.3455 89.7984 99.299 90.0235 99.2103 90.2332C99.1217 90.4428 98.9926 90.633 98.8304 90.7927C98.6683 90.9525 98.4763 91.0788 98.2654 91.1643C98.0544 91.2499 97.8287 91.293 97.6011 91.2914Z" fill="#003366"/>
<path d="M58.1422 87.978H49.7688C49.4521 87.978 49.1953 88.2348 49.1953 88.5515V89.4309C49.1953 89.7477 49.4521 90.0045 49.7688 90.0045H58.1422C58.459 90.0045 58.7157 89.7477 58.7157 89.4309V88.5515C58.7157 88.2348 58.459 87.978 58.1422 87.978Z" fill="#FFCC4E"/>
<path d="M97.1793 87.978H88.8059C88.4892 87.978 88.2324 88.2348 88.2324 88.5515V89.4309C88.2324 89.7477 88.4892 90.0045 88.8059 90.0045H97.1793C97.4961 90.0045 97.7528 89.7477 97.7528 89.4309V88.5515C97.7528 88.2348 97.4961 87.978 97.1793 87.978Z" fill="#FFCC4E"/>
<path d="M98.1236 85.4928H86.2327C85.0421 85.491 83.8549 85.3672 82.6896 85.1232C82.0148 84.9812 81.3272 84.9086 80.6376 84.9066H66.4144C65.7815 84.9091 65.1502 84.9688 64.5281 85.085L64.0693 85.1742C62.9939 85.3812 61.9017 85.4879 60.8066 85.4928H48.5078V85.0213H60.8066C61.8711 85.0191 62.9332 84.921 63.9801 84.7281L64.4389 84.6389C65.0897 84.5116 65.7512 84.4476 66.4144 84.4478H80.6376C81.3609 84.4504 82.0822 84.523 82.7915 84.6644C83.9227 84.9048 85.0762 85.0245 86.2327 85.0213H98.1236V85.4928Z" fill="#003366"/>
<path d="M92.668 71.5245C92.9219 71.7417 93.2451 71.8611 93.5792 71.8611C93.9134 71.8611 94.2365 71.7417 94.4905 71.5245C95.663 70.8236 94.7964 70.25 97.5748 70.3393C100.353 70.4285 100.124 72.1363 100.124 72.8882C100.124 73.6402 99.4865 74.9529 96.6444 74.5451C96.3179 74.5451 95.9959 74.4691 95.7039 74.3231C95.4119 74.1771 95.1579 73.9651 94.962 73.7039C94.7326 73.3471 93.8023 72.7608 93.4199 73.0412L92.668 71.5245Z" fill="#1A73E8"/>
<path d="M54.1404 71.5245C53.8865 71.7417 53.5633 71.8611 53.2292 71.8611C52.895 71.8611 52.5719 71.7417 52.3179 71.5245C51.1581 70.8236 52.012 70.25 49.2464 70.3393C46.4808 70.4285 46.6337 72.1363 46.6974 72.8882C46.7611 73.6402 47.3219 74.9529 50.1768 74.5451C50.5016 74.5461 50.8221 74.4704 51.1122 74.3243C51.4023 74.1781 51.6539 73.9656 51.8464 73.7039C52.0758 73.3471 53.0189 72.7608 53.4012 73.0412L54.1404 71.5245Z" fill="#1A73E8"/>
</svg>
