<svg id="Layer_1" data-name="Layer 1" xmlns="http://www.w3.org/2000/svg" viewBox="0 0 618.12 174.41"><defs><style>.cls-1{fill:#00d2ff;}.cls-2{fill:#1a73e8;}</style></defs><path class="cls-1" d="M162.29,122.21H137.73V82.42A4.53,4.53,0,0,1,139,79.09a8.11,8.11,0,0,1,3.23-1.89A37.69,37.69,0,0,1,151,75.31a86.16,86.16,0,0,1,9.22-.56q15,0,22.73,6.4t7.72,17.39A22.67,22.67,0,0,1,187.24,111a22.29,22.29,0,0,1-9.72,8.28A35.82,35.82,0,0,1,162.29,122.21Zm-24.56-7.45h16.89v29a19,19,0,0,1-3.22.61,37.73,37.73,0,0,1-4.56.28c-3.33,0-5.68-.6-7.05-1.78s-2.06-3.26-2.06-6.22Zm16.78-5.89h6.67q5.67,0,8.95-2.66a9.34,9.34,0,0,0,3.27-7.67c0-3.34-1-5.85-3.11-7.56s-5.07-2.56-9-2.56c-1.33,0-2.54,0-3.61.12s-2.13.18-3.17.33Z"/><path class="cls-1" d="M220.63,88.87q11.56,0,18.45,4.83t6.89,15v25.23a6.79,6.79,0,0,1-1.44,4.5,12.72,12.72,0,0,1-3.67,2.94,28.86,28.86,0,0,1-8.28,3.17,49.25,49.25,0,0,1-11.28,1.17q-11.34,0-18.06-4.45T196.52,128q0-7.56,4.67-11.62t13.89-4.94l14.78-1.56v-1.33a5.77,5.77,0,0,0-3-5.45q-2.94-1.66-8.39-1.66a34.37,34.37,0,0,0-8.28,1,50.34,50.34,0,0,0-7.28,2.33,7,7,0,0,1-2.27-2.72,8.26,8.26,0,0,1-.95-3.84c0-3.11,1.71-5.37,5.11-6.77a31.27,31.27,0,0,1,7.5-2A58.34,58.34,0,0,1,220.63,88.87Zm.67,44.45a26.07,26.07,0,0,0,5.06-.5,11.81,11.81,0,0,0,3.61-1.17V121l-9.34.89a13,13,0,0,0-6,1.55,4.37,4.37,0,0,0-2.22,4,5.1,5.1,0,0,0,2.11,4.28C215.93,132.79,218.19,133.32,221.3,133.32Z"/><path class="cls-1" d="M275.09,104.87v13.89H258.64V102.87a9.07,9.07,0,0,1,1.5-5.28,14,14,0,0,1,4.17-3.83,31.6,31.6,0,0,1,8.83-3.5A45.14,45.14,0,0,1,284,89q11.32,0,11.33,7.56a10.65,10.65,0,0,1-.5,3.33,12.81,12.81,0,0,1-1.16,2.67c-.75-.15-1.65-.28-2.73-.39a34.34,34.34,0,0,0-3.5-.17,29.27,29.27,0,0,0-6.67.78A21,21,0,0,0,275.09,104.87Zm-16.45,9.67,16.45.33v28.9a23,23,0,0,1-3.11.61,32.53,32.53,0,0,1-4.34.28q-4.67,0-6.83-1.67t-2.17-6Z"/><path class="cls-1" d="M320.21,123.32,303.76,123V71.53a21.66,21.66,0,0,1,3-.66,25.52,25.52,0,0,1,4.33-.34c3.19,0,5.5.56,7,1.67s2.17,3.15,2.17,6.11Zm-16.45-8.89,16.45.33v29a23.21,23.21,0,0,1-3.12.61,32.26,32.26,0,0,1-4.33.28q-4.67,0-6.83-1.67t-2.17-6Zm23.56,8.11L315.43,115l25.11-25.34A13.92,13.92,0,0,1,348.6,92a6.64,6.64,0,0,1,3.06,5.56,7.66,7.66,0,0,1-2,5.17,68.09,68.09,0,0,1-6.12,5.83Zm-11.23-5.22,13.12-5.78,24.56,23.78a12,12,0,0,1-2.67,7,8,8,0,0,1-6.33,2.5,10.47,10.47,0,0,1-5.5-1.5,21.08,21.08,0,0,1-5.28-5Z"/><path class="cls-2" d="M369,125l-.67-11.12,27.57-4.33a9.54,9.54,0,0,0-2.67-5.78q-2.45-2.67-7.23-2.67a11.2,11.2,0,0,0-8.33,3.39q-3.33,3.39-3.56,9.62l.56,7.66c.67,4.08,2.4,7,5.22,8.73a18.65,18.65,0,0,0,10,2.61,28.22,28.22,0,0,0,8.78-1.33,37.19,37.19,0,0,0,6.67-2.78,7.72,7.72,0,0,1,2.72,2.78,7.2,7.2,0,0,1,1.06,3.77,7,7,0,0,1-2.61,5.56,17.25,17.25,0,0,1-7.23,3.34,45.53,45.53,0,0,1-10.5,1.11,35.65,35.65,0,0,1-15.39-3.23,24.35,24.35,0,0,1-10.72-9.66q-3.9-6.45-3.89-16.12A30.89,30.89,0,0,1,361,104.2a24.2,24.2,0,0,1,6.12-8.61,25.37,25.37,0,0,1,8.67-5,30.62,30.62,0,0,1,10.05-1.67,28.06,28.06,0,0,1,13.39,3,23,23,0,0,1,9,8.28,22.61,22.61,0,0,1,3.22,12.12,6.83,6.83,0,0,1-1.89,5.22,9.09,9.09,0,0,1-5.22,2.22Z"/><path class="cls-2" d="M429.22,125l-.66-11.12,27.56-4.33a9.48,9.48,0,0,0-2.67-5.78q-2.44-2.67-7.22-2.67a11.21,11.21,0,0,0-8.34,3.39q-3.33,3.39-3.55,9.62l.55,7.66q1,6.12,5.22,8.73a18.66,18.66,0,0,0,10,2.61,28.31,28.31,0,0,0,8.78-1.33,37.06,37.06,0,0,0,6.66-2.78,7.83,7.83,0,0,1,2.73,2.78,7.28,7.28,0,0,1,1,3.77,7,7,0,0,1-2.61,5.56,17.26,17.26,0,0,1-7.22,3.34A45.69,45.69,0,0,1,449,145.55a35.65,35.65,0,0,1-15.39-3.23,24.4,24.4,0,0,1-10.72-9.66q-3.9-6.45-3.89-16.12a30.71,30.71,0,0,1,2.28-12.34,24.06,24.06,0,0,1,6.11-8.61,25.56,25.56,0,0,1,8.67-5,30.62,30.62,0,0,1,10.05-1.67,28.13,28.13,0,0,1,13.4,3,23.06,23.06,0,0,1,8.94,8.28,22.61,22.61,0,0,1,3.23,12.12,6.86,6.86,0,0,1-1.89,5.22,9.09,9.09,0,0,1-5.23,2.22Z"/><path class="cls-2" d="M490.23,130.65q-1.77-3.66-3.83-8.89t-4.28-12.33q-2.22-7.11-4.78-16.45a13,13,0,0,1,3.73-2.5,11.61,11.61,0,0,1,4.94-1,10.24,10.24,0,0,1,5.67,1.44q2.22,1.44,3.33,5.45,2.57,8.1,5.11,16.11t5.23,16.11h.44q1.89-5,3.84-11.33t3.61-13.06q1.66-6.72,2.89-13a20,20,0,0,1,3.33-1.28,13.65,13.65,0,0,1,3.67-.49,11.23,11.23,0,0,1,5.94,1.5c1.67,1,2.51,2.68,2.51,5a39,39,0,0,1-1,7.67q-.95,4.56-2.5,9.84c-1,3.51-2.26,7.11-3.67,10.77s-2.87,7.21-4.39,10.62-3.05,6.48-4.61,9.22q-6,10.44-11.06,15.62t-10,5.16a9.3,9.3,0,0,1-6.62-2.44,10.32,10.32,0,0,1-3.16-6.22,64.46,64.46,0,0,0,5-4.62,72.86,72.86,0,0,0,4.89-5.55,62.65,62.65,0,0,0,4.11-5.84,9.87,9.87,0,0,1-3.89-2.44C493.35,136.51,491.86,134.14,490.23,130.65Z"/><path class="cls-2" d="M548.47,143.88h-6.56a9.46,9.46,0,0,1-3.33-7.34,8.94,8.94,0,0,1,.94-3.94A19,19,0,0,1,541.8,129L574,90.65h5.77a10.41,10.41,0,0,1,2.51,3.16,9.14,9.14,0,0,1,.94,4.17,8.71,8.71,0,0,1-.94,3.89,20.36,20.36,0,0,1-2.39,3.67Zm28-53.23v12.78H540.69a20.61,20.61,0,0,1-1.11-2.84,11,11,0,0,1-.56-3.5q0-3.44,1.56-4.94a5.65,5.65,0,0,1,4.11-1.5Zm-30,53.23V131.1h36.22a8,8,0,0,1,1.17,2.61,13.07,13.07,0,0,1,.5,3.72q0,3.34-1.5,4.89a5.36,5.36,0,0,1-4.05,1.56Z"/><path class="cls-2" d="M110.41,26.59a42.57,42.57,0,0,0-76.65,25.5A42.41,42.41,0,0,0,37.61,69.8l0,.11c.31.66,36.59,72,45.15,89,2.67,5.29,7.81,7.36,12.5,5.07s6.08-7.46,3.4-13c-1.06-2.15-2.16-4.27-3.36-6.65l7.46-3.77-7.1-14-7.31,3.7-5.26-10.39L90.8,116l-7.46-14.75-8,4c-1.17-2.32-5.57-11.1-5.57-11.1-2.94-6.1-6.22-12.34-9.23-18.52S53.7,62.57,52.24,55.79C50,45.53,57,34.49,66,30.11a23.77,23.77,0,0,1,10.31-2.37c19.1,0,29.34,20.34,21,36.52-4.75,9.2-9.69,18.27-14.43,27.48H103c.68,0,3.85-6.76,4.38-7.67,1.58-2.77,3.15-5.55,4.6-8.39a62.31,62.31,0,0,0,6.31-17.59A41.37,41.37,0,0,0,110.41,26.59Z"/><circle class="cls-1" cx="76.28" cy="51.99" r="11.67"/></svg>