<?xml version="1.0" encoding="UTF-8"?>
<svg width="239" height="140" viewBox="0 0 239 140" fill="none" xmlns="http://www.w3.org/2000/svg">
<g clip-path="url(#clip0_17_829)">
<path d="M131.3 22.18C109.86 23.61 96.9597 21.07 84.4497 27.71C84.2297 27.83 83.9497 27.95 83.7197 28.07C82.6197 28.59 62.5997 38.85 61.3897 39.42L60.5697 39.8C56.4297 41.8 49.9897 65.64 49.9897 65.64C49.9897 65.64 37.4897 71.45 34.9897 75.57C33.6697 77.77 27.9897 83.52 28.2897 83.81L28.4597 84.15L36.7097 92.15C37.8597 92.38 79.4097 117.67 82.1697 118.39C84.4597 118.99 91.3797 119.39 92.6797 118.58C92.6797 118.58 170.07 74.13 193.82 60.38C194.545 59.9617 195.151 59.3633 195.578 58.6426C196.005 57.9219 196.239 57.1032 196.257 56.2658C196.275 55.4283 196.077 54.6003 195.681 53.8618C195.286 53.1233 194.707 52.4993 194 52.05C182.94 45.05 162 31.84 162 31.74C162 31.64 137.47 21.77 131.3 22.18Z" fill="url(#paint0_linear_17_829)"/>
<path d="M48.8401 110.29H49.2901C49.8124 110.299 50.3237 110.442 50.7754 110.704C51.227 110.967 51.6039 111.341 51.8701 111.79C52.4286 112.664 53.2083 113.375 54.1301 113.85C55.6072 114.668 57.2386 115.168 58.9201 115.32C59.3139 115.37 59.6771 115.558 59.9447 115.851C60.2122 116.144 60.3666 116.523 60.3801 116.92C60.3937 117.136 60.3607 117.353 60.2832 117.555C60.2056 117.758 60.0855 117.941 59.9309 118.093C59.7762 118.244 59.5907 118.361 59.387 118.435C59.1833 118.509 58.966 118.538 58.7501 118.52C54.0201 118.15 49.5001 116.27 47.2901 113.58C47.043 113.287 46.8852 112.93 46.8353 112.55C46.7855 112.17 46.8458 111.784 47.0091 111.438C47.1724 111.091 47.4317 110.799 47.7563 110.595C48.0809 110.392 48.457 110.286 48.8401 110.29Z" fill="#F9D400"/>
<path d="M60.5497 121.92C60.5644 122.133 60.5334 122.347 60.4588 122.547C60.3842 122.747 60.2678 122.929 60.1172 123.08C59.9667 123.232 59.7856 123.349 59.586 123.425C59.3863 123.501 59.1728 123.533 58.9597 123.52C54.545 123.337 50.2079 122.298 46.1897 120.46C41.8397 118.4 39.0797 115.88 37.8497 112.93C37.7401 112.632 37.7029 112.313 37.7413 111.998C37.7796 111.683 37.8923 111.381 38.0701 111.118C38.248 110.856 38.4858 110.639 38.7639 110.486C39.042 110.333 39.3525 110.249 39.6697 110.24H40.6697C41.2814 110.256 41.8742 110.455 42.3716 110.812C42.8689 111.168 43.248 111.666 43.4597 112.24C44.4913 114.412 46.2245 116.174 48.3797 117.24C51.6234 119.018 55.2258 120.044 58.9197 120.24C59.3463 120.282 59.7443 120.473 60.0428 120.781C60.3413 121.089 60.521 121.492 60.5497 121.92Z" fill="#F9D400"/>
<path d="M31.2592 110.14H31.8492C32.4783 110.154 33.0871 110.365 33.5896 110.743C34.092 111.122 34.4627 111.649 34.6492 112.25C35.6492 115.46 38.1692 118.25 42.3592 120.68C47.5858 123.523 53.4118 125.085 59.3592 125.24C59.7213 125.26 60.0628 125.415 60.3164 125.674C60.57 125.933 60.7173 126.278 60.7292 126.64C60.7472 126.892 60.7106 127.146 60.6218 127.383C60.5331 127.62 60.3943 127.835 60.2149 128.013C60.0355 128.191 59.8198 128.329 59.5824 128.417C59.345 128.504 59.0915 128.539 58.8392 128.52C52.2952 128.291 45.8713 126.697 39.9792 123.84C34.1292 120.84 30.5392 117.3 29.0992 113.14C28.9805 112.798 28.9459 112.432 28.9984 112.073C29.0508 111.714 29.1888 111.374 29.4005 111.079C29.6123 110.785 29.8918 110.546 30.2152 110.383C30.5387 110.219 30.8968 110.136 31.2592 110.14Z" fill="#F9D400"/>
<g style="mix-blend-mode:multiply">
<path d="M171.11 45.35C186.26 36.6 211.21 36.8 226.81 45.78C235.81 50.98 239.81 57.95 238.56 64.62C237.69 69.49 234.05 74.19 227.65 77.89C219.23 82.75 207.79 84.89 196.65 84.22C187.72 83.7 178.94 81.46 171.99 77.46C164.61 73.21 160.62 67.77 160.09 62.27C160.045 61.8014 160.025 61.3308 160.03 60.86C160.06 55.17 163.75 49.6 171.11 45.35Z" fill="white"/>
<path d="M170.55 46.6301C183.87 38.9401 205.8 39.1101 219.55 47.0001C227.49 51.5701 230.93 57.7101 229.87 63.5601C229.11 67.8501 225.87 71.9801 220.29 75.2201C212.88 79.5001 202.83 81.3501 193 80.7901C185.14 80.3401 177.43 78.3601 171.32 74.8501C164.83 71.1101 161.32 66.3301 160.87 61.5001C160.829 61.0915 160.812 60.6807 160.82 60.2701C160.81 55.2601 164.08 50.3701 170.55 46.6301Z" fill="#FFF2DF"/>
<path d="M169.99 47.9101C181.47 41.2801 200.39 41.42 212.21 48.23C219.06 52.17 222.02 57.46 221.11 62.51C220.45 66.2 217.69 69.76 212.84 72.56C206.46 76.25 197.84 77.84 189.31 77.36C182.772 77.0956 176.38 75.3446 170.62 72.24C165.03 69.02 162.01 64.89 161.62 60.73C161.583 60.3779 161.566 60.024 161.57 59.67C161.59 55.35 164.39 51.1301 169.99 47.9101Z" fill="#FFE4BF"/>
<path d="M169.39 49.1801C179.04 43.6101 194.93 43.7401 204.87 49.4601C210.62 52.7701 213.11 57.2101 212.34 61.4601C211.79 64.5701 209.48 67.5601 205.4 69.9101C200.03 73.0101 192.75 74.3501 185.63 73.9101C180.138 73.6859 174.769 72.2154 169.93 69.6101C165.22 66.9001 162.69 63.4401 162.35 59.9401C162.33 59.6404 162.33 59.3398 162.35 59.0401C162.39 55.4401 164.75 51.8901 169.39 49.1801Z" fill="#FFD79E"/>
<path d="M168.88 50.46C176.69 45.95 189.56 46.05 197.6 50.68C202.26 53.36 204.28 56.96 203.66 60.39C203.21 62.91 201.34 65.33 198.04 67.24C193.69 69.75 187.79 70.83 182.04 70.5C177.593 70.323 173.246 69.1327 169.33 67.02C165.52 64.83 163.47 62.02 163.19 59.19C163.175 58.9503 163.175 58.7098 163.19 58.47C163.16 55.52 165.08 52.65 168.88 50.46Z" fill="#FFC97E"/>
<path d="M168.32 51.74C174.32 48.29 184.15 48.36 190.32 51.91C193.89 53.96 195.43 56.71 194.95 59.34C194.61 61.26 193.18 63.12 190.65 64.58C187.228 66.2833 183.452 67.1557 179.63 67.1262C175.807 67.0966 172.045 66.166 168.65 64.41C165.74 62.73 164.16 60.58 163.96 58.41C163.945 58.2236 163.945 58.0363 163.96 57.85C163.96 55.61 165.39 53.42 168.32 51.74Z" fill="#FFBC5E"/>
</g>
<g style="mix-blend-mode:multiply">
<path d="M107.489 6.44002C122.639 -2.30998 147.599 -2.11998 163.199 6.87002C172.199 12.06 176.139 19.04 174.939 25.7C174.069 30.58 170.439 35.28 164.029 38.97C155.609 43.84 144.169 45.97 133.029 45.31C124.099 44.79 115.319 42.55 108.369 38.55C100.989 34.3 96.9993 28.85 96.4793 23.36C96.4262 22.8953 96.4028 22.4277 96.4093 21.96C96.4393 16.26 100.129 10.69 107.489 6.44002Z" fill="white"/>
<path d="M111.279 10.52C124.589 2.82997 146.529 2.99997 160.279 10.89C168.219 15.46 171.659 21.59 170.599 27.45C169.839 31.74 166.599 35.86 161.009 39.11C153.609 43.39 143.559 45.24 133.719 44.68C125.869 44.22 118.159 42.25 112.049 38.74C105.559 35 102.049 30.22 101.589 25.39C101.544 24.9782 101.524 24.5641 101.529 24.15C101.529 19.18 104.809 14.28 111.279 10.52Z" fill="#FFF2DF"/>
<path d="M115.06 14.6601C126.55 8.03005 145.46 8.17003 157.28 14.98C164.13 18.92 167.09 24.21 166.18 29.25C165.52 32.95 162.77 36.51 157.91 39.31C151.53 43 142.86 44.59 134.38 44.11C127.845 43.8462 121.456 42.0951 115.7 38.99C110.1 35.77 107.08 31.64 106.7 27.48C106.68 27.127 106.68 26.7731 106.7 26.42C106.66 22.1 109.49 17.8801 115.06 14.6601Z" fill="#FFE4BF"/>
<path d="M118.849 18.7701C128.499 13.2001 144.389 13.3201 154.319 19.0401C160.079 22.3501 162.569 26.7901 161.799 31.0401C161.249 34.1501 158.929 37.1401 154.849 39.4901C149.489 42.5901 142.209 43.9301 135.079 43.4901C129.588 43.2634 124.219 41.7931 119.379 39.1901C114.679 36.4801 112.139 33.0201 111.809 29.5201C111.789 29.2204 111.789 28.9197 111.809 28.6201C111.789 25.0201 114.159 21.5201 118.849 18.7701Z" fill="#FFD79E"/>
<path d="M122.64 22.8701C130.45 18.3601 143.32 18.4601 151.36 23.0901C156.02 25.7701 158.04 29.3701 157.42 32.8101C156.97 35.3201 155.1 37.7401 151.8 39.6501C147.45 42.1601 141.55 43.2401 135.8 42.9201C131.353 42.735 127.007 41.5416 123.09 39.4301C119.28 37.2401 117.23 34.43 116.95 31.6C116.935 31.3603 116.935 31.1198 116.95 30.88C116.92 27.94 118.84 25.0701 122.64 22.8701Z" fill="#FFC97E"/>
<path d="M126.39 26.98C132.39 23.53 142.21 23.61 148.39 27.15C151.95 29.2 153.49 31.95 153.02 34.58C152.68 36.51 151.24 38.3599 148.72 39.8199C145.297 41.5218 141.522 42.3932 137.699 42.3637C133.877 42.3341 130.116 41.4045 126.72 39.65C123.81 37.97 122.24 35.83 122.03 33.65C122.02 33.4668 122.02 33.2832 122.03 33.0999C122.07 30.8599 123.52 28.66 126.39 26.98Z" fill="#FFBC5E"/>
</g>
<g style="mix-blend-mode:multiply">
<path d="M11.1197 69.2C26.2797 60.45 51.2297 60.64 66.8297 69.63C75.8297 74.82 79.8297 81.8 78.5697 88.46C77.7097 93.34 74.0697 98.04 67.6697 101.74C59.2397 106.6 47.8097 108.74 36.6197 108.07C27.6897 107.55 18.9097 105.31 11.9597 101.31C4.56971 97.06 0.58971 91.61 0.0597096 86.12C0.0543675 86.1038 0.0543675 86.0863 0.0597096 86.07C0.0149736 85.6048 -0.00505402 85.1374 -0.000289849 84.67C0.0797101 79.02 3.75971 73.45 11.1197 69.2Z" fill="white"/>
<path d="M19.0597 71.1201C32.3697 63.4301 54.3097 63.6001 68.0597 71.4901C75.9997 76.0601 79.4397 82.2001 78.3797 88.0501C77.6197 92.3401 74.3797 96.4701 68.7997 99.7201C61.3897 103.99 51.3397 105.84 41.4997 105.28C33.6497 104.83 25.9397 102.85 19.8297 99.3401C13.3397 95.6101 9.82973 90.8201 9.37973 85.9901C9.34999 85.5806 9.34999 85.1695 9.37973 84.7601C9.30973 79.7501 12.5897 74.8601 19.0597 71.1201Z" fill="#FFF2DF"/>
<path d="M26.9897 73.04C38.4697 66.41 57.3797 66.56 69.2097 73.36C76.0597 77.3 79.0197 82.59 78.0997 87.64C77.4497 91.33 74.6897 94.89 69.8397 97.7C63.4597 101.38 54.8397 102.98 46.3097 102.5C39.7716 102.228 33.3808 100.474 27.6197 97.37C22.0297 94.15 19.0097 90.03 18.6197 85.86C18.5901 85.504 18.5901 85.1461 18.6197 84.79C18.5897 80.52 21.3897 76.26 26.9897 73.04Z" fill="#FFE4BF"/>
<path d="M34.9197 74.96C44.5697 69.39 60.4597 69.51 70.3897 75.23C76.1497 78.54 78.6397 82.98 77.8697 87.23C77.3197 90.33 74.9997 93.32 70.9297 95.68C65.5597 98.77 58.2797 100.11 51.1497 99.68C45.6569 99.4548 40.2876 97.9808 35.4497 95.37C30.7497 92.67 28.2097 89.2 27.8797 85.7C27.855 85.4038 27.855 85.1062 27.8797 84.81C27.8597 81.21 30.2397 77.67 34.9197 74.96Z" fill="#FFD79E"/>
<path d="M42.8497 76.8801C50.6697 72.3701 63.5397 72.4701 71.5797 77.1001C76.2397 79.7801 78.2597 83.3801 77.5797 86.8101C77.1397 89.3301 75.2597 91.7501 71.9597 93.6601C67.6197 96.1701 61.7197 97.2501 55.9597 96.9201C51.5102 96.7431 47.1597 95.5529 43.2397 93.4401C39.4397 91.2501 37.3797 88.4401 37.1097 85.6101C37.09 85.3705 37.09 85.1297 37.1097 84.8901C37.1397 81.9401 39.0597 79.0701 42.8497 76.8801Z" fill="#FFC97E"/>
<path d="M50.7897 78.8C56.7897 75.35 66.6097 75.4201 72.7897 78.9701C76.3497 81.0201 77.8997 83.77 77.4197 86.4C77.0797 88.33 75.6397 90.18 73.1197 91.64C69.6976 93.3434 65.9219 94.2158 62.0994 94.1862C58.2768 94.1567 54.5152 93.2261 51.1197 91.4701C48.1997 89.7901 46.6297 87.6401 46.4197 85.4701C46.4099 85.2835 46.4099 85.0966 46.4197 84.9101C46.3897 82.6701 47.8797 80.52 50.7897 78.8Z" fill="#FFBC5E"/>
</g>
<g style="mix-blend-mode:multiply">
<path d="M69.3001 100.16C84.4501 91.4201 109.41 91.6101 125.01 100.59C134.01 105.79 137.95 112.77 136.75 119.43C135.88 124.3 132.24 129 125.84 132.7C117.42 137.56 105.98 139.7 94.8401 139.03C85.9101 138.51 77.1301 136.27 70.1801 132.27C62.8001 128.02 58.8101 122.58 58.2901 117.08C58.2456 116.611 58.2256 116.141 58.2301 115.67C58.2501 109.98 61.9401 104.41 69.3001 100.16Z" fill="white"/>
<path d="M72.3901 99.7601C85.7101 92.0701 107.64 92.2401 121.39 100.13C129.33 104.7 132.77 110.84 131.71 116.69C130.95 120.98 127.71 125.11 122.13 128.36C114.72 132.63 104.67 134.48 94.8401 133.92C86.9801 133.47 79.2701 131.49 73.1601 127.98C66.6701 124.24 63.1601 119.46 62.7101 114.63C62.6854 114.22 62.6854 113.81 62.7101 113.4C62.6101 108.39 65.8801 103.52 72.3901 99.7601Z" fill="#FFF2DF"/>
<path d="M75.3905 99.36C86.8705 92.73 105.79 92.87 117.61 99.68C124.46 103.62 127.42 108.91 126.51 113.96C125.85 117.65 123.09 121.21 118.24 124.01C111.86 127.7 103.19 129.29 94.7105 128.81C88.1724 128.546 81.7805 126.795 76.0205 123.69C70.4305 120.47 67.4105 116.34 67.0205 112.18C66.9906 111.827 66.9906 111.473 67.0205 111.12C67.0005 106.8 69.8205 102.58 75.3905 99.36Z" fill="#FFE4BF"/>
<path d="M78.4502 98.96C88.1002 93.38 103.99 93.51 113.92 99.23C119.68 102.54 122.17 106.98 121.4 111.23C120.85 114.34 118.53 117.33 114.46 119.68C109.09 122.78 101.81 124.12 94.6802 123.68C89.1888 123.453 83.8206 121.983 78.9802 119.38C74.2802 116.67 71.7402 113.21 71.4102 109.71C71.3853 109.411 71.3853 109.11 71.4102 108.81C71.3902 105.21 73.7702 101.66 78.4502 98.96Z" fill="#FFD79E"/>
<path d="M81.5001 98.5201C89.3201 94.0101 102.19 94.1101 110.23 98.7401C114.89 101.42 116.91 105.02 116.23 108.45C115.79 110.97 113.91 113.39 110.61 115.3C106.27 117.81 100.37 118.89 94.6101 118.56C90.1605 118.383 85.8101 117.193 81.8901 115.08C78.0901 112.89 76.0301 110.08 75.7601 107.25C75.7404 107.011 75.7404 106.77 75.7601 106.53C75.7901 103.61 77.7101 100.74 81.5001 98.5201Z" fill="#FFC97E"/>
<path d="M84.5599 98.15C90.5599 94.7 100.38 94.77 106.56 98.32C110.12 100.37 111.66 103.12 111.19 105.75C110.85 107.67 109.41 109.53 106.89 110.99C103.468 112.694 99.6922 113.567 95.8695 113.537C92.0469 113.508 88.2851 112.577 84.8899 110.82C81.9699 109.14 80.3999 106.99 80.1899 104.82C80.1802 104.633 80.1802 104.447 80.1899 104.26C80.1999 102.02 81.6499 99.83 84.5599 98.15Z" fill="#FFBC5E"/>
</g>
<path d="M117.45 98.06L103.84 90.52C103.84 90.52 114.84 77.8 118.75 80.04C122.66 82.28 117.45 98.06 117.45 98.06Z" fill="#293237"/>
<path d="M186.74 58.1601L173.13 50.6101C173.13 50.6101 184.08 37.8901 188.04 40.1301C192 42.3701 186.74 58.1601 186.74 58.1601Z" fill="#293237"/>
<path d="M82.9097 52.1C82.9097 52.1 84.9097 49.72 82.3797 46.1C80.2797 42.99 78.6897 44.02 78.6897 44.02C77.9922 44.5368 77.5166 45.2989 77.3589 46.1526C77.2011 47.0063 77.3729 47.888 77.8397 48.62C78.8397 50.48 79.8397 53.02 80.4997 53.02C81.1597 53.02 81.4997 55.29 81.4997 55.29L83.4997 53.23L82.9097 52.1Z" fill="#293237"/>
<path d="M113.389 89.58L110.619 94.12L103.839 105.12L100.499 110.58L96.0593 108.01L95.9593 107.95L95.8293 107.87C94.7982 107.137 94.0835 106.04 93.8293 104.8C93.8293 104.66 93.7493 104.51 93.7193 104.35C93.7137 104.247 93.7137 104.143 93.7193 104.04C93.7193 103.87 93.6693 103.7 93.6493 103.52C93.6439 103.427 93.6439 103.333 93.6493 103.24C93.6338 102.954 93.6338 102.666 93.6493 102.38C93.7193 96.86 97.7393 90.17 102.649 87.43C102.919 87.28 103.179 87.15 103.449 87.03C105.549 86.03 107.449 86.03 108.829 86.83L113.389 89.58Z" fill="url(#paint1_linear_17_829)"/>
<path d="M115.759 95.1101C115.689 100.63 111.669 107.33 106.759 110.11C101.849 112.89 97.9593 110.59 98.0293 105.11C98.0993 99.6301 102.119 92.9001 107.029 90.1601C111.939 87.4201 115.819 89.5901 115.759 95.1101Z" fill="#414C5C"/>
<path d="M113.95 96.12C113.939 96.7244 113.876 97.3268 113.76 97.92C113.378 99.8362 112.635 101.662 111.57 103.3C110.907 104.347 110.125 105.313 109.24 106.18C108.507 106.896 107.687 107.518 106.8 108.03C106.192 108.378 105.539 108.64 104.86 108.81C103.894 109.077 102.865 108.988 101.96 108.56L101.89 108.51C101.585 108.345 101.308 108.132 101.07 107.88C100.882 107.676 100.718 107.451 100.58 107.21C100.511 107.103 100.454 106.989 100.41 106.87C100.282 106.622 100.181 106.36 100.11 106.09C100.082 106.011 100.058 105.931 100.04 105.85C99.967 105.568 99.9168 105.28 99.8897 104.99C99.8897 104.68 99.8897 104.36 99.8897 103.99C99.8897 103.88 99.8897 103.78 99.8897 103.67C99.9006 103.251 99.9407 102.833 100.01 102.42C100.07 102.06 100.15 101.71 100.25 101.34C100.388 100.793 100.562 100.255 100.77 99.73C101.068 98.9649 101.422 98.2229 101.83 97.51C101.93 97.32 102.04 97.14 102.15 96.96C102.7 96.0821 103.333 95.2584 104.04 94.5C104.17 94.35 104.31 94.21 104.45 94.07C104.999 93.5122 105.602 93.0098 106.25 92.57C106.5 92.4 106.75 92.25 107 92.1C107.25 91.95 107.45 91.87 107.66 91.77C107.87 91.67 108.2 91.55 108.46 91.46L109.01 91.31C109.273 91.2502 109.54 91.2134 109.81 91.2C110.164 91.1655 110.521 91.1824 110.87 91.25C111.22 91.3112 111.558 91.4294 111.87 91.6C112.383 91.9036 112.821 92.3179 113.153 92.8127C113.486 93.3076 113.703 93.8704 113.79 94.46C113.908 95.0052 113.961 95.5623 113.95 96.12Z" fill="#A1A1A1"/>
<path d="M108.71 93.52C108.699 94.1244 108.636 94.7267 108.52 95.32C108.138 97.2362 107.395 99.0622 106.33 100.7C105.667 101.747 104.885 102.713 104 103.58C103.267 104.296 102.447 104.918 101.56 105.43C101.099 105.692 100.613 105.906 100.11 106.07C100.11 105.99 99.9697 105.5 99.9497 105.41C99.9116 105.266 99.8915 105.119 99.8897 104.97C99.8897 104.66 99.8897 104.34 99.8897 103.97C99.897 103.444 99.9438 102.919 100.03 102.4C100.09 102.04 100.17 101.69 100.27 101.32C100.623 99.9737 101.158 98.6818 101.86 97.48C101.96 97.29 102.07 97.11 102.18 96.93C102.734 96.0487 103.37 95.2216 104.08 94.46C104.21 94.31 104.35 94.17 104.49 94.03C105.243 93.2484 106.101 92.5753 107.04 92.03C107.27 91.9 107.49 91.8 107.7 91.7C107.91 91.6 108.24 91.48 108.5 91.39C108.546 91.5274 108.582 91.6677 108.61 91.81C108.712 92.3739 108.746 92.9481 108.71 93.52Z" fill="#293237"/>
<path d="M111.44 91.41C111.966 91.9431 112.369 92.584 112.623 93.2884C112.877 93.9929 112.975 94.7441 112.91 95.49C112.737 97.8974 112 100.23 110.758 102.299C109.516 104.369 107.803 106.116 105.76 107.4C105.113 107.833 104.38 108.119 103.612 108.24C102.843 108.361 102.058 108.313 101.31 108.1C102.58 109.22 104.56 109.28 106.8 108.03C108.846 106.749 110.561 105.002 111.803 102.933C113.046 100.863 113.781 98.5284 113.95 96.12C113.98 93.64 113 91.99 111.44 91.41Z" fill="url(#paint2_linear_17_829)"/>
<path d="M112.029 96.67L107.639 99.21L109.639 105.76C109.519 106.09 108.329 105.38 108.329 105.38L105.329 102.12L103.129 107.52C102.429 107.69 102.899 108.81 102.299 108.68C101.771 108.479 101.31 108.132 100.969 107.68L102.269 102.22L99.8594 103.62C99.8702 103.201 99.9103 102.783 99.9794 102.37C100.104 101.595 100.305 100.835 100.579 100.1L102.659 98.58L101.959 97.18L102.129 96.9C102.68 96.0221 103.313 95.1984 104.019 94.44L104.959 95.66L106.689 92.21C106.939 92.03 106.689 92.21 106.989 92.03C107.289 91.85 107.439 91.8 107.649 91.7C107.859 91.6 108.189 91.48 108.449 91.39L108.999 91.24C109.262 91.1802 109.53 91.1434 109.799 91.13L108.019 95.52L112.709 93.66C112.709 93.66 113.879 94.25 113.879 94.85C113.879 95.45 112.149 96.06 112.029 96.67Z" fill="#A1A1A1"/>
<path d="M113.87 97.45L109.37 100.45L111.02 104.1C110.664 104.761 110.182 105.346 109.6 105.82L107.07 103.36L104.48 108.87C104.13 109.021 103.75 109.085 103.37 109.058C102.99 109.03 102.623 108.911 102.3 108.71L104.01 103.54L100.01 105.6C99.8924 105.079 99.8453 104.544 99.8697 104.01C99.8602 103.598 99.8904 103.186 99.9597 102.78L104.42 99.9L102.45 96.52C102.857 95.7674 103.392 95.0908 104.03 94.52L106.69 97L109.47 91.25C110.133 91.0476 110.85 91.1084 111.47 91.42L109.78 96.82L113.91 94.9C113.991 95.3047 114.014 95.7188 113.98 96.13C113.992 96.5727 113.955 97.0154 113.87 97.45Z" fill="#D3D3D3"/>
<path d="M108.45 99.2C108.41 99.73 108.247 100.243 107.972 100.698C107.698 101.153 107.32 101.538 106.87 101.82C106.02 102.3 105.34 101.9 105.35 100.94C105.385 100.41 105.546 99.8962 105.819 99.4406C106.092 98.9851 106.469 98.601 106.92 98.32C107.77 97.84 108.46 98.24 108.45 99.2Z" fill="#B6B6B6"/>
<path d="M183.97 48.78L181.19 53.31L174.42 64.31L171.07 69.77L166.64 67.2L166.53 67.14L166.4 67.06C165.356 66.3337 164.624 65.2413 164.35 64C164.35 63.85 164.28 63.7 164.25 63.55L164.19 63.23C164.19 63.07 164.19 62.89 164.13 62.72V62.44C164.13 62.16 164.13 61.87 164.13 61.58C164.2 56.06 168.22 49.36 173.13 46.58C173.4 46.43 173.67 46.3 173.93 46.18C174.748 45.7229 175.664 45.4665 176.601 45.4317C177.538 45.3969 178.469 45.5848 179.32 45.98L183.97 48.78Z" fill="url(#paint3_linear_17_829)"/>
<path d="M186.31 54.31C186.24 59.83 182.22 66.52 177.31 69.26C172.4 72 168.51 69.75 168.57 64.26C168.63 58.77 172.66 52.04 177.57 49.26C182.48 46.48 186.39 48.79 186.31 54.31Z" fill="#414C5C"/>
<path d="M184.32 55.42C184.309 56.0073 184.248 56.5926 184.14 57.17C183.768 59.0373 183.042 60.8161 182 62.41C181.357 63.4301 180.595 64.37 179.73 65.21C179.023 65.9116 178.226 66.5168 177.36 67.01C176.766 67.3511 176.126 67.607 175.46 67.77C174.525 68.0338 173.527 67.9485 172.65 67.53H172.58C172.28 67.3701 172.01 67.1605 171.78 66.91C171.596 66.7088 171.435 66.4874 171.3 66.25C171.234 66.1487 171.177 66.0416 171.13 65.93C171.011 65.6857 170.914 65.4314 170.84 65.17C170.812 65.0914 170.789 65.0112 170.77 64.93C170.706 64.6564 170.66 64.3792 170.63 64.1C170.63 63.8 170.58 63.48 170.58 63.1C170.58 62.99 170.58 62.9 170.58 62.79C170.591 62.3809 170.631 61.9732 170.7 61.57C170.755 61.2155 170.832 60.8649 170.93 60.52C171.064 59.9888 171.234 59.4675 171.44 58.96C171.716 58.2117 172.051 57.4862 172.44 56.79C172.54 56.61 172.64 56.43 172.75 56.26C173.287 55.4044 173.903 54.6009 174.59 53.86C174.713 53.7105 174.847 53.5701 174.99 53.44C175.529 52.8984 176.118 52.4095 176.75 51.98C176.984 51.8148 177.228 51.6645 177.48 51.53C177.687 51.4082 177.901 51.298 178.12 51.2C178.374 51.0843 178.634 50.9841 178.9 50.9L179.43 50.76C179.687 50.702 179.948 50.6619 180.21 50.64C180.544 50.618 180.88 50.6348 181.21 50.69C181.56 50.7525 181.898 50.8707 182.21 51.04C182.71 51.3363 183.137 51.7406 183.461 52.2233C183.784 52.7061 183.996 53.255 184.08 53.83C184.224 54.3483 184.305 54.8822 184.32 55.42Z" fill="#A1A1A1"/>
<path d="M179.22 52.9001C179.209 53.4907 179.148 54.0794 179.04 54.6601C178.66 56.5251 177.934 58.3024 176.9 59.9001C176.251 60.9159 175.49 61.8552 174.63 62.7001C173.916 63.394 173.12 63.9985 172.26 64.5001C171.808 64.7542 171.332 64.9651 170.84 65.1301C170.84 65.0501 170.71 64.5701 170.69 64.4901C170.653 64.3496 170.633 64.2053 170.63 64.0601C170.63 63.7601 170.58 63.4401 170.58 63.0601C170.588 62.5473 170.635 62.0358 170.72 61.5301C170.775 61.1757 170.852 60.825 170.95 60.4801C171.295 59.1691 171.817 57.911 172.5 56.7401C172.6 56.5601 172.7 56.3801 172.81 56.2101C173.351 55.3511 173.97 54.5443 174.66 53.8001C174.783 53.6506 174.917 53.5102 175.06 53.3801C175.798 52.6317 176.636 51.9889 177.55 51.4701C177.757 51.3483 177.971 51.2381 178.19 51.1401C178.444 51.0244 178.704 50.9242 178.97 50.8401C178.97 50.9701 179.04 51.1101 179.07 51.2501C179.183 51.7926 179.233 52.3462 179.22 52.9001Z" fill="#293237"/>
<path d="M181.87 50.8301C182.389 51.35 182.787 51.978 183.036 52.6694C183.285 53.3608 183.378 54.0985 183.31 54.8301C183.139 57.1769 182.416 59.4501 181.199 61.4642C179.983 63.4784 178.307 65.1765 176.31 66.4201C175.681 66.8416 174.968 67.1216 174.221 67.2408C173.473 67.3599 172.708 67.3153 171.98 67.1101C173.22 68.1901 175.15 68.2501 177.33 67.0301C179.328 65.7871 181.004 64.0891 182.22 62.0749C183.437 60.0606 184.16 57.7871 184.33 55.4401C184.39 53.0001 183.39 51.3901 181.87 50.8301Z" fill="url(#paint4_linear_17_829)"/>
<path d="M182.45 55.95L178.17 58.42L180.17 64.8C180.06 65.13 178.9 64.44 178.9 64.44L175.95 61.26L173.78 66.52C173.1 66.69 173.56 67.78 172.98 67.66C172.47 67.4733 172.021 67.1518 171.68 66.73L172.95 61.41L170.6 62.77C170.61 62.361 170.651 61.9533 170.72 61.55C170.838 60.7957 171.033 60.0554 171.3 59.34L173.3 57.86L172.62 56.5C172.62 56.5 172.67 56.4 172.78 56.23C173.317 55.3744 173.933 54.5709 174.62 53.83L175.53 55.02L177.22 51.66C177.46 51.49 177.22 51.66 177.52 51.49C177.727 51.3682 177.94 51.2581 178.16 51.16C178.413 51.0443 178.674 50.9441 178.94 50.86L179.47 50.72C179.727 50.662 179.987 50.6219 180.25 50.6L178.52 54.84L183.08 53.03C183.08 53.03 184.22 53.61 184.22 54.19C184.22 54.77 182.57 55.36 182.45 55.95Z" fill="#A1A1A1"/>
<path d="M184.24 56.72L179.86 59.64L181.47 63.2C181.122 63.843 180.649 64.4106 180.08 64.87L177.62 62.52L175.1 67.89C174.759 68.0311 174.389 68.09 174.021 68.0623C173.653 68.0345 173.296 67.9207 172.98 67.73L174.64 62.73L170.72 64.73C170.604 64.222 170.557 63.7006 170.58 63.18C170.57 62.7814 170.601 62.3827 170.67 61.99L175.01 59.18L173.13 55.83C173.521 55.1067 174.04 54.4597 174.66 53.92L177.25 56.34L179.96 50.74C180.594 50.5522 181.276 50.6093 181.87 50.9L180.23 56.16L184.23 54.29C184.312 54.6845 184.335 55.0887 184.3 55.49C184.324 55.901 184.304 56.3134 184.24 56.72Z" fill="#D3D3D3"/>
<path d="M178.96 58.42C178.922 58.9351 178.764 59.4342 178.498 59.8771C178.232 60.32 177.866 60.6944 177.43 60.97C176.6 61.43 175.93 61.05 175.94 60.11C175.977 59.5949 176.135 59.0958 176.401 58.6529C176.667 58.21 177.033 57.8357 177.47 57.56C178.31 57.1 178.97 57.52 178.96 58.42Z" fill="#B6B6B6"/>
<path d="M90.45 112.33C81.81 115.86 54.6 104.12 49.66 94.33C49.08 93.2 47.06 87.42 48.03 86.33C56.53 76.52 96.78 109.75 90.45 112.33Z" fill="#AB1918"/>
<path d="M178.26 38.78L179.47 39.55L177.62 38.99L178.26 38.78Z" fill="#F24644"/>
<path d="M191.289 36.89H191.229L186.559 37.59L178.249 38.78L165.469 34.78L165.099 34.54L155.169 28.11L154.919 29.04L154.789 29.54L153.789 33.33C152.844 36.0204 151.099 38.358 148.789 40.03C148.652 40.1404 148.505 40.2375 148.349 40.32L130.399 50.04L129.789 50.96L128.529 51.96L126.189 55.96L115.389 81.76C112.838 82.7631 110.454 84.149 108.319 85.87L106.719 87.13C104.619 88.9797 102.85 91.1746 101.489 93.62L101.369 93.77C101.199 94.06 100.999 94.35 100.809 94.64C100.619 94.93 100.229 95.49 99.8993 95.91C99.9034 95.9365 99.9034 95.9635 99.8993 95.99C98.4293 97.99 96.7893 99.91 96.1493 102.29L87.5893 97.52L54.6793 91.22C53.2893 92.01 52.0493 91.61 51.6093 90.22C50.2667 89.0816 48.988 87.8697 47.7793 86.59L51.7193 76.05C58.7193 62.95 79.4393 55.39 79.4393 55.39C84.5011 47.6167 90.3376 40.3764 96.8593 33.78C97.1557 33.4117 97.491 33.0764 97.8593 32.78C98.8985 31.8638 100.024 31.05 101.219 30.35C112.029 24.11 124.159 17.64 131.369 16.81H131.459C137.679 18.19 139.749 18.44 141.929 19.38C143.129 19.91 146.429 17.07 147.689 16.8C148.419 16.64 149.309 16.47 150.219 16.31C151.858 15.9319 153.547 15.8272 155.219 16C156.359 16.29 157.499 16.62 158.619 17C171.619 21.21 183.239 30.11 188.439 34.46C190.259 35.92 191.289 36.89 191.289 36.89Z" fill="#F26D6B"/>
<path d="M79.4395 55.3701C79.4395 55.3701 79.7995 58.0201 85.7195 62.7501C85.7195 62.7501 87.3895 62.6701 92.5395 65.7501C98.3195 69.1801 100.539 71.61 100.539 71.61C105.352 73.7314 110.382 75.3208 115.539 76.35L116.959 74.55L80.6594 53.4401L79.4395 55.3701Z" fill="#414C5C"/>
<path d="M129.26 55.2C127.42 55.44 128.96 51.37 128.96 51.37C128.96 51.37 101.8 41.84 96.8597 33.76C96.5897 33.32 97.4997 33 97.8597 32.71C98.9093 31.8023 100.037 30.9891 101.23 30.28C112.04 24.04 124.17 17.58 131.37 16.75C131.37 16.75 138.62 17.62 151.42 26.75C154.21 28.75 160.81 32.3 163.65 34.83C177.19 46.91 139.9 53.91 129.26 55.2Z" fill="#F26D6B"/>
<path d="M194.24 46.52L193.66 50.16C193.211 51.3616 192.617 52.5035 191.89 53.56C191.71 53.83 191.52 54.08 191.33 54.33C191.19 54.5303 191.033 54.7177 190.86 54.89C190.678 55.1198 190.477 55.3339 190.26 55.53C189.96 55.86 187.83 57.29 187.52 57.53C187.306 57.7094 187.082 57.8764 186.85 58.03C187.284 56.6089 187.523 55.1355 187.56 53.65C187.62 49.65 185.86 47.2 183.16 46.65C181.81 46.77 180.67 46.81 179.6 47C178.905 47.23 178.235 47.5281 177.6 47.89C172.01 50.99 167.39 58.62 167.39 64.93C167.347 66.2105 167.565 67.4862 168.03 68.68L151.9 77.76L146.84 80.62L146.67 80.71L146.55 80.77L116.71 97.57C116.955 96.5202 117.093 95.4479 117.12 94.37C117.19 88.07 112.73 85.5 107.12 88.63C104.951 89.9085 103.06 91.6086 101.56 93.63L101.44 93.78C100.92 94.46 100.44 95.17 99.9697 95.92C99.9739 95.9465 99.9739 95.9735 99.9697 96C98.1234 98.9209 97.0625 102.269 96.8897 105.72C96.8634 106.676 96.9814 107.63 97.2397 108.55L90.8897 112.15C89.5197 112.96 86.5997 110.85 86.0997 109.48C85.4797 107.84 85.8097 105.06 85.4797 104.48L87.6997 97.48L87.9497 96.96C88.2397 95.82 89.0297 97.22 90.4997 95.58C92.2397 93.64 94.9797 91.02 99.0397 86.88C104.2 81.65 115.9 76.97 115.9 76.97L124.9 58.3C126.12 55.85 126.66 54.15 128.59 51.95C129.171 51.2672 129.796 50.6226 130.46 50.02C132.38 48.26 140.37 44.02 144.21 42.19C145.88 41.4 147.4 40.71 148.85 40.01C155.71 36.69 160.49 36.96 165.36 36.67C168.99 36.44 174.87 37.67 179.73 39.18C182.42 40.03 181.34 37.52 184.1 36.9C184.54 36.8 185.04 36.71 185.57 36.63C187.65 36.34 190.2 36.32 191.28 36.86C191.28 36.86 191.34 36.86 191.36 36.86C191.526 36.937 191.668 37.058 191.77 37.21L191.86 37.54L192.69 41.4C193.338 42.0678 193.817 42.881 194.087 43.7718C194.356 44.6625 194.409 45.6048 194.24 46.52Z" fill="#BF2012"/>
<path d="M164.28 60.13L160.39 63.92C159.55 66.92 154.68 73.92 154.68 73.92C154.68 73.92 163.61 72.14 163.89 69.06C164.17 65.98 164.28 60.13 164.28 60.13Z" fill="#293237"/>
<path d="M164.98 59.0701C164.98 59.0701 152.14 73.3101 125.06 85.2901L114.06 86.0501L119.51 95.1701C119.51 95.1701 144.61 85.3901 155.74 76.3001C166.87 67.2101 152.63 74.0501 164.98 59.0701Z" fill="#CD3528"/>
<path d="M159.609 69.03C159.999 71.11 162.389 70.88 155.769 76.29C144.649 85.39 119.559 95.14 119.559 95.14L118.819 93.85C121.369 92.85 135.929 86.97 146.979 80.37C146.979 80.37 146.979 80.37 147.039 80.37C149.699 78.8319 152.243 77.1006 154.649 75.19C159.049 71.6 159.479 70.48 159.169 69.55C159.319 69.36 159.479 69.18 159.609 69.03Z" fill="#C92A1D"/>
<path d="M154.9 29.0001C157.95 30.8801 160.9 33.8801 162.83 35.6201C167.842 36.0597 172.829 36.7573 177.77 37.7101C178.89 37.9801 179.51 37.1201 180.63 37.2701C173.239 31.5153 165.378 26.3906 157.13 21.9501C149.55 18.0301 147.36 16.9501 147.36 16.9501C137.53 16.2101 134.97 16.3001 131.43 16.7601C132.3 17.0501 139.43 18.2001 151.43 26.7601C152.29 27.3801 153.53 28.1501 154.9 29.0001Z" fill="#DE6B6A"/>
<path d="M191.64 37.24C191.64 37.24 194.93 44.43 176.64 41.84C171.97 41.17 160.25 56.63 148.91 62.6C137.57 68.57 121.91 78.13 114.63 79.81C107.35 81.49 87.8397 96.97 87.8397 96.97L90.3897 95.59C92.1297 93.65 94.8697 91.03 98.9297 86.89C104.09 81.66 115.58 76.33 115.58 76.33L128.44 51.96C128.945 51.209 129.578 50.5524 130.31 50.02C132.22 48.26 140.22 44.02 144.06 42.19C145.72 41.4 147.29 40.77 148.7 40.01C161 33.5 167.56 34.01 179.08 36.93C182.39 37.75 181.19 37.53 183.95 36.93C186.09 36.43 189.76 36.22 191.13 36.93C191.31 36.97 191.48 37.1 191.64 37.24Z" fill="#CD3528"/>
<path d="M127.449 87.4C126.906 87.4021 126.377 87.2235 125.946 86.8922C125.515 86.5609 125.207 86.0958 125.069 85.5699L124.809 84.5699L123.999 75.94L123.149 69.7L123.279 69.5999L155.129 47.72L155.259 47.99C155.349 48.16 163.719 65.11 150.839 74.75C143.911 79.8349 136.368 84.0247 128.389 87.22C128.091 87.3404 127.771 87.4016 127.449 87.4ZM123.719 69.95L124.529 75.8799L125.329 84.4799L125.579 85.4799C125.652 85.7441 125.779 85.9905 125.951 86.2038C126.123 86.4171 126.337 86.5928 126.579 86.72C126.825 86.843 127.094 86.9121 127.368 86.9224C127.642 86.9328 127.916 86.8842 128.169 86.78C136.111 83.6059 143.618 79.4358 150.509 74.37C162.149 65.67 155.919 50.76 154.909 48.55L123.719 69.95Z" fill="#AC0807"/>
<path d="M168.64 43.25C167.52 45.9 159.93 52.14 159.93 52.14L156.93 54.2L154.93 55.56L126.22 70.32C125.784 70.5722 125.276 70.6704 124.778 70.5985C124.279 70.5266 123.82 70.2889 123.473 69.9237C123.126 69.5585 122.913 69.0872 122.867 68.5858C122.821 68.0843 122.945 67.5821 123.22 67.16C128.49 58.95 129.22 52.03 131.09 50.6C135.28 47.45 149 41.72 152.8 40.54C164 37.07 169.46 41.28 169.46 41.28L168.64 43.25Z" fill="#414C5C"/>
<path d="M126.75 68.02C126.541 68.0083 126.339 67.9421 126.163 67.8281C125.988 67.7141 125.845 67.5562 125.75 67.37C125.67 67.1819 125.633 66.9785 125.642 66.7744C125.651 66.5704 125.705 66.3708 125.8 66.19C128.45 59.37 131.86 51.76 132.44 51.32C136.24 48.48 148.02 43.54 151.44 42.8C152.07 42.66 159.29 39.18 164.91 41.8C164.904 42.2017 164.823 42.5987 164.67 42.97C163.521 45.5418 161.957 47.9067 160.04 49.97L153.63 54.5L127.39 67.86C127.196 67.9726 126.974 68.0281 126.75 68.02Z" fill="#529BA3"/>
<path d="M154.75 54.6601L151.75 56.5901L149.46 42.9601L150.89 42.4301L154.75 54.6601Z" fill="#414C5C"/>
<path d="M47.78 86.57C54.18 99.13 72.33 104.8 80.2 106.71C81.2341 106.964 82.3237 106.857 83.2891 106.408C84.2545 105.959 85.0379 105.194 85.51 104.24L87.85 96.9701C87.85 96.9701 52.9 90.1601 51.92 75.4401C51.92 75.4401 46.94 84.9 47.78 86.57Z" fill="#F23534"/>
<path d="M80.9394 105.52C73.0694 103.6 54.9394 97.94 48.5194 85.37C48.0994 84.55 49.1194 79.89 50.2394 77.97C48.8794 80.13 47.2394 85.58 47.7794 86.59C54.1794 99.15 72.3294 104.82 80.1994 106.73C82.3294 107.25 88.8094 106.81 89.7794 104.84L90.3794 102.25C89.2594 103.62 82.7294 105.94 80.9394 105.52Z" fill="#C72E2E"/>
<path d="M89.3297 96.2701C87.8897 96.5101 87.2597 97.1 85.1297 96.82C82.6197 96.49 79.8897 97.3801 76.2297 98.0601C73.0097 98.6501 72.1297 100.46 72.1297 100.46C72.1297 100.46 72.4297 102.75 77.1297 104.11C85.4997 106.56 85.8097 106.04 87.7097 105.41C89.6097 104.78 91.0597 100.91 91.0997 100.41C91.1397 99.9101 91.0697 95.9701 89.3297 96.2701Z" fill="#9CB7D2"/>
<path d="M89.3297 96.2701C87.8897 96.5101 87.2597 97.1001 85.1297 96.8201C82.6197 96.4901 79.8897 97.3801 76.2297 98.0601C75.7738 98.1427 75.3256 98.2631 74.8897 98.4201C74.6772 98.6289 74.4923 98.8642 74.3397 99.1201C74.3397 99.1201 74.6397 101.41 79.3397 102.77C86.3397 104.83 87.7197 104.77 89.0997 104.35C90.0272 103.183 90.7077 101.839 91.0997 100.4C91.0997 100 91.0697 95.9701 89.3297 96.2701Z" fill="#BED5DF"/>
<path d="M54.7601 88.85C54.7601 89.98 54.6401 90.85 54.6401 90.85C53.9017 90.8135 53.1795 90.6208 52.521 90.2846C51.8626 89.9485 51.2828 89.4766 50.8201 88.9001C49.4801 87.0501 47.7501 85.3701 48.3301 83.2201C48.9101 81.0701 51.1301 76.22 51.3301 76.82C51.3301 76.82 52.1201 82.3 53.7401 83.88C54.2601 84.4941 54.5717 85.2575 54.6301 86.0601C54.7812 86.9819 54.8248 87.9181 54.7601 88.85Z" fill="#9CB7D2"/>
<path d="M54.6 86.0601C54.5416 85.2575 54.23 84.4941 53.71 83.88C52.09 82.3 51.3 76.82 51.3 76.82C51.3 76.82 51.14 76.73 50.98 76.82C50.54 77.47 50.13 80.77 49.98 81.51C49.4 83.66 51.14 85.3401 52.47 87.1901C53.049 87.9763 53.8661 88.5549 54.8 88.84C54.8374 87.9088 54.7703 86.9763 54.6 86.0601Z" fill="#BED5DF"/>
<path d="M54.7393 92.4101C57.3233 95.093 60.4081 97.2435 63.8193 98.7401C70.0593 101.74 71.6093 101.92 71.6093 101.92C70.8118 100.115 69.3923 98.6562 67.6093 97.8101C64.4493 96.4601 60.6093 94.5301 59.0893 93.1801C57.5693 91.8301 55.1893 92.3001 54.7393 92.4101Z" fill="#293237"/>
<path d="M64.0693 96.78C60.9447 95.357 58.0683 93.4428 55.5493 91.11C55.2893 91.11 55.0893 91.72 54.9893 91.74C57.5946 94.3774 60.6755 96.498 64.0693 97.99C70.3093 100.99 71.8693 101.25 71.8693 101.25C71.789 100.769 71.6194 100.308 71.3693 99.89C68.8745 99.004 66.4365 97.9653 64.0693 96.78Z" fill="#F23534"/>
<path d="M50.1897 98.04C50.1842 98.0865 50.1842 98.1335 50.1897 98.18C50.2387 98.3346 50.313 98.4799 50.4097 98.61C50.6088 98.9545 50.8258 99.2882 51.0597 99.61C51.8647 100.731 52.7829 101.767 53.7997 102.7C56.8696 105.453 60.3433 107.719 64.0997 109.42C68.4426 111.532 72.9387 113.314 77.5497 114.75C79.7441 115.367 81.9958 115.759 84.2697 115.92C86.9097 115.92 92.9797 115.77 94.5897 114.7C95.923 113.8 97.2564 112.85 98.5897 111.85C99.1897 111.39 97.8397 109.08 97.9197 108.34C96.2864 109.624 94.543 110.762 92.7097 111.74C92.0897 112.08 91.4997 112.52 90.8797 112.83C90.0802 113.158 89.2443 113.39 88.3897 113.52C86.1674 113.75 83.9218 113.56 81.7697 112.96L79.5697 112.29C78.0997 111.85 72.5697 109.71 71.2397 109.14C65.3397 106.62 58.2397 103.01 55.3297 100.49C54.1436 99.6924 53.0324 98.7887 52.0097 97.79C51.7097 97.42 50.6297 96.46 50.6597 96.89C50.6973 97.1697 50.6334 97.4535 50.4797 97.6901C50.3897 97.8301 50.2297 97.89 50.1897 98.04Z" fill="#760100"/>
<path d="M50.1894 97.11C50.183 97.1531 50.183 97.197 50.1894 97.24C50.2383 97.3946 50.3127 97.5399 50.4094 97.67C50.6094 98.02 50.8294 98.35 51.0594 98.67C51.8671 99.786 52.7851 100.818 53.7994 101.75C56.8598 104.519 60.3267 106.802 64.0794 108.52C68.4202 110.64 72.9166 112.425 77.5294 113.86C79.7253 114.469 81.9764 114.857 84.2494 115.02C86.8894 115.02 92.9594 114.87 94.5694 113.8C95.9027 112.9 97.2361 111.95 98.5694 110.95C99.1694 110.5 97.8194 108.19 97.8994 107.44C96.2686 108.728 94.5248 109.866 92.6894 110.84C92.0694 111.18 91.4794 111.62 90.8594 111.93C90.0634 112.227 89.2338 112.426 88.3894 112.52C86.1678 112.753 83.9222 112.566 81.7694 111.97L79.5694 111.3C78.0994 110.85 72.5694 108.71 71.2394 108.14C65.3394 105.63 58.2394 102.01 55.3294 99.5001C54.2394 98.5501 52.9594 97.96 52.0094 96.79C51.7094 96.42 50.6294 95.46 50.6594 95.89C50.6979 96.1697 50.6339 96.4538 50.4794 96.6901C50.3894 96.8901 50.2294 96.95 50.1894 97.11Z" fill="#D12D2D"/>
<path d="M96.3897 75.38L91.0397 79.27C85.6897 83.15 75.4697 96.15 75.4697 96.15C69.1197 94.02 61.7397 90.89 56.9697 86.68C62.2797 75.85 80.1697 65.5 80.1697 65.5L96.3897 75.38Z" fill="#BC2625"/>
<path d="M97.0401 75.95L91.6901 79.83C86.3401 83.71 76.1301 96.71 76.1301 96.71C69.7701 94.58 62.4001 91.46 57.6201 87.25C62.9001 76.39 80.1001 65.52 80.1001 65.52L97.0401 75.95Z" fill="#E65C56"/>
<path d="M86.8097 97.1401C86.6574 97.1318 86.5081 97.1839 86.3939 97.2849C86.2797 97.386 86.21 97.5279 86.1997 97.6801C85.7297 99.3201 85.2697 103.5 84.7997 105.15C84.7997 105.23 84.7997 105.34 84.7997 105.4C84.8263 105.413 84.8553 105.419 84.8847 105.419C84.9141 105.419 84.9431 105.413 84.9697 105.4C85.822 105.42 86.6622 105.195 87.3897 104.75C88.3543 103.88 89.1098 102.803 89.5997 101.6C89.8197 101.18 90.7197 96.71 89.6497 96.73C88.6955 96.8081 87.747 96.945 86.8097 97.1401Z" fill="#E08A35"/>
<path d="M50.9597 78.1C51.0997 77.85 51.3397 77.46 51.1597 77.17C50.9797 76.88 50.7897 77.17 50.6497 77.36C50.1097 78.1 49.6497 81.42 49.1897 82.23C48.9742 82.6224 48.7806 83.0263 48.6097 83.44C48.5148 83.6127 48.457 83.8033 48.4398 83.9995C48.4225 84.1958 48.4464 84.3935 48.5097 84.58C48.5664 84.7085 48.6333 84.8322 48.7097 84.95L49.0397 85.47C49.1897 85.04 49.3297 84.62 49.4897 84.19C49.9397 82.98 50.3297 79.23 50.9597 78.1Z" fill="#E08A35"/>
<path d="M131.39 71.96C131.413 72.6183 131.21 73.2647 130.815 73.7921C130.421 74.3195 129.858 74.6963 129.22 74.86C128.775 74.988 128.313 75.0487 127.85 75.04C125.5 75.04 122.54 75.33 122.08 74.67C121.62 74.01 119.3 74.78 119.3 74.78C119.12 74.6306 118.976 74.4423 118.879 74.2293C118.782 74.0162 118.734 73.784 118.74 73.55C118.734 73.3146 118.781 73.0809 118.878 72.8662C118.975 72.6516 119.119 72.4615 119.3 72.31L119.78 71.91L121.19 71.96C121.248 71.7755 121.318 71.5951 121.4 71.42C121.87 70.42 123.31 68.51 127.08 69.18C131.98 70.07 131.39 71.96 131.39 71.96Z" fill="#293237"/>
<path d="M178.56 36.1601C174.62 34.4301 157.91 31.84 157.34 31.89C155.49 30.29 133.89 18.71 130.97 17.51C133.97 17.51 143.46 17.3801 149.03 18.6901C149.16 18.6901 149.55 18.45 156.97 22.3C164.517 26.3496 171.736 30.9838 178.56 36.1601Z" fill="#414C5C"/>
<path d="M176.17 34.89C171 33.21 158.41 31.0201 157 30.8401C147.81 24.2801 134.06 18.29 134.06 18.29C134.82 18.29 146.32 18.6101 148.81 19.1901C150.18 19.5401 150.54 19.4 156.81 22.64C163.552 26.2484 170.022 30.3425 176.17 34.89Z" fill="#88D5DE"/>
<path d="M194.58 46.2701L194.39 50.0201C193.92 51.2401 192.57 52.52 191.86 53.54C191.68 53.81 191.49 54.0601 191.3 54.3101C191.16 54.5103 191.003 54.6978 190.83 54.8701C190.648 55.0998 190.447 55.3139 190.23 55.51C189.93 55.84 187.8 57.27 187.49 57.51C187.276 57.6894 187.052 57.8564 186.82 58.01C187.254 56.5889 187.493 55.1155 187.53 53.63C187.59 49.63 185.83 47.18 183.13 46.63C181.78 46.75 180.64 46.79 179.57 46.98C178.875 47.21 178.205 47.5081 177.57 47.8701C172.01 50.9901 167.39 58.6201 167.39 64.9301C167.347 66.2105 167.565 67.4862 168.03 68.6801C168.303 69.0534 168.463 69.498 168.49 69.9601C167.943 70.5575 167.288 71.0461 166.56 71.4001C166.35 71.5299 166.129 71.6403 165.9 71.73C165.657 71.8557 165.406 71.9659 165.15 72.0601C164.36 72.3701 163.27 72.83 162.02 73.39C161.54 73.63 161.02 73.86 160.49 74.11C159.43 74.59 158.29 75.11 157.13 75.67C156.69 75.87 156.24 76.08 155.82 76.29C155.7 76.29 155.61 76.3901 155.49 76.4401L154.49 76.9301L152.81 77.7401L151.61 78.32L150.84 78.6901C150.805 78.7027 150.771 78.7195 150.74 78.7401C148.93 79.6301 147.52 80.3301 146.88 80.6201L146.71 80.7101L146.59 80.7701L147.07 80.3701C147.07 80.3701 147.07 80.3701 147.13 80.3701C151.353 77.0014 155.368 73.3779 159.15 69.5201C159.32 69.3501 159.48 69.1701 159.61 69.0201C160.808 67.8451 161.784 66.4628 162.49 64.9401C162.92 63.6501 163.3 62.16 163.78 60.54C163.88 60.25 163.96 59.96 164.06 59.67C165.19 56.16 167.15 53.7401 171.45 49.7401C177.31 44.3001 180.61 45.04 185.67 44.48C190.73 43.92 192.56 41.42 192.56 41.42L192.75 41.6C193.367 42.2054 193.849 42.9345 194.164 43.7393C194.48 44.5442 194.621 45.4066 194.58 46.2701Z" fill="#F25447"/>
<path d="M169.04 67.08C168.952 66.9486 168.888 66.8032 168.85 66.65C168.966 66.9383 169.106 67.216 169.27 67.48C169.178 67.3558 169.101 67.2216 169.04 67.08Z" fill="#D92826"/>
<path d="M169.04 67.08C168.952 66.9486 168.888 66.8032 168.85 66.65C168.966 66.9383 169.106 67.216 169.27 67.48C169.178 67.3558 169.101 67.2216 169.04 67.08Z" fill="#414C5C"/>
<path d="M183.16 46.62C181.81 46.74 180.67 46.7801 179.6 46.9701C180.738 46.5541 181.963 46.4336 183.16 46.62Z" fill="#414C5C"/>
<path d="M194.39 50.02L194.55 46.25C194.564 45.9326 194.506 45.6161 194.381 45.3239C194.256 45.0317 194.068 44.7713 193.828 44.562C193.589 44.3527 193.306 44.1999 193 44.1147C192.694 44.0295 192.373 44.0142 192.06 44.07C190.99 44.26 189.74 44.45 188.32 44.6C183.26 45.16 178.07 43.23 172.21 48.67C165.51 54.89 166.21 62.8 164.71 67.07C163.94 69.35 159.71 73.07 155.71 76.3C156.14 76.09 156.58 75.87 157.02 75.67C158.18 75.13 159.32 74.59 160.38 74.11C160.91 73.86 161.38 73.63 161.91 73.39C163.16 72.83 164.25 72.39 165.04 72.06C165.297 71.9659 165.547 71.8557 165.79 71.73C166.02 71.6403 166.24 71.5298 166.45 71.4C167.178 71.0461 167.833 70.5575 168.38 69.96C168.353 69.4979 168.194 69.0534 167.92 68.68C167.455 67.4862 167.237 66.2104 167.28 64.93C167.36 58.62 171.95 50.99 177.53 47.86C178.166 47.4981 178.836 47.2 179.53 46.97C180.6 46.78 181.74 46.74 183.09 46.62C185.79 47.17 187.55 49.62 187.49 53.62C187.453 55.1054 187.214 56.5789 186.78 58C187.013 57.8464 187.236 57.6794 187.45 57.5C187.76 57.27 189.89 55.84 190.2 55.5C190.417 55.3037 190.618 55.0897 190.8 54.86C190.972 54.6897 191.126 54.5021 191.26 54.3C191.461 54.0542 191.648 53.7971 191.82 53.53C192.61 52.52 193.96 51.24 194.39 50.02Z" fill="#C92A1D"/>
<path d="M98.0397 108.52C97.4132 104.867 97.9241 101.109 99.5034 97.7552C101.083 94.4017 103.654 91.6142 106.87 89.77C118.27 82.97 116.6 97.5901 116.6 97.5901L117.79 98.2401L134.66 87.42L120.56 92.42C117.56 87.29 113.45 84.9 109.94 85.35C102.94 86.26 95.8397 94.83 95.8797 104.35L91.8797 111.56L98.0397 108.52Z" fill="#CD3528"/>
<path d="M155.39 61.15L150.82 63.92V63.65C150.82 62.79 150.71 62.28 151.62 61.78C152.495 61.2247 153.4 60.7173 154.33 60.26C155.55 59.7 155.39 61.15 155.39 61.15Z" fill="#A61414"/>
<path d="M150.44 21.52C156.828 24.9339 162.969 28.7899 168.82 33.06C171.65 33.66 174.36 34.31 176.17 34.9C170.016 30.3516 163.538 26.2575 156.79 22.65C150.54 19.41 150.18 19.55 148.79 19.2C147.43 18.9689 146.057 18.8186 144.68 18.75C145.75 19.16 147.39 19.93 150.44 21.52Z" fill="#78B4BA"/>
<path d="M192.56 41.42C192.56 41.42 187.85 43.01 187.64 41.42C187.58 40.8 187.17 37.91 186.55 37.58C186.436 37.5051 186.316 37.4414 186.19 37.39C185.849 37.2328 185.578 36.9549 185.43 36.61C185.289 36.3365 185.237 36.0263 185.28 35.7219C185.323 35.4176 185.459 35.134 185.67 34.91C185.701 34.8509 185.746 34.7997 185.8 34.76C185.914 34.6746 186.038 34.604 186.17 34.55C186.902 34.2944 187.689 34.2391 188.45 34.39C190.26 35.92 191.29 36.88 191.29 36.88H191.23C191.351 36.9476 191.462 37.0318 191.56 37.13C191.586 37.1609 191.61 37.1944 191.63 37.23L191.73 37.56L192.56 41.42Z" fill="#E08A35"/>
<path d="M158.609 16.94C152.809 19.33 150.069 16.42 150.069 16.42C150.104 16.3572 150.152 16.3026 150.209 16.26C151.848 15.8819 153.537 15.7772 155.209 15.95C156.389 16.24 157.489 16.57 158.609 16.94Z" fill="#F2A93D"/>
<path d="M64.9395 103.86V106.64C64.9508 106.726 64.9508 106.814 64.9395 106.9C62.2595 105.47 59.3795 103.82 56.4995 101.9C56.4617 101.815 56.4413 101.723 56.4395 101.63V98.85C56.4395 98.29 56.8494 98.1 57.3494 98.39L64.0695 102.31C64.3241 102.484 64.5352 102.714 64.6861 102.983C64.837 103.252 64.9237 103.552 64.9395 103.86Z" fill="#12181D"/>
<path d="M57.3094 102.62C57.0512 102.454 56.8347 102.23 56.6769 101.966C56.5191 101.703 56.4242 101.406 56.3994 101.1V98.31C56.3994 97.77 56.8094 97.56 57.3094 97.85L64.0294 101.78C64.2877 101.946 64.5041 102.17 64.6619 102.434C64.8197 102.697 64.9147 102.994 64.9394 103.3V106.09C64.9394 106.63 64.5294 106.84 64.0294 106.55L57.3094 102.62Z" fill="#D3D3D3"/>
<path d="M64.0293 106.36L57.3093 102.43C57.0976 102.298 56.9202 102.118 56.7916 101.904C56.663 101.69 56.5868 101.449 56.5693 101.2V98.4101C56.5693 97.9701 56.8993 97.8001 57.3093 98.0401L64.0293 101.97C64.241 102.102 64.4185 102.282 64.5471 102.496C64.6757 102.71 64.7519 102.951 64.7693 103.2V105.99C64.7693 106.43 64.4393 106.6 64.0293 106.36Z" fill="#EFEC82"/>
<path d="M64.7593 103.18C64.7392 102.936 64.6628 102.699 64.5361 102.489C64.4095 102.28 64.2361 102.102 64.0293 101.97L57.3093 98.04C56.9093 97.8 56.5793 97.97 56.5693 98.4L64.7593 103.18Z" fill="#D3A944"/>
<path d="M56.5693 101.22C56.5914 101.465 56.6696 101.702 56.7979 101.911C56.9263 102.121 57.1013 102.299 57.3093 102.43L64.0293 106.36C64.4293 106.6 64.7593 106.43 64.7593 106L56.5693 101.22Z" fill="#D3A944"/>
<path d="M66.4897 85.8L64.0997 90.06L66.5497 91.35L70.5497 87.91L66.4897 85.8Z" fill="#D3D3D3"/>
<path d="M96.8602 33.76C96.8602 33.76 83.9402 46.52 80.7002 53.42C77.4602 60.32 116.64 74.32 116.64 74.32L128.96 51.37C124.67 49.52 105.44 42.88 96.8602 33.76Z" fill="#414C5C"/>
<path d="M127.879 51.76L118.569 69.1L116.269 73.37C106.789 69.93 83.7595 60.58 81.4495 55C81.3561 54.8031 81.3076 54.5879 81.3076 54.37C81.3076 54.1521 81.3561 53.9369 81.4495 53.74C81.5295 53.59 81.5995 53.42 81.6795 53.26C84.7495 47.26 94.4695 37.26 96.8995 34.86C97.1495 35.11 97.4195 35.38 97.6895 35.61C101.12 38.6437 104.916 41.2371 108.989 43.33C114.545 46.25 120.272 48.8314 126.139 51.06L127.879 51.76Z" fill="#3D7D87"/>
<path d="M108.949 43.33L87.8392 52.33C87.6641 52.4365 87.4641 52.4951 87.2592 52.5C87.0501 52.4844 86.8485 52.4155 86.6734 52.3C86.4984 52.1845 86.3558 52.0262 86.2592 51.84C86.1745 51.6528 86.1358 51.448 86.1462 51.2427C86.1566 51.0375 86.216 50.8377 86.3192 50.66C88.9592 43.85 95.3192 37.24 95.9292 36.8C96.5392 36.36 96.9992 36.04 97.6892 35.64C101.109 38.6605 104.891 41.2437 108.949 43.33Z" fill="#95C9B1"/>
<path d="M191.559 37.13H190.979C190.729 37.13 190.469 37.13 190.239 37.18C189.609 37.26 189.009 37.42 188.389 37.49C187.788 37.5254 187.184 37.4953 186.589 37.4C186.358 37.3415 186.145 37.2257 185.97 37.0631C185.795 36.9006 185.664 36.6966 185.589 36.47C185.489 36.2233 185.447 35.9564 185.468 35.6908C185.489 35.4252 185.572 35.1681 185.709 34.94C185.741 34.881 185.785 34.8297 185.839 34.79C185.953 34.7046 186.078 34.6341 186.209 34.58C186.942 34.3244 187.729 34.2692 188.489 34.42C190.299 35.95 191.329 36.91 191.329 36.91H191.269C191.375 36.9713 191.472 37.0452 191.559 37.13Z" fill="#F2A93D"/>
<path d="M118.569 69.1L116.269 73.3701C106.789 69.9301 83.7595 60.5801 81.4495 55.0001C81.3561 54.8032 81.3076 54.588 81.3076 54.3701C81.3076 54.1521 81.3561 53.9369 81.4495 53.7401C81.5295 53.5901 81.5995 53.42 81.6795 53.26C83.1456 53.4809 84.641 53.4096 86.0795 53.05C101.029 61.52 111.389 64.87 118.569 69.1Z" fill="#5B949C"/>
<path d="M77.13 108.73V109.62C77.1267 109.802 77.1784 109.98 77.2783 110.132C77.3783 110.284 77.5218 110.401 77.69 110.47L81.47 111.93C81.5491 111.951 81.632 111.954 81.7124 111.939C81.7928 111.923 81.8686 111.89 81.9342 111.84C81.9997 111.791 82.0532 111.728 82.0906 111.655C82.128 111.582 82.1483 111.502 82.15 111.42V111.17L78.99 109.94C78.8201 109.874 78.675 109.756 78.5747 109.604C78.4744 109.452 78.4238 109.272 78.43 109.09V108.46L77.82 108.22C77.7404 108.199 77.6571 108.196 77.5762 108.212C77.4953 108.227 77.4189 108.261 77.3527 108.309C77.2865 108.358 77.2321 108.422 77.1935 108.494C77.155 108.567 77.1333 108.648 77.13 108.73Z" fill="#760100"/>
<path d="M78.3902 108.46V109.09C78.3839 109.272 78.4345 109.452 78.5348 109.604C78.6351 109.756 78.7803 109.874 78.9502 109.94L82.1102 111.17V110.52C82.1156 110.337 82.0648 110.156 81.9648 110.002C81.8647 109.849 81.72 109.729 81.5502 109.66L78.3902 108.46Z" fill="#BED5DF"/>
<path d="M49.4601 92.29V92.94C49.4531 93.0977 49.4797 93.2551 49.5384 93.4017C49.597 93.5483 49.6862 93.6806 49.8001 93.79L52.0501 95.7C52.2401 95.86 52.4601 95.7 52.4601 95.35V95.13L50.5701 93.52C50.4605 93.408 50.3748 93.2749 50.3181 93.1288C50.2613 92.9827 50.2348 92.8266 50.2401 92.67V92.24L49.8701 91.93C49.6901 91.8 49.4601 91.99 49.4601 92.29Z" fill="#760100"/>
<path d="M50.2397 92.26V92.69C50.2345 92.8467 50.261 93.0027 50.3177 93.1488C50.3744 93.2949 50.4602 93.428 50.5697 93.54L52.4597 95.13V94.71C52.4658 94.5518 52.4396 94.394 52.3829 94.2462C52.3262 94.0984 52.2401 93.9636 52.1297 93.85L50.2397 92.26Z" fill="#BED5DF"/>
<path d="M113.75 80.8601L112.63 81.48C112.482 81.5677 112.359 81.6919 112.273 81.8408C112.187 81.9897 112.141 82.1582 112.14 82.3301V82.7501C112.141 82.835 112.164 82.9181 112.207 82.9913C112.25 83.0645 112.312 83.1253 112.385 83.1676C112.459 83.21 112.542 83.2325 112.627 83.2329C112.712 83.2333 112.796 83.2117 112.87 83.1701L114 82.54C114.144 82.4521 114.264 82.3289 114.348 82.182C114.432 82.0351 114.477 81.8692 114.48 81.7V81.2801C114.478 81.1952 114.455 81.112 114.412 81.0388C114.369 80.9656 114.308 80.9048 114.234 80.8625C114.161 80.8201 114.077 80.7977 113.992 80.7972C113.907 80.7968 113.824 80.8184 113.75 80.8601Z" fill="#E06E18"/>
<path d="M113.96 81.02L112.84 81.64C112.692 81.7276 112.569 81.8519 112.483 82.0008C112.397 82.1497 112.351 82.3182 112.35 82.49V82.91C112.351 82.9949 112.374 83.0781 112.417 83.1513C112.46 83.2245 112.522 83.2852 112.595 83.3276C112.669 83.3699 112.752 83.3924 112.837 83.3928C112.922 83.3933 113.006 83.3716 113.08 83.33L114.2 82.7C114.348 82.6124 114.47 82.4881 114.556 82.3392C114.642 82.1903 114.688 82.0218 114.69 81.85V81.44C114.688 81.3551 114.665 81.2719 114.622 81.1987C114.579 81.1255 114.518 81.0648 114.444 81.0224C114.371 80.9801 114.287 80.9576 114.202 80.9572C114.117 80.9567 114.034 80.9784 113.96 81.02Z" fill="#E0AB35"/>
</g>
<defs>
<linearGradient id="paint0_linear_17_829" x1="36.6297" y1="8.55003" x2="127.84" y2="82.14" gradientUnits="userSpaceOnUse">
<stop offset="0.05" stop-color="white"/>
<stop offset="0.4" stop-color="#E9E9ED"/>
<stop offset="0.91" stop-color="#C4C3CF"/>
<stop offset="1" stop-color="#BDBBC9"/>
</linearGradient>
<linearGradient id="paint1_linear_17_829" x1="94.2868" y1="108.13" x2="106.632" y2="86.6498" gradientUnits="userSpaceOnUse">
<stop offset="0.16" stop-color="#3C4851"/>
<stop offset="0.56" stop-color="#556773"/>
<stop offset="0.87" stop-color="#51626E"/>
</linearGradient>
<linearGradient id="paint2_linear_17_829" x1="104.1" y1="109.78" x2="113.91" y2="92.78" gradientUnits="userSpaceOnUse">
<stop offset="0.16" stop-color="#E3E3E3"/>
<stop offset="0.56" stop-color="#CCCCCC"/>
<stop offset="0.87" stop-color="#B7B7B7"/>
</linearGradient>
<linearGradient id="paint3_linear_17_829" x1="165.006" y1="67.0407" x2="177.346" y2="45.5691" gradientUnits="userSpaceOnUse">
<stop offset="0.16" stop-color="#3C4851"/>
<stop offset="0.56" stop-color="#556773"/>
<stop offset="0.87" stop-color="#51626E"/>
</linearGradient>
<linearGradient id="paint4_linear_17_829" x1="174.73" y1="68.7201" x2="184.29" y2="52.1701" gradientUnits="userSpaceOnUse">
<stop offset="0.16" stop-color="#E3E3E3"/>
<stop offset="0.56" stop-color="#CCCCCC"/>
<stop offset="0.87" stop-color="#B7B7B7"/>
</linearGradient>
<clipPath id="clip0_17_829">
<rect width="238.77" height="139.14" fill="white"/>
</clipPath>
</defs>
</svg>
