<?xml version="1.0" encoding="UTF-8"?>
<svg width="265" height="80" viewBox="0 0 265 80" fill="none" xmlns="http://www.w3.org/2000/svg">
<rect x="0.5" y="0.5" width="264" height="79" rx="3.5" fill="#EEEEEE" stroke="#1A1A1A"/>
<path d="M130.736 48V31.2H137.576C139.368 31.2 140.936 31.56 142.28 32.28C143.64 32.984 144.696 33.968 145.448 35.232C146.2 36.496 146.576 37.952 146.576 39.6C146.576 41.248 146.2 42.704 145.448 43.968C144.696 45.232 143.64 46.224 142.28 46.944C140.936 47.648 139.368 48 137.576 48H130.736ZM132.512 46.464H137.48C138.968 46.464 140.256 46.176 141.344 45.6C142.448 45.008 143.304 44.2 143.912 43.176C144.52 42.136 144.824 40.944 144.824 39.6C144.824 38.24 144.52 37.048 143.912 36.024C143.304 35 142.448 34.2 141.344 33.624C140.256 33.032 138.968 32.736 137.48 32.736H132.512V46.464ZM155.556 48.12C154.244 48.12 153.092 47.848 152.1 47.304C151.108 46.744 150.332 45.984 149.772 45.024C149.212 44.048 148.932 42.936 148.932 41.688C148.932 40.44 149.196 39.336 149.724 38.376C150.268 37.416 151.004 36.664 151.932 36.12C152.876 35.56 153.932 35.28 155.1 35.28C156.284 35.28 157.332 35.552 158.244 36.096C159.172 36.624 159.9 37.376 160.428 38.352C160.956 39.312 161.22 40.424 161.22 41.688C161.22 41.768 161.212 41.856 161.196 41.952C161.196 42.032 161.196 42.12 161.196 42.216H150.228V40.944H160.284L159.612 41.448C159.612 40.536 159.412 39.728 159.012 39.024C158.628 38.304 158.1 37.744 157.428 37.344C156.756 36.944 155.98 36.744 155.1 36.744C154.236 36.744 153.46 36.944 152.772 37.344C152.084 37.744 151.548 38.304 151.164 39.024C150.78 39.744 150.588 40.568 150.588 41.496V41.76C150.588 42.72 150.796 43.568 151.212 44.304C151.644 45.024 152.236 45.592 152.988 46.008C153.756 46.408 154.628 46.608 155.604 46.608C156.372 46.608 157.084 46.472 157.74 46.2C158.412 45.928 158.988 45.512 159.468 44.952L160.428 46.056C159.868 46.728 159.164 47.24 158.316 47.592C157.484 47.944 156.564 48.12 155.556 48.12ZM164.689 48V30.192H166.393V48H164.689ZM171.134 48V35.4H172.838V48H171.134ZM171.998 32.616C171.646 32.616 171.35 32.496 171.11 32.256C170.87 32.016 170.75 31.728 170.75 31.392C170.75 31.056 170.87 30.776 171.11 30.552C171.35 30.312 171.646 30.192 171.998 30.192C172.35 30.192 172.646 30.304 172.886 30.528C173.126 30.752 173.246 31.032 173.246 31.368C173.246 31.72 173.126 32.016 172.886 32.256C172.662 32.496 172.366 32.616 171.998 32.616ZM180.819 48L175.227 35.4H177.003L182.139 47.088H181.299L186.507 35.4H188.187L182.571 48H180.819ZM195.587 48.12C194.275 48.12 193.123 47.848 192.131 47.304C191.139 46.744 190.363 45.984 189.803 45.024C189.243 44.048 188.963 42.936 188.963 41.688C188.963 40.44 189.227 39.336 189.755 38.376C190.299 37.416 191.035 36.664 191.963 36.12C192.907 35.56 193.963 35.28 195.131 35.28C196.315 35.28 197.363 35.552 198.275 36.096C199.203 36.624 199.931 37.376 200.459 38.352C200.987 39.312 201.251 40.424 201.251 41.688C201.251 41.768 201.243 41.856 201.227 41.952C201.227 42.032 201.227 42.12 201.227 42.216H190.259V40.944H200.315L199.643 41.448C199.643 40.536 199.443 39.728 199.043 39.024C198.659 38.304 198.131 37.744 197.459 37.344C196.787 36.944 196.011 36.744 195.131 36.744C194.267 36.744 193.491 36.944 192.803 37.344C192.115 37.744 191.579 38.304 191.195 39.024C190.811 39.744 190.619 40.568 190.619 41.496V41.76C190.619 42.72 190.827 43.568 191.243 44.304C191.675 45.024 192.267 45.592 193.019 46.008C193.787 46.408 194.659 46.608 195.635 46.608C196.403 46.608 197.115 46.472 197.771 46.2C198.443 45.928 199.019 45.512 199.499 44.952L200.459 46.056C199.899 46.728 199.195 47.24 198.347 47.592C197.515 47.944 196.595 48.12 195.587 48.12ZM204.72 48V35.4H206.352V38.832L206.184 38.232C206.536 37.272 207.128 36.544 207.96 36.048C208.792 35.536 209.824 35.28 211.056 35.28V36.936C210.992 36.936 210.928 36.936 210.864 36.936C210.8 36.92 210.736 36.912 210.672 36.912C209.344 36.912 208.304 37.32 207.552 38.136C206.8 38.936 206.424 40.08 206.424 41.568V48H204.72ZM214.8 52.776C214.208 52.776 213.64 52.68 213.096 52.488C212.568 52.296 212.112 52.008 211.728 51.624L212.52 50.352C212.84 50.656 213.184 50.888 213.552 51.048C213.936 51.224 214.36 51.312 214.824 51.312C215.384 51.312 215.864 51.152 216.264 50.832C216.68 50.528 217.072 49.984 217.44 49.2L218.256 47.352L218.448 47.088L223.632 35.4H225.312L219 49.512C218.648 50.328 218.256 50.976 217.824 51.456C217.408 51.936 216.952 52.272 216.456 52.464C215.96 52.672 215.408 52.776 214.8 52.776ZM218.16 48.36L212.352 35.4H214.128L219.264 46.968L218.16 48.36Z" fill="#1A1A1A"/>
<circle cx="27.5" cy="39.5" r="12.8864" stroke="#1A73E8" stroke-width="1.22727"/>
<circle cx="27.5007" cy="39.4997" r="7.36364" fill="#1A73E8" stroke="#1A73E8" stroke-width="1.22727"/>
<path d="M68 27.6119V28.2236H68.6117H69.2234V27.6119V27.0002H68.6117H68V27.6119Z" fill="#1A1A1A"/>
<path d="M70.3107 27.6119V28.2236H74.3889H78.467V27.6119V27.0002H74.3889H70.3107V27.6119Z" fill="#1A1A1A"/>
<path d="M68.3059 29.3857C67.9865 29.5624 68.0001 29.1274 68.0001 39.2412V48.8113L68.1768 48.9472C68.3535 49.0831 68.4351 49.0899 70.5149 49.0899H72.6696L72.7171 49.3482C72.7851 49.8104 73.1997 50.5309 73.6483 50.9727C74.8038 52.1349 76.6865 52.3389 78.0255 51.4417C78.7664 50.9455 79.3985 50.0687 79.5208 49.3686L79.5684 49.0899H85.9779H92.3874L92.4349 49.3482C92.5641 50.0483 93.2574 51.0135 93.9575 51.4621C95.3032 52.3253 97.1724 52.1281 98.3075 50.9931C98.7425 50.5513 99.1707 49.8104 99.2386 49.3482L99.2862 49.0899H100.863C102.358 49.0899 102.454 49.0831 102.624 48.9472L102.8 48.8113V45.338V41.8648L100.143 37.7255C98.6813 35.4485 97.4171 33.5454 97.3423 33.491C97.22 33.4027 96.7306 33.3891 94.2225 33.3891H91.2523L91.2319 31.5199C91.2115 29.6848 91.2115 29.6508 91.0552 29.5013L90.8988 29.3449L79.6704 29.3313C71.616 29.3177 68.4011 29.3381 68.3059 29.3857ZM90.022 31.0781V31.6219H80.1665H70.311V32.2336V32.8453H80.1665H90.022V39.2004V45.5555H85.0943H80.1665V46.1673V46.779H85.0943H90.022V47.3227V47.8665H84.7952H79.5684L79.5276 47.6422C79.5072 47.5198 79.3781 47.1936 79.249 46.9217C78.9703 46.344 78.3654 45.6983 77.8148 45.406C76.8361 44.8759 75.4155 44.8759 74.43 45.406C73.6755 45.807 72.8599 46.8605 72.7239 47.6082L72.6764 47.8665H70.9499H69.2235V47.3227V46.779H70.6509H72.0782V46.1673V45.5555H70.6509H69.2235V38.045V30.5344H79.6228H90.022V31.0781ZM97.0093 35.1563L97.3559 35.7H95.045H92.7272L92.5301 35.8971L92.333 36.0943V38.9218V41.7425L92.4961 41.9328L92.6592 42.1231L97.1044 42.1571L101.543 42.1911L101.563 43.8699L101.577 45.5555H100.727H99.8776V46.1673V46.779H100.727H101.577V47.3227V47.8665H100.428H99.2794L99.2318 47.6082C99.0959 46.8538 98.2871 45.807 97.5258 45.406C96.8461 45.039 95.7654 44.903 94.9838 45.0866C94.0594 45.2973 93.1282 46.0517 92.7068 46.9217C92.5777 47.1936 92.4485 47.5198 92.4281 47.6422L92.3874 47.8665H91.8164H91.2455V41.2395V34.6125H93.9507H96.6558L97.0093 35.1563ZM99.2658 38.6703C99.8844 39.6286 100.455 40.5326 100.544 40.6754L100.7 40.9337H97.1316H93.5564V38.9286V36.9235H95.8538H98.1443L99.2658 38.6703ZM76.9312 46.3712C77.4002 46.5479 77.91 47.0305 78.1682 47.5266C78.3382 47.8529 78.3654 47.9752 78.3654 48.4782C78.3654 49.2191 78.1954 49.6269 77.6789 50.1095C77.1623 50.5988 76.7953 50.7484 76.1224 50.7552C75.6602 50.7552 75.5175 50.728 75.1912 50.5649C74.7018 50.327 74.2804 49.9056 74.0561 49.4298C73.9066 49.1171 73.8794 48.9608 73.8794 48.4782C73.8794 47.9752 73.9066 47.8529 74.0833 47.5063C74.328 47.0169 74.8174 46.5615 75.2932 46.378C75.7689 46.1945 76.4486 46.1945 76.9312 46.3712ZM96.6422 46.378C97.1384 46.5615 97.6482 47.0305 97.8861 47.5131C98.0492 47.8529 98.0764 47.982 98.0764 48.5122C98.0764 49.0492 98.0492 49.1715 97.8861 49.4842C97.6346 49.9599 97.2268 50.3542 96.7578 50.5717C96.2004 50.8299 95.446 50.8299 94.909 50.5649C94.4536 50.3474 93.9439 49.824 93.7467 49.3822C93.237 48.2267 93.8419 46.847 95.0721 46.3576C95.48 46.1945 96.18 46.2012 96.6422 46.378Z" fill="#1A1A1A"/>
<path d="M75.4764 48.4781V49.0898H76.0882H76.6999V48.4781V47.8664H76.0882H75.4764V48.4781Z" fill="#1A1A1A"/>
<path d="M95.2559 48.4781V49.0898H95.8676H96.4793V48.4781V47.8664H95.8676H95.2559V48.4781Z" fill="#1A1A1A"/>
</svg>
