<?xml version="1.0" encoding="UTF-8"?>
<svg width="146" height="94" viewBox="0 0 146 94" fill="none" xmlns="http://www.w3.org/2000/svg">
<path d="M129.846 55.2776C129.846 55.2776 133.915 52.7966 134.523 50.3155C134.732 49.7015 134.723 49.0341 134.497 48.4261C134.271 47.8181 133.842 47.3068 133.282 46.9785C133.282 46.9785 129.052 52.2756 127.514 54.4961C125.603 57.3121 129.846 55.2776 129.846 55.2776Z" fill="#FFBE9D"/>
<path d="M135.514 44.5597C138.429 46.8422 133.43 53.0697 133.43 53.0697L129.895 51.2833C129.895 51.2833 132.673 42.3267 135.514 44.5597Z" fill="#1A73E8"/>
<path d="M143.516 68.4272L130.627 59.3341L130.875 57.4734L143.131 56.543L143.516 68.4272Z" fill="#302A3D"/>
<path d="M132.376 46.2096C133.207 43.5549 137.202 43.4184 140.452 43.9146C142.635 44.2496 144.049 44.9567 144.297 47.6362C144.446 49.3853 143.962 57.0146 142.896 59.0366C142.896 59.0366 139.174 61.1207 130.863 58.5652C130.769 54.3953 131.278 50.2336 132.376 46.2096Z" fill="#00D2FF"/>
<path d="M143.391 59.5575C143.391 59.5575 135.489 61.0958 130.539 58.7264L130.874 57.4858C134.889 58.7452 139.157 58.9629 143.279 58.1185L143.391 59.5575Z" fill="#0D042A"/>
<path d="M139.46 58.2798H138.753L138.592 60.3887H139.745L139.46 58.2798Z" fill="#302A3D"/>
<path d="M134.547 58.0314L134.038 57.8701L133.17 59.8053L134.212 60.1403L134.547 58.0314Z" fill="#302A3D"/>
<path d="M140.105 40.3789C140.105 40.3789 136.755 41.0984 136.942 41.3713C137.128 41.6442 136.805 42.2025 136.793 42.7359C136.701 43.4127 136.381 44.0382 135.887 44.5098C135.527 44.9192 136.172 45.403 136.743 45.5147C139.224 45.9737 140.738 45.0557 140.229 44.2742C139.898 43.682 139.715 43.0193 139.693 42.3416C139.672 41.6639 139.813 40.9908 140.105 40.3789Z" fill="#FFBE9D"/>
<path d="M136.792 42.7362C136.792 42.2028 137.127 41.6445 136.941 41.3716C136.755 41.0987 140.365 40.3296 140.365 40.3296C140.015 40.7218 139.79 41.2101 139.72 41.7314C138.852 42.7641 137.686 43.5047 136.383 43.8527C136.608 43.5192 136.748 43.136 136.792 42.7362Z" fill="#FF9C80"/>
<path d="M136.743 36.5334C135.416 37.5258 134.262 40.9621 135.677 42.5995C136.433 43.4927 139.187 42.5375 140.477 40.5775C140.681 40.0501 140.776 39.4872 140.756 38.9224C140.737 38.3576 140.604 37.8024 140.366 37.2901C139.975 36.7224 139.381 36.3269 138.706 36.186C138.032 36.0451 137.329 36.1695 136.743 36.5334Z" fill="#FFBE9D"/>
<path d="M135.217 39.238C135.217 39.4489 135.515 37.1539 136.805 37.005C137.326 37.005 137.202 37.4888 137.81 37.5385C138.418 37.5881 139.882 36.5336 139.286 39.6225C139.286 39.7714 139.398 39.9451 139.472 40.0691C139.547 40.1932 139.286 40.615 139.298 40.801C139.311 40.9871 139.832 40.4289 139.82 40.6026C139.807 40.7762 139.336 41.6322 139.72 41.7314C140.105 41.8307 140.142 41.4833 140.279 41.3717C140.689 41.1272 141.075 40.8448 141.432 40.5281C141.779 40.1034 142.006 39.5938 142.09 39.0519C142.194 38.5203 142.147 37.9701 141.953 37.464C141.836 37.2045 141.664 36.973 141.45 36.7848C141.236 36.5966 140.985 36.456 140.713 36.3724C140.381 36.3004 140.054 36.2092 139.733 36.0995C139.472 35.9754 139.187 35.9382 138.914 35.8141C138.739 35.7178 138.594 35.5764 138.492 35.4048C138.346 35.2145 138.159 35.0605 137.943 34.9551C137.728 34.8496 137.491 34.7955 137.252 34.7969C137.007 34.8108 136.77 34.8923 136.569 35.0325C136.367 35.1727 136.209 35.3659 136.11 35.5908C136.011 35.8513 135.974 36.1739 135.726 36.2979C135.633 36.3257 135.542 36.3588 135.453 36.3972C135.372 36.4508 135.311 36.5292 135.279 36.6205C135.068 37.0837 135.028 37.607 135.168 38.0967C135.232 38.2845 135.265 38.4813 135.267 38.6797C135.254 38.8782 135.217 39.0519 135.217 39.238Z" fill="#302A3D"/>
<path d="M138.964 40.3792C138.964 40.3792 139.92 39.5481 140.441 39.7838C140.962 40.0195 140.23 41.4585 139.2 41.26C138.17 41.0615 138.679 40.6149 138.964 40.3792Z" fill="#FFBE9D"/>
<path d="M130.999 89.6278C130.999 89.6278 130.503 90.2108 129.92 90.9924C129.337 91.7739 128.903 92.5927 129.721 92.9648C130.54 93.337 131.52 92.419 131.843 91.8732C132.165 91.3273 132.525 91.3893 132.959 91.0296C133.393 90.6698 133.17 89.3301 133.17 89.3301L130.999 89.6278Z" fill="#1C1C1C"/>
<path d="M138.468 63.9364C137.227 65.4498 133.319 89.6773 133.319 89.6773C132.141 90.6821 130.355 89.6773 130.355 89.6773C129.114 77.272 130.652 58.9619 130.652 58.9619C130.652 58.9619 139.659 65.4499 138.468 63.924V63.9364Z" fill="#302A3D"/>
<path d="M132.799 59.3221C131.335 69.3331 130.033 79.9148 131.1 90.0251C131.1 90.2608 131.484 90.2608 131.459 90.0251C130.405 79.952 131.695 69.4076 133.159 59.4089C133.159 59.1856 132.836 59.0864 132.799 59.3221Z" fill="#1D1A29"/>
<path d="M131.794 59.3716C131.794 60.3765 131.794 63.1924 130.342 63.18C130.293 63.18 130.246 63.1996 130.211 63.2345C130.176 63.2694 130.156 63.3168 130.156 63.3661C130.156 63.4155 130.176 63.4628 130.211 63.4977C130.246 63.5326 130.293 63.5522 130.342 63.5522C132.104 63.5522 132.178 60.5998 132.166 59.3716C132.166 59.3223 132.146 59.275 132.111 59.2401C132.077 59.2052 132.029 59.1855 131.98 59.1855C131.93 59.1855 131.883 59.2052 131.848 59.2401C131.813 59.275 131.794 59.3223 131.794 59.3716Z" fill="#1D1A29"/>
<path d="M142.884 90.0248C142.884 90.0248 143.38 90.6078 143.951 91.3893C144.522 92.1709 144.968 92.9896 144.162 93.3618C143.356 93.7339 142.363 92.8159 142.041 92.2701C141.718 91.7243 141.358 91.7863 140.912 91.4266C140.465 91.0668 140.713 89.7271 140.713 89.7271L142.884 90.0248Z" fill="#1C1C1C"/>
<path d="M135.44 64.3336C136.681 65.8471 140.588 90.0745 140.588 90.0745C141.829 91.0793 143.566 90.0745 143.566 90.0745C144.806 77.6693 143.454 59.5576 143.454 59.5576C143.454 59.5576 134.262 65.8471 135.44 64.3336Z" fill="#302A3D"/>
<path d="M140.702 59.818C142.165 69.8042 143.443 80.3487 142.389 90.4217C142.389 90.6574 142.736 90.6574 142.761 90.4217C143.815 80.3239 142.525 69.7298 141.061 59.7188C141.061 59.4831 140.664 59.5823 140.702 59.818Z" fill="#1D1A29"/>
<path d="M141.643 59.7681C141.643 61.0086 141.705 63.9487 143.466 63.9487C143.506 63.9382 143.541 63.9148 143.566 63.8823C143.591 63.8497 143.605 63.8099 143.605 63.7688C143.605 63.7277 143.591 63.6878 143.566 63.6553C143.541 63.6228 143.506 63.5994 143.466 63.5889C142.027 63.5889 141.99 60.7729 142.015 59.7681C142.015 59.7188 141.995 59.6714 141.96 59.6365C141.925 59.6016 141.878 59.582 141.829 59.582C141.779 59.582 141.732 59.6016 141.697 59.6365C141.662 59.6714 141.643 59.7188 141.643 59.7681Z" fill="#1D1A29"/>
<path d="M137.92 40.0069H137.796C137.635 40.0069 137.56 39.9077 137.523 39.7712C137.517 39.758 137.508 39.7467 137.496 39.7387C137.484 39.7308 137.469 39.7266 137.455 39.7266C137.44 39.7266 137.426 39.7308 137.414 39.7387C137.402 39.7467 137.393 39.758 137.387 39.7712C137.401 39.8401 137.432 39.9044 137.477 39.9583C137.522 40.0122 137.579 40.054 137.645 40.0799C137.71 40.1058 137.781 40.1149 137.851 40.1065C137.92 40.0981 137.987 40.0724 138.044 40.0318C138.131 40.0318 138.044 39.8829 137.957 39.9201L137.92 40.0069Z" fill="#1D100C"/>
<path d="M136.433 39.4488L136.296 39.5481C136.135 39.5481 136.036 39.5481 135.986 39.362C135.936 39.1759 135.812 39.362 135.837 39.362C135.86 39.4515 135.914 39.5302 135.988 39.5846C136.063 39.6389 136.154 39.6655 136.247 39.6597C136.358 39.6313 136.46 39.5759 136.544 39.4985C136.606 39.4364 136.544 39.3372 136.433 39.3992V39.4488Z" fill="#1D100C"/>
<path d="M136.171 38.7042C136.279 38.6803 136.393 38.6975 136.489 38.7525C136.585 38.8076 136.658 38.8965 136.692 39.002C136.692 39.1136 136.89 39.002 136.853 38.9275C136.802 38.785 136.701 38.6659 136.569 38.5928C136.436 38.5197 136.281 38.4975 136.134 38.5306C136.111 38.5306 136.089 38.5397 136.072 38.556C136.056 38.5723 136.047 38.5944 136.047 38.6174C136.047 38.6404 136.056 38.6625 136.072 38.6788C136.089 38.6951 136.111 38.7042 136.134 38.7042H136.171Z" fill="#552B19"/>
<path d="M137.587 39.2997C137.685 39.2501 137.799 39.2379 137.906 39.2652C138.013 39.2926 138.107 39.3577 138.17 39.4485C138.232 39.5478 138.368 39.4485 138.294 39.3369C138.212 39.2118 138.086 39.122 137.942 39.0852C137.797 39.0485 137.644 39.0674 137.512 39.1384C137.4 39.2004 137.512 39.3617 137.587 39.2997Z" fill="#552B19"/>
<path d="M136.978 39.3249C137.028 39.4866 137.028 39.6595 136.978 39.8211C136.879 40.032 136.619 40.1064 136.457 40.2801C136.296 40.4538 136.457 40.6895 136.705 40.8135C136.78 40.8135 136.83 40.7515 136.705 40.7143C136.036 40.4414 136.879 40.1685 137.028 39.8955C137.09 39.7062 137.09 39.5018 137.028 39.3125C137.028 39.3125 136.892 39.3125 136.904 39.3125L136.978 39.3249Z" fill="#8B472B"/>
<path d="M137.24 41.1732C137.24 41.1732 137.24 41.781 136.719 41.7314C136.578 41.705 136.45 41.6295 136.36 41.5183C136.269 41.407 136.22 41.2671 136.223 41.1235L137.24 41.1732Z" fill="#F7FFFF"/>
<path d="M137.884 41.3221C138.076 41.3221 138.232 41.1666 138.232 40.9748C138.232 40.783 138.076 40.6274 137.884 40.6274C137.693 40.6274 137.537 40.783 137.537 40.9748C137.537 41.1666 137.693 41.3221 137.884 41.3221Z" fill="#FF9C80"/>
<path d="M135.615 40.6024C135.807 40.6024 135.962 40.4469 135.962 40.2551C135.962 40.0632 135.807 39.9077 135.615 39.9077C135.423 39.9077 135.268 40.0632 135.268 40.2551C135.268 40.4469 135.423 40.6024 135.615 40.6024Z" fill="#FF9C80"/>
<path d="M132.735 50.5142H125.838L130.155 57.2254H136.655L132.735 50.5142Z" fill="#87A1D5"/>
<path d="M143.033 56.4809C143.033 56.4809 145.18 52.2011 144.423 49.8193C144.291 49.1802 143.943 48.6062 143.436 48.1948C142.93 47.7833 142.297 47.5596 141.644 47.5615C141.644 47.5615 142.053 53.3672 140.627 55.6498C139.2 57.9323 143.033 56.4809 143.033 56.4809Z" fill="#FFBE9D"/>
<path d="M142.214 44.3858C145.935 44.7827 144.918 52.7221 144.918 52.7221L140.936 53.0074C140.936 53.0074 138.629 43.9888 142.214 44.3858Z" fill="#1A73E8"/>
<path d="M142.252 56.9774C140.342 57.5108 135.082 56.9774 135.082 56.9774L135.988 55.7368L142.438 54.4219C142.438 54.4219 144.212 56.4439 142.252 56.9774Z" fill="#FFBE9D"/>
<path d="M136.173 55.5132C136.063 55.3739 135.968 55.2243 135.887 55.0666C135.701 54.7973 135.465 54.5658 135.193 54.3843C135.044 54.2726 134.87 53.8633 134.647 53.9253C134.423 53.9873 134.746 54.62 134.808 54.7813C134.839 54.855 134.845 54.9364 134.828 55.0142C134.81 55.092 134.768 55.1623 134.709 55.2154C134.612 55.2459 134.508 55.2459 134.411 55.2154C134.082 55.185 133.755 55.1353 133.431 55.0666L132.96 55.0046C132.82 54.987 132.678 54.987 132.538 55.0046C132.512 55.0071 132.488 55.0153 132.466 55.0285C132.444 55.0417 132.425 55.0597 132.411 55.081C132.396 55.1024 132.387 55.1266 132.383 55.152C132.38 55.1774 132.382 55.2033 132.389 55.2278C132.389 55.3147 132.525 55.3023 132.6 55.3271L133.146 55.4884C133.146 55.4884 133.381 55.4884 133.394 55.5876C133.406 55.6868 132.972 55.7117 132.885 55.6992C132.681 55.6579 132.469 55.6796 132.277 55.7613C132.277 55.7613 132.277 55.8357 132.352 55.8481C132.6 55.9473 132.873 55.9598 133.108 56.059C133.108 56.059 133.195 56.059 133.195 56.1458C133.195 56.2327 132.873 56.3319 132.761 56.3443C132.65 56.3567 132.6 56.3443 132.575 56.4436C132.566 56.463 132.562 56.4842 132.562 56.5056C132.562 56.527 132.566 56.5481 132.575 56.5676H132.699C132.836 56.5676 132.972 56.6297 133.108 56.6421C133.245 56.6545 133.369 56.642 133.381 56.7289C133.33 56.7699 133.271 56.7995 133.208 56.8157C133.208 56.8157 133.071 56.8157 133.071 56.9398C133.071 57.0638 133.146 57.0762 133.22 57.101C133.5 57.1707 133.788 57.2041 134.076 57.2003C134.382 57.2189 134.688 57.2189 134.994 57.2003C135.411 57.1874 135.825 57.1418 136.235 57.0638C136.601 57.0351 136.947 56.8819 137.215 56.6296C137.276 56.5431 137.33 56.4519 137.376 56.3567C137.44 56.2357 137.486 56.1062 137.512 55.9722C137.539 55.8352 137.513 55.6931 137.438 55.5752C137.427 55.5687 137.414 55.5652 137.401 55.5652C137.388 55.5652 137.375 55.5687 137.364 55.5752C137.182 55.5876 136.999 55.5876 136.818 55.5752C136.602 55.636 136.372 55.6139 136.173 55.5132Z" fill="#FFBE9D"/>
<path d="M127.997 54.2607C128.159 54.1738 128.394 53.8017 128.605 53.8885C128.816 53.9754 128.407 54.5584 128.332 54.7073C128.287 54.7705 128.262 54.8465 128.262 54.9244C128.262 55.0022 128.287 55.0782 128.332 55.1414C128.373 55.1768 128.42 55.2037 128.471 55.2207C128.522 55.2378 128.576 55.2445 128.63 55.2407C128.96 55.2593 129.292 55.2593 129.622 55.2407H130.131C130.271 55.2221 130.413 55.2221 130.553 55.2407C130.578 55.2471 130.602 55.2592 130.622 55.276C130.642 55.2928 130.658 55.3139 130.668 55.3378C130.679 55.3616 130.684 55.3876 130.684 55.4138C130.683 55.4399 130.676 55.4656 130.664 55.4888C130.664 55.5756 130.528 55.4888 130.441 55.4888L129.87 55.5756C129.87 55.5756 129.647 55.5756 129.622 55.5756C129.598 55.5756 130.032 55.7617 130.106 55.7617C130.315 55.7534 130.521 55.805 130.702 55.9106C130.702 55.9106 130.702 55.985 130.615 55.9974C130.367 55.9974 130.094 55.9974 129.846 56.0967C129.846 56.0967 129.759 56.0967 129.746 56.1711C129.734 56.2455 130.044 56.3944 130.143 56.4316C130.243 56.4688 130.305 56.4316 130.305 56.5556C130.309 56.5769 130.304 56.5989 130.293 56.6173C130.281 56.6356 130.263 56.6491 130.243 56.6549H130.106C129.97 56.6549 129.821 56.6549 129.684 56.6549C129.548 56.6549 129.424 56.6549 129.399 56.7169C129.445 56.7615 129.5 56.7954 129.56 56.8162C129.56 56.8162 129.684 56.8906 129.684 56.9526C129.684 57.0146 129.585 57.0767 129.511 57.0891C129.223 57.1324 128.93 57.1324 128.642 57.0891C128.32 57.0484 128.009 56.9474 127.724 56.7913C126.223 56.2455 127.65 54.4219 127.997 54.2607Z" fill="#FFBE9D"/>
<path d="M69.4942 86.1172C69.4909 86.8161 69.35 87.5075 69.0796 88.1519C68.8091 88.7964 68.4144 89.3812 67.9179 89.8731C67.4214 90.365 66.8329 90.7542 66.186 91.0187C65.5391 91.2831 64.8464 91.4175 64.1475 91.4143H5.34666C4.64778 91.4175 3.95511 91.2831 3.30818 91.0187C2.66125 90.7542 2.07275 90.365 1.57626 89.8731C1.07978 89.3812 0.685036 88.7964 0.414581 88.1519C0.144125 87.5075 0.00325057 86.8161 0 86.1172V5.29709C0.00325057 4.59821 0.144125 3.90682 0.414581 3.26239C0.685036 2.61795 1.07978 2.03311 1.57626 1.54123C2.07275 1.04935 2.66125 0.660079 3.30818 0.395644C3.95511 0.131209 4.64778 -0.00320765 5.34666 5.81098e-05H64.1475C64.8464 -0.00320765 65.5391 0.131209 66.186 0.395644C66.8329 0.660079 67.4214 1.04935 67.9179 1.54123C68.4144 2.03311 68.8091 2.61795 69.0796 3.26239C69.35 3.90682 69.4909 4.59821 69.4942 5.29709V86.1172Z" fill="#1C1C1C"/>
<path d="M72.3093 86.1172C72.2995 87.5277 71.7314 88.8768 70.7294 89.8695C69.7275 90.8621 68.3731 91.4176 66.9626 91.4143H8.14939C7.45051 91.4175 6.75784 91.2831 6.11091 91.0187C5.46398 90.7542 4.87548 90.365 4.37899 89.8731C3.88251 89.3812 3.48777 88.7964 3.21732 88.1519C2.94686 87.5075 2.80598 86.8161 2.80273 86.1172V5.29709C2.80598 4.59821 2.94686 3.90682 3.21732 3.26239C3.48777 2.61795 3.88251 2.03311 4.37899 1.54123C4.87548 1.04935 5.46398 0.660079 6.11091 0.395644C6.75784 0.131209 7.45051 -0.00320765 8.14939 5.81098e-05H66.9626C68.3731 -0.00325633 69.7275 0.55218 70.7294 1.54486C71.7314 2.53755 72.2995 3.88667 72.3093 5.29709V86.1172Z" fill="#393939"/>
<path d="M66.2186 74.3694C66.2202 75.0449 66.0886 75.714 65.8312 76.3386C65.5739 76.9631 65.1958 77.5307 64.7188 78.0089C64.2417 78.4871 63.675 78.8666 63.0511 79.1254C62.4272 79.3843 61.7583 79.5175 61.0828 79.5175H16.7341C15.3687 79.5175 14.0593 78.9752 13.0938 78.0097C12.1283 77.0442 11.5859 75.7347 11.5859 74.3694V13.3108C11.5859 11.9454 12.1283 10.6359 13.0938 9.67046C14.0593 8.70499 15.3687 8.1626 16.7341 8.1626H61.0828C61.7583 8.1626 62.4272 8.29585 63.0511 8.55472C63.675 8.81359 64.2417 9.193 64.7188 9.67121C65.1958 10.1494 65.5739 10.7171 65.8312 11.3416C66.0886 11.9661 66.2202 12.6353 66.2186 13.3108V74.3694Z" fill="#1C1C1C"/>
<path d="M63.4893 74.3694C63.4893 75.7347 62.9469 77.0442 61.9815 78.0097C61.016 78.9752 59.7065 79.5175 58.3411 79.5175H14.0296C13.3552 79.5159 12.6877 79.3815 12.0652 79.1219C11.4427 78.8623 10.8775 78.4826 10.4017 78.0045C9.92597 77.5265 9.54904 76.9594 9.29245 76.3357C9.03586 75.712 8.90463 75.0438 8.90627 74.3694V13.3108C8.90463 12.6353 9.03627 11.9661 9.29364 11.3416C9.551 10.7171 9.92904 10.1494 10.4061 9.67121C10.8832 9.193 11.4499 8.81359 12.0738 8.55472C12.6977 8.29585 13.3665 8.1626 14.042 8.1626H58.3908C59.7561 8.1626 61.0656 8.70499 62.0311 9.67046C62.9965 10.6359 63.5389 11.9454 63.5389 13.3108L63.4893 74.3694Z" fill="#91DE36"/>
<path d="M49.5706 4.14353C49.5706 4.33107 49.4961 4.51092 49.3635 4.64353C49.2309 4.77614 49.0511 4.85063 48.8635 4.85063H23.5568C23.4635 4.85231 23.3708 4.83517 23.2843 4.80023C23.1977 4.76529 23.1191 4.71328 23.0531 4.64728C22.9871 4.58128 22.9351 4.50266 22.9001 4.41611C22.8652 4.32956 22.848 4.23685 22.8497 4.14353C22.8497 4.05125 22.8681 3.95989 22.9038 3.87479C22.9394 3.78969 22.9917 3.71254 23.0576 3.64787C23.1234 3.5832 23.2014 3.53229 23.2872 3.49811C23.3729 3.46394 23.4646 3.44719 23.5568 3.44884H48.8635C49.0489 3.44881 49.2269 3.52161 49.3592 3.65154C49.4914 3.78148 49.5674 3.95816 49.5706 4.14353Z" fill="#1C1C1C"/>
<path d="M40.8999 83.5122H35.5532C35.0805 83.5122 34.6973 83.8954 34.6973 84.3682V85.9188C34.6973 86.3916 35.0805 86.7748 35.5532 86.7748H40.8999C41.3726 86.7748 41.7558 86.3916 41.7558 85.9188V84.3682C41.7558 83.8954 41.3726 83.5122 40.8999 83.5122Z" fill="white"/>
<path d="M27.5901 15.3081H11.7734V18.9552H27.5901V15.3081Z" fill="white"/>
<path d="M36.0989 43.0337H15.3945V46.6808H36.0989V43.0337Z" fill="white"/>
<path d="M55.0293 31.0872V12.9756H51.3325V31.0872H55.0293Z" fill="white"/>
<path d="M51.333 26.1378H29.0904C27.7238 26.1477 26.4091 25.6152 25.4347 24.657C24.4603 23.6989 23.9057 22.3934 23.8926 21.0268V11.4624H27.6142V21.0268C27.6207 21.4195 27.7821 21.7937 28.0632 22.0678C28.3444 22.342 28.7225 22.494 29.1152 22.4907H51.333V26.1378Z" fill="white"/>
<path d="M51.333 26.1378H29.0904C27.7238 26.1477 26.4091 25.6152 25.4347 24.657C24.4603 23.6989 23.9057 22.3934 23.8926 21.0268V11.4624H27.6142V21.0268C27.6207 21.4195 27.7821 21.7937 28.0632 22.0678C28.3444 22.342 28.7225 22.494 29.1152 22.4907H51.333V26.1378Z" fill="white"/>
<path d="M51.333 26.1378H29.0904C27.7238 26.1477 26.4091 25.6152 25.4347 24.657C24.4603 23.6989 23.9057 22.3934 23.8926 21.0268V11.4624H27.6142V21.0268C27.6207 21.4195 27.7821 21.7937 28.0632 22.0678C28.3444 22.342 28.7225 22.494 29.1152 22.4907H51.333V26.1378Z" fill="white"/>
<path d="M51.333 26.1378H29.0904C27.7238 26.1477 26.4091 25.6152 25.4347 24.657C24.4603 23.6989 23.9057 22.3934 23.8926 21.0268V11.4624H27.6142V21.0268C27.6207 21.4195 27.7821 21.7937 28.0632 22.0678C28.3444 22.342 28.7225 22.494 29.1152 22.4907H51.333V26.1378Z" fill="white"/>
<path d="M36.8056 62.5471H33.084L33.3321 40.6394C33.3381 39.9656 33.4795 39.2998 33.748 38.6818C34.0166 38.0638 34.4067 37.5061 34.8951 37.0419C35.8943 36.084 37.2329 35.562 38.6167 35.5905L48.3176 35.6897V39.3368L38.6043 39.2252C38.2152 39.2242 37.8411 39.3756 37.5623 39.647C37.4221 39.7795 37.3102 39.9391 37.2335 40.116C37.1567 40.293 37.1166 40.4837 37.1157 40.6766L36.8056 62.5471Z" fill="white"/>
<path d="M53.5664 45.4649C51.9698 45.4405 50.416 44.9447 49.1003 44.0398C47.7845 43.135 46.7656 41.8615 46.1714 40.3793C45.5773 38.8971 45.4345 37.2724 45.7609 35.7093C46.0873 34.1462 46.8685 32.7144 48.0062 31.5939C49.1438 30.4734 50.5873 29.7141 52.1552 29.4115C53.7231 29.1088 55.3454 29.2763 56.8184 29.8929C58.2914 30.5095 59.5493 31.5477 60.434 32.877C61.3188 34.2063 61.7909 35.7675 61.7911 37.3643C61.783 38.4363 61.5638 39.4961 61.1461 40.4834C60.7284 41.4706 60.1203 42.3659 59.3565 43.1181C58.5928 43.8703 57.6883 44.4647 56.6949 44.8674C55.7014 45.2701 54.6384 45.4731 53.5664 45.4649ZM53.5664 32.9108C52.6889 32.9255 51.8353 33.1991 51.1128 33.6973C50.3903 34.1955 49.8311 34.896 49.5054 35.711C49.1797 36.5259 49.102 37.419 49.2822 38.2779C49.4624 39.1368 49.8923 39.9234 50.518 40.5388C51.1437 41.1542 51.9372 41.571 52.799 41.7369C53.6608 41.9028 54.5524 41.8104 55.3619 41.4712C56.1713 41.1321 56.8625 40.5613 57.3486 39.8306C57.8348 39.1 58.0942 38.2419 58.0943 37.3643C58.0895 36.7746 57.9685 36.1916 57.7383 35.6486C57.5081 35.1056 57.1732 34.6133 56.7528 34.1998C56.3323 33.7862 55.8345 33.4595 55.2878 33.2384C54.7411 33.0172 54.1561 32.9059 53.5664 32.9108Z" fill="white"/>
<path d="M25.8787 43.9145H22.1571V40.1185C22.1588 40.0447 22.1455 39.9714 22.1181 39.9029C22.0906 39.8344 22.0496 39.7722 21.9974 39.72C21.9452 39.6678 21.883 39.6268 21.8145 39.5993C21.746 39.5719 21.6726 39.5586 21.5989 39.5603H19.5396C18.4158 39.5521 17.3393 39.1072 16.5375 38.3198C16.1407 37.9302 15.8264 37.4647 15.6133 36.9511C15.4001 36.4374 15.2926 35.8862 15.297 35.3301L15.4211 16.4741H19.1426L19.0062 35.3425C19.0032 35.4182 19.016 35.4937 19.0437 35.5641C19.0715 35.6346 19.1136 35.6986 19.1674 35.7519C19.2718 35.8597 19.4144 35.9221 19.5644 35.9255H21.6237C22.7453 35.9264 23.8207 36.3726 24.6133 37.1661C25.0092 37.5538 25.3231 38.0171 25.5362 38.5286C25.7493 39.0401 25.8573 39.5892 25.8539 40.1433L25.8787 43.9145Z" fill="white"/>
<path d="M55.4512 63.0187V42.4756H51.7544V63.0187H55.4512Z" fill="white"/>
<path d="M27.4284 52.0771H16.9088C15.5385 52.0771 14.4277 53.188 14.4277 54.5582V64.0854C14.4277 65.4557 15.5385 66.5665 16.9088 66.5665H27.4284C28.7987 66.5665 29.9095 65.4557 29.9095 64.0854V54.5582C29.9095 53.188 28.7987 52.0771 27.4284 52.0771Z" fill="#00D2FF"/>
<path d="M19.9851 54.7071C20.7641 54.5787 21.5526 54.5165 22.3421 54.521C23.2985 54.4482 24.2482 54.7309 25.0092 55.3149C25.2901 55.561 25.5119 55.8672 25.6579 56.2109C25.804 56.5546 25.8706 56.9268 25.8527 57.2998C25.8708 57.6733 25.8143 58.0466 25.6865 58.3981C25.5587 58.7495 25.3622 59.072 25.1084 59.3466C24.7186 59.7052 24.2609 59.9821 23.7624 60.1611C23.2638 60.3401 22.7345 60.4174 22.2056 60.3887C21.8725 60.4007 21.5391 60.3716 21.2132 60.3018V64.1227H19.9727L19.9851 54.7071ZM21.2256 59.297C21.5589 59.3745 21.9009 59.4078 22.2428 59.3963C23.7314 59.3963 24.6246 58.6767 24.6246 57.3618C24.6246 56.0468 23.7439 55.501 22.3793 55.501C21.9928 55.4915 21.6063 55.5206 21.2256 55.5879V59.297Z" fill="#EFEEFF"/>
<path d="M105.084 67.7202C105.084 67.7202 92.0218 55.5507 80.8571 52.1392C70.3994 48.9511 45.0555 49.0875 34.7344 65.785L105.084 67.7202Z" fill="#003366"/>
<path d="M92.1461 65.9089C92.1461 65.9089 85.1867 57.5602 77.2598 53.2432L82.7057 53.6649C92.3197 57.5726 102.169 66.554 102.169 66.554L92.1461 65.9089Z" fill="#BEDFFF"/>
<path d="M77.2969 53.2432L80.8448 53.5161C89.3176 57.2377 97.7159 64.1846 100.296 66.4299L92.146 65.9089C92.146 65.9089 85.1866 57.5602 77.2969 53.2432Z" fill="#E4EEFF"/>
<path d="M56.3692 91.5257C60.1511 91.5257 63.2169 88.1766 63.2169 84.0453C63.2169 79.914 60.1511 76.5649 56.3692 76.5649C52.5873 76.5649 49.5215 79.914 49.5215 84.0453C49.5215 88.1766 52.5873 91.5257 56.3692 91.5257Z" fill="#1D1A29"/>
<path d="M55.0918 91.5257C58.8737 91.5257 61.9395 88.1766 61.9395 84.0453C61.9395 79.914 58.8737 76.5649 55.0918 76.5649C51.31 76.5649 48.2441 79.914 48.2441 84.0453C48.2441 88.1766 51.31 91.5257 55.0918 91.5257Z" fill="#302A3D"/>
<path d="M55.0911 86.7252C56.5846 86.7252 57.7954 85.4033 57.7954 83.7728C57.7954 82.1422 56.5846 80.8203 55.0911 80.8203C53.5975 80.8203 52.3867 82.1422 52.3867 83.7728C52.3867 85.4033 53.5975 86.7252 55.0911 86.7252Z" fill="#3C364B"/>
<path d="M107.467 91.5257C111.249 91.5257 114.315 88.1766 114.315 84.0453C114.315 79.914 111.249 76.5649 107.467 76.5649C103.685 76.5649 100.619 79.914 100.619 84.0453C100.619 88.1766 103.685 91.5257 107.467 91.5257Z" fill="#1D1A29"/>
<path d="M106.201 91.5257C109.983 91.5257 113.049 88.1766 113.049 84.0453C113.049 79.914 109.983 76.5649 106.201 76.5649C102.419 76.5649 99.3535 79.914 99.3535 84.0453C99.3535 88.1766 102.419 91.5257 106.201 91.5257Z" fill="#302A3D"/>
<path d="M106.201 87.4197C107.722 87.4197 108.955 86.0756 108.955 84.4176C108.955 82.7596 107.722 81.4155 106.201 81.4155C104.68 81.4155 103.447 82.7596 103.447 84.4176C103.447 86.0756 104.68 87.4197 106.201 87.4197Z" fill="#3C364B"/>
<path d="M123.853 85.2984C123.853 85.2984 127.575 68.8986 111.038 67.6209C100.295 66.7898 45.8612 65.5244 36.3712 65.3135C35.2685 65.279 34.177 65.5447 33.2135 66.0822C32.2499 66.6197 31.4505 67.4088 30.9005 68.3652C29.8585 70.6478 28.7668 76.4534 29.66 83.2515L115.256 85.2736L123.853 85.2984Z" fill="#003366"/>
<path d="M93.3611 67.2241C93.3611 67.2241 81.0923 52.1517 69.9276 50.5266C55.6616 48.4549 40.3411 50.5266 26.2363 65.8099L93.3611 67.2241Z" fill="#003366"/>
<path d="M113.608 85.2988C113.608 85.2988 118.509 68.5021 101.451 67.2244C91.3039 66.4552 42.4024 65.6737 26.6477 65.376C25.1715 65.376 18.6463 66.5545 16.7235 70.6854C15.6815 72.9928 15.3838 77.806 16.3638 84.6165L113.608 85.2988Z" fill="#1A73E8"/>
<path d="M87.531 65.3633C84.862 61.0768 81.096 57.5814 76.6227 55.239C72.1494 52.8966 67.1313 51.7921 62.0879 52.04V64.284L87.531 65.3633Z" fill="#BEDFFF"/>
<path d="M87.5311 65.3631C85.0651 61.1483 81.5005 57.6826 77.2181 55.336C72.9357 52.9894 68.0963 51.8501 63.2168 52.0399V64.2839L87.5311 65.3631Z" fill="#E4EEFF"/>
<path d="M31.4219 63.8498C32.0049 63.1178 40.1055 51.3701 59.4453 51.9159V64.1599L31.4219 63.8498Z" fill="#BEDFFF"/>
<path d="M33.5801 63.8498C34.1259 63.1178 41.6187 51.3701 59.445 51.9159V64.1599L33.5801 63.8498Z" fill="#E4EEFF"/>
<path d="M27.2416 84.6164H27.6386C27.3284 67.2491 29.4373 65.7109 29.5242 65.6488L29.3381 65.2891C29.09 65.3883 26.919 66.939 27.2416 84.6164Z" fill="#D2D2D2"/>
<path d="M60.6121 51.8992L60.2559 84.8208L60.6652 84.8252L61.0215 51.9036L60.6121 51.8992Z" fill="#D2D2D2"/>
<path d="M62.386 70.1763H69.6059C69.7772 70.1763 69.916 70.0374 69.916 69.8661V69.4195C69.916 69.2483 69.7772 69.1094 69.6059 69.1094H62.386C62.2148 69.1094 62.0759 69.2483 62.0759 69.4195V69.8661C62.0759 70.0374 62.2148 70.1763 62.386 70.1763Z" fill="#003366"/>
<path d="M63.2048 70.1763H69.6059C69.7772 70.1763 69.916 70.0374 69.916 69.8661V69.4195C69.916 69.2483 69.7772 69.1094 69.6059 69.1094H63.2048C63.0335 69.1094 62.8946 69.2483 62.8946 69.4195V69.8661C62.8946 70.0374 63.0335 70.1763 63.2048 70.1763Z" fill="#D2D2D2"/>
<path d="M31.72 70.1763H38.9399C39.1111 70.1763 39.25 70.0374 39.25 69.8661V69.4195C39.25 69.2483 39.1111 69.1094 38.9399 69.1094H31.72C31.5487 69.1094 31.4099 69.2483 31.4099 69.4195V69.8661C31.4099 70.0374 31.5487 70.1763 31.72 70.1763Z" fill="#D2D2D2"/>
<path d="M15.1087 85.2861L114.896 85.2861V82.2345L15.1087 82.2345V85.2861Z" fill="#88889B"/>
<path d="M124.908 82.2344H114.896V85.2861H124.908V82.2344Z" fill="#78788A"/>
<path d="M81.9235 84.0455C81.9235 78.7485 86.2157 74.9648 91.5127 74.9648C96.8098 74.9648 101.09 78.6864 101.09 84.0455C101.09 84.368 101.09 84.9759 101.015 85.286H81.9235C81.9111 85.0999 81.9235 84.2316 81.9235 84.0455Z" fill="#4E4E5E"/>
<path d="M83.4254 84.1201C83.4254 81.7776 84.356 79.531 86.0124 77.8746C87.6688 76.2182 89.9154 75.2876 92.258 75.2876C94.6005 75.2876 96.8471 76.2182 98.5035 77.8746C100.16 79.531 101.09 81.7776 101.09 84.1201C101.09 84.4303 101.09 84.9885 101.016 85.2986H83.4254C83.413 85.1125 83.4254 84.3062 83.4254 84.1201Z" fill="#5C5C6E"/>
<path d="M92.1328 91.5257C95.9147 91.5257 98.9805 88.1766 98.9805 84.0453C98.9805 79.914 95.9147 76.5649 92.1328 76.5649C88.351 76.5649 85.2852 79.914 85.2852 84.0453C85.2852 88.1766 88.351 91.5257 92.1328 91.5257Z" fill="#1D1A29"/>
<path d="M90.8692 91.5257C94.651 91.5257 97.7169 88.1766 97.7169 84.0453C97.7169 79.914 94.651 76.5649 90.8692 76.5649C87.0873 76.5649 84.0215 79.914 84.0215 84.0453C84.0215 88.1766 87.0873 91.5257 90.8692 91.5257Z" fill="#302A3D"/>
<path d="M90.8684 86.7374C92.2249 86.7374 93.3246 85.5322 93.3246 84.0455C93.3246 82.5587 92.2249 81.3535 90.8684 81.3535C89.5118 81.3535 88.4121 82.5587 88.4121 84.0455C88.4121 85.5322 89.5118 86.7374 90.8684 86.7374Z" fill="#3C364B"/>
<path d="M30.8145 84.0455C30.8145 78.7485 35.1067 74.9648 40.4037 74.9648C45.7007 74.9648 49.9805 78.6864 49.9805 84.0455C49.9805 84.368 49.9805 84.9759 49.9805 85.286H30.8269C30.8144 85.0999 30.8145 84.2316 30.8145 84.0455Z" fill="#4E4E5E"/>
<path d="M32.2031 84.1074C32.2891 81.8075 33.2631 79.6305 34.9206 78.0337C36.5781 76.437 38.79 75.5449 41.0915 75.5449C43.393 75.5449 45.6049 76.437 47.2623 78.0337C48.9198 79.6305 49.8939 81.8075 49.9798 84.1074C49.9798 84.4175 49.9798 84.9881 49.9798 85.3479H32.2155C32.2031 85.1122 32.2031 84.2934 32.2031 84.1074Z" fill="#5C5C6E"/>
<path d="M41.0352 91.5261C44.8171 91.5261 47.8829 88.1771 47.8829 84.0458C47.8829 79.9145 44.8171 76.5654 41.0352 76.5654C37.2533 76.5654 34.1875 79.9145 34.1875 84.0458C34.1875 88.1771 37.2533 91.5261 41.0352 91.5261Z" fill="#1D1A29"/>
<path d="M39.7578 91.5257C43.5397 91.5257 46.6055 88.1766 46.6055 84.0453C46.6055 79.914 43.5397 76.5649 39.7578 76.5649C35.976 76.5649 32.9102 79.914 32.9102 84.0453C32.9102 88.1766 35.976 91.5257 39.7578 91.5257Z" fill="#302A3D"/>
<path d="M39.759 86.7374C41.1155 86.7374 42.2152 85.5322 42.2152 84.0455C42.2152 82.5587 41.1155 81.3535 39.759 81.3535C38.4024 81.3535 37.3027 82.5587 37.3027 84.0455C37.3027 85.5322 38.4024 86.7374 39.759 86.7374Z" fill="#3C364B"/>
<path d="M102.615 82.2964H103.012C103.012 82.1972 101.957 72.5459 90.9663 72.5459C86.2895 72.5459 80.6699 75.1138 80.2109 82.3088H80.6079C81.0545 75.3867 86.4632 72.9305 90.9663 72.9305C101.598 72.8808 102.578 81.8746 102.615 82.2964Z" fill="#D2D2D2"/>
<path d="M51.5057 82.2964H51.9027C51.9027 82.1972 50.8606 72.5459 39.9316 72.5459C35.2796 72.5459 29.6973 75.1138 29.2383 82.3088H29.6352C30.0818 75.3867 35.4533 72.9305 39.9316 72.9305C50.5009 72.8808 51.4933 82.1724 51.5057 82.2964Z" fill="#D2D2D2"/>
<path d="M112.949 81.6885H117.167C117.722 81.6885 118.172 81.2386 118.172 80.6837V79.2198C118.172 78.6649 117.722 78.215 117.167 78.215H112.949C112.394 78.215 111.944 78.6649 111.944 79.2198V80.6837C111.944 81.2386 112.394 81.6885 112.949 81.6885Z" fill="#D2D2D2"/>
<path d="M120.566 81.4526H124.784C125.339 81.4526 125.789 81.0028 125.789 80.4478V78.984C125.789 78.4291 125.339 77.9792 124.784 77.9792H120.566C120.011 77.9792 119.562 78.4291 119.562 78.984V80.4478C119.562 81.0028 120.011 81.4526 120.566 81.4526Z" fill="#D2D2D2"/>
<path d="M16.1153 72.6821H20.3331C20.888 72.6821 21.3379 72.2323 21.3379 71.6773V70.2135C21.3379 69.6585 20.888 69.2087 20.3331 69.2087H16.1153C15.5603 69.2087 15.1105 69.6585 15.1105 70.2135V71.6773C15.1105 72.2323 15.5603 72.6821 16.1153 72.6821Z" fill="#D2D2D2"/>
<path d="M96.6124 40.5652C102.861 40.5652 107.926 35.4999 107.926 29.2516C107.926 23.0033 102.861 17.938 96.6124 17.938C90.3641 17.938 85.2988 23.0033 85.2988 29.2516C85.2988 35.4999 90.3641 40.5652 96.6124 40.5652Z" fill="#EE375F"/>
<path d="M96.6111 33.4073C99.3379 33.4073 101.548 31.1968 101.548 28.47C101.548 25.7432 99.3379 23.5327 96.6111 23.5327C93.8843 23.5327 91.6738 25.7432 91.6738 28.47C91.6738 31.1968 93.8843 33.4073 96.6111 33.4073Z" fill="#EDEDED"/>
<path d="M96.6114 56.2703L106.883 34.0029H86.3398L96.6114 56.2703Z" fill="#EE375F"/>
</svg>
