<?xml version="1.0" encoding="UTF-8"?>
<svg width="219" height="133" viewBox="0 0 219 133" fill="none" xmlns="http://www.w3.org/2000/svg">
<g clip-path="url(#clip0_17_942)">
<path d="M218.07 71.38V68.91L112.15 129.83V132.46L218.07 71.38Z" fill="#707070"/>
<path d="M112.15 129.83L0 65.29V67.85L112.15 132.46V129.83Z" fill="#454545"/>
<path d="M105.7 23.7101L16.6904 74.9501L112.15 129.83L201.16 78.6601L105.7 23.7101Z" fill="#818181"/>
<path d="M49.03 65.44L106.25 32.4L144.03 54.21L86.77 87.16L88.75 88.31L146.01 55.36L183.28 76.88L126.67 110.13L128.65 111.27L187.22 76.86L106.25 30.12L47.05 64.3L49.03 65.44Z" fill="#F4F4F4"/>
<path d="M51.31 66.7501L49.33 67.8801L43.42 64.4701L45.4 63.3301L51.31 66.7501Z" fill="#F4F4F4"/>
<path d="M90.68 89.3901L88.7 90.5301L82.79 87.1101L84.77 85.9701L90.68 89.3901Z" fill="#F4F4F4"/>
<path d="M130.57 112.38L128.59 113.52L122.68 110.1L124.66 108.96L130.57 112.38Z" fill="#F4F4F4"/>
<path d="M107.79 24.8301V22.3601L18.79 73.5301V76.1601L107.79 24.8301Z" fill="#EAC72F"/>
<path d="M18.79 73.5301L0 62.7201V65.2801L18.79 76.1601V73.5301Z" fill="#C19424"/>
<path d="M107.8 22.3601L18.79 73.5301L0 62.7201L89.01 11.4801L107.8 22.3601Z" fill="#FFEF75"/>
<path d="M105.87 25.9001V23.4301L199.29 77.1601V79.7801L105.87 25.9001Z" fill="#C19424"/>
<path d="M199.29 77.1601L218.07 66.3501V68.9101L199.29 79.7801V77.1601Z" fill="#EAC72F"/>
<path d="M87.08 12.5901L199.29 77.1601L218.07 66.3501L105.86 1.72009L87.08 12.5901Z" fill="#FFEF75"/>
<path d="M92.7305 12.5901L199.29 73.9001L212.42 66.3501L200.98 59.7701L136.91 22.8901L105.87 4.9801L92.7305 12.5901Z" fill="#DBDBDB"/>
<path d="M111.35 17.01L18.79 70.28L5.65997 62.72L17.09 56.14L81.16 19.27L98.21 9.41003L111.35 17.01Z" fill="#DBDBDB"/>
<path style="mix-blend-mode:multiply" d="M128.6 58.4701C128.69 58.4701 136.6 53.6301 136.6 53.5701C135.94 50.5701 121.04 39.8601 119.6 37.1501L116.84 38.6201L117.24 36.8201L115.47 34.0301L114.47 34.5301L110.37 31.3L90.3704 40.3C89.7773 40.3299 89.1833 40.2658 88.6104 40.1101C87.1704 39.9701 85.7204 39.8501 84.2804 39.7701C81.2004 39.5801 77.8604 38.9901 74.8704 39.7701C73.3204 40.1901 71.7504 41.5201 70.3304 42.2801C68.4304 43.2801 66.5804 44.3801 64.7404 45.5001C62.5704 46.8301 60.4104 48.2101 58.3004 49.6401L57.7404 57.3701L51.3604 61.3701L52.2104 63.0001L54.0304 64.5301L56.5904 65.8401H56.7104L55.9203 66.3901C55.8703 66.4701 84.1704 82.96 85.5004 82.91C86.8304 82.86 89.2404 81.2701 90.5004 80.6901C92.5504 79.6901 122.76 61.3801 128.6 58.4701Z" fill="url(#paint0_linear_17_942)"/>
<path d="M62.2305 67.3101C62.2305 67.3101 63.0405 68.0401 63.3305 68.2601C69.9905 73.1701 82.5505 79.3601 82.5505 79.3601L81.1205 77.9901L62.2305 67.3101Z" fill="#141E25"/>
<path d="M133.17 52.2701L126.2 48.4001L133.56 47.3201L133.17 52.2701Z" fill="#293237"/>
<path d="M96.47 74.2601L89.5 70.3901L96.86 67.7001L96.47 74.2601Z" fill="#293237"/>
<path d="M94.7401 70.6701L93.5201 72.6701L90.5201 77.5401L89.0501 79.9501L87.0501 78.8101H86.9901C86.5305 78.4898 86.209 78.0075 86.0901 77.4601C86.0901 77.3901 86.09 77.3301 86.04 77.2601C85.99 77.1901 86.04 77.1701 86.04 77.1201V76.8901C86.04 76.8901 86.04 76.8101 86.04 76.7701C86.04 76.7301 86.04 76.5201 86.04 76.3901C86.1395 75.0539 86.5538 73.7603 87.249 72.6149C87.9442 71.4695 88.9006 70.505 90.04 69.8001C90.1514 69.7302 90.2685 69.67 90.3901 69.6201C90.7502 69.4197 91.1525 69.3072 91.5643 69.2916C91.9761 69.2759 92.3858 69.3576 92.76 69.5301L94.7401 70.6701Z" fill="url(#paint1_linear_17_942)"/>
<path d="M95.7696 73.1101C95.6694 74.446 95.2548 75.7394 94.5596 76.8846C93.8645 78.0299 92.9085 78.9946 91.7696 79.7001C89.6096 80.9101 87.8796 79.9101 87.9096 77.4801C88.0114 76.1445 88.4266 74.8518 89.1216 73.7068C89.8166 72.5618 90.7718 71.5968 91.9096 70.8901C94.0796 69.6801 95.7996 70.6701 95.7696 73.1101Z" fill="#414C5C"/>
<path d="M94.64 73.74C94.6326 73.9785 94.6059 74.2159 94.56 74.45C94.4091 75.2014 94.1173 75.9173 93.7 76.56C93.4441 76.9725 93.1385 77.352 92.79 77.69C92.493 77.9768 92.1562 78.2193 91.79 78.41C91.5521 78.5477 91.2964 78.652 91.03 78.72C90.6506 78.8274 90.2449 78.7919 89.89 78.62C89.771 78.5538 89.663 78.4695 89.57 78.37C89.4924 78.2887 89.4252 78.198 89.37 78.1C89.3409 78.0601 89.3173 78.0164 89.3 77.97C89.2515 77.8713 89.2146 77.7673 89.19 77.66V77.57C89.1587 77.459 89.1386 77.3451 89.13 77.23C89.13 77.11 89.13 76.99 89.13 76.85C89.13 76.71 89.13 76.77 89.13 76.73C89.1318 76.5655 89.1486 76.4015 89.18 76.24C89.2014 76.095 89.2315 75.9515 89.27 75.81C89.323 75.5959 89.3898 75.3855 89.47 75.18C89.5917 74.8815 89.732 74.591 89.89 74.31C89.89 74.23 89.98 74.16 90.02 74.09C90.2365 73.7354 90.4842 73.4008 90.76 73.09C90.8079 73.0285 90.8615 72.9716 90.92 72.92C91.134 72.7045 91.3684 72.5102 91.62 72.34L91.92 72.15C92.0036 72.1008 92.0905 72.0573 92.18 72.02C92.2798 71.9715 92.3835 71.9314 92.49 71.9L92.71 71.84C92.8131 71.8303 92.9169 71.8303 93.02 71.84C93.1559 71.8199 93.2941 71.8199 93.43 71.84C93.5714 71.8593 93.7075 71.9069 93.83 71.98C94.0322 72.0982 94.2054 72.2601 94.3369 72.4539C94.4684 72.6477 94.5549 72.8685 94.59 73.1C94.6284 73.3111 94.6451 73.5256 94.64 73.74Z" fill="#A1A1A1"/>
<path d="M92.55 72.73C92.546 72.9682 92.5226 73.2056 92.48 73.44C92.3291 74.1913 92.0373 74.9073 91.62 75.55C91.3549 75.9587 91.0464 76.3375 90.7 76.68C90.4141 76.9581 90.095 77.1999 89.75 77.4C89.5701 77.5046 89.3789 77.5885 89.18 77.65C89.1553 77.5679 89.1353 77.4844 89.12 77.4C89.1096 77.3405 89.1096 77.2796 89.12 77.22C89.12 77.1 89.12 76.98 89.12 76.84C89.1256 76.6355 89.1457 76.4317 89.18 76.23C89.2014 76.085 89.2315 75.9414 89.27 75.8C89.4107 75.2752 89.6191 74.771 89.89 74.3C89.89 74.22 89.98 74.15 90.02 74.08C90.2345 73.7215 90.4859 73.3863 90.77 73.08C90.8179 73.0185 90.8715 72.9616 90.93 72.91C91.2258 72.6079 91.5624 72.3488 91.93 72.14C92.0136 72.0907 92.1005 72.0473 92.19 72.01C92.2899 71.9615 92.3936 71.9213 92.5 71.89C92.5057 71.9465 92.5057 72.0035 92.5 72.06C92.5405 72.2809 92.5572 72.5055 92.55 72.73Z" fill="#293237"/>
<path d="M93.6497 71.9C93.8581 72.1077 94.0181 72.3587 94.1183 72.6353C94.2186 72.9118 94.2566 73.2071 94.2297 73.5C94.1632 74.445 93.8739 75.3608 93.3855 76.1725C92.8971 76.9842 92.2235 77.6687 91.4197 78.17C91.167 78.3395 90.8803 78.4516 90.5797 78.4982C90.279 78.5449 89.9718 78.525 89.6797 78.44C89.9904 78.6714 90.3673 78.7963 90.7547 78.7963C91.142 78.7963 91.519 78.6714 91.8297 78.44C92.6335 77.9387 93.3071 77.2542 93.7955 76.4425C94.2839 75.6308 94.5732 74.715 94.6397 73.77C94.6997 73.3931 94.6356 73.0069 94.4571 72.6696C94.2785 72.3324 93.9951 72.0622 93.6497 71.9Z" fill="url(#paint2_linear_17_942)"/>
<path d="M93.8803 73.96L92.1603 74.96L92.9604 77.53C92.9604 77.66 92.4503 77.39 92.4503 77.39L91.2603 76.11L90.3904 78.24C90.1204 78.31 90.3003 78.75 90.0703 78.7C89.8661 78.6222 89.6865 78.491 89.5504 78.32L90.0604 76.18L89.1104 76.73C89.1122 76.5655 89.1289 76.4015 89.1603 76.24C89.2064 75.9363 89.2834 75.6381 89.3904 75.35L90.2104 74.75L89.9304 74.2L90.0004 74.09C90.2169 73.7354 90.4645 73.4008 90.7404 73.09L91.1104 73.56L91.7903 72.21C91.8803 72.14 91.7903 72.21 91.9103 72.14C91.9939 72.0908 92.0808 72.0473 92.1703 72.01C92.2702 71.9615 92.3739 71.9214 92.4803 71.89L92.7003 71.8301C92.8035 71.8203 92.9072 71.8203 93.0103 71.8301L92.3104 73.53L94.1504 72.8C94.1504 72.8 94.6104 73.04 94.6104 73.27C94.6104 73.5 93.9303 73.72 93.8803 73.96Z" fill="#A1A1A1"/>
<path d="M94.6004 74.27L92.8404 75.45L93.4904 76.88C93.3456 77.1352 93.1559 77.3621 92.9304 77.55L91.9304 76.55L90.9304 78.71C90.7931 78.7632 90.6457 78.7854 90.4987 78.7751C90.3518 78.7647 90.2089 78.722 90.0804 78.65L90.7504 76.65L89.1704 77.46C89.1184 77.2543 89.0982 77.0418 89.1104 76.83C89.096 76.6703 89.096 76.5097 89.1104 76.35L90.8604 75.22L90.1004 73.87C90.259 73.5781 90.4691 73.3173 90.7204 73.1L91.7204 74.1L92.8104 71.84C92.937 71.8 93.0703 71.7855 93.2025 71.7976C93.3347 71.8096 93.4631 71.8478 93.5804 71.91L92.9204 74.03L94.5404 73.27C94.5613 73.4293 94.5613 73.5907 94.5404 73.75C94.5792 73.9206 94.5993 74.095 94.6004 74.27Z" fill="#D3D3D3"/>
<path d="M92.48 74.9501C92.4596 75.153 92.3931 75.3485 92.2856 75.5218C92.1782 75.6951 92.0326 75.8416 91.86 75.9501C91.53 76.1401 91.26 75.9501 91.26 75.6001C91.279 75.3968 91.3448 75.2007 91.4524 75.0272C91.56 74.8537 91.7064 74.7075 91.88 74.6001C92.21 74.4201 92.48 74.6201 92.48 74.9501Z" fill="#B6B6B6"/>
<path d="M131.55 49.4401L130.32 51.4401L127.32 56.3101L125.85 58.7101L123.85 57.5801H123.79C123.328 57.2557 123.004 56.7708 122.88 56.2201C122.88 56.1601 122.88 56.0901 122.88 56.0301V55.8901V55.6601C122.885 55.6202 122.885 55.5799 122.88 55.5401C122.88 55.4101 122.88 55.2901 122.88 55.1601C122.977 53.8233 123.39 52.5287 124.086 51.383C124.781 50.2373 125.739 49.2732 126.88 48.5701C126.992 48.5023 127.109 48.4421 127.23 48.3901C127.588 48.185 127.991 48.0698 128.404 48.0541C128.817 48.0384 129.227 48.1228 129.6 48.3001L131.55 49.4401Z" fill="url(#paint3_linear_17_942)"/>
<path d="M132.55 51.8701C132.452 53.208 132.038 54.5037 131.343 55.6509C130.648 56.7981 129.69 57.7642 128.55 58.4701C126.39 59.6701 124.67 58.6801 124.7 56.2501C124.797 54.9133 125.21 53.6188 125.905 52.473C126.601 51.3273 127.559 50.3632 128.7 49.6601C130.86 48.4501 132.55 49.4401 132.55 51.8701Z" fill="#414C5C"/>
<path d="M131.42 52.5101C131.416 52.7483 131.393 52.9857 131.35 53.2201C131.195 53.9701 130.903 54.6852 130.49 55.3301C130.225 55.7388 129.917 56.1176 129.57 56.4601C129.284 56.7382 128.965 56.98 128.62 57.1801C128.378 57.3166 128.119 57.4209 127.85 57.4901C127.474 57.5923 127.073 57.5568 126.72 57.3901C126.598 57.3295 126.489 57.2445 126.4 57.1401C126.323 57.0643 126.259 56.9765 126.21 56.8801C126.183 56.8389 126.16 56.7954 126.14 56.7501C126.09 56.6511 126.05 56.5472 126.02 56.4401V56.3501C126.02 56.2401 126.02 56.1301 125.97 56.0101C125.955 55.8839 125.955 55.7563 125.97 55.6301V55.5101C125.977 55.3459 125.993 55.1822 126.02 55.0201C126.04 54.8748 126.07 54.7311 126.11 54.5901C126.17 54.3834 126.24 54.1734 126.32 53.9601C126.432 53.6572 126.573 53.3659 126.74 53.0901L126.86 52.8801C127.074 52.5237 127.322 52.1888 127.6 51.8801C127.648 51.8187 127.702 51.7618 127.76 51.7101C127.978 51.4917 128.216 51.2942 128.47 51.1201L128.76 50.9401L129.02 50.8101L129.33 50.6901L129.55 50.6301H129.86C130.143 50.603 130.428 50.6586 130.68 50.7901C130.881 50.912 131.051 51.0764 131.181 51.2717C131.311 51.467 131.396 51.6883 131.43 51.9201C131.445 52.1167 131.442 52.3142 131.42 52.5101Z" fill="#A1A1A1"/>
<path d="M129.36 51.5C129.361 51.7385 129.338 51.9764 129.29 52.21C129.139 52.9614 128.848 53.6773 128.43 54.32C128.174 54.7294 127.869 55.1056 127.52 55.44C127.221 55.7273 126.885 55.9729 126.52 56.17C126.339 56.2723 126.148 56.356 125.95 56.42C125.95 56.42 125.9 56.2 125.89 56.17C125.88 56.14 125.89 56.11 125.89 55.99C125.875 55.8638 125.875 55.7363 125.89 55.61C125.892 55.4058 125.909 55.2019 125.94 55C125.96 54.8547 125.99 54.711 126.03 54.57C126.172 54.0408 126.384 53.533 126.66 53.06L126.78 52.85C126.995 52.4915 127.246 52.1563 127.53 51.85C127.578 51.7887 127.632 51.7318 127.69 51.68C127.988 51.3803 128.324 51.1214 128.69 50.91L128.95 50.78L129.26 50.66C129.265 50.7133 129.265 50.7668 129.26 50.82C129.328 51.0402 129.362 51.2696 129.36 51.5Z" fill="#293237"/>
<path d="M130.43 50.62C130.64 50.8287 130.801 51.0814 130.901 51.3598C131.001 51.6382 131.038 51.9354 131.01 52.23C130.945 53.1741 130.657 54.0893 130.17 54.9009C129.684 55.7125 129.012 56.3975 128.21 56.9C127.955 57.0691 127.667 57.1808 127.365 57.2274C127.062 57.2741 126.754 57.2545 126.46 57.17C126.772 57.3983 127.148 57.5214 127.535 57.5214C127.922 57.5214 128.298 57.3983 128.61 57.17C129.414 56.6687 130.087 55.9842 130.576 55.1725C131.064 54.3608 131.353 53.445 131.42 52.5C131.481 52.1217 131.417 51.7339 131.238 51.3949C131.06 51.0559 130.776 50.784 130.43 50.62Z" fill="url(#paint4_linear_17_942)"/>
<path d="M130.67 52.7301L128.94 53.7301L129.74 56.3001C129.74 56.4301 129.23 56.1501 129.23 56.1501L128.04 54.8801L127.17 57.0101C126.9 57.0701 127.08 57.5101 126.85 57.4701C126.646 57.3923 126.466 57.2611 126.33 57.0901L126.84 54.9501L125.84 55.5001C125.846 55.3359 125.863 55.1722 125.89 55.0101C125.934 54.7016 126.015 54.3995 126.13 54.1101L126.94 53.5201L126.67 52.9701L126.73 52.8601C126.944 52.5037 127.192 52.1688 127.47 51.8601L127.84 52.3301L128.52 50.9801C128.62 50.9101 128.52 50.9801 128.64 50.9101L128.9 50.7801L129.21 50.6601L129.43 50.6001H129.74L129.04 52.3101L130.88 51.5801C130.88 51.5801 131.34 51.8101 131.34 52.0501C131.34 52.2901 130.71 52.4901 130.67 52.7301Z" fill="#A1A1A1"/>
<path d="M131.39 53.0301L129.62 54.21L130.27 55.65C130.128 55.9074 129.938 56.1349 129.71 56.32L128.71 55.32L127.71 57.48C127.572 57.5333 127.425 57.5555 127.278 57.5451C127.131 57.5347 126.988 57.492 126.86 57.4201L127.53 55.4201L125.95 56.23C125.902 56.0237 125.885 55.8114 125.9 55.6C125.885 55.4404 125.885 55.2797 125.9 55.12L127.65 53.99L126.89 52.6401C127.048 52.3482 127.258 52.0873 127.51 51.87L128.51 52.87L129.6 50.62C129.855 50.5425 130.13 50.5639 130.37 50.68L129.71 52.8L131.33 52.05C131.351 52.2093 131.351 52.3708 131.33 52.5301C131.368 52.694 131.388 52.8617 131.39 53.0301Z" fill="#D3D3D3"/>
<path d="M129.26 53.72C129.242 53.9235 129.176 54.1199 129.069 54.2935C128.961 54.4671 128.814 54.6132 128.64 54.72C128.31 54.9 128.04 54.72 128.04 54.37C128.06 54.1669 128.126 53.9711 128.233 53.7977C128.341 53.6243 128.487 53.478 128.66 53.37C129 53.19 129.27 53.34 129.26 53.72Z" fill="#B6B6B6"/>
<path d="M69.26 67.6L63.71 65.92L63.74 64.07L63.71 60.58L64.26 59.43L72.13 53.89L76.72 44.35L93.02 35.37L101.17 37.98L115.5 31.76L114.44 37.22L116.72 35.99L115.03 40.31L113.27 42.34L69.26 67.6Z" fill="#6EDAE0"/>
<path d="M135.23 46.73L133.53 51.05L133.19 51.44C133.164 51.0079 133.07 50.5825 132.91 50.18C132.768 49.8391 132.565 49.5272 132.31 49.26C132.096 49.0438 131.846 48.8677 131.57 48.74C131.287 48.6097 130.981 48.535 130.67 48.52C130.59 48.5104 130.51 48.5104 130.43 48.52C129.723 48.5441 129.034 48.7508 128.43 49.12C127.14 49.8875 126.074 50.9807 125.34 52.29C124.814 53.1696 124.445 54.134 124.25 55.14C124.18 55.5096 124.14 55.8841 124.13 56.26C124.125 56.6539 124.168 57.0469 124.26 57.43L96.43 73.43C96.4399 73.3269 96.4399 73.2231 96.43 73.12C96.4532 72.4247 96.2947 71.7354 95.97 71.12C95.8546 70.9105 95.7098 70.7186 95.54 70.55C95.3767 70.3813 95.1877 70.2395 94.98 70.13C94.7673 70.001 94.5338 69.9096 94.29 69.86H94.22C94.045 69.829 93.8678 69.8123 93.69 69.81C92.9662 69.8287 92.2597 70.0354 91.64 70.41C90.9536 70.8005 90.3355 71.3005 89.81 71.89C89.5264 72.2043 89.2658 72.5385 89.03 72.89C88.3769 73.796 87.8925 74.8122 87.6 75.89C87.4458 76.4304 87.3618 76.9883 87.35 77.55C87.3461 77.7977 87.3628 78.0452 87.4 78.29L81.63 75.62V74.62L82.21 71.37L82.77 70.22L90.64 64.68L95.23 55.13C95.23 55.13 107.6 44.36 112.15 45.93C115.15 46.93 119.68 48.77 119.68 48.77L134 42.54L133.53 46.77L133.42 47.77L134.12 47.41L135.23 46.73Z" fill="#4B9F1C"/>
<path d="M133.66 42.38L119.69 48.72L90.6397 64.63L82.7697 70.17L82.2197 71.32L133.97 42.86L134.01 42.49L133.66 42.38Z" fill="#7CC53F"/>
<path d="M83.0901 75.06L89.7801 71.77C89.4965 72.0843 89.2358 72.4185 89.0001 72.77C88.3469 73.6759 87.8625 74.6922 87.57 75.77C87.4158 76.3103 87.3318 76.8683 87.32 77.43C87.3161 77.6777 87.3328 77.9252 87.3701 78.17C87.3788 78.299 87.4023 78.4264 87.4401 78.55L84.82 80.06L83.5901 79.4H82.5901L81.16 78.26V75.99L81.67 75.7L83.0901 75.06Z" fill="#414C5C"/>
<path d="M124.1 56.2401C124.054 56.6455 124.054 57.0547 124.1 57.4601L96.38 73.3901C96.3899 73.287 96.3899 73.1832 96.38 73.0801C96.4032 72.3848 96.2446 71.6954 95.92 71.0801C95.8045 70.8706 95.6598 70.6786 95.49 70.5101C95.3267 70.3413 95.1377 70.1996 94.93 70.0901C94.7173 69.961 94.4838 69.8697 94.24 69.8201L121.97 54.2001L125.28 52.3301C124.754 53.2096 124.385 54.174 124.19 55.1801C124.134 55.5307 124.103 55.885 124.1 56.2401Z" fill="#4A9922"/>
<path d="M99.2696 71.79L99.1197 67.95V63.8L97.3896 58.29L107.31 57.03L108.32 59.5L108.8 65.91L119.16 59.64L119.27 54.65L118.18 51.1L118.44 51.02L119.54 54.62L119.43 59.79L119.36 59.83L108.56 66.37L108.05 59.54L107.14 57.32L97.7396 58.52L99.3896 63.78V67.95L99.5396 71.78L99.2696 71.79Z" fill="#406E13"/>
<path d="M133.65 45.62L134.52 46.16L135.23 46.73L132.91 50.18C132.768 49.839 132.565 49.5271 132.31 49.26C132.096 49.0438 131.846 48.8677 131.57 48.74C131.287 48.6096 130.981 48.5349 130.67 48.52C130.615 48.4762 130.554 48.4392 130.49 48.41L132.34 47.41L133.53 46.77L133.65 45.62Z" fill="#546672"/>
<path d="M85.9704 74.4401L88.9704 72.7301C88.3173 73.636 87.8329 74.6523 87.5404 75.7301L85.9404 76.6201L85.9704 74.4401Z" fill="#414C5C"/>
<path d="M93.9404 62.8401L96.1704 55.1901L111.94 46.4501L118.56 49.3201L118.31 51.0601L96.7604 62.9601L93.9404 62.8401Z" fill="#414C5C"/>
<path d="M117.91 49.7301L117.77 50.6801L115.33 52.0301L114.9 52.2601L106.95 56.6601L106.16 57.0901L99.05 61.0101L98.06 61.5601L96.51 62.4401L95.3 61.9501L96.65 55.6101L97.08 55.3601L97.76 54.9901L104.6 51.1801L104.61 51.1701L105.38 50.7401L112 47.1001L117.91 49.7301Z" fill="#529BA3"/>
<path d="M99.05 61.01L98.06 61.56L97.08 55.36L97.76 54.99L99.05 61.01Z" fill="#414C5C"/>
<path d="M106.95 56.66L106.16 57.09L104.6 51.18L104.61 51.17L105.38 50.74L106.95 56.66Z" fill="#414C5C"/>
<path d="M115.09 52.2601L114.66 52.4901L112.72 47.2101L113.31 47.4201L115.09 52.2601Z" fill="#414C5C"/>
<path d="M135.14 49.1101L133.55 51.0501L133.88 51.8801L133.2 52.2701C133.2 52.1501 133.2 52.0101 133.2 51.8801C133.2 51.7501 133.2 51.5801 133.2 51.4401C133.174 51.0079 133.08 50.5826 132.92 50.1801C132.778 49.8391 132.575 49.5272 132.32 49.2601C132.106 49.0439 131.856 48.8678 131.58 48.7401L133.43 47.6901L134.13 47.3301L135.24 46.7301L135.14 49.1101Z" fill="#414C5C"/>
<path d="M72.13 53.9501L90.64 64.6801L82.77 70.1701L64.26 59.4301L72.13 53.9501Z" fill="#8FD747"/>
<path d="M76.74 44.38L72.13 53.95C72.13 53.95 76.94 59.62 90.64 64.69L95.23 55.09L76.74 44.38Z" fill="#414C5C"/>
<path d="M94.45 55.23L90.27 63.95C78.76 59.65 73.81 54.88 72.87 53.9L77.08 45.17C77.08 45.17 77.32 45.38 77.79 45.74C78.01 45.9 78.26 46.1 78.57 46.32L79.29 46.85C80.29 47.56 81.61 48.46 83.2 49.45C86.7865 51.6795 90.549 53.6125 94.45 55.23Z" fill="#3D7D87"/>
<path d="M74.87 52.62L73.19 53.22L72.87 53.88C73.81 54.88 78.76 59.63 90.27 63.93L91.09 62.22C80.44 58.06 75.78 53.62 74.87 52.62Z" fill="#5B949C"/>
<path d="M93.47 34.9101C92.72 34.6201 76.74 44.3201 76.74 44.3201C76.74 44.3201 82.88 50.0901 95.23 55.0901L112.15 45.8901C112.15 45.8901 100.13 37.5201 93.47 34.9101Z" fill="#8FD747"/>
<path d="M62.2304 64.9401L81.1204 75.9401V78.2101C81.5804 78.0601 74.6704 76.85 62.2304 67.3C61.7604 66.95 62.2304 64.9401 62.2304 64.9401Z" fill="#293237"/>
<path d="M82.77 70.1701L82.22 71.3201L63.71 60.5801L64.26 59.4301L82.77 70.1701Z" fill="#55A12B"/>
<path d="M63.01 64.2101C62.72 64.3801 61.8801 64.7001 62.4401 65.1601C69.5501 70.9801 80.8301 75.7801 81.1201 75.9501L81.63 75.6601L63.01 64.2101Z" fill="#546672"/>
<path d="M88.1396 73.46L87.1996 73.92L82.8796 76.04C82.6751 76.1387 82.4527 76.1949 82.2258 76.2052C81.9989 76.2155 81.7723 76.1797 81.5597 76.1L81.1396 75.94L82.2497 75.32L87.6596 72.74L88.1096 73.46H88.1396Z" fill="#546672"/>
<path d="M82.22 71.3201L81.63 74.5801V75.6601L63.13 64.9201V63.8501L63.71 60.5901H63.72L64.33 60.9501L82.22 71.3201Z" fill="#35790F"/>
<path d="M67.1795 62.9801L78.8295 69.6901L78.6795 73.1601L74.8295 68.5701L69.3595 65.4101L65.7695 65.7001L67.1795 62.9801Z" fill="#246400"/>
<path d="M64.3297 61.31V62.83C64.3137 63.0102 64.2663 63.1862 64.1897 63.35C64.175 63.3843 64.1583 63.4177 64.1396 63.45C64.061 63.6103 63.9354 63.7428 63.7797 63.83L63.6296 63.94L63.3796 64.08C63.2196 64.18 63.2996 64.08 63.1396 64.2V63.62L63.6096 61.2L63.6696 60.91H63.7296L64.3297 61.31Z" fill="#E08A35"/>
<path d="M63.12 64.2101L65.77 65.7001C65.8456 65.7432 65.9292 65.7705 66.0157 65.7803C66.1022 65.79 66.1898 65.782 66.2731 65.7567C66.3564 65.7314 66.4337 65.6894 66.5002 65.6333C66.5668 65.5771 66.6211 65.508 66.66 65.4301L67.37 63.9801C67.4649 63.7891 67.4836 63.5691 67.4223 63.3649C67.361 63.1606 67.2243 62.9873 67.04 62.8801L64.33 61.3101L63.12 64.2101Z" fill="#E08A35"/>
<path d="M81.61 74.7901L78.48 73.0601C78.3514 72.9285 78.2513 72.7717 78.1859 72.5997C78.1205 72.4276 78.0913 72.244 78.1 72.0601V70.1801C78.1 69.6701 78.27 69.3701 78.51 69.5101L82.21 71.5101L81.61 74.7901Z" fill="#E08A35"/>
<path d="M82.1804 71.5401L82.4204 71.3701C82.4648 71.3404 82.517 71.3246 82.5704 71.3246C82.6238 71.3246 82.676 71.3404 82.7204 71.3701C82.8004 71.4301 82.8204 71.5501 82.8204 71.7301V73.4001C82.8073 73.5852 82.7563 73.7656 82.6704 73.9301C82.676 73.9632 82.676 73.997 82.6704 74.0301C82.5917 74.1903 82.4662 74.3229 82.3104 74.4101C82.1782 74.5088 82.0377 74.5958 81.8904 74.6701C81.7304 74.7701 81.8104 74.6701 81.6504 74.7901V74.2101L82.1804 71.5401Z" fill="#E08A35"/>
<path d="M70.4104 67.9601C70.2759 67.8766 70.1632 67.7623 70.0815 67.6267C69.9998 67.4911 69.9514 67.338 69.9404 67.1801V65.7501C69.9404 65.4701 70.1504 65.3701 70.4104 65.5201L73.8504 67.5201C73.9849 67.6036 74.0976 67.7179 74.1794 67.8535C74.2611 67.9891 74.3094 68.1421 74.3204 68.3001V69.7301C74.3204 70.0101 74.1104 70.1101 73.8504 69.9601L70.4104 67.9601Z" fill="#D3D3D3"/>
<path d="M73.8503 69.88L70.4102 67.88C70.3017 67.8124 70.2106 67.7201 70.1446 67.6106C70.0785 67.5011 70.0394 67.3776 70.0303 67.25V65.82C70.0303 65.6 70.2002 65.51 70.4102 65.63L73.8503 67.63C73.9585 67.7003 74.0491 67.7946 74.115 67.9056C74.1809 68.0166 74.2203 68.1413 74.2303 68.27V69.7C74.2303 69.91 74.0603 70 73.8503 69.88Z" fill="#EFEC82"/>
<path d="M74.2303 68.2501C74.2196 68.123 74.1798 68 74.1139 67.8907C74.048 67.7814 73.9578 67.6888 73.8503 67.6201L70.4102 65.6201C70.2002 65.5001 70.0403 65.6201 70.0303 65.8101L74.2303 68.2501Z" fill="#D3A944"/>
<path d="M70.0303 67.24C70.0417 67.3656 70.0819 67.4869 70.1478 67.5944C70.2137 67.702 70.3035 67.7928 70.4102 67.86L73.8503 69.86C74.0603 69.98 74.2203 69.86 74.2303 69.67L70.0303 67.24Z" fill="#D3A944"/>
<path d="M134 42.5L119.68 48.73C119.68 48.73 118.38 47.5 116.31 45.87C113.245 43.3858 109.886 41.2868 106.31 39.62C104.657 38.8649 102.917 38.3174 101.13 37.99C101.13 37.99 114.2 31.38 115.45 31.76C116.7 32.14 117.65 32.48 118.69 32.89C123.076 34.6432 127.195 36.9992 130.93 39.89C132.001 40.7024 133.026 41.5737 134 42.5Z" fill="#7CC53F"/>
<path d="M105.81 39.62C105.81 39.62 112.67 42.62 116.31 45.89C119.95 49.16 116.55 45.89 116.55 45.89C116.55 45.89 114.06 41.51 106.46 39.32C98.86 37.13 105.77 38.17 105.77 38.17L105.81 39.62Z" fill="#414C5C"/>
<path d="M134 42.49L119.68 48.72L119.67 48.71L117.39 46.84L130.97 39.92L134 42.49Z" fill="#8FD747"/>
<path d="M118.73 32.8901L105.81 39.62C104.295 39.0265 102.702 38.656 101.08 38.52C101.08 38.52 114.64 31.65 115.89 32.02C117.14 32.39 117.69 32.4801 118.73 32.8901Z" fill="#72A03E"/>
<path d="M118.73 32.89L105.41 39.35C104.073 38.6874 102.643 38.229 101.17 37.99C101.17 37.99 114.24 31.38 115.49 31.76C116.74 32.14 117.69 32.48 118.73 32.89Z" fill="#8FD747"/>
<path d="M108.45 38.7001L108.79 38.5201C108.894 38.4755 109.006 38.4525 109.12 38.4525C109.233 38.4525 109.345 38.4755 109.45 38.5201L112.21 39.7801C112.55 39.9401 112.52 40.2101 112.14 40.3601L111.82 40.4801C111.626 40.5503 111.414 40.5503 111.22 40.4801L108.49 39.2501C108.18 39.0901 108.16 38.8601 108.45 38.7001Z" fill="#3E2F37"/>
<path d="M109.83 38.56L109.6 38.49L108.11 39.19L108.29 39.29L109.83 38.56Z" fill="#7CC53F"/>
<path d="M110.43 38.7901L110.2 38.7201L108.71 39.4201L108.89 39.5201L110.43 38.7901Z" fill="#7CC53F"/>
<path d="M111.03 39.0201L110.8 38.9501L109.31 39.6501L109.48 39.7501L111.03 39.0201Z" fill="#7CC53F"/>
<path d="M111.63 39.2401L111.39 39.1801L109.9 39.8801L110.08 39.9801L111.63 39.2401Z" fill="#7CC53F"/>
<path d="M112.17 39.4901L111.94 39.4301L110.45 40.1301L110.63 40.2301L112.17 39.4901Z" fill="#7CC53F"/>
<path d="M112.61 39.8001L112.38 39.7301L110.89 40.4301L111.07 40.5301L112.61 39.8001Z" fill="#7CC53F"/>
<path d="M118.27 44.92L117.93 45.11C117.846 45.1635 117.749 45.1919 117.65 45.1919C117.55 45.1919 117.453 45.1635 117.37 45.11L115.37 43.36C115.13 43.14 115.23 42.83 115.58 42.68L115.88 42.56C115.961 42.5259 116.05 42.5135 116.138 42.524C116.225 42.5345 116.309 42.5676 116.38 42.62L118.38 44.32C118.6 44.47 118.55 44.75 118.27 44.92Z" fill="#3E2F37"/>
<path d="M117.08 44.9701L117.25 45.0701L118.69 44.3501L118.57 44.2101L117.08 44.9701Z" fill="#7CC53F"/>
<path d="M116.64 44.65L116.82 44.75L118.25 44.03L118.13 43.89L116.64 44.65Z" fill="#7CC53F"/>
<path d="M116.2 44.3201L116.38 44.4201L117.81 43.7001L117.69 43.5701L116.2 44.3201Z" fill="#7CC53F"/>
<path d="M115.77 44L115.94 44.1L117.37 43.38L117.25 43.24L115.77 44Z" fill="#7CC53F"/>
<path d="M115.37 43.66L115.55 43.76L116.98 43.03L116.86 42.9L115.37 43.66Z" fill="#7CC53F"/>
<path d="M115.09 43.25L115.26 43.35L116.7 42.63L116.58 42.49L115.09 43.25Z" fill="#7CC53F"/>
<path d="M123.09 50.73L122.52 51.05C122.443 51.092 122.379 51.1543 122.335 51.2301C122.291 51.3059 122.268 51.3923 122.27 51.48V51.69C122.269 51.7335 122.281 51.7762 122.302 51.814C122.324 51.8518 122.354 51.8834 122.392 51.9056C122.429 51.9278 122.472 51.9399 122.515 51.9406C122.559 51.9414 122.601 51.9308 122.64 51.91L123.22 51.59C123.294 51.5449 123.356 51.4819 123.399 51.4068C123.443 51.3317 123.467 51.2468 123.47 51.16V50.95C123.471 50.9051 123.46 50.8607 123.438 50.8214C123.416 50.7822 123.384 50.7496 123.345 50.7271C123.306 50.7046 123.262 50.693 123.217 50.6935C123.172 50.694 123.128 50.7066 123.09 50.73Z" fill="#E06E18"/>
<path d="M123.2 50.8101L122.62 51.1301C122.544 51.1737 122.482 51.2364 122.438 51.3118C122.394 51.3872 122.371 51.4728 122.37 51.5601V51.7801C122.371 51.8242 122.383 51.8673 122.406 51.9051C122.428 51.9429 122.46 51.9741 122.499 51.9954C122.538 52.0167 122.581 52.0274 122.625 52.0265C122.669 52.0256 122.712 52.013 122.75 51.9901L123.32 51.6701C123.397 51.6281 123.461 51.5658 123.505 51.49C123.549 51.4142 123.572 51.3278 123.57 51.2401V51.0301C123.57 50.9866 123.559 50.9439 123.537 50.9061C123.516 50.8683 123.485 50.8367 123.448 50.8145C123.41 50.7923 123.368 50.7802 123.324 50.7795C123.281 50.7787 123.238 50.7892 123.2 50.8101Z" fill="#E0AB35"/>
<path d="M116.29 45.69C113.203 43.3164 109.871 41.2814 106.35 39.62C102.14 37.8303 97.841 36.2582 93.4697 34.91C100.13 37.52 112.15 45.91 112.15 45.91L119.68 48.75C118.618 47.6571 117.485 46.6349 116.29 45.69Z" fill="#414C5C"/>
<path d="M112.22 45.7C107.226 42.2319 102.042 39.0469 96.6904 36.16C99.9395 37.2119 103.134 38.4267 106.26 39.8C109.767 41.443 113.089 43.4543 116.17 45.8C117.36 46.74 118.3 47.61 118.89 48.17L112.22 45.7Z" fill="#88D5DE"/>
<path d="M83.2 49.45L79.33 51.62V46.88C80.29 47.56 81.61 48.46 83.2 49.45Z" fill="#95C9B1"/>
<path d="M78.55 46.32L78.32 52.15L76.22 53.3L75.01 52.82L77.4 45.93L77.77 45.74C78.01 45.9 78.26 46.1 78.55 46.32Z" fill="#95C9B1"/>
<path d="M96.8604 68.9101V70.5501L123.83 53.5601L123.46 53.3501L96.8604 68.9101Z" fill="#546672"/>
<path d="M97.2305 69.1301V70.7701L123.83 55.2001V53.5601L97.2305 69.1301Z" fill="#414C5C"/>
<path d="M97.2304 69.13V70.77L96.8604 70.55V68.91L97.2304 69.13Z" fill="#293237"/>
<path d="M96.38 72.7301C96.3903 72.9233 96.3903 73.1169 96.38 73.3101C96.38 73.5101 96.38 73.7201 96.38 73.9201L124.3 57.9201C124.198 57.5652 124.141 57.1991 124.13 56.8301L96.38 72.7301Z" fill="#546672"/>
<path d="M96.38 73.1101C96.3903 73.3066 96.3903 73.5036 96.38 73.7001C96.38 73.9001 96.38 74.1101 96.38 74.3101L124.3 58.3101C124.2 57.9549 124.143 57.5889 124.13 57.2201L96.38 73.1101Z" fill="#414C5C"/>
<path d="M96.0504 70.83C95.702 70.2254 95.1374 69.7752 94.4704 69.57C94.2204 69.48 92.3304 68.57 89.4704 71.57C88.9318 72.135 88.468 72.7668 88.0904 73.45L87.1504 73.91C87.2404 73.67 87.3404 73.42 87.4404 73.14C87.5404 72.86 87.5504 72.86 87.6104 72.73C88.1042 71.5522 88.9272 70.5418 89.9808 69.8199C91.0343 69.0981 92.2737 68.6953 93.5504 68.66C94.1467 68.6996 94.7138 68.933 95.1651 69.3248C95.6165 69.7166 95.9274 70.2452 96.0504 70.83Z" fill="#546672"/>
<path d="M96.3701 72.4801C96.3354 71.9185 96.2278 71.3639 96.05 70.8301C96.3257 71.3334 96.4375 71.9102 96.3701 72.4801Z" fill="#546672"/>
<path d="M87.4404 78.55C87.3449 77.3199 87.5032 76.0832 87.9058 74.9169C88.3083 73.7505 88.9464 72.6794 89.7804 71.77C92.6004 68.77 94.7804 69.89 94.9604 70.03C95.3882 70.3411 95.7388 70.7464 95.985 71.2146C96.2312 71.6827 96.3665 72.2012 96.3804 72.73V74.31L96.8604 72.94C96.8604 72.94 96.7404 69.23 94.0704 69.15C92.72 69.1922 91.4139 69.6416 90.3235 70.4393C89.2332 71.2371 88.4094 72.3458 87.9604 73.62C87.5861 74.7307 87.1488 75.8192 86.6504 76.88L87.4404 78.55Z" fill="#414C5C"/>
<path d="M131.63 47.99C130.16 47.88 128.84 46.79 125.89 49.55C122.94 52.31 123.5 57.17 123.5 57.17L123.64 57.27C123.74 57.21 123.87 57.35 123.97 57.27C123.797 56.2523 123.841 55.2094 124.1 54.21C124.738 52.1489 126.026 50.3493 127.77 49.08C128.279 48.6999 128.871 48.4463 129.497 48.3403C130.123 48.2342 130.765 48.2787 131.37 48.47C131.37 48.47 133.1 48.11 131.63 47.99Z" fill="#546672"/>
<path d="M131.64 48.7001C131.035 48.5088 130.393 48.4643 129.767 48.5704C129.141 48.6764 128.549 48.93 128.04 49.3101C126.294 50.582 125.006 52.3853 124.37 54.4501C124.076 55.5514 124.052 56.7075 124.3 57.8201V58.2701L123.77 57.3801C123.77 57.3801 123.27 52.8101 126.22 50.0401C129.17 47.2701 130.75 48.2601 132.22 48.3801C133.69 48.5001 131.64 48.7001 131.64 48.7001Z" fill="#414C5C"/>
<path d="M75.09 70.62V70.96C75.0928 71.0351 75.1144 71.1084 75.1528 71.173C75.1913 71.2376 75.2453 71.2916 75.31 71.33L76.75 72.17C76.7761 72.1864 76.8062 72.1953 76.8371 72.1958C76.8679 72.1964 76.8983 72.1885 76.925 72.1731C76.9517 72.1577 76.9737 72.1353 76.9887 72.1083C77.0037 72.0814 77.011 72.0508 77.0099 72.02V71.93L75.8 71.22C75.7361 71.1832 75.6824 71.131 75.644 71.0681C75.6055 71.0052 75.5835 70.9336 75.58 70.86V70.62L75.3499 70.49C75.3252 70.4744 75.2969 70.4655 75.2677 70.4641C75.2386 70.4626 75.2095 70.4688 75.1833 70.4818C75.1572 70.4949 75.1349 70.5145 75.1186 70.5387C75.1022 70.5629 75.0923 70.5909 75.09 70.62Z" fill="#246400"/>
<path d="M75.55 70.62V70.87C75.5536 70.9436 75.5756 71.0152 75.6141 71.0781C75.6525 71.141 75.7062 71.1932 75.7701 71.23L76.98 71.94V71.69C76.9772 71.6149 76.9556 71.5416 76.9172 71.477C76.8787 71.4124 76.8247 71.3584 76.76 71.32L75.55 70.62Z" fill="#BED5DF"/>
<path d="M64.46 61.79C64.32 61.85 64.32 62.12 64.29 62.3L64.17 63.01C64.11 63.31 64.06 63.61 64.01 63.91C63.9954 63.9921 64.0068 64.0768 64.0427 64.1521C64.0785 64.2274 64.137 64.2896 64.21 64.33C64.3992 64.453 64.6002 64.5568 64.81 64.64C65.11 64.75 65.13 64.58 65.18 64.31L65.45 62.7V62.58C65.4633 62.5005 65.4523 62.4188 65.4184 62.3456C65.3845 62.2725 65.3293 62.2113 65.26 62.17C65.06 62.05 64.86 61.92 64.65 61.82C64.6221 61.8022 64.5908 61.7903 64.5581 61.7852C64.5254 61.78 64.492 61.7817 64.46 61.79Z" fill="#E03835"/>
<path d="M65.7195 62.5301C65.5795 62.5901 65.5795 62.8801 65.5495 63.0301L65.4295 63.7501C65.3695 64.0501 65.3195 64.3501 65.2695 64.6601C65.254 64.7408 65.2651 64.8245 65.3012 64.8984C65.3372 64.9724 65.3963 65.0326 65.4695 65.0701L65.8595 65.2901C66.0395 65.3901 66.3195 65.6001 66.3995 65.2901C66.4575 65.0327 66.5009 64.7723 66.5295 64.5101C66.5995 64.1101 66.6595 63.7201 66.7295 63.3201C66.7436 63.2419 66.7329 63.1613 66.6988 63.0895C66.6647 63.0178 66.609 62.9585 66.5395 62.9201C66.3298 62.7734 66.1092 62.643 65.8795 62.5301C65.8281 62.51 65.771 62.51 65.7195 62.5301Z" fill="#E0C5A0"/>
<path d="M78.6696 69.9601C78.5296 70.0201 78.5596 70.3101 78.5496 70.5001L78.4896 71.2601L78.4296 72.2601C78.4215 72.3489 78.4399 72.4382 78.4827 72.5166C78.5254 72.5949 78.5905 72.6588 78.6696 72.7001C78.8697 72.8308 79.0805 72.9445 79.2996 73.0401C79.6196 73.1501 79.6196 72.9701 79.6396 72.6901L79.7496 70.9701V70.8501C79.7543 70.7642 79.7353 70.6787 79.6947 70.6029C79.6542 70.5271 79.5936 70.4639 79.5196 70.4201C79.3096 70.2901 79.0996 70.1501 78.8796 70.0401C78.8538 70.0106 78.8212 69.9879 78.7846 69.974C78.748 69.96 78.7085 69.9553 78.6696 69.9601Z" fill="#E03835"/>
<path d="M80.0004 70.74C79.8604 70.82 79.8904 71.12 79.8804 71.27C79.8704 71.42 79.8804 71.78 79.8304 72.04L79.7604 73.04C79.7559 73.1283 79.776 73.2162 79.8184 73.2938C79.8607 73.3715 79.9237 73.4359 80.0004 73.48L80.4204 73.71C80.6104 73.81 80.9004 74.04 80.9604 73.71C81.0204 73.38 80.9604 73.15 80.9604 72.88L81.0404 71.63C81.045 71.5441 81.026 71.4586 80.9855 71.3828C80.9449 71.307 80.8844 71.2438 80.8104 71.2C80.586 71.0486 80.3522 70.9116 80.1104 70.79C80.0806 70.7612 80.0417 70.7435 80.0004 70.74Z" fill="#E0C5A0"/>
<path d="M122.15 50.07C122.275 50.3382 122.314 50.6389 122.26 50.93C122.219 51.0838 122.159 51.2317 122.08 51.37C121.99 51.56 121.91 51.82 121.73 51.92C121.583 52.0321 121.405 52.095 121.22 52.1C121.006 52.0685 120.801 51.99 120.62 51.87C120.101 51.5958 119.6 51.2885 119.12 50.95C118.97 50.84 118.85 50.64 118.64 50.68C118.43 50.72 118.41 50.76 118.23 50.68C118.087 50.5876 117.97 50.4603 117.89 50.31C117.79 50.09 117.75 49.72 117.98 49.56C118.21 49.4 118.28 49.38 118.43 49.29H118.52C118.63 49.24 118.8 49.21 118.86 49.09C118.92 48.97 118.92 48.83 119.05 48.74C119.103 48.7007 119.165 48.6765 119.23 48.67C119.446 48.5938 119.671 48.5467 119.9 48.53C120.118 48.5459 120.327 48.6259 120.5 48.76C120.952 49.029 121.386 49.3262 121.8 49.65C121.864 49.6917 121.921 49.7422 121.97 49.8C122.044 49.8796 122.105 49.9708 122.15 50.07Z" fill="#246400"/>
<path d="M119.63 49.14C120.46 49.65 121.51 49.95 121.63 50.54C121.75 51.13 121.49 51.88 120.8 51.66C120.201 51.4052 119.631 51.0867 119.1 50.71C119.1 50.71 118.79 48.62 119.63 49.14Z" fill="#D3D3D3"/>
<path d="M102.01 62.6801L100.01 63.8401C100.01 63.4601 99.9501 63.2401 100.34 63.0101C100.34 63.0101 100.96 62.5901 101.51 62.3001C102.06 62.0101 102.01 62.6801 102.01 62.6801Z" fill="#414C5C"/>
<path d="M111.03 57.2601L109.03 58.4201C109.03 58.0401 108.97 57.8201 109.36 57.5901C109.36 57.5901 109.98 57.1701 110.53 56.8801C111.08 56.5901 111.03 57.2601 111.03 57.2601Z" fill="#414C5C"/>
<path style="mix-blend-mode:multiply" d="M156.87 43.31L138.05 32.76L138.73 32.37L157.54 42.92L156.87 43.31Z" fill="url(#paint5_linear_17_942)"/>
<path d="M155.79 43.8701V43.3101L158.06 44.6301V45.1801L155.79 43.8701Z" fill="#9F9E9E"/>
<path d="M158.06 44.63L159.81 43.62V44.17L158.06 45.18V44.63Z" fill="#858482"/>
<path d="M155.79 43.3101L158.06 44.6301L159.81 43.62L157.54 42.3L155.79 43.3101Z" fill="#C0C0C0"/>
<path d="M156.95 43.26V0.900024L157.16 1.03002V43.38L156.95 43.26Z" fill="#C8D4D4"/>
<path d="M157.16 1.03005L157.54 0.800049V43.1501L157.16 43.3801V1.03005Z" fill="#A2B3AF"/>
<path d="M156.95 0.900054L157.16 1.03005L157.54 0.800054L157.34 0.680054L156.95 0.900054Z" fill="#E1F0F0"/>
<path d="M157.28 43.3101V0.950073L158.21 1.49007V43.8401L157.28 43.3101Z" fill="#BDCCCC"/>
<path d="M157.28 0.949995L158.21 1.49L158.34 1.41L157.42 0.869995L157.28 0.949995Z" fill="#E1F0F0"/>
<path d="M158.21 1.49003L158.34 1.41003V43.76L158.21 43.84V1.49003Z" fill="#A2B3AF"/>
<path d="M158.08 43.9101V1.56006L158.29 1.68006V44.0301L158.08 43.9101Z" fill="#C8D4D4"/>
<path d="M158.29 1.68007L158.68 1.45007V43.8101L158.29 44.0301V1.68007Z" fill="#A2B3AF"/>
<path d="M158.08 1.56008L158.29 1.68008L158.68 1.45008L158.47 1.33008L158.08 1.56008Z" fill="#E1F0F0"/>
<path d="M157.55 42.9001C157.552 42.9755 157.573 43.0491 157.612 43.1138C157.65 43.1786 157.705 43.2324 157.77 43.2701C157.784 43.2768 157.8 43.2805 157.816 43.2811C157.832 43.2817 157.848 43.2791 157.863 43.2736C157.877 43.268 157.891 43.2595 157.903 43.2486C157.914 43.2377 157.924 43.2246 157.93 43.2101C157.94 43.164 157.94 43.1162 157.93 43.0701C157.928 42.9935 157.906 42.9189 157.865 42.8538C157.825 42.7888 157.768 42.7357 157.7 42.7001C157.55 42.6701 157.55 42.7601 157.55 42.9001Z" fill="#A2B3AF"/>
<path d="M157.66 42.8301C157.661 42.9054 157.683 42.979 157.721 43.0438C157.76 43.1086 157.814 43.1624 157.88 43.2001C157.89 43.154 157.89 43.1062 157.88 43.0601C157.878 42.9835 157.855 42.9088 157.815 42.8438C157.774 42.7787 157.717 42.7257 157.65 42.6901C157.638 42.7366 157.641 42.7857 157.66 42.8301Z" fill="white"/>
<path d="M157.55 40.94C157.554 41.015 157.576 41.0879 157.614 41.1523C157.652 41.2168 157.706 41.271 157.77 41.31C157.785 41.3182 157.801 41.3228 157.818 41.3236C157.835 41.3244 157.852 41.3213 157.867 41.3145C157.883 41.3077 157.897 41.2975 157.907 41.2846C157.918 41.2717 157.926 41.2564 157.93 41.24C157.942 41.1941 157.942 41.1459 157.93 41.1C157.926 41.0252 157.903 40.9526 157.863 40.8895C157.823 40.8263 157.766 40.7748 157.7 40.74C157.55 40.71 157.55 40.8 157.55 40.94Z" fill="#A2B3AF"/>
<path d="M157.66 40.87C157.663 40.9449 157.685 41.0178 157.724 41.0823C157.762 41.1468 157.815 41.2009 157.88 41.24C157.891 41.1941 157.891 41.1459 157.88 41.1C157.876 41.0251 157.853 40.9526 157.812 40.8894C157.772 40.8263 157.716 40.7748 157.65 40.74C157.639 40.7833 157.642 40.8288 157.66 40.87Z" fill="white"/>
<path d="M157.55 38.98C157.555 39.0547 157.577 39.1273 157.615 39.1917C157.653 39.256 157.707 39.3103 157.77 39.35C157.785 39.3582 157.801 39.3628 157.818 39.3636C157.835 39.3644 157.852 39.3613 157.867 39.3545C157.883 39.3477 157.897 39.3375 157.907 39.3246C157.918 39.3116 157.926 39.2964 157.93 39.28C157.941 39.234 157.941 39.186 157.93 39.14C157.927 39.0637 157.904 38.9894 157.864 38.9245C157.824 38.8597 157.767 38.8064 157.7 38.77C157.55 38.75 157.55 38.84 157.55 38.98Z" fill="#A2B3AF"/>
<path d="M157.66 38.91C157.663 38.9836 157.685 39.0552 157.724 39.1181C157.762 39.181 157.816 39.2332 157.88 39.27C157.891 39.224 157.891 39.176 157.88 39.13C157.877 39.0537 157.854 38.9794 157.814 38.9146C157.773 38.8497 157.717 38.7964 157.65 38.76C157.633 38.8094 157.637 38.8632 157.66 38.91Z" fill="white"/>
<path d="M157.55 37.0101C157.552 37.0854 157.573 37.159 157.612 37.2238C157.65 37.2886 157.705 37.3424 157.77 37.3801C157.784 37.3868 157.8 37.3905 157.816 37.3911C157.832 37.3917 157.848 37.3891 157.863 37.3835C157.877 37.378 157.891 37.3695 157.903 37.3586C157.914 37.3477 157.924 37.3346 157.93 37.3201C157.94 37.274 157.94 37.2262 157.93 37.1801C157.928 37.1035 157.906 37.0289 157.865 36.9638C157.825 36.8988 157.768 36.8457 157.7 36.8101C157.55 36.7801 157.55 36.8701 157.55 37.0101Z" fill="#A2B3AF"/>
<path d="M157.66 36.9401C157.661 37.0154 157.683 37.089 157.721 37.1538C157.76 37.2186 157.814 37.2724 157.88 37.3101C157.89 37.264 157.89 37.2162 157.88 37.1701C157.878 37.0935 157.855 37.0188 157.815 36.9538C157.774 36.8887 157.717 36.8356 157.65 36.8C157.638 36.8466 157.641 36.8957 157.66 36.9401Z" fill="white"/>
<path d="M157.55 35.05C157.554 35.1249 157.576 35.1978 157.614 35.2623C157.652 35.3268 157.706 35.381 157.77 35.42C157.784 35.4267 157.8 35.4304 157.816 35.431C157.832 35.4316 157.848 35.4291 157.863 35.4235C157.877 35.4179 157.891 35.4094 157.903 35.3985C157.914 35.3876 157.924 35.3745 157.93 35.36C157.94 35.3139 157.94 35.2661 157.93 35.22C157.928 35.1435 157.906 35.0688 157.865 35.0037C157.825 34.9387 157.768 34.8856 157.7 34.85C157.55 34.82 157.55 34.91 157.55 35.05Z" fill="#A2B3AF"/>
<path d="M157.66 34.9801C157.664 35.055 157.686 35.1279 157.724 35.1924C157.762 35.2569 157.816 35.311 157.88 35.3501C157.89 35.304 157.89 35.2562 157.88 35.2101C157.878 35.1335 157.856 35.0589 157.815 34.9938C157.775 34.9288 157.718 34.8757 157.65 34.8401C157.637 34.8865 157.641 34.9359 157.66 34.9801Z" fill="white"/>
<path d="M157.55 33.0901C157.554 33.165 157.576 33.2379 157.614 33.3024C157.652 33.3669 157.706 33.421 157.77 33.4601C157.785 33.4683 157.801 33.4729 157.818 33.4737C157.835 33.4745 157.852 33.4714 157.867 33.4646C157.883 33.4578 157.897 33.4476 157.907 33.4347C157.918 33.4217 157.926 33.4065 157.93 33.3901C157.942 33.3442 157.942 33.296 157.93 33.2501C157.927 33.1738 157.904 33.0995 157.864 33.0346C157.824 32.9698 157.767 32.9165 157.7 32.8801C157.55 32.8601 157.55 32.9501 157.55 33.0901Z" fill="#A2B3AF"/>
<path d="M157.66 33.02C157.664 33.0949 157.686 33.1678 157.724 33.2323C157.762 33.2968 157.816 33.351 157.88 33.39C157.892 33.3441 157.892 33.2959 157.88 33.25C157.877 33.1737 157.854 33.0994 157.814 33.0345C157.774 32.9697 157.717 32.9164 157.65 32.88C157.636 32.9263 157.64 32.9761 157.66 33.02Z" fill="white"/>
<path d="M157.55 31.12C157.554 31.1963 157.576 31.2706 157.614 31.3367C157.652 31.4028 157.706 31.4588 157.77 31.5C157.785 31.5082 157.801 31.5129 157.818 31.5136C157.835 31.5144 157.852 31.5113 157.867 31.5045C157.883 31.4978 157.897 31.4875 157.907 31.4746C157.918 31.4617 157.926 31.4464 157.93 31.43C157.94 31.3839 157.94 31.3361 157.93 31.29C157.927 31.2137 157.904 31.1394 157.864 31.0746C157.824 31.0097 157.767 30.9564 157.7 30.92C157.55 30.9 157.55 30.98 157.55 31.12Z" fill="#A2B3AF"/>
<path d="M157.66 31.05C157.661 31.1254 157.683 31.199 157.721 31.2638C157.76 31.3286 157.814 31.3824 157.88 31.42C157.89 31.3739 157.89 31.3261 157.88 31.28C157.877 31.2037 157.854 31.1295 157.814 31.0646C157.773 30.9997 157.717 30.9464 157.65 30.91C157.638 30.9565 157.641 31.0057 157.66 31.05Z" fill="white"/>
<path d="M157.55 29.16C157.552 29.2353 157.573 29.3089 157.612 29.3737C157.65 29.4385 157.705 29.4923 157.77 29.53C157.784 29.5367 157.8 29.5404 157.816 29.541C157.832 29.5416 157.848 29.539 157.863 29.5335C157.877 29.5279 157.891 29.5194 157.903 29.5085C157.914 29.4976 157.924 29.4845 157.93 29.47C157.94 29.4239 157.94 29.3761 157.93 29.33C157.928 29.2534 157.906 29.1788 157.865 29.1137C157.825 29.0487 157.768 28.9956 157.7 28.96C157.55 28.93 157.55 29.02 157.55 29.16Z" fill="#A2B3AF"/>
<path d="M157.66 29.0901C157.663 29.165 157.685 29.2379 157.724 29.3024C157.762 29.3669 157.816 29.421 157.88 29.4601C157.89 29.414 157.89 29.3662 157.88 29.3201C157.878 29.2435 157.855 29.1688 157.815 29.1038C157.774 29.0387 157.717 28.9857 157.65 28.9501C157.638 28.9966 157.641 29.0457 157.66 29.0901Z" fill="white"/>
<path d="M157.55 27.2C157.554 27.275 157.576 27.3479 157.614 27.4124C157.652 27.4768 157.706 27.531 157.77 27.57C157.785 27.5782 157.801 27.5828 157.818 27.5836C157.835 27.5844 157.852 27.5813 157.867 27.5745C157.883 27.5677 157.897 27.5575 157.907 27.5446C157.918 27.5317 157.926 27.5164 157.93 27.5C157.942 27.4541 157.942 27.4059 157.93 27.36C157.926 27.2852 157.903 27.2126 157.863 27.1494C157.823 27.0863 157.766 27.0348 157.7 27C157.55 26.97 157.55 27.06 157.55 27.2Z" fill="#A2B3AF"/>
<path d="M157.66 27.13C157.664 27.2049 157.686 27.2778 157.724 27.3423C157.762 27.4068 157.816 27.4609 157.88 27.5C157.892 27.4541 157.892 27.4059 157.88 27.36C157.876 27.2852 157.853 27.2126 157.813 27.1494C157.773 27.0863 157.716 27.0348 157.65 27C157.639 27.0432 157.642 27.089 157.66 27.13Z" fill="white"/>
<path d="M157.55 25.23C157.554 25.3063 157.576 25.3806 157.614 25.4466C157.652 25.5127 157.706 25.5687 157.77 25.61C157.785 25.6182 157.801 25.6228 157.818 25.6236C157.835 25.6244 157.852 25.6213 157.867 25.6145C157.883 25.6077 157.897 25.5975 157.907 25.5846C157.918 25.5717 157.926 25.5564 157.93 25.54C157.941 25.494 157.941 25.446 157.93 25.4C157.927 25.3237 157.904 25.2494 157.864 25.1845C157.824 25.1197 157.767 25.0664 157.7 25.03C157.55 25.01 157.55 25.09 157.55 25.23Z" fill="#A2B3AF"/>
<path d="M157.66 25.16C157.661 25.2354 157.683 25.309 157.721 25.3738C157.76 25.4386 157.814 25.4924 157.88 25.53C157.891 25.484 157.891 25.436 157.88 25.39C157.877 25.3137 157.854 25.2394 157.814 25.1746C157.773 25.1097 157.717 25.0564 157.65 25.02C157.638 25.0665 157.641 25.1157 157.66 25.16Z" fill="white"/>
<path d="M157.55 23.2701C157.552 23.3455 157.573 23.4191 157.612 23.4838C157.65 23.5486 157.705 23.6024 157.77 23.6401C157.784 23.6468 157.8 23.6505 157.816 23.6511C157.832 23.6517 157.848 23.6492 157.863 23.6436C157.877 23.638 157.891 23.6295 157.903 23.6186C157.914 23.6077 157.924 23.5946 157.93 23.5801C157.94 23.534 157.94 23.4862 157.93 23.4401C157.928 23.3635 157.906 23.2889 157.865 23.2238C157.825 23.1588 157.768 23.1057 157.7 23.0701C157.55 23.0401 157.55 23.1301 157.55 23.2701Z" fill="#A2B3AF"/>
<path d="M157.66 23.2001C157.661 23.2754 157.683 23.349 157.721 23.4138C157.76 23.4786 157.814 23.5324 157.88 23.5701C157.89 23.524 157.89 23.4761 157.88 23.4301C157.878 23.3535 157.855 23.2788 157.815 23.2138C157.774 23.1487 157.717 23.0957 157.65 23.0601C157.638 23.1066 157.641 23.1557 157.66 23.2001Z" fill="white"/>
<path d="M157.55 21.31C157.554 21.385 157.576 21.4578 157.614 21.5223C157.652 21.5868 157.706 21.641 157.77 21.68C157.785 21.6882 157.801 21.6928 157.818 21.6936C157.835 21.6944 157.852 21.6913 157.867 21.6845C157.883 21.6777 157.897 21.6675 157.907 21.6546C157.918 21.6417 157.926 21.6264 157.93 21.61C157.942 21.5641 157.942 21.5159 157.93 21.47C157.926 21.3952 157.903 21.3226 157.863 21.2594C157.823 21.1963 157.766 21.1448 157.7 21.11C157.55 21.08 157.55 21.17 157.55 21.31Z" fill="#A2B3AF"/>
<path d="M157.66 21.2401C157.663 21.315 157.685 21.3879 157.724 21.4524C157.762 21.5169 157.815 21.5711 157.88 21.6101C157.891 21.5642 157.891 21.516 157.88 21.4701C157.876 21.3953 157.853 21.3227 157.812 21.2595C157.772 21.1964 157.716 21.1449 157.65 21.1101C157.639 21.1534 157.642 21.1989 157.66 21.2401Z" fill="white"/>
<path d="M157.55 19.3501C157.555 19.4248 157.577 19.4974 157.615 19.5618C157.653 19.6261 157.707 19.6804 157.77 19.7201C157.785 19.7283 157.801 19.7329 157.818 19.7337C157.835 19.7345 157.852 19.7314 157.867 19.7246C157.883 19.7178 157.897 19.7076 157.907 19.6947C157.918 19.6818 157.926 19.6665 157.93 19.6501C157.941 19.6041 157.941 19.5561 157.93 19.5101C157.927 19.4338 157.904 19.3595 157.864 19.2946C157.824 19.2298 157.767 19.1765 157.7 19.1401C157.55 19.1201 157.55 19.2101 157.55 19.3501Z" fill="#A2B3AF"/>
<path d="M157.66 19.28C157.663 19.3536 157.685 19.4252 157.724 19.4881C157.762 19.551 157.816 19.6032 157.88 19.64C157.891 19.594 157.891 19.546 157.88 19.5C157.877 19.4237 157.854 19.3494 157.814 19.2845C157.773 19.2197 157.717 19.1664 157.65 19.13C157.633 19.1794 157.637 19.2332 157.66 19.28Z" fill="white"/>
<path d="M157.55 17.3801C157.552 17.4554 157.573 17.529 157.612 17.5938C157.65 17.6586 157.705 17.7124 157.77 17.7501C157.784 17.7568 157.8 17.7605 157.816 17.7611C157.832 17.7617 157.848 17.7591 157.863 17.7536C157.877 17.748 157.891 17.7395 157.903 17.7286C157.914 17.7177 157.924 17.7046 157.93 17.6901C157.94 17.644 157.94 17.5962 157.93 17.5501C157.928 17.4735 157.906 17.3989 157.865 17.3338C157.825 17.2688 157.768 17.2157 157.7 17.1801C157.55 17.1501 157.55 17.2401 157.55 17.3801Z" fill="#A2B3AF"/>
<path d="M157.66 17.31C157.661 17.3854 157.683 17.459 157.721 17.5238C157.76 17.5886 157.814 17.6424 157.88 17.68C157.89 17.6339 157.89 17.5861 157.88 17.54C157.878 17.4635 157.855 17.3888 157.815 17.3238C157.774 17.2587 157.717 17.2056 157.65 17.17C157.638 17.2166 157.641 17.2657 157.66 17.31Z" fill="white"/>
<path d="M157.55 15.42C157.554 15.4949 157.576 15.5678 157.614 15.6323C157.652 15.6968 157.706 15.7509 157.77 15.79C157.784 15.7967 157.8 15.8004 157.816 15.801C157.832 15.8016 157.848 15.799 157.863 15.7935C157.877 15.7879 157.891 15.7794 157.903 15.7685C157.914 15.7576 157.924 15.7445 157.93 15.73C157.94 15.6839 157.94 15.6361 157.93 15.59C157.928 15.5134 157.906 15.4388 157.865 15.3737C157.825 15.3087 157.768 15.2556 157.7 15.22C157.55 15.19 157.55 15.28 157.55 15.42Z" fill="#A2B3AF"/>
<path d="M157.66 15.3501C157.664 15.425 157.686 15.4979 157.724 15.5624C157.762 15.6269 157.816 15.681 157.88 15.7201C157.89 15.674 157.89 15.6262 157.88 15.5801C157.878 15.5035 157.856 15.4288 157.815 15.3638C157.775 15.2988 157.718 15.2457 157.65 15.2101C157.637 15.2565 157.641 15.3059 157.66 15.3501Z" fill="white"/>
<path d="M157.55 13.4601C157.554 13.535 157.576 13.6079 157.614 13.6724C157.652 13.7369 157.706 13.791 157.77 13.8301C157.785 13.8383 157.801 13.8429 157.818 13.8437C157.835 13.8445 157.852 13.8413 157.867 13.8346C157.883 13.8278 157.897 13.8176 157.907 13.8047C157.918 13.7917 157.926 13.7765 157.93 13.7601C157.942 13.7142 157.942 13.666 157.93 13.6201C157.927 13.5438 157.904 13.4695 157.864 13.4046C157.824 13.3397 157.767 13.2865 157.7 13.2501C157.55 13.2301 157.55 13.3201 157.55 13.4601Z" fill="#A2B3AF"/>
<path d="M157.66 13.39C157.662 13.4639 157.684 13.5358 157.723 13.5988C157.761 13.6619 157.815 13.714 157.88 13.75C157.892 13.7041 157.892 13.6559 157.88 13.61C157.877 13.5337 157.854 13.4594 157.814 13.3945C157.773 13.3297 157.717 13.2764 157.65 13.24C157.633 13.2894 157.637 13.3432 157.66 13.39Z" fill="white"/>
<path d="M157.55 11.49C157.554 11.5663 157.576 11.6406 157.614 11.7067C157.652 11.7727 157.706 11.8288 157.77 11.87C157.785 11.8782 157.801 11.8828 157.818 11.8836C157.835 11.8844 157.852 11.8813 157.867 11.8745C157.883 11.8677 157.897 11.8575 157.907 11.8446C157.918 11.8317 157.926 11.8164 157.93 11.8C157.94 11.7539 157.94 11.7061 157.93 11.66C157.927 11.5837 157.904 11.5094 157.864 11.4446C157.824 11.3797 157.767 11.3264 157.7 11.29C157.55 11.27 157.55 11.35 157.55 11.49Z" fill="#A2B3AF"/>
<path d="M157.66 11.42C157.661 11.4954 157.683 11.569 157.721 11.6338C157.76 11.6986 157.814 11.7524 157.88 11.79C157.89 11.7439 157.89 11.6961 157.88 11.65C157.877 11.5737 157.854 11.4994 157.814 11.4346C157.773 11.3697 157.717 11.3164 157.65 11.28C157.638 11.3265 157.641 11.3757 157.66 11.42Z" fill="white"/>
<path d="M157.55 9.53011C157.552 9.60546 157.573 9.67905 157.612 9.74384C157.65 9.80863 157.705 9.86244 157.77 9.9001C157.784 9.90678 157.8 9.91053 157.816 9.91112C157.832 9.91171 157.848 9.90915 157.863 9.90357C157.877 9.89798 157.891 9.8895 157.903 9.8786C157.914 9.86771 157.924 9.85462 157.93 9.84011C157.94 9.79401 157.94 9.7462 157.93 9.70011C157.928 9.62354 157.906 9.54886 157.865 9.48381C157.825 9.41876 157.768 9.36571 157.7 9.33011C157.55 9.30011 157.55 9.39011 157.55 9.53011Z" fill="#A2B3AF"/>
<path d="M157.66 9.46007C157.663 9.53501 157.685 9.6079 157.724 9.67239C157.762 9.73689 157.816 9.79102 157.88 9.83008C157.89 9.78398 157.89 9.73617 157.88 9.69008C157.878 9.61351 157.855 9.53883 157.815 9.47379C157.774 9.40874 157.717 9.35567 157.65 9.32007C157.638 9.36658 157.641 9.41574 157.66 9.46007Z" fill="white"/>
<path d="M157.55 7.62C157.554 7.69494 157.576 7.76783 157.614 7.83232C157.652 7.89681 157.706 7.95094 157.77 7.98999C157.785 7.99816 157.801 8.00281 157.818 8.00359C157.835 8.00437 157.852 8.00126 157.867 7.99449C157.883 7.98773 157.897 7.97747 157.907 7.96456C157.918 7.95164 157.926 7.9364 157.93 7.92C157.942 7.87409 157.942 7.82591 157.93 7.78C157.927 7.70367 157.904 7.62941 157.864 7.56453C157.824 7.49966 157.767 7.44639 157.7 7.40999C157.55 7.33999 157.55 7.43 157.55 7.62Z" fill="#A2B3AF"/>
<path d="M157.66 7.50011C157.664 7.57505 157.686 7.64793 157.724 7.71242C157.762 7.77691 157.816 7.83105 157.88 7.8701C157.892 7.82419 157.892 7.77602 157.88 7.7301C157.877 7.65377 157.854 7.57951 157.814 7.51463C157.774 7.44976 157.717 7.39651 157.65 7.36011C157.636 7.40645 157.64 7.45618 157.66 7.50011Z" fill="white"/>
<path d="M157.55 5.6201C157.554 5.69638 157.576 5.77064 157.614 5.83673C157.652 5.90282 157.706 5.95884 157.77 6.00011C157.785 6.00827 157.801 6.01292 157.818 6.0137C157.835 6.01448 157.852 6.01136 157.867 6.00459C157.883 5.99782 157.897 5.98759 157.907 5.97467C157.918 5.96175 157.926 5.9465 157.93 5.9301C157.941 5.88409 157.941 5.83611 157.93 5.7901C157.927 5.71377 157.904 5.63951 157.864 5.57463C157.824 5.50976 157.767 5.45651 157.7 5.42011C157.55 5.38011 157.55 5.4601 157.55 5.6201Z" fill="#A2B3AF"/>
<path d="M157.66 5.53001C157.661 5.60537 157.683 5.67895 157.721 5.74374C157.76 5.80853 157.814 5.86234 157.88 5.90001C157.891 5.854 157.891 5.80602 157.88 5.76001C157.877 5.68368 157.854 5.60942 157.814 5.54454C157.773 5.47967 157.717 5.42642 157.65 5.39001C157.638 5.43652 157.641 5.48569 157.66 5.53001Z" fill="white"/>
<path d="M157.55 3.62007C157.552 3.69542 157.573 3.76902 157.612 3.8338C157.65 3.89859 157.705 3.95241 157.77 3.99007C157.784 3.99675 157.8 4.00049 157.816 4.00109C157.832 4.00168 157.848 3.99912 157.863 3.99353C157.877 3.98795 157.891 3.97947 157.903 3.96857C157.914 3.95768 157.924 3.94458 157.93 3.93007C157.94 3.88397 157.94 3.83616 157.93 3.79007C157.928 3.7135 157.906 3.63883 157.865 3.57378C157.825 3.50873 157.768 3.45567 157.7 3.42007C157.55 3.41007 157.55 3.50007 157.55 3.62007Z" fill="#A2B3AF"/>
<path d="M157.66 3.6201C157.661 3.69545 157.683 3.76905 157.721 3.83384C157.76 3.89863 157.814 3.95244 157.88 3.9901C157.89 3.94401 157.89 3.8962 157.88 3.85011C157.878 3.77354 157.855 3.69887 157.815 3.63382C157.774 3.56877 157.717 3.5157 157.65 3.4801C157.638 3.52661 157.641 3.57578 157.66 3.6201Z" fill="white"/>
<path d="M157.55 1.68001C157.554 1.75495 157.576 1.82784 157.614 1.89234C157.652 1.95683 157.706 2.01096 157.77 2.05001C157.785 2.05818 157.801 2.06283 157.818 2.06361C157.835 2.06439 157.852 2.06128 157.867 2.05451C157.883 2.04774 157.897 2.03749 157.907 2.02458C157.918 2.01166 157.926 1.99641 157.93 1.98001C157.942 1.9341 157.942 1.88593 157.93 1.84001C157.926 1.76517 157.903 1.69257 157.863 1.62943C157.823 1.56628 157.766 1.51478 157.7 1.48001C157.55 1.45001 157.55 1.54001 157.55 1.68001Z" fill="#A2B3AF"/>
<path d="M157.66 1.61999C157.663 1.69493 157.685 1.76781 157.724 1.83231C157.762 1.8968 157.815 1.95094 157.88 1.98999C157.891 1.94408 157.891 1.8959 157.88 1.84999C157.876 1.77515 157.853 1.70255 157.812 1.6394C157.772 1.57626 157.716 1.52475 157.65 1.48999C157.639 1.53329 157.642 1.57881 157.66 1.61999Z" fill="white"/>
<path d="M152.2 12.3401V0.900048C152.198 0.743429 152.237 0.588993 152.314 0.452683C152.392 0.316374 152.504 0.203131 152.639 0.12465C152.775 0.0461685 152.929 0.00529263 153.086 0.00624175C153.242 0.00719086 153.396 0.0499332 153.53 0.130052L161.33 4.64005C161.632 4.80731 161.884 5.0521 162.06 5.34918C162.236 5.64625 162.329 5.98487 162.33 6.33006V17.96C162.331 18.1114 162.292 18.2604 162.217 18.3919C162.142 18.5233 162.033 18.6326 161.903 18.7087C161.772 18.7848 161.623 18.8251 161.472 18.8253C161.32 18.8255 161.171 18.7858 161.04 18.71L153.32 14.2501C152.981 14.0591 152.699 13.7817 152.503 13.4462C152.306 13.1107 152.201 12.729 152.2 12.3401Z" fill="#A2B3AF"/>
<path d="M151.99 12.52V1.07C151.99 0.9131 152.031 0.758888 152.109 0.622994C152.188 0.4871 152.301 0.374353 152.437 0.296181C152.573 0.218009 152.727 0.177194 152.884 0.177865C153.041 0.178535 153.195 0.220671 153.33 0.300004L161.13 4.81001C161.428 4.98192 161.677 5.22778 161.852 5.52383C162.027 5.81987 162.123 6.1561 162.13 6.50001V18.14C162.129 18.2906 162.089 18.4383 162.013 18.5683C161.937 18.6984 161.829 18.8063 161.698 18.8812C161.567 18.9561 161.419 18.9954 161.269 18.9952C161.118 18.995 160.97 18.9553 160.84 18.88L153.12 14.43C152.781 14.238 152.499 13.9606 152.301 13.6256C152.102 13.2905 151.995 12.9093 151.99 12.52Z" fill="#F4FAFC"/>
<path d="M160.83 5.34C161.032 5.45883 161.199 5.62846 161.315 5.83199C161.431 6.03552 161.491 6.26584 161.49 6.5V17.98C161.491 18.0376 161.476 18.0942 161.447 18.1442C161.419 18.1943 161.378 18.2361 161.328 18.2654C161.279 18.2947 161.223 18.3105 161.165 18.3113C161.107 18.3122 161.051 18.2979 161 18.27L153.49 13.94C153.222 13.7875 152.999 13.5663 152.844 13.2992C152.69 13.0321 152.609 12.7286 152.61 12.42V1.16C152.61 1.10244 152.625 1.04582 152.653 0.99576C152.682 0.9457 152.723 0.903936 152.772 0.874621C152.822 0.845305 152.878 0.829457 152.936 0.828646C152.993 0.827835 153.05 0.84209 153.1 0.869997L160.83 5.34Z" fill="#3A8ABF"/>
<path d="M160.02 9.26009C160.071 9.64562 160.039 10.0375 159.927 10.4098C159.815 10.7821 159.625 11.1265 159.37 11.4201C158.93 11.7701 158.31 11.7301 157.49 11.3001L155.08 10.0501V13.7601L153.57 12.9701V2.72009L157.66 4.8601C158.441 5.28261 159.08 5.92454 159.5 6.70654C159.919 7.48853 160.1 8.3763 160.02 9.26009ZM155.08 8.3901L157.4 9.60009C157.77 9.79009 158.04 9.81009 158.22 9.65009C158.448 9.32405 158.544 8.92411 158.49 8.5301C158.509 8.07351 158.424 7.6186 158.24 7.2001C158.081 6.8605 157.813 6.58288 157.48 6.41009L155.08 5.16009V8.3901Z" fill="#F4FAFC"/>
<path d="M152.2 20.3V16.55C152.214 16.3897 152.266 16.235 152.352 16.0992C152.439 15.9633 152.557 15.8504 152.696 15.7699C152.836 15.6894 152.992 15.6437 153.153 15.6368C153.314 15.6299 153.474 15.6619 153.62 15.7301L161.33 20.2001C161.628 20.372 161.876 20.6178 162.052 20.9139C162.227 21.2099 162.323 21.5461 162.33 21.8901V25.6801C162.331 25.8407 162.289 25.9987 162.209 26.138C162.129 26.2773 162.014 26.393 161.875 26.4732C161.735 26.5534 161.577 26.5954 161.417 26.5949C161.256 26.5943 161.099 26.5513 160.96 26.4701L153.19 21.99C152.894 21.8169 152.647 21.5705 152.474 21.2745C152.301 20.9786 152.206 20.643 152.2 20.3Z" fill="#A2B3AF"/>
<path d="M151.99 20.26V16.73C152.003 16.5683 152.056 16.4122 152.142 16.2752C152.229 16.1383 152.348 16.0245 152.489 15.9438C152.63 15.8631 152.788 15.8178 152.95 15.8119C153.113 15.8061 153.274 15.8397 153.42 15.91L161.13 20.38C161.43 20.5464 161.681 20.7897 161.857 21.0848C162.033 21.38 162.127 21.7165 162.13 22.06V25.85C162.129 26.0109 162.085 26.1687 162.004 26.3077C161.923 26.4466 161.807 26.5618 161.667 26.6417C161.527 26.7217 161.369 26.7636 161.208 26.7633C161.047 26.763 160.889 26.7205 160.75 26.64L153.17 22.27C152.814 22.0681 152.518 21.776 152.311 21.4232C152.103 21.0703 151.993 20.6692 151.99 20.26Z" fill="#F4FAFC"/>
<path d="M161.16 26.4301C161.33 26.4301 161.493 26.3626 161.613 26.2426C161.733 26.1226 161.8 25.9598 161.8 25.7901V22.0601C161.8 21.7722 161.724 21.4895 161.58 21.2402C161.436 20.991 161.229 20.784 160.98 20.6401L153.26 16.1701C153.163 16.1115 153.053 16.0804 152.94 16.0801C152.77 16.0801 152.607 16.1475 152.487 16.2675C152.367 16.3875 152.3 16.5503 152.3 16.7201V20.2301C152.298 20.5894 152.389 20.9432 152.564 21.2569C152.739 21.5706 152.993 21.8335 153.3 22.0201L160.82 26.3401C160.912 26.3999 161.02 26.4311 161.13 26.4301H161.16Z" fill="#555D69"/>
<path d="M160.83 20.9101C161.031 21.0273 161.198 21.1952 161.314 21.397C161.43 21.5988 161.491 21.8274 161.49 22.0601V25.7901C161.491 25.8476 161.476 25.9043 161.448 25.9543C161.419 26.0044 161.378 26.0461 161.329 26.0754C161.279 26.1048 161.223 26.1206 161.165 26.1214C161.108 26.1222 161.051 26.108 161 26.0801L153.49 21.7501C153.222 21.5975 152.999 21.3764 152.845 21.1093C152.69 20.8422 152.609 20.5387 152.61 20.2301V16.7201C152.609 16.6622 152.623 16.6049 152.651 16.5544C152.68 16.5039 152.721 16.462 152.772 16.4333C152.822 16.4045 152.879 16.39 152.937 16.3912C152.995 16.3924 153.051 16.4093 153.1 16.4401L160.83 20.9101Z" fill="#F4FAFC"/>
<path d="M160.55 23.6201C160.46 24.6201 159.76 24.9201 158.99 24.3101C158.58 23.9478 158.256 23.4985 158.041 22.9951C157.827 22.4917 157.727 21.9468 157.75 21.4001C157.84 20.4001 158.54 20.1001 159.31 20.7101C159.719 21.0729 160.043 21.5222 160.258 22.0255C160.472 22.5288 160.572 23.0735 160.55 23.6201Z" fill="#F4FAFC"/>
<path d="M159.71 24.7501C159.408 24.7273 159.12 24.6081 158.89 24.4101C158.47 24.035 158.138 23.5714 157.919 23.0527C157.699 22.5339 157.597 21.9729 157.62 21.4101C157.604 21.2029 157.652 20.9957 157.759 20.8173C157.865 20.6389 158.025 20.4981 158.215 20.4145C158.405 20.331 158.617 20.3087 158.82 20.3509C159.024 20.3931 159.209 20.4977 159.35 20.6501C159.77 21.0256 160.102 21.4893 160.321 22.0079C160.541 22.5265 160.643 23.0873 160.62 23.6501C160.621 23.8543 160.566 24.0549 160.462 24.2308C160.358 24.4067 160.209 24.5515 160.03 24.6501C159.933 24.7085 159.824 24.7428 159.71 24.7501ZM158.55 20.5201C158.471 20.5042 158.39 20.5042 158.31 20.5201C158.163 20.6119 158.043 20.7404 157.96 20.8929C157.878 21.0454 157.837 21.2168 157.84 21.3901C157.819 21.9196 157.916 22.4473 158.123 22.935C158.331 23.4226 158.644 23.8582 159.04 24.2101C159.158 24.3317 159.307 24.4192 159.471 24.4632C159.635 24.5072 159.807 24.5061 159.97 24.4601C160.117 24.3682 160.238 24.2398 160.32 24.0872C160.403 23.9347 160.444 23.7634 160.44 23.5901C160.462 23.0605 160.365 22.5328 160.157 22.0452C159.95 21.5575 159.637 21.122 159.24 20.7701C159.044 20.6143 158.801 20.5265 158.55 20.5201Z" fill="#555D69"/>
<path d="M158.07 22.21C158 23.04 157.41 23.3 156.76 22.78C156.424 22.4714 156.161 22.0929 155.988 21.6713C155.815 21.2496 155.737 20.7952 155.76 20.34C155.84 19.51 156.43 19.25 157.08 19.76C157.415 20.0702 157.678 20.4507 157.849 20.8742C158.02 21.2978 158.095 21.7539 158.07 22.21Z" fill="#F4FAFC"/>
<path d="M157.4 23.1501C157.141 23.1345 156.895 23.0324 156.7 22.8601C156.345 22.5443 156.063 22.1537 155.877 21.7162C155.69 21.2788 155.602 20.8054 155.62 20.3301C155.619 20.1512 155.666 19.9752 155.755 19.8204C155.845 19.6656 155.975 19.5377 156.13 19.4501C156.302 19.3945 156.486 19.3866 156.662 19.4271C156.838 19.4676 157 19.555 157.13 19.6801C157.483 19.998 157.763 20.3891 157.949 20.826C158.136 21.2629 158.225 21.7352 158.21 22.2101C158.214 22.3907 158.168 22.5688 158.078 22.7255C157.988 22.8822 157.858 23.0116 157.7 23.1001C157.604 23.1344 157.503 23.1514 157.4 23.1501ZM156.4 19.6001C156.338 19.5852 156.273 19.5852 156.21 19.6001C155.99 19.6901 155.86 19.9401 155.82 20.3101C155.804 20.7513 155.885 21.1906 156.058 21.5968C156.231 22.003 156.491 22.3661 156.82 22.6601C156.917 22.7621 157.04 22.8356 157.176 22.8726C157.312 22.9097 157.455 22.9088 157.59 22.8701C157.711 22.7959 157.81 22.6911 157.876 22.5664C157.943 22.4417 157.976 22.3015 157.97 22.1601C157.988 21.7173 157.908 21.276 157.735 20.8679C157.562 20.4599 157.301 20.0952 156.97 19.8001C156.803 19.6834 156.604 19.6206 156.4 19.6201V19.6001Z" fill="#555D69"/>
<path d="M155.76 20.8001C155.69 21.5201 155.18 21.7401 154.63 21.3001C154.335 21.0375 154.102 20.7133 153.946 20.3504C153.79 19.9874 153.717 19.5947 153.73 19.2001C153.8 18.4801 154.3 18.2601 154.86 18.7001C155.155 18.9626 155.389 19.2868 155.544 19.6498C155.7 20.0127 155.773 20.4054 155.76 20.8001Z" fill="#F4FAFC"/>
<path d="M155.17 21.6201C154.944 21.6081 154.729 21.52 154.56 21.3701C154.253 21.0962 154.011 20.7578 153.85 20.3792C153.689 20.0006 153.614 19.5911 153.63 19.1801C153.626 19.0226 153.666 18.8673 153.746 18.7313C153.825 18.5953 153.941 18.4841 154.08 18.4101C154.226 18.3611 154.383 18.3539 154.533 18.3893C154.684 18.4246 154.821 18.5011 154.93 18.6101C155.237 18.884 155.479 19.2224 155.64 19.601C155.801 19.9796 155.876 20.389 155.86 20.8001C155.862 20.9571 155.82 21.1116 155.741 21.2471C155.662 21.3827 155.548 21.4943 155.41 21.5701C155.334 21.6031 155.253 21.6201 155.17 21.6201ZM154.32 18.5601C154.267 18.5498 154.213 18.5498 154.16 18.5601C154.056 18.6212 153.971 18.7091 153.913 18.8147C153.855 18.9203 153.826 19.0396 153.83 19.1601C153.82 19.5359 153.891 19.9094 154.04 20.2548C154.188 20.6002 154.41 20.9091 154.69 21.1601C154.77 21.245 154.873 21.3059 154.986 21.3359C155.099 21.366 155.218 21.3639 155.33 21.3301C155.434 21.2694 155.518 21.1812 155.575 21.0753C155.631 20.9694 155.657 20.8499 155.65 20.7301C155.665 20.3546 155.597 19.9804 155.45 19.6346C155.303 19.2887 155.081 18.9798 154.8 18.7301C154.656 18.6438 154.488 18.6054 154.32 18.6201V18.5601Z" fill="#555D69"/>
<path d="M156.68 22.0201L156.46 21.8801V20.9801C156.46 20.8801 156.46 20.7701 156.46 20.6501L156.31 20.7501L156.19 20.5001L156.51 20.3201L156.71 20.4501L156.68 22.0201Z" fill="#555D69"/>
<path d="M157.27 21.4301C157.371 21.4852 157.449 21.5736 157.49 21.6801C157.548 21.7984 157.575 21.9288 157.57 22.0601C157.57 22.2301 157.57 22.3401 157.47 22.3901C157.37 22.4401 157.31 22.3901 157.19 22.3901C157.094 22.3253 157.009 22.244 156.94 22.1501V21.8801C156.967 21.9312 157.001 21.9784 157.04 22.0201L157.17 22.1301C157.29 22.2034 157.35 22.1534 157.35 21.9801C157.356 21.9094 157.342 21.8385 157.31 21.7751C157.279 21.7116 157.23 21.6581 157.17 21.6201L157.03 21.5701L156.96 21.4501V20.7101L157.48 21.0301V21.2901L157.15 21.0801V21.4001L157.27 21.4301Z" fill="#555D69"/>
<path d="M159.07 23.45L158.33 22.99V22.75L158.57 22.46L158.71 22.28C158.734 22.2353 158.754 22.1884 158.77 22.14C158.776 22.0902 158.776 22.0399 158.77 21.99C158.782 21.934 158.782 21.876 158.77 21.82C158.748 21.7776 158.717 21.7402 158.68 21.71H158.58L158.48 21.77L158.33 21.49C158.381 21.4402 158.449 21.4116 158.52 21.41C158.584 21.4131 158.647 21.4339 158.7 21.47C158.813 21.5388 158.904 21.6398 158.96 21.76C159.029 21.8818 159.064 22.0201 159.06 22.16C159.066 22.2199 159.066 22.2802 159.06 22.34C159.048 22.3914 159.031 22.4416 159.01 22.49C158.987 22.5378 158.957 22.5816 158.92 22.62C158.837 22.7197 158.747 22.8133 158.65 22.9L159.11 23.18L159.07 23.45Z" fill="#555D69"/>
<path d="M159.98 23.1401C159.998 23.3542 159.967 23.5696 159.89 23.7701C159.83 23.8801 159.73 23.8901 159.6 23.7701C159.457 23.6817 159.353 23.5422 159.31 23.3801C159.241 23.1398 159.21 22.89 159.22 22.6401C159.204 22.426 159.235 22.2111 159.31 22.0101C159.37 21.9101 159.47 21.9001 159.6 22.0101C159.74 22.1013 159.843 22.2396 159.89 22.4001C159.959 22.6404 159.99 22.8902 159.98 23.1401ZM159.48 22.8301C159.471 23 159.471 23.1702 159.48 23.3401C159.482 23.377 159.492 23.4131 159.509 23.4459C159.527 23.4786 159.551 23.5074 159.58 23.5301C159.58 23.5301 159.63 23.5301 159.65 23.5301C159.662 23.4775 159.662 23.4227 159.65 23.3701C159.657 23.2435 159.657 23.1166 159.65 22.9901C159.665 22.8237 159.665 22.6564 159.65 22.4901C159.647 22.4142 159.615 22.3424 159.56 22.2901C159.51 22.2901 159.48 22.2901 159.46 22.3701C159.458 22.5237 159.464 22.6773 159.48 22.8301Z" fill="#555D69"/>
<path d="M154.55 20.6801L154.35 20.5601V19.7701C154.35 19.6801 154.35 19.5801 154.35 19.4801L154.23 19.5701L154.12 19.3501L154.4 19.1901L154.58 19.3L154.55 20.6801Z" fill="#555D69"/>
<path d="M155.28 20.9901C155.341 20.8343 155.365 20.6666 155.35 20.5001C155.359 20.3042 155.335 20.1083 155.28 19.9201C155.245 19.7997 155.167 19.6964 155.06 19.6301C154.96 19.5401 154.84 19.5501 154.84 19.6301C154.779 19.7856 154.755 19.9535 154.77 20.1201C154.762 20.3126 154.786 20.5052 154.84 20.6901C154.872 20.8147 154.951 20.9221 155.06 20.9901C155.16 21.0701 155.28 21.0701 155.28 20.9901Z" fill="#555D69"/>
</g>
<defs>
<linearGradient id="paint0_linear_17_942" x1="51.7904" y1="22.75" x2="100.73" y2="62.24" gradientUnits="userSpaceOnUse">
<stop offset="0.05" stop-color="#B4B2BF"/>
<stop offset="0.32" stop-color="#B0AEBB"/>
<stop offset="0.59" stop-color="#A3A1AF"/>
<stop offset="0.87" stop-color="#8E8C9C"/>
<stop offset="1" stop-color="#828091"/>
</linearGradient>
<linearGradient id="paint1_linear_17_942" x1="84.7052" y1="78.3069" x2="90.1452" y2="68.8413" gradientUnits="userSpaceOnUse">
<stop offset="0.16" stop-color="#3C4851"/>
<stop offset="0.56" stop-color="#556773"/>
<stop offset="0.87" stop-color="#51626E"/>
</linearGradient>
<linearGradient id="paint2_linear_17_942" x1="90.7697" y1="79.1" x2="94.6197" y2="72.43" gradientUnits="userSpaceOnUse">
<stop offset="0.16" stop-color="#E3E3E3"/>
<stop offset="0.56" stop-color="#CCCCCC"/>
<stop offset="0.87" stop-color="#B7B7B7"/>
</linearGradient>
<linearGradient id="paint3_linear_17_942" x1="121.574" y1="56.9283" x2="127.014" y2="47.4627" gradientUnits="userSpaceOnUse">
<stop offset="0.16" stop-color="#3C4851"/>
<stop offset="0.56" stop-color="#556773"/>
<stop offset="0.87" stop-color="#51626E"/>
</linearGradient>
<linearGradient id="paint4_linear_17_942" x1="127.55" y1="57.87" x2="131.4" y2="51.2" gradientUnits="userSpaceOnUse">
<stop offset="0.16" stop-color="#E3E3E3"/>
<stop offset="0.56" stop-color="#CCCCCC"/>
<stop offset="0.87" stop-color="#B7B7B7"/>
</linearGradient>
<linearGradient id="paint5_linear_17_942" x1="138.28" y1="32.35" x2="157.31" y2="43.33" gradientUnits="userSpaceOnUse">
<stop offset="0.05" stop-color="#D9D9D9"/>
<stop offset="0.25" stop-color="#D5D5D6"/>
<stop offset="0.45" stop-color="#C8C8CB"/>
<stop offset="0.66" stop-color="#B4B3BA"/>
<stop offset="0.87" stop-color="#9795A2"/>
<stop offset="1" stop-color="#828091"/>
</linearGradient>
<clipPath id="clip0_17_942">
<rect width="218.07" height="132.45" fill="white"/>
</clipPath>
</defs>
</svg>
