<?xml version="1.0" encoding="UTF-8"?>
<svg width="380" height="302" viewBox="0 0 380 302" fill="none" xmlns="http://www.w3.org/2000/svg">
<path d="M123.098 77.141V74.9124C107.243 70.2245 90.5346 70.2245 74.6797 74.9124V77.141H123.098Z" fill="#595959"/>
<path d="M149.219 107.799C149.054 100.912 146.874 94.2233 142.949 88.5619C142.253 88.7077 141.534 88.7013 140.841 88.5432C140.148 88.385 139.498 88.0789 138.934 87.6458L127.099 78.9781C126.489 78.5482 125.979 77.9924 125.602 77.348C125.225 76.7037 124.991 75.9859 124.916 75.2433L123.154 74.6797H74.6188L72.9282 75.2433C72.8397 75.9824 72.6002 76.6954 72.2245 77.3379C71.8488 77.9804 71.345 78.5387 70.7444 78.9781L58.9099 87.6458C58.3333 88.0806 57.6705 88.3871 56.9659 88.5451C56.2613 88.7031 55.5311 88.7089 54.8241 88.5619C50.9428 94.245 48.7674 100.92 48.5547 107.799C45.5256 134.225 50.668 175.731 50.5271 185.948C49.8931 240.491 49.4 273.681 53.063 285.167C53.9235 287.508 55.5994 289.46 57.7828 290.664C58.3835 290.401 59.0294 290.258 59.6847 290.241C63.9114 290.241 65.9542 292.989 70.6035 292.214C73.703 291.721 74.7597 294.258 75.1119 296.019C77.8592 296.513 80.677 296.795 83.2834 297.076C83.4902 296.758 83.7716 296.496 84.1031 296.311C84.4346 296.127 84.8062 296.027 85.1854 296.019H112.588C112.967 296.027 113.339 296.127 113.67 296.311C114.002 296.496 114.283 296.758 114.49 297.076L120.548 296.372C120.9 294.54 121.816 291.65 125.127 292.214C129.776 292.989 132.171 290.241 136.046 290.241C136.562 290.22 137.077 290.303 137.561 290.485C138.045 290.666 138.488 290.943 138.863 291.298C141.557 290.101 143.68 287.902 144.781 285.167C148.373 273.681 147.951 240.491 147.246 185.948C146.894 175.731 152.318 134.225 149.219 107.799Z" fill="#EA3E10"/>
<g style="mix-blend-mode:screen">
<path d="M127.201 235.675C127.182 243.031 124.236 250.079 119.008 255.28C113.779 260.481 106.693 263.411 99.2987 263.43C91.9043 263.411 84.8182 260.481 79.5896 255.28C74.361 250.079 71.4153 243.031 71.3965 235.675V182.858C71.3965 179.213 72.1182 175.604 73.5204 172.237C74.9226 168.869 76.9779 165.81 79.5689 163.232C82.1598 160.655 85.2357 158.611 88.621 157.216C92.0062 155.821 95.6345 155.104 99.2987 155.104C106.699 155.104 113.796 158.028 119.028 163.232C124.261 168.437 127.201 175.497 127.201 182.858V235.675Z" fill="#333333"/>
</g>
<path d="M140.111 135.084C139.314 134.185 138.285 133.523 137.136 133.172C131.502 130.739 125.642 128.865 119.642 127.577C105.914 124.887 91.7944 124.887 78.0666 127.577C72.0693 128.877 66.2109 130.751 60.5724 133.172C59.4235 133.523 58.394 134.185 57.5976 135.084C57.3945 136.208 57.3945 137.36 57.5976 138.484L62.8388 168.654L63.4763 172.337C68.7274 169.908 74.3146 168.285 80.0497 167.521C92.388 166.246 104.825 166.246 117.163 167.521C122.874 168.291 128.437 169.915 133.666 172.337L134.303 168.654L140.111 138.555C140.111 138.555 140.607 135.793 140.111 135.084Z" fill="black"/>
<path d="M132.149 250.958C132.149 249.668 131.587 248.306 131.235 247.017L129.829 247.662C120.022 251.105 109.679 252.683 99.3124 252.319C88.9561 252.436 78.6499 250.839 68.7959 247.59L67.3896 247.017C67.3896 248.306 66.7568 249.596 66.4755 250.886C64.909 258.951 64.4593 267.201 65.1396 275.393C70.5739 277.672 76.231 279.353 82.015 280.409C93.4802 281.842 105.074 281.842 116.539 280.409C122.348 279.359 128.029 277.678 133.485 275.393C134.124 267.224 133.675 259.004 132.149 250.958Z" fill="black"/>
<path d="M56.0667 203.578L63.1909 205.983L61.9798 174.791L55.283 137.869C54.8848 145.55 54.8848 153.247 55.283 160.928C55.283 169.486 56.6366 181.298 56.6366 189.22C56.6366 197.142 56.2804 201.103 56.0667 203.578Z" fill="black"/>
<path d="M141.752 203.578L134.588 205.983L135.806 174.791L142.54 137.869C142.54 137.869 143.113 147.347 142.54 160.928C142.54 169.486 141.107 181.298 141.179 189.22C141.25 197.142 141.465 201.174 141.752 203.578Z" fill="black"/>
<path d="M56.1011 205.983L63.2273 209.006L64.0112 234.879C63.2572 237.841 62.1321 240.698 60.6619 243.386C59.4283 246.148 57.8482 248.746 55.9586 251.119C55.9586 251.119 55.531 215.686 56.1011 205.983Z" fill="black"/>
<path d="M142.422 205.983L134.829 209.042L133.766 235.507C134.569 238.504 135.768 241.395 137.334 244.114C138.686 246.906 140.394 249.534 142.422 251.94C142.422 251.94 143.257 215.801 142.422 205.983Z" fill="black"/>
<path d="M59.0589 87.6306L70.861 79.1529C71.4599 78.7232 71.9624 78.1771 72.337 77.5487C72.7117 76.9203 72.9505 76.2229 73.0387 75.5C70.0026 76.4785 67.1537 77.946 64.6087 79.8422C61.0926 82.3902 57.8659 85.3017 54.9844 88.5266C55.6894 88.6704 56.4176 88.6647 57.1203 88.5102C57.8229 88.3557 58.4839 88.0559 59.0589 87.6306Z" fill="#E08A35"/>
<path d="M126.925 79.1533L138.773 87.6318C139.337 88.0555 139.989 88.3549 140.682 88.5096C141.376 88.6643 142.096 88.6706 142.793 88.5279C139.918 85.2859 136.676 82.3722 133.131 79.8426C130.611 77.9317 127.772 76.4623 124.738 75.5C124.814 76.2264 125.048 76.9285 125.425 77.5588C125.803 78.189 126.314 78.7328 126.925 79.1533Z" fill="#E08A35"/>
<path d="M71.0157 292.472C66.3921 293.243 64.0102 290.511 60.1571 290.511C59.5054 290.527 58.863 290.67 58.2656 290.931C63.622 293.779 69.4699 295.586 75.4993 296.255C75.149 294.504 74.0982 291.772 71.0157 292.472Z" fill="#93091A"/>
<path d="M125.15 292.626C121.887 292.023 120.984 295.115 120.637 297.076C126.894 296.389 132.999 294.553 138.691 291.645C138.321 291.265 137.885 290.969 137.408 290.775C136.931 290.581 136.423 290.492 135.913 290.514C131.747 290.514 129.733 293.456 125.15 292.626Z" fill="#93091A"/>
<g style="mix-blend-mode:multiply">
<path d="M103.385 290.485C115.609 290.803 127.725 288.079 138.69 282.548L133.747 276.56C122.809 282.109 110.628 284.598 98.4423 283.775C86.2576 284.588 74.0789 282.099 63.1377 276.56L58.2656 282.548C69.2282 288.085 81.3458 290.809 93.5702 290.485H102.396H103.385Z" fill="#414C5C"/>
</g>
<path d="M156.489 147.661C153.579 146.128 150.494 144.922 147.296 144.066C146.986 143.964 146.649 143.964 146.34 144.066C145.898 141.036 142.147 140.331 142.147 140.331C141.914 143.687 141.914 147.054 142.147 150.409C142.147 153.581 144.427 150.832 145.604 147.801L156.489 150.409C156.547 150.154 156.547 149.889 156.489 149.634C156.657 149.33 156.744 148.991 156.744 148.647C156.744 148.303 156.657 147.965 156.489 147.661Z" fill="#595959"/>
<path d="M55.6327 139.511C55.6327 139.511 51.6631 140.222 51.1485 143.207H50.4869C47.2776 144.068 44.1911 145.309 41.2979 146.904C41.1241 147.222 41.0332 147.576 41.0332 147.935C41.0332 148.295 41.1241 148.648 41.2979 148.966V149.606L51.9571 147.047C53.2068 150.032 55.5592 152.734 55.6327 149.606C55.8624 146.244 55.8624 142.872 55.6327 139.511Z" fill="#595959"/>
<path d="M112.991 296.256H85.6077C85.2288 296.263 84.8575 296.36 84.5262 296.538C84.1949 296.715 83.9137 296.969 83.707 297.276C92.2952 298.023 99.3346 297.887 99.3346 297.887C99.3346 297.887 106.374 297.888 114.892 297.276C114.685 296.969 114.404 296.715 114.073 296.538C113.741 296.36 113.37 296.263 112.991 296.256Z" fill="#595959"/>
<path d="M303.641 75.5001V73.6304C287.785 69.5581 271.078 69.5581 255.223 73.6304V75.5001H303.641Z" fill="#595959"/>
<path d="M329.772 107.147C329.527 100.152 327.259 93.379 323.243 87.6526C322.545 87.8288 321.816 87.8444 321.111 87.6981C320.405 87.5518 319.742 87.2476 319.171 86.8081L307.376 78.1514C306.777 77.7126 306.275 77.155 305.901 76.5133C305.526 75.8716 305.288 75.1595 305.2 74.4213L303.515 73.8584H255.071L253.386 74.4213C253.298 75.1595 253.059 75.8716 252.684 76.5133C252.31 77.155 251.808 77.7126 251.209 78.1514L239.414 86.8081C238.843 87.2476 238.18 87.5518 237.475 87.6981C236.77 87.8444 236.04 87.8288 235.342 87.6526C231.465 93.3502 229.296 100.042 229.094 106.936C226.075 133.328 231.2 174.781 231.13 184.986C230.428 239.459 230.006 272.608 233.587 284.08C234.476 286.403 236.171 288.327 238.361 289.499C238.963 289.371 239.585 289.371 240.187 289.499C244.399 289.499 246.435 292.243 251.139 291.469C254.158 290.977 255.211 293.51 255.562 295.27C258.3 295.692 261.109 296.044 263.706 296.255C263.935 295.949 264.232 295.701 264.573 295.53C264.914 295.359 265.291 295.27 265.672 295.27H292.913C293.283 295.28 293.645 295.375 293.973 295.545C294.301 295.716 294.587 295.959 294.809 296.255L300.917 295.622C300.917 293.792 302.181 290.906 305.41 291.469C310.044 292.243 312.431 289.499 316.292 289.499C316.819 289.468 317.346 289.546 317.841 289.728C318.336 289.91 318.788 290.191 319.171 290.554C321.813 289.321 323.893 287.134 324.998 284.431C328.579 272.96 328.158 239.811 327.456 185.338C327.666 174.993 332.791 133.539 329.772 107.147Z" fill="#0083CB"/>
<path d="M329.772 107.147C329.527 100.152 327.259 93.379 323.243 87.6526C322.545 87.8288 321.816 87.8444 321.111 87.6981C320.405 87.5518 319.742 87.2476 319.171 86.8081L307.376 78.1514C306.777 77.7126 306.275 77.155 305.901 76.5133C305.526 75.8716 305.288 75.1595 305.2 74.4213L303.515 73.8584H255.071L253.386 74.4213C253.298 75.1595 253.059 75.8716 252.684 76.5133C252.31 77.155 251.808 77.7126 251.209 78.1514L239.414 86.8081C238.843 87.2476 238.18 87.5518 237.475 87.6981C236.77 87.8444 236.04 87.8288 235.342 87.6526C231.465 93.3502 229.296 100.042 229.094 106.936C226.075 133.328 231.2 174.781 231.13 184.986C230.428 239.459 230.006 272.608 233.587 284.08C234.476 286.403 236.171 288.327 238.361 289.499C238.963 289.371 239.585 289.371 240.187 289.499C244.399 289.499 246.435 292.243 251.139 291.469C254.158 290.977 255.211 293.51 255.562 295.27C258.3 295.692 261.109 296.044 263.706 296.255C263.935 295.949 264.232 295.701 264.573 295.53C264.914 295.359 265.291 295.27 265.672 295.27H292.913C293.283 295.28 293.645 295.375 293.973 295.545C294.301 295.716 294.587 295.959 294.809 296.255L300.917 295.622C300.917 293.792 302.181 290.906 305.41 291.469C310.044 292.243 312.431 289.499 316.292 289.499C316.819 289.468 317.346 289.546 317.841 289.728C318.336 289.91 318.788 290.191 319.171 290.554C321.813 289.321 323.893 287.134 324.998 284.431C328.579 272.96 328.158 239.811 327.456 185.338C327.666 174.993 332.791 133.539 329.772 107.147Z" fill="#0083CB"/>
<g style="mix-blend-mode:screen">
<path d="M307.745 232.392C307.755 236.039 307.05 239.653 305.671 243.024C304.293 246.396 302.269 249.459 299.714 252.038C297.159 254.617 294.125 256.661 290.785 258.053C287.445 259.444 283.866 260.156 280.254 260.146C272.962 260.146 265.97 257.222 260.814 252.017C255.658 246.812 252.762 239.753 252.762 232.392V179.575C252.762 172.214 255.658 165.154 260.814 159.95C265.97 154.745 272.962 151.82 280.254 151.82C283.866 151.811 287.445 152.523 290.785 153.914C294.125 155.306 297.159 157.35 299.714 159.929C302.269 162.508 304.293 165.571 305.671 168.942C307.05 172.314 307.755 175.927 307.745 179.575V232.392Z" fill="#333333"/>
</g>
<path d="M320.755 134.293C320.755 133.654 319.477 133.086 317.773 132.375C312.163 129.899 306.31 128.018 300.308 126.763C286.523 124.065 272.346 124.065 258.562 126.763C252.56 128.018 246.706 129.899 241.096 132.375C239.392 133.086 238.398 133.654 238.114 134.293C237.831 134.933 238.114 137.632 238.114 137.632L243.368 167.894L244.078 171.516C249.326 169.119 254.901 167.514 260.621 166.757C272.988 165.478 285.455 165.478 297.823 166.757C303.563 167.523 309.16 169.127 314.436 171.516L315.075 167.894L320.329 137.632C320.329 137.632 321.181 135.004 320.755 134.293Z" fill="black"/>
<path d="M312.672 250.043C312.432 248.745 312.123 247.461 311.747 246.195L310.324 246.755C300.408 250.16 289.928 251.703 279.432 251.302C268.946 251.454 258.507 249.893 248.541 246.685L247.118 246.195C246.762 247.384 246.477 248.644 246.192 249.903C244.648 257.781 244.193 265.828 244.84 273.826C250.331 276.094 256.06 277.76 261.923 278.793C273.552 280.192 285.312 280.192 296.942 278.793C302.805 277.76 308.534 276.094 314.025 273.826C314.672 265.875 314.217 257.874 312.672 250.043Z" fill="black"/>
<path d="M236.632 202.032L243.734 204.342L242.527 173.532L235.78 137.049C235.78 137.049 235.212 146.432 235.78 159.877C236.135 168.35 237.129 180.044 237.129 187.887C237.129 195.729 236.845 199.511 236.632 202.032Z" fill="black"/>
<path d="M322.112 202.032L315.131 204.342L316.318 173.532L323.089 137.049C323.089 137.049 323.648 146.432 323.089 159.877C323.089 168.35 321.763 180.044 321.763 187.887C321.763 195.729 321.833 199.581 322.112 202.032Z" fill="black"/>
<path d="M236.733 205.163L243.779 208.116L244.554 234.058C243.805 237.009 242.717 239.863 241.313 242.566C240.059 245.325 238.474 247.921 236.592 250.299C236.592 250.299 235.958 214.865 236.733 205.163Z" fill="black"/>
<path d="M322.952 205.163L315.906 208.116L315.131 234.058C315.89 237.016 317.002 239.872 318.443 242.566C319.662 245.327 321.225 247.925 323.093 250.299C323.093 250.299 323.727 214.865 322.952 205.163Z" fill="black"/>
<path d="M239.602 86.9796L251.404 78.3836C252.003 77.9478 252.505 77.3942 252.88 76.757C253.255 76.1198 253.493 75.4127 253.582 74.6797C250.577 75.6621 247.753 77.1256 245.222 79.0125C241.713 81.5522 238.465 84.4317 235.527 87.6085C236.211 87.813 236.931 87.8628 237.636 87.7539C238.341 87.6451 239.013 87.3805 239.602 86.9796Z" fill="#E08A35"/>
<path d="M307.742 77.9681L319.544 86.9949C320.098 87.3736 320.721 87.6279 321.374 87.7416C322.027 87.8553 322.696 87.8259 323.338 87.6554C320.41 84.2426 317.162 81.1448 313.643 78.4084C311.112 76.4269 308.288 74.8901 305.283 73.8584C305.376 74.691 305.644 75.4918 306.069 76.2026C306.495 76.9134 307.066 77.5165 307.742 77.9681Z" fill="#E08A35"/>
<path d="M251.4 291.535C246.463 292.226 244.031 289.776 239.904 289.776C239.273 289.662 238.62 289.662 237.988 289.776C243.591 292.352 249.719 293.994 256.043 294.614C255.674 293.358 254.569 291.095 251.4 291.535Z" fill="#93091A"/>
<path d="M305.624 291.543C302.43 291.016 301.457 293.72 301.18 295.435C307.437 294.834 313.542 293.228 319.234 290.686C318.856 290.345 318.408 290.081 317.918 289.911C317.429 289.741 316.908 289.668 316.387 289.696C312.221 289.696 310.207 292.269 305.624 291.543Z" fill="#93091A"/>
<g style="mix-blend-mode:multiply">
<path d="M283.899 289.664C296.134 289.989 308.262 287.265 319.234 281.728L314.358 275.739C303.407 281.279 291.218 283.768 279.023 282.954C266.827 283.768 254.638 281.279 243.687 275.739L238.811 281.728C249.783 287.265 261.911 289.989 274.146 289.664H283.051H283.899Z" fill="#414C5C"/>
</g>
<path d="M337.059 146.04C334.143 144.464 331.042 143.231 327.822 142.365C327.513 142.263 327.177 142.263 326.869 142.365C326.429 139.397 322.69 138.69 322.69 138.69C322.458 142.055 322.458 145.431 322.69 148.796C322.69 151.905 324.962 149.22 326.135 146.181L337.059 148.796V148.019C337.209 147.709 337.287 147.371 337.287 147.029C337.287 146.687 337.209 146.35 337.059 146.04Z" fill="#595959"/>
<path d="M236.159 138.69C236.159 138.69 232.41 139.398 231.994 142.443C231.767 142.376 231.526 142.376 231.299 142.443C228.269 143.3 225.354 144.537 222.622 146.125C222.473 146.446 222.396 146.797 222.396 147.152C222.396 147.507 222.473 147.857 222.622 148.179V148.745L232.688 146.196C233.868 149.241 236.089 151.931 236.159 148.745C236.411 145.399 236.411 142.037 236.159 138.69Z" fill="#595959"/>
<path d="M293.534 295.435H266.221C265.839 295.435 265.461 295.521 265.119 295.687C264.777 295.853 264.479 296.094 264.25 296.391C272.838 297.143 279.878 297.074 279.878 297.074C279.878 297.074 286.917 297.074 295.435 296.391C295.213 296.103 294.926 295.867 294.597 295.702C294.268 295.536 293.905 295.445 293.534 295.435Z" fill="#595959"/>
<path d="M379.141 302H362.559V51.9137H18.293V302H1.64062V35.2881H379.141V302Z" fill="#003366"/>
<path d="M196.136 41.8535H178.902V301.18H196.136V41.8535Z" fill="#003366"/>
<path d="M378.321 0H0V16.413H378.321V0Z" fill="#003366"/>
</svg>
