<?xml version="1.0" encoding="UTF-8"?>
<svg width="45" height="83" viewBox="0 0 45 83" fill="none" xmlns="http://www.w3.org/2000/svg">
<path d="M40.5573 9.02686C37.7235 5.24106 33.7701 2.44316 29.2574 1.02971C24.7446 -0.383748 19.9015 -0.341061 15.4144 1.15172C10.9273 2.6445 7.02378 5.51164 4.25716 9.3468C1.49054 13.182 0.00112534 17.7906 1.81394e-05 22.5195C-0.00409346 25.7534 0.690814 28.95 2.03714 31.8903V31.9485C2.20117 32.2977 21.3978 70.0453 25.9271 79.0404C27.3398 81.8395 30.0595 82.9348 32.5411 81.7231C35.0227 80.5114 35.7582 77.7758 34.3401 74.8445C33.7792 73.7069 33.1972 72.5851 32.5623 71.3258L36.5095 69.331L32.7527 61.9233L28.8848 63.8811L26.1017 58.3835L30.1812 56.3358L26.2339 48.5312L22.001 50.6477C21.3819 49.4201 19.0537 44.7744 19.0537 44.7744C17.4981 41.5468 15.7626 38.245 14.1699 34.9751C12.5773 31.7051 10.5507 28.0647 9.77822 24.4773C8.59298 19.0485 12.2968 13.2069 17.0589 10.8894C18.7601 10.0669 20.6247 9.63827 22.5142 9.63535C32.6205 9.63535 38.0387 20.3977 33.6258 28.9589C31.1125 33.8269 28.4986 38.626 25.9905 43.4992H36.6365C36.9963 43.4992 38.6736 39.9224 38.9541 39.4409C39.7901 37.9752 40.6208 36.5042 41.388 35.0015C42.9625 32.0846 44.0881 28.9469 44.7268 25.6942C45.1918 22.7785 45.0622 19.7987 44.3456 16.9344C43.6291 14.07 42.3405 11.3802 40.5573 9.02686Z" fill="#F4F5F7"/>
<path d="M22.4991 28.6415C25.9094 28.6415 28.674 25.8769 28.674 22.4666C28.674 19.0563 25.9094 16.2917 22.4991 16.2917C19.0888 16.2917 16.3242 19.0563 16.3242 22.4666C16.3242 25.8769 19.0888 28.6415 22.4991 28.6415Z" fill="#00D2FF"/>
</svg>
