<?xml version="1.0" encoding="UTF-8"?>
<svg width="313" height="285" viewBox="0 0 313 285" fill="none" xmlns="http://www.w3.org/2000/svg">
<g clip-path="url(#clip0_61_830)">
<g style="mix-blend-mode:multiply">
<path opacity="0.05" d="M348.092 260.108C348.092 281.692 176.015 288.392 61.3112 281.31C-7.21434 277.07 -30.3672 268.207 -30.3672 260.108C-30.3672 252.009 -7.21434 243.146 61.3112 238.906C176.185 231.824 348.092 238.524 348.092 260.108Z" fill="#FCFCFC"/>
<path opacity="0.1" d="M341.01 260.108C341.01 280.717 176.566 287.162 66.4418 280.335C0.163742 276.095 -22.6074 267.614 -22.6074 260.108C-22.6074 252.603 0.33336 243.91 66.4418 239.881C176.566 233.181 341.01 239.5 341.01 260.108Z" fill="#FAFAFA"/>
<path opacity="0.14" d="M333.888 260.108C333.888 279.741 176.992 285.932 71.5743 279.445C7.5861 275.628 -15.1426 267.487 -15.1426 260.108C-15.1426 252.73 7.5861 244.588 71.5743 240.772C177.119 234.326 333.888 240.475 333.888 260.108Z" fill="#F7F7F7"/>
<path opacity="0.19" d="M326.764 260.109C326.764 278.767 177.67 284.661 76.5777 278.555C15.0489 274.95 -7.55273 267.105 -7.55273 260.109C-7.55273 253.112 15.0489 245.267 76.7049 241.663C177.67 235.557 326.764 241.663 326.764 260.109Z" fill="#F4F5F5"/>
<path opacity="0.24" d="M319.68 260.109C319.68 277.749 178.219 283.431 81.8338 277.707C22.4676 274.272 0.078125 266.894 0.078125 260.109C0.078125 253.324 22.3404 245.946 81.8338 242.553C178.219 236.786 319.68 242.469 319.68 260.109Z" fill="#F2F2F2"/>
<path opacity="0.29" d="M312.558 260.109C312.558 276.774 178.772 282.202 86.9661 276.816C29.7626 273.593 7.66992 266.597 7.66992 260.109C7.66992 253.621 29.7626 246.624 86.9661 243.402C178.772 238.016 312.558 243.444 312.558 260.109Z" fill="#EFEFF0"/>
<path opacity="0.33" d="M305.474 260.109C305.474 275.798 179.321 280.929 92.0952 275.926C36.9695 272.957 15.3008 266.3 15.3008 260.109C15.3008 253.918 37.1391 247.387 92.0952 244.292C179.321 239.288 305.474 244.419 305.474 260.109Z" fill="#ECEDED"/>
<path opacity="0.38" d="M298.352 260.109C298.352 274.823 179.916 279.7 97.2275 275.035C44.5612 272.279 22.8926 265.961 22.8926 260.109C22.8926 254.257 44.5612 247.939 97.2275 245.183C179.916 240.518 298.352 245.395 298.352 260.109Z" fill="#E9EAEB"/>
<path opacity="0.43" d="M291.228 260.109C291.228 273.848 180.467 278.3 102.358 274.145C51.9396 271.473 30.5254 265.664 30.5254 260.109C30.5254 254.554 51.7276 248.617 102.358 246.073C180.425 241.663 291.228 246.412 291.228 260.109Z" fill="#E7E7E8"/>
<path opacity="0.48" d="M284.147 260.109C284.147 272.83 181.02 277.07 107.491 273.254C59.3617 270.795 38.1172 265.367 38.1172 260.109C38.1172 254.851 59.3193 249.296 107.491 246.963C181.02 243.02 284.147 247.387 284.147 260.109Z" fill="#E4E5E6"/>
<path opacity="0.52" d="M277.022 260.108C277.022 271.854 181.569 275.798 112.62 272.406C66.7383 270.116 45.748 265.07 45.748 260.108C45.748 255.147 66.7383 250.143 112.577 247.853C181.569 244.249 277.022 248.362 277.022 260.108Z" fill="#E1E2E3"/>
<path opacity="0.57" d="M269.94 260.108C269.94 270.879 182.12 274.526 117.75 271.515C74.1163 269.437 53.2109 264.773 53.2109 260.108C53.2109 255.444 73.9891 250.652 117.623 248.702C182.12 245.479 269.94 249.338 269.94 260.108Z" fill="#DFE0E1"/>
<path opacity="0.62" d="M262.816 260.108C262.816 269.904 182.671 273.296 122.881 270.625C81.5369 268.759 60.9707 264.434 60.9707 260.108C60.9707 255.783 81.5369 251.288 122.881 249.592C182.671 246.751 262.816 250.143 262.816 260.108Z" fill="#DCDDDE"/>
<path opacity="0.67" d="M255.692 260.109C255.692 268.887 183.266 272.025 128.013 269.735C88.9158 268.081 68.6465 264.137 68.6465 260.109C68.6465 256.081 89.0006 251.967 128.013 250.483C183.223 247.981 255.692 251.331 255.692 260.109Z" fill="#D9DADC"/>
<path opacity="0.71" d="M248.612 260.108C248.612 267.911 183.818 270.794 133.144 268.844C96.3374 267.444 76.1953 263.84 76.1953 260.108C76.1953 256.377 96.295 252.645 133.144 251.373C183.775 249.211 248.612 252.306 248.612 260.108Z" fill="#D7D8D9"/>
<path opacity="0.76" d="M241.487 260.108C241.487 266.935 184.368 269.564 138.275 267.953C103.715 266.766 83.7852 263.713 83.7852 260.108C83.7852 256.504 103.715 253.324 138.275 252.263C184.368 250.44 241.487 253.281 241.487 260.108Z" fill="#D4D5D7"/>
<path opacity="0.81" d="M234.406 260.109C234.406 265.961 184.92 268.335 143.406 267.063C111.094 266.088 91.418 263.247 91.418 260.109C91.418 256.971 111.094 254.003 143.406 253.154C184.92 251.713 234.406 254.384 234.406 260.109Z" fill="#D1D3D4"/>
<path opacity="0.86" d="M227.281 260.108C227.281 264.985 185.47 267.147 148.536 266.214C118.514 265.451 99.0078 262.907 99.0078 260.108C99.0078 257.309 118.514 254.68 148.536 254.002C185.47 252.942 227.281 255.274 227.281 260.108Z" fill="#CED0D2"/>
<path opacity="0.9" d="M220.157 260.109C220.157 263.967 186.022 265.918 153.667 265.324C125.892 264.815 106.641 262.61 106.641 260.109C106.641 257.607 125.892 255.317 153.667 254.893C186.022 254.384 220.157 256.25 220.157 260.109Z" fill="#CCCDCF"/>
<path opacity="0.95" d="M213.075 260.108C213.075 262.992 186.572 264.73 158.797 264.349C133.355 264.094 114.23 262.229 114.23 260.108C114.23 257.988 133.27 255.868 158.797 255.868C186.572 255.444 213.075 257.225 213.075 260.108Z" fill="#C9CBCD"/>
<path d="M163.885 263.543C187.117 263.543 205.951 262.006 205.951 260.109C205.951 258.212 187.117 256.674 163.885 256.674C140.654 256.674 121.82 258.212 121.82 260.109C121.82 262.006 140.654 263.543 163.885 263.543Z" fill="#BFBFBF"/>
</g>
<path d="M241.021 149.73C250.356 134.979 255.561 117.994 256.093 100.546C256.625 83.0977 252.464 65.8266 244.045 50.5349C235.626 35.2432 223.257 22.4914 208.229 13.6102C193.201 4.72901 176.064 0.0439453 158.608 0.0439453C141.152 0.0439453 124.016 4.72901 108.988 13.6102C93.9596 22.4914 81.5906 35.2432 73.1714 50.5349C64.7522 65.8266 60.5915 83.0977 61.1234 100.546C61.6553 117.994 66.8603 134.979 76.1953 149.73C77.0434 151.044 77.5098 151.808 78.4427 153.122L158.587 258.624L238.774 152.953C239.791 151.808 240.173 151.044 241.021 149.73Z" fill="url(#paint0_linear_61_830)"/>
<path d="M158.585 21.626C143.765 21.626 129.279 26.0205 116.957 34.2537C104.635 42.487 95.031 54.1892 89.3599 67.8806C83.6887 81.572 82.2049 96.6377 85.096 111.172C87.9872 125.707 95.1234 139.058 105.602 149.537C116.081 160.016 129.432 167.152 143.967 170.043C158.502 172.935 173.567 171.451 187.259 165.78C200.95 160.108 212.652 150.505 220.886 138.183C229.119 125.861 233.513 111.374 233.513 96.5546C233.513 76.6823 225.619 57.6239 211.567 43.572C197.515 29.5202 178.457 21.626 158.585 21.626Z" fill="url(#paint1_linear_61_830)"/>
<path d="M158.585 25.4004C144.529 25.4004 130.788 29.5686 119.101 37.3778C107.414 45.1871 98.3046 56.2867 92.9255 69.273C87.5464 82.2593 86.139 96.549 88.8812 110.335C91.6235 124.121 98.3922 136.785 108.332 146.724C118.271 156.663 130.934 163.432 144.72 166.174C158.507 168.917 172.796 167.509 185.783 162.13C198.769 156.751 209.869 147.642 217.678 135.954C225.487 124.267 229.655 110.526 229.655 96.4702C229.661 87.1356 227.826 77.8915 224.257 69.2664C220.687 60.6413 215.452 52.8044 208.852 46.2038C202.251 39.6033 194.414 34.3685 185.789 30.7989C177.164 27.2293 167.92 25.3948 158.585 25.4004Z" fill="url(#paint2_radial_61_830)"/>
<path d="M160.961 57.8818C184.707 57.8818 199.125 67.5925 199.125 87.9042C199.125 109.658 183.435 119.326 162.148 119.326H151.08V152.232H133.059V57.8818H160.961ZM160.961 105.799C172.961 105.799 180.467 101.558 180.467 87.9042C180.467 76.0309 173.216 70.9424 160.961 70.9424H151.25V105.968L160.961 105.799Z" fill="url(#paint3_linear_61_830)"/>
<g style="mix-blend-mode:hard-light" opacity="0.39">
<path d="M232.496 156.557C214.775 156.427 197.323 152.216 181.493 144.25C165.663 136.285 151.882 124.778 141.219 110.625C130.555 96.4712 123.297 80.0508 120.006 62.6381C116.715 45.2253 117.481 27.2884 122.244 10.2195C133.748 5.38216 146.105 2.90204 158.585 2.92598C175.559 2.89115 192.23 7.4239 206.85 16.049C221.469 24.674 233.499 37.0737 241.678 51.9477C249.856 66.8218 253.882 83.6223 253.334 100.588C252.785 117.553 247.682 134.059 238.559 148.373L237.839 149.518L236.397 151.638L232.496 156.557Z" fill="white"/>
</g>
</g>
<defs>
<linearGradient id="paint0_linear_61_830" x1="158.629" y1="258.794" x2="158.629" y2="-4.77272e-05" gradientUnits="userSpaceOnUse">
<stop stop-color="#2E93C8"/>
<stop offset="0.03" stop-color="#2D92C7"/>
<stop offset="0.99" stop-color="#1263AB"/>
</linearGradient>
<linearGradient id="paint1_linear_61_830" x1="158.627" y1="171.441" x2="158.627" y2="21.626" gradientUnits="userSpaceOnUse">
<stop stop-color="#DEE1E3"/>
<stop offset="1" stop-color="#A3B3BC"/>
</linearGradient>
<radialGradient id="paint2_radial_61_830" cx="0" cy="0" r="1" gradientUnits="userSpaceOnUse" gradientTransform="translate(159.306 85.2754) scale(79.4234 79.4235)">
<stop stop-color="#F5F5F5"/>
<stop offset="0.34" stop-color="#F2F3F3"/>
<stop offset="0.55" stop-color="#EAEBEC"/>
<stop offset="0.72" stop-color="#DCDEE0"/>
<stop offset="0.87" stop-color="#C8CCCF"/>
<stop offset="1" stop-color="#AFB6BA"/>
</radialGradient>
<linearGradient id="paint3_linear_61_830" x1="114.019" y1="133.15" x2="185.598" y2="61.571" gradientUnits="userSpaceOnUse">
<stop offset="0.01" stop-color="#353D40"/>
<stop offset="0.74" stop-color="#0E1011"/>
<stop offset="1"/>
</linearGradient>
<clipPath id="clip0_61_830">
<rect width="313" height="285" fill="white"/>
</clipPath>
</defs>
</svg>
