<?xml version="1.0" encoding="UTF-8"?>
<svg width="116" height="91" viewBox="0 0 116 91" fill="none" xmlns="http://www.w3.org/2000/svg">
<path d="M96.8702 18.45H4.74023C3.94458 18.45 3.18154 18.766 2.61893 19.3286C2.05632 19.8913 1.74023 20.6543 1.74023 21.45V81.54H7.49023V26.16C7.49023 25.3643 7.80632 24.6012 8.36893 24.0386C8.93154 23.476 9.69458 23.16 10.4902 23.16H91.1302C91.9172 23.1731 92.6675 23.4949 93.2193 24.0561C93.7712 24.6173 94.0804 25.3729 94.0803 26.16V81.54H99.8303V21.43C99.8251 20.6447 99.5122 19.8927 98.9588 19.3355C98.4053 18.7784 97.6555 18.4604 96.8702 18.45Z" fill="#6A85BE"/>
<path d="M95.131 18.45H2.96094C2.16529 18.45 1.40224 18.766 0.83963 19.3286C0.277021 19.8913 -0.0390625 20.6543 -0.0390625 21.45V81.54H5.71094V26.16C5.71094 25.3643 6.02702 24.6012 6.58963 24.0386C7.15224 23.476 7.91529 23.16 8.71094 23.16H89.3409C90.1366 23.16 90.8997 23.476 91.4623 24.0386C92.0249 24.6012 92.3409 25.3643 92.3409 26.16V81.54H98.0909V21.43C98.0858 20.6447 97.7729 19.8927 97.2195 19.3355C96.666 18.7784 95.9162 18.4604 95.131 18.45Z" fill="#87A1D5"/>
<path d="M89.3409 23.1599H8.71094C7.91529 23.1599 7.15224 23.476 6.58963 24.0386C6.02702 24.6012 5.71094 25.3643 5.71094 26.1599V81.5399H92.2509V26.1599C92.2513 25.3796 91.9476 24.6299 91.4043 24.0698C90.861 23.5097 90.1209 23.1833 89.3409 23.1599Z" fill="#302A3D"/>
<path d="M77.8995 39.72H20.1295C19.5681 39.7252 19.0314 39.952 18.6363 40.3509C18.2412 40.7497 18.0195 41.2885 18.0195 41.85V81.52H80.0195V41.85C80.0195 41.2868 79.7965 40.7465 79.3992 40.3474C79.0019 39.9482 78.4627 39.7226 77.8995 39.72Z" fill="#1D1A29"/>
<path d="M8.71094 23.1599L20.1409 39.7199H77.9009L89.3309 23.1599H8.71094Z" fill="#3C364B"/>
<path d="M66.8692 50.45L110.449 50.45V47.6499L66.8692 47.6499V50.45Z" fill="#EEF3FB"/>
<path d="M98.1408 49.48H103.801V48.55H98.1408V49.48Z" fill="#FF6A58"/>
<path d="M90.9396 49.48H96.5996V48.55H90.9396V49.48Z" fill="#FF6A58"/>
<path d="M83.7502 49.48H89.4102V48.55H83.7502V49.48Z" fill="#FF6A58"/>
<path d="M76.5607 49.48H82.2207V48.55H76.5607V49.48Z" fill="#FF6A58"/>
<path d="M69.3693 49.48H75.0293V48.55H69.3693V49.48Z" fill="#FF6A58"/>
<path d="M103.831 81.52H115.971V77.33H103.831V81.52Z" fill="#1D1A29"/>
<path d="M102.921 81.52H115.061V77.33H102.921V81.52Z" fill="#302A3D"/>
<path d="M105.651 77.3301L111.371 81.5201H109.781L104.061 77.3301H105.651Z" fill="#15809B"/>
<path d="M86.8703 0H20.8203C19.7157 0 18.8203 0.89543 18.8203 2V11.29C18.8203 12.3946 19.7157 13.29 20.8203 13.29H86.8703C87.9749 13.29 88.8703 12.3946 88.8703 11.29V2C88.8703 0.89543 87.9749 0 86.8703 0Z" fill="#78788A"/>
<path d="M86.1398 0H20.0898C18.9853 0 18.0898 0.89543 18.0898 2V11.29C18.0898 12.3946 18.9853 13.29 20.0898 13.29H86.1398C87.2444 13.29 88.1398 12.3946 88.1398 11.29V2C88.1398 0.89543 87.2444 0 86.1398 0Z" fill="#88889B"/>
<path d="M30.4902 3.66993C30.9231 3.59793 31.3615 3.56447 31.8003 3.56994C32.3338 3.53145 32.8632 3.68778 33.2903 4.00994C33.4418 4.15134 33.5613 4.32358 33.6406 4.51506C33.72 4.70653 33.7574 4.9128 33.7502 5.11995C33.7595 5.326 33.728 5.53184 33.6577 5.72573C33.5873 5.91962 33.4795 6.09775 33.3402 6.24993C33.1227 6.45003 32.8673 6.60446 32.589 6.70408C32.3108 6.80371 32.0153 6.8465 31.7202 6.82994C31.5375 6.85156 31.353 6.85156 31.1703 6.82994V8.94993H30.4902V3.66993ZM31.1703 6.21994C31.3569 6.26405 31.5485 6.2842 31.7402 6.27993C32.5602 6.27993 33.0703 5.87994 33.0703 5.14994C33.0703 4.41994 32.5703 4.14994 31.8203 4.14994C31.6024 4.14379 31.3846 4.16054 31.1703 4.19993V6.21994Z" fill="#EFEEFF"/>
<path d="M36.5402 8.90005L36.4902 8.42004C36.3542 8.60083 36.1772 8.74678 35.9738 8.84587C35.7704 8.94496 35.5464 8.99437 35.3202 8.99005C35.171 9.00114 35.0211 8.9811 34.88 8.93118C34.7389 8.88126 34.6097 8.80256 34.5006 8.70007C34.3915 8.59758 34.3049 8.47355 34.2464 8.33583C34.1878 8.1981 34.1584 8.04971 34.1602 7.90005C34.1602 6.98005 34.9802 6.47005 36.4502 6.48005V6.40005C36.4645 6.28193 36.4519 6.16212 36.4133 6.04956C36.3748 5.93699 36.3114 5.83457 36.2277 5.74997C36.1441 5.66536 36.0424 5.60074 35.9303 5.56092C35.8182 5.52111 35.6985 5.50714 35.5802 5.52005C35.226 5.51898 34.8789 5.61963 34.5802 5.81004L34.4302 5.35005C34.8045 5.1251 35.2335 5.00747 35.6702 5.01005C36.8402 5.01005 37.1202 5.81005 37.1202 6.57005V7.99005C37.1179 8.29444 37.138 8.59859 37.1802 8.90005H36.5402ZM36.4402 6.96005C35.6902 6.96005 34.8302 7.08005 34.8302 7.82005C34.8245 7.90736 34.8373 7.99489 34.8678 8.0769C34.8982 8.15891 34.9458 8.23354 35.0072 8.29588C35.0686 8.35822 35.1424 8.40687 35.224 8.43861C35.3055 8.47035 35.3929 8.48448 35.4802 8.48005C35.68 8.47746 35.8743 8.4151 36.0383 8.30104C36.2023 8.18697 36.3283 8.0264 36.4002 7.84004C36.4145 7.7674 36.4145 7.69269 36.4002 7.62005L36.4402 6.96005Z" fill="#EFEEFF"/>
<path d="M38.2207 6.29003C38.2207 5.84003 38.2207 5.45003 38.2207 5.10003H38.8307V5.85003C38.8974 5.61675 39.0355 5.41024 39.2256 5.25956C39.4158 5.10888 39.6484 5.02161 39.8907 5.01003C39.9536 4.99959 40.0178 4.99959 40.0807 5.01003V5.66002C40.0044 5.64922 39.927 5.64922 39.8507 5.66002C39.6172 5.67476 39.3963 5.77089 39.2264 5.93168C39.0565 6.09246 38.9483 6.30773 38.9207 6.54003C38.9104 6.64645 38.9104 6.7536 38.9207 6.86002V8.86002H38.2307L38.2207 6.29003Z" fill="#EFEEFF"/>
<path d="M41.5093 6.84007L41.8493 6.41008L42.9593 5.10008H43.7993L42.3293 6.66008L43.9993 8.90009H43.1293L41.8193 7.08008L41.4693 7.47008V8.90009H40.7793V3.33008H41.4693L41.5093 6.84007Z" fill="#EFEEFF"/>
<path d="M45.4109 4.03008C45.4139 4.0882 45.4045 4.14631 45.3833 4.20051C45.3621 4.25471 45.3296 4.30379 45.288 4.34446C45.2464 4.38514 45.1966 4.41647 45.1419 4.43641C45.0872 4.45635 45.0289 4.46443 44.9709 4.46009C44.9149 4.46011 44.8595 4.44892 44.8078 4.42719C44.7562 4.40547 44.7095 4.37363 44.6703 4.33357C44.6312 4.2935 44.6005 4.246 44.58 4.19389C44.5595 4.14177 44.5496 4.08608 44.5509 4.03008C44.5495 3.97237 44.5599 3.91498 44.5817 3.86149C44.6034 3.808 44.6359 3.75958 44.6772 3.71923C44.7185 3.67888 44.7677 3.64748 44.8216 3.62698C44.8756 3.60648 44.9332 3.59732 44.9909 3.60009C45.0473 3.59865 45.1034 3.60886 45.1557 3.63009C45.208 3.65132 45.2553 3.68311 45.2947 3.72347C45.3341 3.76384 45.3648 3.8119 45.3848 3.86466C45.4048 3.91742 45.4137 3.97373 45.4109 4.03008ZM44.6409 8.90009V5.10009H45.3309V8.90009H44.6409Z" fill="#EFEEFF"/>
<path d="M46.4707 6.1599C46.4707 5.7699 46.4707 5.4399 46.4707 5.1599H47.0907V5.7899C47.2157 5.56695 47.399 5.38218 47.621 5.25536C47.8429 5.12854 48.0951 5.06443 48.3507 5.0699C48.8807 5.0699 49.6907 5.3899 49.6907 6.6899V8.9599H49.0007V6.7699C49.0007 6.1599 48.7707 5.64991 48.1207 5.64991C47.912 5.65492 47.7101 5.72512 47.5434 5.85065C47.3766 5.97618 47.2533 6.15075 47.1907 6.3499C47.1743 6.45929 47.1743 6.57052 47.1907 6.6799V8.9599H46.4907L46.4707 6.1599Z" fill="#EFEEFF"/>
<path d="M54.1305 5.09991C54.1305 5.36991 54.1305 5.67991 54.1305 6.09991V8.3099C54.1687 8.62239 54.1393 8.93944 54.0444 9.23962C53.9496 9.53979 53.7914 9.81611 53.5805 10.0499C53.1931 10.3674 52.7007 10.528 52.2005 10.4999C51.7606 10.5093 51.3259 10.4023 50.9405 10.1899L51.1105 9.6599C51.4485 9.86253 51.8365 9.96646 52.2305 9.95991C52.9305 9.95991 53.4505 9.58991 53.4505 8.62991V8.20991C53.3207 8.41076 53.1409 8.57442 52.9288 8.68487C52.7167 8.79531 52.4795 8.84873 52.2405 8.8399C52.0104 8.83141 51.7845 8.77599 51.5766 8.67703C51.3686 8.57806 51.1831 8.43765 51.0314 8.26441C50.8797 8.09117 50.765 7.88876 50.6943 7.66959C50.6237 7.45043 50.5986 7.21913 50.6205 6.98991C50.5958 6.74522 50.621 6.49807 50.6945 6.26337C50.7679 6.02868 50.8882 5.8113 51.048 5.62438C51.2078 5.43746 51.4039 5.28487 51.6243 5.17582C51.8447 5.06677 52.085 5.00353 52.3305 4.98991C52.5709 4.9769 52.81 5.03193 53.0205 5.14867C53.231 5.26542 53.4043 5.43914 53.5206 5.64991V5.0799L54.1305 5.09991ZM53.4105 6.59991C53.4321 6.4977 53.4321 6.39212 53.4105 6.28991C53.35 6.07361 53.2185 5.88396 53.0371 5.75153C52.8557 5.61911 52.635 5.5516 52.4105 5.5599C51.7505 5.5599 51.2805 6.10991 51.2805 6.98991C51.2805 7.86991 51.6505 8.3599 52.4005 8.3599C52.6224 8.36938 52.8411 8.30476 53.0222 8.1762C53.2032 8.04765 53.3363 7.86249 53.4005 7.64991C53.4367 7.53001 53.4536 7.40511 53.4505 7.2799L53.4105 6.59991Z" fill="#EFEEFF"/>
<path d="M26.0207 0H11.9707V13.29H26.0207V0Z" fill="#BEA02F"/>
<path d="M92.5598 0H80.2598V13.29H92.5598V0Z" fill="#BEA02F"/>
<path d="M90.0903 0H79.3203V13.29H90.0903V0Z" fill="#D4AF3D"/>
<path d="M29.5894 77.3799H26.8794C25.7638 77.3799 24.8594 78.2843 24.8594 79.3999V88.1099C24.8594 89.2255 25.7638 90.1299 26.8794 90.1299H29.5894C30.705 90.1299 31.6094 89.2255 31.6094 88.1099V79.3999C31.6094 78.2843 30.705 77.3799 29.5894 77.3799Z" fill="#302A3D"/>
<path d="M70.3706 77.3799H67.6606C66.545 77.3799 65.6406 78.2843 65.6406 79.3999V88.1099C65.6406 89.2255 66.545 90.1299 67.6606 90.1299H70.3706C71.4862 90.1299 72.3906 89.2255 72.3906 88.1099V79.3999C72.3906 78.2843 71.4862 77.3799 70.3706 77.3799Z" fill="#302A3D"/>
<path d="M71.6094 67.79H26.6094L29.8994 57.79C30.4994 56.2032 31.5808 54.8438 32.9921 53.9024C34.4034 52.961 36.0738 52.4846 37.7694 52.54H60.4094C62.106 52.4855 63.7773 52.962 65.19 53.9032C66.6027 54.8444 67.6862 56.2032 68.2894 57.79L71.6094 67.79Z" fill="#397AF9"/>
<path d="M68.9798 69.56H29.2598L32.8198 57.92C33.0936 57.0793 33.63 56.3488 34.3501 55.8358C35.0701 55.3227 35.9358 55.0543 36.8198 55.07H61.4597C62.3437 55.0543 63.2094 55.3227 63.9294 55.8358C64.6495 56.3488 65.1859 57.0793 65.4597 57.92L68.9798 69.56Z" fill="#BEDFFF"/>
<path d="M76.1905 83.34H21.9805L22.6105 72.8701C22.6131 72.0918 22.7691 71.3217 23.0697 70.6038C23.3703 69.8859 23.8094 69.2343 24.3621 68.6863C24.9147 68.1383 25.57 67.7046 26.2904 67.4101C27.0108 67.1157 27.7822 66.9661 28.5605 66.97H69.6105C70.3887 66.9661 71.1601 67.1157 71.8806 67.4101C72.601 67.7046 73.2562 68.1383 73.8089 68.6863C74.3615 69.2343 74.8007 69.8859 75.1012 70.6038C75.4018 71.3217 75.5578 72.0918 75.5605 72.8701L76.1905 83.34Z" fill="#EE375F"/>
<path d="M76.1905 83.34H21.9805L22.6105 72.8701C22.6131 72.0918 22.7691 71.3217 23.0697 70.6038C23.3703 69.8859 23.8094 69.2343 24.3621 68.6863C24.9147 68.1383 25.57 67.7046 26.2904 67.4101C27.0108 67.1157 27.7822 66.9661 28.5605 66.97H69.6105C70.3887 66.9661 71.1601 67.1157 71.8806 67.4101C72.601 67.7046 73.2562 68.1383 73.8089 68.6863C74.3615 69.2343 74.8007 69.8859 75.1012 70.6038C75.4018 71.3217 75.5578 72.0918 75.5605 72.8701L76.1905 83.34Z" fill="#397AF9"/>
<path d="M69.6093 66.97H28.5593C27.4739 66.9729 26.4096 67.2702 25.4798 67.8302C24.55 68.3902 23.7894 69.1919 23.2793 70.15C24.9793 69.81 32.6493 68.6 35.8193 72.1C39.7093 76.4 58.0993 76.66 62.5293 72.1C65.7093 68.83 72.8993 69.75 74.8793 70.1C74.3633 69.1527 73.6016 68.3621 72.6741 67.8112C71.7467 67.2604 70.688 66.9698 69.6093 66.97Z" fill="#216BE0"/>
<path d="M26.5205 72.08C26.7393 71.7022 27.081 71.4108 27.4885 71.2543C27.8961 71.0979 28.345 71.0857 28.7604 71.22C30.2804 71.68 35.1104 73.04 35.0604 74.85C35.0104 76.66 32.7204 77.06 30.7904 76.71C28.8604 76.36 24.8005 75.35 26.5205 72.08Z" fill="#FFDFAC"/>
<path d="M71.1905 72.08C70.9735 71.703 70.6336 71.412 70.2277 71.2554C69.8218 71.0989 69.3745 71.0864 68.9605 71.22C67.4305 71.68 62.6105 73.04 62.6605 74.85C62.7105 76.66 64.9906 77.06 66.9206 76.71C68.8506 76.36 72.9205 75.35 71.1905 72.08Z" fill="#FFDFAC"/>
<path d="M75.7992 78.32H62.9991C61.7159 78.3205 60.4359 78.1898 59.1791 77.93C58.4521 77.7789 57.7117 77.7018 56.9691 77.7H41.6491C40.978 77.7012 40.3085 77.7648 39.6491 77.89L39.1692 77.99C38.0053 78.2097 36.8235 78.3202 35.6392 78.32H22.3691V77.82H35.5992C36.7499 77.8185 37.898 77.7114 39.0291 77.5L39.5192 77.4C40.2216 77.2686 40.9345 77.2016 41.6491 77.2H56.9691C57.7487 77.2001 58.5261 77.2805 59.2892 77.44C60.5098 77.692 61.7528 77.8193 62.9991 77.82H75.7992V78.32Z" fill="#216BE0"/>
<path d="M69.9297 63.2899C70.2066 63.5318 70.5619 63.6652 70.9297 63.6652C71.2974 63.6652 71.6527 63.5318 71.9297 63.2899C73.1797 62.5199 72.2597 61.9399 75.2397 61.9999C78.2197 62.0599 78.0497 63.9399 77.9597 64.7799C77.8397 65.7799 77.2797 66.9999 74.2097 66.5699C73.8594 66.5637 73.5152 66.4777 73.2032 66.3182C72.8913 66.1588 72.6198 65.9302 72.4097 65.6499C72.1597 65.2799 71.1497 64.6499 70.7397 64.9399L69.9297 63.2899Z" fill="#397AF9"/>
<path d="M28.4409 63.2899C28.1639 63.5318 27.8086 63.6652 27.4409 63.6652C27.0731 63.6652 26.7178 63.5318 26.4409 63.2899C25.1909 62.5199 26.1109 61.9399 23.1309 61.9999C20.1509 62.0599 20.3209 63.9399 20.4109 64.7799C20.5209 65.7799 21.0909 66.9999 24.1609 66.5699C24.5112 66.5637 24.8554 66.4777 25.1674 66.3182C25.4793 66.1588 25.7507 65.9302 25.9609 65.6499C26.2109 65.2799 27.2209 64.6499 27.6309 64.9399L28.4409 63.2899Z" fill="#397AF9"/>
</svg>
