<?xml version="1.0" encoding="UTF-8"?>
<svg width="1440" height="444" viewBox="0 0 1440 444" fill="none" xmlns="http://www.w3.org/2000/svg">
<rect width="1440" height="444" fill="#003366"/>
<path d="M189.378 420.788V420.676C189.26 419.203 188.563 417.836 187.442 416.874C186.32 415.912 184.864 415.432 183.39 415.538C181.838 415.505 180.327 416.036 179.136 417.031C178.415 414.889 177.016 413.041 175.15 411.766C173.284 410.491 171.054 409.86 168.797 409.967C163.402 409.967 158.955 413.419 158.281 417.882H158.024C151.378 417.882 145.999 422.49 145.999 428.173C145.999 428.542 145.999 428.895 145.999 429.249C145.185 429.368 144.413 429.69 143.755 430.183C143.096 430.676 142.571 431.326 142.227 432.074H197.486C197.783 431.234 197.935 430.349 197.935 429.457C198 425.058 194.259 421.478 189.378 420.788Z" fill="#D4AF3D"/>
<path d="M167.995 417.224C168.002 417.171 168.002 417.117 167.995 417.064C167.995 413.323 164.463 410.305 160.112 410.305C158.073 410.285 156.093 410.991 154.525 412.295C153.097 406.997 147.558 403.032 140.911 403.032C133.815 403.032 127.955 407.575 127.072 413.451H126.735C118.002 413.451 110.922 419.52 110.922 427.001C110.921 427.479 110.953 427.957 111.018 428.43C109.943 428.577 108.922 428.995 108.052 429.643C107.181 430.292 106.49 431.15 106.041 432.139H178.736C179.132 431.036 179.339 429.875 179.346 428.703C179.362 422.891 174.433 418.123 167.995 417.224Z" fill="#BEA02F"/>
<path d="M120.328 422.458C120.328 422.458 120.328 422.458 120.328 422.346C120.213 421.096 119.616 419.941 118.662 419.125C117.709 418.309 116.475 417.898 115.222 417.979C113.899 417.962 112.613 418.418 111.594 419.263C110.971 417.441 109.773 415.871 108.18 414.788C106.588 413.706 104.688 413.169 102.764 413.259C98.1565 413.259 94.3677 416.197 93.7897 420.002H93.581C87.9138 420.002 83.3222 423.935 83.3222 428.783C83.3063 429.088 83.3063 429.394 83.3222 429.698C82.6278 429.798 81.9695 430.07 81.4083 430.491C80.8471 430.912 80.4011 431.468 80.1113 432.107H127.231C127.538 431.4 127.717 430.644 127.761 429.875C127.619 427.952 126.79 426.144 125.425 424.782C124.06 423.421 122.251 422.595 120.328 422.458Z" fill="#D4AF3D"/>
<path d="M105.896 424.384V424.304C105.813 423.3 105.34 422.369 104.577 421.711C103.814 421.053 102.823 420.722 101.818 420.788C100.737 420.769 99.6861 421.146 98.8637 421.848C98.3698 420.386 97.4131 419.125 96.1385 418.256C94.8638 417.387 93.3407 416.957 91.7997 417.032C90.1574 416.941 88.536 417.435 87.2226 418.425C85.9093 419.415 84.9885 420.838 84.6234 422.442H84.4468C79.9194 422.442 76.243 425.653 76.243 429.474C76.227 429.72 76.227 429.966 76.243 430.212C75.685 430.29 75.1558 430.508 74.7041 430.845C74.2523 431.181 73.8927 431.626 73.6582 432.139H111.386C111.585 431.565 111.688 430.963 111.691 430.357C111.591 428.835 110.954 427.399 109.892 426.305C108.83 425.211 107.413 424.53 105.896 424.384Z" fill="#BEA02F"/>
<path d="M151.297 405.97C151.297 405.97 139.32 389.032 129.993 388.037C121.177 387.199 112.325 386.808 103.471 386.865C98.5259 386.865 100.163 389.129 96.3104 392.532C91.0445 397.204 81.2031 406.708 81.2031 406.708L151.297 405.97Z" fill="#EE375F"/>
<path d="M132.658 433.134C136.728 433.134 140.027 429.533 140.027 425.091C140.027 420.648 136.728 417.047 132.658 417.047C128.588 417.047 125.289 420.648 125.289 425.091C125.289 429.533 128.588 433.134 132.658 433.134Z" fill="#1D1A29"/>
<path d="M131.293 433.134C135.363 433.134 138.662 429.533 138.662 425.091C138.662 420.648 135.363 417.047 131.293 417.047C127.223 417.047 123.924 420.648 123.924 425.091C123.924 429.533 127.223 433.134 131.293 433.134Z" fill="#302A3D"/>
<path d="M131.295 427.997C132.899 427.997 134.2 426.574 134.2 424.818C134.2 423.062 132.899 421.639 131.295 421.639C129.69 421.639 128.389 423.062 128.389 424.818C128.389 426.574 129.69 427.997 131.295 427.997Z" fill="#3C364B"/>
<path d="M77.6561 433.134C81.7259 433.134 85.0251 429.533 85.0251 425.091C85.0251 420.648 81.7259 417.047 77.6561 417.047C73.5863 417.047 70.2871 420.648 70.2871 425.091C70.2871 429.533 73.5863 433.134 77.6561 433.134Z" fill="#1D1A29"/>
<path d="M76.2909 433.134C80.3606 433.134 83.6599 429.533 83.6599 425.091C83.6599 420.648 80.3606 417.047 76.2909 417.047C72.2211 417.047 68.9219 420.648 68.9219 425.091C68.9219 429.533 72.2211 433.134 76.2909 433.134Z" fill="#302A3D"/>
<path d="M76.2904 428.735C77.9307 428.735 79.2605 427.283 79.2605 425.492C79.2605 423.701 77.9307 422.249 76.2904 422.249C74.6501 422.249 73.3203 423.701 73.3203 425.492C73.3203 427.283 74.6501 428.735 76.2904 428.735Z" fill="#3C364B"/>
<path d="M61.5702 426.439C61.5702 426.439 57.6208 408.78 75.3609 407.431C86.9041 406.532 145.487 405.167 155.633 404.943C156.813 404.898 157.983 405.173 159.02 405.739C160.057 406.304 160.923 407.138 161.525 408.153C163.266 413.318 163.708 418.832 162.809 424.208L70.673 426.375L61.5702 426.439Z" fill="#D82050"/>
<path d="M129.576 405.97C129.576 405.97 119.237 389.113 110.022 387.427C104.499 386.416 93.9674 386.592 87.2084 386.929C82.4636 387.212 77.9814 389.202 74.5896 392.532C69.3077 397.204 59.4824 406.708 59.4824 406.708L129.576 405.97Z" fill="#FF5F6C"/>
<path d="M37.8572 426.439C37.8572 426.439 32.5914 408.378 50.9255 406.997C61.8586 406.179 114.469 405.392 131.423 405.007C133.028 405.007 140.028 406.275 142.035 410.722C143.142 413.21 143.479 418.38 142.42 425.717L37.8572 426.439Z" fill="#EE375F"/>
<path d="M94.8497 390.501L94.4805 390.505L94.8639 425.935L95.2331 425.931L94.8497 390.501Z" fill="#D82050"/>
<path d="M92.8588 409.036H85.2651C85.0345 409.036 84.8477 409.223 84.8477 409.454V409.759C84.8477 409.989 85.0345 410.176 85.2651 410.176H92.8588C93.0894 410.176 93.2762 409.989 93.2762 409.759V409.454C93.2762 409.223 93.0894 409.036 92.8588 409.036Z" fill="#FF9F3F"/>
<path d="M91.9758 409.036H85.2651C85.0345 409.036 84.8477 409.223 84.8477 409.454V409.759C84.8477 409.989 85.0345 410.176 85.2651 410.176H91.9758C92.2064 410.176 92.3932 409.989 92.3932 409.759V409.454C92.3932 409.223 92.2064 409.036 91.9758 409.036Z" fill="#FFB655"/>
<path d="M125.851 409.036H118.257C118.027 409.036 117.84 409.223 117.84 409.454V409.759C117.84 409.989 118.027 410.176 118.257 410.176H125.851C126.082 410.176 126.268 409.989 126.268 409.759V409.454C126.268 409.223 126.082 409.036 125.851 409.036Z" fill="#FF9F3F"/>
<path d="M143.815 426.439H37.1337L36.4434 423.164H143.815V426.439Z" fill="#88889B"/>
<path d="M162.503 426.439H143.816L142.371 423.164H163.788L162.503 426.439Z" fill="#78788A"/>
<path d="M71.9249 425.059C71.8197 422.393 70.687 419.872 68.764 418.024C66.8411 416.175 64.2773 415.143 61.6099 415.143C58.9425 415.143 56.3787 416.175 54.4558 418.024C52.5328 419.872 51.4001 422.393 51.2949 425.059C51.2949 425.428 51.2949 426.07 51.3913 426.407H71.9249C71.9409 426.247 71.9249 425.299 71.9249 425.059Z" fill="#4E4E5E"/>
<path d="M71.7643 425.187C71.7643 422.666 70.763 420.249 68.9806 418.467C67.1982 416.684 64.7808 415.683 62.2601 415.683C59.7394 415.683 57.322 416.684 55.5396 418.467C53.7572 420.249 52.7559 422.666 52.7559 425.187C52.7559 425.508 52.7559 426.118 52.7559 426.439H71.7643C71.7804 426.247 71.7643 425.38 71.7643 425.187Z" fill="#5C5C6E"/>
<path d="M63.8338 433.134C67.9036 433.134 71.2028 429.533 71.2028 425.091C71.2028 420.648 67.9036 417.047 63.8338 417.047C59.7641 417.047 56.4648 420.648 56.4648 425.091C56.4648 429.533 59.7641 433.134 63.8338 433.134Z" fill="#1D1A29"/>
<path d="M62.2909 433.134C66.3606 433.134 69.6599 429.533 69.6599 425.091C69.6599 420.648 66.3606 417.047 62.2909 417.047C58.2211 417.047 54.9219 420.648 54.9219 425.091C54.9219 429.533 58.2211 433.134 62.2909 433.134Z" fill="#302A3D"/>
<path d="M62.2916 427.981C63.7546 427.981 64.9405 426.687 64.9405 425.091C64.9405 423.495 63.7546 422.201 62.2916 422.201C60.8286 422.201 59.6426 423.495 59.6426 425.091C59.6426 426.687 60.8286 427.981 62.2916 427.981Z" fill="#3C364B"/>
<path d="M126.911 425.059C126.764 422.424 125.614 419.947 123.698 418.134C121.781 416.321 119.243 415.311 116.604 415.311C113.966 415.311 111.428 416.321 109.511 418.134C107.595 419.947 106.445 422.424 106.298 425.059C106.273 425.508 106.273 425.958 106.298 426.407H126.879C126.911 426.247 126.911 425.299 126.911 425.059Z" fill="#4E4E5E"/>
<path d="M126.879 425.171C126.607 422.824 125.482 420.66 123.717 419.088C121.953 417.517 119.673 416.649 117.311 416.649C114.948 416.649 112.668 417.517 110.904 419.088C109.14 420.66 108.015 422.824 107.742 425.171C107.742 425.508 107.742 426.118 107.742 426.439H126.847C126.879 426.247 126.879 425.364 126.879 425.171Z" fill="#5C5C6E"/>
<path d="M118.82 433.134C122.89 433.134 126.189 429.533 126.189 425.091C126.189 420.648 122.89 417.047 118.82 417.047C114.75 417.047 111.451 420.648 111.451 425.091C111.451 429.533 114.75 433.134 118.82 433.134Z" fill="#1D1A29"/>
<path d="M117.279 433.134C121.349 433.134 124.648 429.533 124.648 425.091C124.648 420.648 121.349 417.047 117.279 417.047C113.209 417.047 109.91 420.648 109.91 425.091C109.91 429.533 113.209 433.134 117.279 433.134Z" fill="#302A3D"/>
<path d="M117.278 427.981C118.741 427.981 119.927 426.687 119.927 425.091C119.927 423.495 118.741 422.201 117.278 422.201C115.815 422.201 114.629 423.495 114.629 425.091C114.629 426.687 115.815 427.981 117.278 427.981Z" fill="#3C364B"/>
<path d="M49.6247 423.18H49.2715C49.2715 423.068 50.3953 412.713 62.115 412.713C67.124 412.713 73.1605 415.458 73.6421 423.18H73.2889C72.8073 415.731 66.9635 413.066 62.0508 413.066C50.7003 413.05 49.6407 423.068 49.6247 423.18Z" fill="#D82050"/>
<path d="M104.611 423.18H104.258C104.258 423.068 105.382 412.713 117.101 412.713C122.094 412.713 128.083 415.474 128.58 423.18H128.211C127.745 415.731 121.934 413.066 117.101 413.066C105.719 413.05 104.659 422.763 104.611 423.18Z" fill="#D82050"/>
<path d="M42.497 410.818H38.4833C37.7385 410.818 37.1348 411.422 37.1348 412.167V413.21C37.1348 413.955 37.7385 414.559 38.4833 414.559H42.497C43.2417 414.559 43.8455 413.955 43.8455 413.21V412.167C43.8455 411.422 43.2417 410.818 42.497 410.818Z" fill="#FFDFAC"/>
<path d="M145.695 423.18C145.695 423.18 145.695 415.33 153.08 415.33C158.988 415.33 160.048 419.905 160.289 423.18H145.695Z" fill="#EE375F"/>
<path d="M67.4766 403.931C67.4766 403.931 77.5427 390.317 84.5103 389.803C86.6937 389.627 93.2761 389.675 93.2761 389.675V403.305L67.4766 403.931Z" fill="#BEDFFF"/>
<path d="M68.9219 403.931C68.9219 403.931 79.871 390.317 86.4533 389.803C88.5083 389.627 93.2765 389.675 93.2765 389.675V403.305L68.9219 403.931Z" fill="#E4EEFF"/>
<path d="M123.025 403.177C123.025 403.177 112.172 390.172 104.546 389.819C96.9206 389.466 96.3105 389.9 96.3105 389.9V403.305L123.025 403.177Z" fill="#BEDFFF"/>
<path d="M123.027 403.177C123.027 403.177 112.671 390.172 105.367 389.819C98.0619 389.466 97.5 389.9 97.5 389.9V403.305L123.027 403.177Z" fill="#E4EEFF"/>
<path d="M62.4037 406.5H61.9863V412.697H62.4037V406.5Z" fill="#D82050"/>
<path d="M116.636 405.28H116.219V413.066H116.636V405.28Z" fill="#D82050"/>
<path d="M161.303 407.508L138.51 407.954L138.518 408.371L161.311 407.926L161.303 407.508Z" fill="#EE375F"/>
<path d="M142.468 409.133H138.454C137.709 409.133 137.105 409.736 137.105 410.481V411.525C137.105 412.269 137.709 412.873 138.454 412.873H142.468C143.212 412.873 143.816 412.269 143.816 411.525V410.481C143.816 409.736 143.212 409.133 142.468 409.133Z" fill="#FFDFAC"/>
<path d="M163.114 409.133H159.101C158.356 409.133 157.752 409.736 157.752 410.481V411.525C157.752 412.269 158.356 412.873 159.101 412.873H163.114C163.859 412.873 164.463 412.269 164.463 411.525V410.481C164.463 409.736 163.859 409.133 163.114 409.133Z" fill="#FFDFAC"/>
<path d="M130.667 404.188L146.721 403.642C146.721 403.642 139.786 393.528 132.272 389.867L117.342 389.659C122.555 393.733 127.058 398.642 130.667 404.188Z" fill="#BEDFFF"/>
<path d="M130.668 404.188L145.695 403.674C145.695 403.674 138.84 393.528 131.246 389.851L117.295 389.659C122.525 393.729 127.045 398.639 130.668 404.188Z" fill="#E4EEFF"/>
<path d="M76.4519 344.032H18.8164V433.985H76.4519V344.032Z" fill="#BEDFFF"/>
<path d="M80.6257 426.439H15.541V433.969H80.6257V426.439Z" fill="#BEDFFF"/>
<path d="M76.4519 392.468H18.8164V426.423H76.4519V392.468Z" fill="#6A85BE"/>
<path d="M80.6259 337H14V345.718H80.6259V337Z" fill="#6A85BE"/>
<path d="M80.5304 344.032H37.4082V433.985H80.5304V344.032Z" fill="#E4EEFF"/>
<path d="M85.8764 426.439H33.9082V433.969H85.8764V426.439Z" fill="#E4EEFF"/>
<path d="M75.9051 348.527H42.9453V389H75.9051V348.527Z" fill="#1D1A29"/>
<path d="M74.6705 348.527H41.791V389H74.6705V348.527Z" fill="#302A3D"/>
<path d="M80.5304 392.468H37.4082V426.423H80.5304V392.468Z" fill="#87A1D5"/>
<path d="M85.8916 337H19.2656V345.718H85.8916V337Z" fill="#87A1D5"/>
<path d="M76.4513 394.844H41.1797V424.352H76.4513V394.844Z" fill="#6A85BE"/>
<path d="M52.7557 389H43.9258L50.4439 348.511H59.2578L52.7557 389Z" fill="#3C364B"/>
<path d="M60.1561 389H55.0508L61.5689 348.511H66.6742L60.1561 389Z" fill="#3C364B"/>
<path d="M66.3854 389H64.9727L71.4908 348.511H72.9036L66.3854 389Z" fill="#3C364B"/>
<path d="M78.298 387.09H39.7031V390.911H78.298V387.09Z" fill="#6A85BE"/>
<path d="M78.2975 387.09H41.6934V390.911H78.2975V387.09Z" fill="#87A1D5"/>
<path d="M181.786 348.383H161.012C158.352 348.383 156.195 350.539 156.195 353.199V373.973C156.195 376.633 158.352 378.79 161.012 378.79H181.786C184.446 378.79 186.602 376.633 186.602 373.973V353.199C186.602 350.539 184.446 348.383 181.786 348.383Z" fill="#6A85BE"/>
<path d="M171.429 372.111H170.129V432.588H171.429V372.111Z" fill="#BEDFFF"/>
<path d="M172.168 372.111H170.867V432.588H172.168V372.111Z" fill="#E4EEFF"/>
<path d="M178.413 431.208H164.35V433.022H178.413V431.208Z" fill="#BEDFFF"/>
<path d="M178.413 431.208H167.432V433.022H178.413V431.208Z" fill="#E4EEFF"/>
<path d="M183.165 348.383H162.391C159.731 348.383 157.574 350.539 157.574 353.199V373.973C157.574 376.633 159.731 378.79 162.391 378.79H183.165C185.825 378.79 187.981 376.633 187.981 373.973V353.199C187.981 350.539 185.825 348.383 183.165 348.383Z" fill="#87A1D5"/>
<path d="M168.267 354.981C169.683 354.743 171.117 354.63 172.553 354.644C174.281 354.521 175.995 355.035 177.37 356.089C177.876 356.543 178.276 357.104 178.539 357.732C178.803 358.359 178.924 359.037 178.895 359.717C178.956 361.08 178.477 362.413 177.562 363.426C176.849 364.081 176.01 364.586 175.098 364.912C174.185 365.237 173.216 365.376 172.248 365.32C171.645 365.345 171.04 365.291 170.45 365.159V372.079H168.219L168.267 354.981ZM170.498 363.345C171.11 363.481 171.735 363.54 172.361 363.522C175.058 363.522 176.695 362.205 176.695 359.813C176.695 357.421 175.09 356.41 172.602 356.41C171.895 356.388 171.189 356.453 170.498 356.602V363.345Z" fill="#EFEEFF"/>
</svg>
